%TF.GenerationSoftware,KiCad,Pcbnew,9.0.7*%
%TF.CreationDate,2026-03-15T16:06:22-04:00*%
%TF.ProjectId,Slipring Board,536c6970-7269-46e6-9720-426f6172642e,rev?*%
%TF.SameCoordinates,Original*%
%TF.FileFunction,Copper,L2,Bot*%
%TF.FilePolarity,Positive*%
%FSLAX46Y46*%
G04 Gerber Fmt 4.6, Leading zero omitted, Abs format (unit mm)*
G04 Created by KiCad (PCBNEW 9.0.7) date 2026-03-15 16:06:22*
%MOMM*%
%LPD*%
G01*
G04 APERTURE LIST*
G04 Aperture macros list*
%AMRoundRect*
0 Rectangle with rounded corners*
0 $1 Rounding radius*
0 $2 $3 $4 $5 $6 $7 $8 $9 X,Y pos of 4 corners*
0 Add a 4 corners polygon primitive as box body*
4,1,4,$2,$3,$4,$5,$6,$7,$8,$9,$2,$3,0*
0 Add four circle primitives for the rounded corners*
1,1,$1+$1,$2,$3*
1,1,$1+$1,$4,$5*
1,1,$1+$1,$6,$7*
1,1,$1+$1,$8,$9*
0 Add four rect primitives between the rounded corners*
20,1,$1+$1,$2,$3,$4,$5,0*
20,1,$1+$1,$4,$5,$6,$7,0*
20,1,$1+$1,$6,$7,$8,$9,0*
20,1,$1+$1,$8,$9,$2,$3,0*%
G04 Aperture macros list end*
%TA.AperFunction,Conductor*%
%ADD10C,0.200000*%
%TD*%
%TA.AperFunction,ComponentPad*%
%ADD11C,6.400000*%
%TD*%
%TA.AperFunction,ComponentPad*%
%ADD12R,1.700000X1.700000*%
%TD*%
%TA.AperFunction,ComponentPad*%
%ADD13C,1.700000*%
%TD*%
%TA.AperFunction,ComponentPad*%
%ADD14R,2.550000X2.550000*%
%TD*%
%TA.AperFunction,ComponentPad*%
%ADD15C,2.550000*%
%TD*%
%TA.AperFunction,ComponentPad*%
%ADD16C,1.508000*%
%TD*%
%TA.AperFunction,ComponentPad*%
%ADD17R,1.308000X1.308000*%
%TD*%
%TA.AperFunction,ComponentPad*%
%ADD18C,1.308000*%
%TD*%
%TA.AperFunction,ComponentPad*%
%ADD19R,1.650000X1.650000*%
%TD*%
%TA.AperFunction,ComponentPad*%
%ADD20C,1.650000*%
%TD*%
%TA.AperFunction,ComponentPad*%
%ADD21C,4.016000*%
%TD*%
%TA.AperFunction,ComponentPad*%
%ADD22RoundRect,2.400000X-0.600000X0.600000X-0.600000X-0.600000X0.600000X-0.600000X0.600000X0.600000X0*%
%TD*%
%TA.AperFunction,ComponentPad*%
%ADD23RoundRect,2.400000X-0.600000X-0.600000X0.600000X-0.600000X0.600000X0.600000X-0.600000X0.600000X0*%
%TD*%
%TA.AperFunction,ComponentPad*%
%ADD24C,6.000000*%
%TD*%
%TA.AperFunction,ViaPad*%
%ADD25C,0.600000*%
%TD*%
%TA.AperFunction,Conductor*%
%ADD26C,1.000000*%
%TD*%
%TA.AperFunction,Conductor*%
%ADD27C,2.000000*%
%TD*%
G04 APERTURE END LIST*
D10*
%TO.N,/Pitch GND*%
X63564233Y-43654741D02*
X63609233Y-43699741D01*
X63609233Y-46279741D01*
X58800710Y-44661489D01*
X58799233Y-44660012D01*
X58799233Y-42919741D01*
X60029233Y-41689741D01*
X63564233Y-43654741D01*
%TA.AperFunction,Conductor*%
G36*
X63564233Y-43654741D02*
G01*
X63609233Y-43699741D01*
X63609233Y-46279741D01*
X58800710Y-44661489D01*
X58799233Y-44660012D01*
X58799233Y-42919741D01*
X60029233Y-41689741D01*
X63564233Y-43654741D01*
G37*
%TD.AperFunction*%
%TD*%
D11*
%TO.P,REF\u002A\u002A,1*%
%TO.N,N/C*%
X85000000Y-60000000D03*
%TD*%
D12*
%TO.P,J8,1,Pin_1*%
%TO.N,/Shooter GND*%
X63725000Y-18415000D03*
D13*
%TO.P,J8,2,Pin_2*%
%TO.N,/I2C GND*%
X66265000Y-18415000D03*
%TO.P,J8,3,Pin_3*%
%TO.N,/Shooter GND*%
X63725000Y-20955000D03*
%TO.P,J8,4,Pin_4*%
%TO.N,/I2C Data*%
X66265000Y-20955000D03*
%TO.P,J8,5,Pin_5*%
%TO.N,/Shooter GND*%
X63725000Y-23495000D03*
%TO.P,J8,6,Pin_6*%
%TO.N,/I2C Clock*%
X66265000Y-23495000D03*
%TO.P,J8,7,Pin_7*%
%TO.N,/Shooter GND*%
X63725000Y-26035000D03*
%TO.P,J8,8,Pin_8*%
%TO.N,/UART 1 rx*%
X66265000Y-26035000D03*
%TO.P,J8,9,Pin_9*%
%TO.N,/Shooter GND*%
X63725000Y-28575000D03*
%TO.P,J8,10,Pin_10*%
%TO.N,/UART 1 tx*%
X66265000Y-28575000D03*
%TO.P,J8,11,Pin_11*%
%TO.N,Net-(J8-Pin_11)*%
X63725000Y-31115000D03*
%TO.P,J8,12,Pin_12*%
X66265000Y-31115000D03*
%TO.P,J8,13,Pin_13*%
X63725000Y-33655000D03*
%TO.P,J8,14,Pin_14*%
X66265000Y-33655000D03*
%TO.P,J8,15,Pin_15*%
X63725000Y-36195000D03*
%TO.P,J8,16,Pin_16*%
%TO.N,/REF {slash} UART GND*%
X66265000Y-36195000D03*
%TO.P,J8,17,Pin_17*%
%TO.N,Net-(J8-Pin_17)*%
X63725000Y-38735000D03*
%TO.P,J8,18,Pin_18*%
%TO.N,/Ref +*%
X66265000Y-38735000D03*
%TO.P,J8,19,Pin_19*%
%TO.N,Net-(J8-Pin_17)*%
X63725000Y-41275000D03*
%TO.P,J8,20,Pin_20*%
%TO.N,/Ref Data A*%
X66265000Y-41275000D03*
%TO.P,J8,21,Pin_21*%
%TO.N,/Pitch GND*%
X63725000Y-43815000D03*
%TO.P,J8,22,Pin_22*%
%TO.N,/Ref Data B*%
X66265000Y-43815000D03*
%TO.P,J8,23,Pin_23*%
%TO.N,/Pitch GND*%
X63725000Y-46355000D03*
%TO.P,J8,24,Pin_24*%
%TO.N,Net-(J8-Pin_24)*%
X66265000Y-46355000D03*
%TO.P,J8,25,Pin_25*%
%TO.N,Net-(J8-Pin_25)*%
X63725000Y-48895000D03*
%TO.P,J8,26,Pin_26*%
%TO.N,Net-(J8-Pin_26)*%
X66265000Y-48895000D03*
%TO.P,J8,27,Pin_27*%
%TO.N,Net-(J8-Pin_25)*%
X63725000Y-51435000D03*
%TO.P,J8,28,Pin_28*%
%TO.N,Net-(J8-Pin_28)*%
X66265000Y-51435000D03*
%TO.P,J8,29,Pin_29*%
%TO.N,Net-(J8-Pin_25)*%
X63725000Y-53975000D03*
%TO.P,J8,30,Pin_30*%
%TO.N,Net-(J8-Pin_30)*%
X66265000Y-53975000D03*
%TO.P,J8,31,Pin_31*%
%TO.N,/Mini PC GND*%
X63725000Y-56515000D03*
%TO.P,J8,32,Pin_32*%
%TO.N,Net-(J8-Pin_32)*%
X66265000Y-56515000D03*
%TO.P,J8,33,Pin_33*%
%TO.N,/Mini PC GND*%
X63725000Y-59055000D03*
%TO.P,J8,34,Pin_34*%
%TO.N,/CAN Low*%
X66265000Y-59055000D03*
%TO.P,J8,35,Pin_35*%
%TO.N,/Mini PC GND*%
X63725000Y-61595000D03*
%TO.P,J8,36,Pin_36*%
%TO.N,/CAN High*%
X66265000Y-61595000D03*
%TD*%
D14*
%TO.P,J2,1,Pin_1*%
%TO.N,/Pitch +24*%
X22000000Y-37500000D03*
D15*
%TO.P,J2,2,Pin_2*%
%TO.N,/Pitch GND*%
X22000000Y-42500000D03*
D16*
%TO.P,J2,S1*%
%TO.N,N/C*%
X17000000Y-34500000D03*
%TO.P,J2,S2*%
X17000000Y-45500000D03*
%TD*%
D17*
%TO.P,J7,1,Pin_1*%
%TO.N,/I2C Clock*%
X77000000Y-18550000D03*
D18*
%TO.P,J7,2,Pin_2*%
%TO.N,/I2C GND*%
X75000000Y-18550000D03*
%TO.P,J7,3,Pin_3*%
%TO.N,/I2C Data*%
X73000000Y-18550000D03*
%TO.P,J7,4,Pin_4*%
%TO.N,/I2C GND*%
X71000000Y-18550000D03*
%TD*%
D11*
%TO.P,REF\u002A\u002A,1*%
%TO.N,N/C*%
X85000000Y-20000000D03*
%TD*%
D14*
%TO.P,J3,1,Pin_1*%
%TO.N,/Mini PC +24*%
X40500000Y-57000000D03*
D15*
%TO.P,J3,2,Pin_2*%
%TO.N,/Mini PC GND*%
X45500000Y-57000000D03*
D16*
%TO.P,J3,S1*%
%TO.N,N/C*%
X37500000Y-62000000D03*
%TO.P,J3,S2*%
X48500000Y-62000000D03*
%TD*%
D12*
%TO.P,J9,1,Pin_1*%
%TO.N,Net-(J8-Pin_32)*%
X77000000Y-56580000D03*
D13*
%TO.P,J9,2,Pin_2*%
%TO.N,Net-(J8-Pin_30)*%
X77000000Y-54040000D03*
%TO.P,J9,3,Pin_3*%
%TO.N,Net-(J8-Pin_28)*%
X77000000Y-51500000D03*
%TO.P,J9,4,Pin_4*%
%TO.N,Net-(J8-Pin_26)*%
X77000000Y-48960000D03*
%TO.P,J9,5,Pin_5*%
%TO.N,Net-(J8-Pin_24)*%
X77000000Y-46420000D03*
%TD*%
D11*
%TO.P,REF\u002A\u002A,1*%
%TO.N,N/C*%
X20000000Y-20000000D03*
%TD*%
%TO.P,REF\u002A\u002A,1*%
%TO.N,N/C*%
X20000000Y-60000000D03*
%TD*%
D19*
%TO.P,J5,1,Pin_1*%
%TO.N,/REF {slash} UART GND*%
X85590000Y-38300000D03*
D20*
%TO.P,J5,2,Pin_2*%
%TO.N,/Ref +*%
X83640000Y-38925000D03*
%TO.P,J5,3,Pin_3*%
%TO.N,/Ref Data B*%
X85590000Y-41700000D03*
%TO.P,J5,4,Pin_4*%
%TO.N,/Ref Data A*%
X83640000Y-41075000D03*
D21*
%TO.P,J5,G1*%
%TO.N,N/C*%
X85090000Y-33750000D03*
%TO.P,J5,G2*%
X85090000Y-46250000D03*
%TD*%
D14*
%TO.P,J1,1,Pin_1*%
%TO.N,/Shooter +24V*%
X40654868Y-23012402D03*
D15*
%TO.P,J1,2,Pin_2*%
%TO.N,/Shooter GND*%
X45654868Y-23012402D03*
D16*
%TO.P,J1,S1*%
%TO.N,N/C*%
X37654868Y-18012402D03*
%TO.P,J1,S2*%
X48654868Y-18012402D03*
%TD*%
D22*
%TO.P,F1,1*%
%TO.N,/Shooter +24V*%
X28317500Y-29000000D03*
D23*
X36717500Y-29000000D03*
D24*
%TO.P,F1,2*%
%TO.N,Net-(J8-Pin_11)*%
X49417500Y-29000000D03*
X57817500Y-29000000D03*
%TD*%
D22*
%TO.P,F3,1*%
%TO.N,/Mini PC +24*%
X28317500Y-51000000D03*
D23*
X36717500Y-51000000D03*
D24*
%TO.P,F3,2*%
%TO.N,Net-(J8-Pin_25)*%
X49417500Y-51000000D03*
X57817500Y-51000000D03*
%TD*%
D22*
%TO.P,F2,1*%
%TO.N,/Pitch +24*%
X28317500Y-36000000D03*
D23*
X36717500Y-36000000D03*
D24*
%TO.P,F2,2*%
%TO.N,Net-(J8-Pin_17)*%
X49417500Y-36000000D03*
X57817500Y-36000000D03*
%TD*%
D25*
%TO.N,/CAN High*%
X72973700Y-61595000D03*
X73544350Y-61024350D03*
%TO.N,/CAN Low*%
X75390000Y-58890000D03*
X74800000Y-58300000D03*
%TO.N,/REF {slash} UART GND*%
X76845600Y-26264400D03*
X76060000Y-25750000D03*
%TO.N,/UART 1 rx*%
X73750000Y-27000000D03*
X73010000Y-27000000D03*
%TO.N,/UART 1 tx*%
X73750000Y-28250000D03*
X73010000Y-28250000D03*
%TD*%
D26*
%TO.N,/CAN High*%
X66265000Y-61595000D02*
X72973700Y-61595000D01*
X72973700Y-61595000D02*
X74375000Y-60193700D01*
%TO.N,/CAN Low*%
X67115000Y-58205000D02*
X74705000Y-58205000D01*
X66265000Y-59055000D02*
X67115000Y-58205000D01*
X75625000Y-59125000D02*
X75625000Y-60193700D01*
X74705000Y-58205000D02*
X75625000Y-59125000D01*
%TO.N,/Ref +*%
X66265000Y-38735000D02*
X83450000Y-38735000D01*
X83450000Y-38735000D02*
X83640000Y-38925000D01*
%TO.N,/Ref Data A*%
X66265000Y-41275000D02*
X83440000Y-41275000D01*
X83440000Y-41275000D02*
X83640000Y-41075000D01*
%TO.N,/Ref Data B*%
X66265000Y-43815000D02*
X83475000Y-43815000D01*
X83475000Y-43815000D02*
X85590000Y-41700000D01*
%TO.N,/REF {slash} UART GND*%
X75023500Y-25750000D02*
X76331200Y-25750000D01*
X83485000Y-36195000D02*
X85590000Y-38300000D01*
X69284099Y-36195000D02*
X68500000Y-36195000D01*
X85166000Y-38300000D02*
X85590000Y-38300000D01*
X66265000Y-36195000D02*
X83485000Y-36195000D01*
X77080000Y-26498800D02*
X77080000Y-28399099D01*
X85166000Y-38292910D02*
X85166000Y-38300000D01*
X77080000Y-28399099D02*
X69284099Y-36195000D01*
X76331200Y-25750000D02*
X77080000Y-26498800D01*
%TO.N,/UART 1 rx*%
X75023500Y-27000000D02*
X67230000Y-27000000D01*
X67230000Y-27000000D02*
X66265000Y-26035000D01*
%TO.N,/UART 1 tx*%
X66590000Y-28250000D02*
X66265000Y-28575000D01*
X75023500Y-28250000D02*
X66590000Y-28250000D01*
%TO.N,/I2C Clock*%
X72055000Y-23495000D02*
X77000000Y-18550000D01*
X66265000Y-23495000D02*
X72055000Y-23495000D01*
%TO.N,/I2C GND*%
X71720000Y-17195000D02*
X73645000Y-17195000D01*
X70865000Y-18415000D02*
X71000000Y-18550000D01*
X66265000Y-18415000D02*
X70500000Y-18415000D01*
X70500000Y-18415000D02*
X71720000Y-17195000D01*
X66265000Y-18415000D02*
X70865000Y-18415000D01*
X73645000Y-17195000D02*
X75000000Y-18550000D01*
%TO.N,/I2C Data*%
X66265000Y-20955000D02*
X70595000Y-20955000D01*
X70595000Y-20955000D02*
X73000000Y-18550000D01*
D27*
%TO.N,/Shooter +24V*%
X34667270Y-29000000D02*
X40654868Y-23012402D01*
X28317500Y-29000000D02*
X34667270Y-29000000D01*
%TO.N,/Mini PC GND*%
X62155000Y-56515000D02*
X61670000Y-57000000D01*
X45500000Y-57000000D02*
X61670000Y-57000000D01*
X63725000Y-56515000D02*
X62155000Y-56515000D01*
X61670000Y-57000000D02*
X63725000Y-59055000D01*
X63725000Y-56515000D02*
X63725000Y-61595000D01*
%TO.N,/Mini PC +24*%
X28317500Y-51000000D02*
X34500000Y-51000000D01*
X34500000Y-51000000D02*
X40500000Y-57000000D01*
%TO.N,/Pitch GND*%
X22000000Y-42500000D02*
X23315000Y-43815000D01*
X23315000Y-43815000D02*
X63725000Y-43815000D01*
X63725000Y-43815000D02*
X63725000Y-46355000D01*
X59870000Y-42500000D02*
X63725000Y-46355000D01*
X22000000Y-42500000D02*
X59870000Y-42500000D01*
%TO.N,/Shooter GND*%
X62150196Y-23495000D02*
X61667598Y-23012402D01*
X63725000Y-20955000D02*
X61667598Y-23012402D01*
X63725000Y-18415000D02*
X63725000Y-28575000D01*
X63725000Y-23495000D02*
X62150196Y-23495000D01*
X61667598Y-23012402D02*
X60702402Y-23012402D01*
X45654868Y-23012402D02*
X60702402Y-23012402D01*
X63725000Y-26035000D02*
X60702402Y-23012402D01*
D26*
%TO.N,Net-(J8-Pin_30)*%
X66265000Y-53975000D02*
X76935000Y-53975000D01*
X76935000Y-53975000D02*
X77000000Y-54040000D01*
D27*
%TO.N,/Pitch +24*%
X36717500Y-36000000D02*
X23500000Y-36000000D01*
X23500000Y-36000000D02*
X22000000Y-37500000D01*
D26*
%TO.N,Net-(J8-Pin_32)*%
X66265000Y-56515000D02*
X76935000Y-56515000D01*
X76935000Y-56515000D02*
X77000000Y-56580000D01*
%TO.N,Net-(J8-Pin_28)*%
X76935000Y-51435000D02*
X77000000Y-51500000D01*
X66265000Y-51435000D02*
X76935000Y-51435000D01*
D27*
%TO.N,Net-(J8-Pin_11)*%
X63725000Y-36195000D02*
X63725000Y-34992919D01*
X59500000Y-29000000D02*
X61615000Y-31115000D01*
X61615000Y-31545000D02*
X61615000Y-31115000D01*
X65062919Y-33655000D02*
X66265000Y-33655000D01*
X63725000Y-36195000D02*
X63725000Y-31115000D01*
X63725000Y-36195000D02*
X63725000Y-34907500D01*
X63725000Y-34992919D02*
X65062919Y-33655000D01*
X66265000Y-33655000D02*
X66265000Y-31115000D01*
X49417500Y-29000000D02*
X59500000Y-29000000D01*
X63725000Y-33655000D02*
X61615000Y-31545000D01*
X66265000Y-31115000D02*
X63725000Y-33655000D01*
X61615000Y-31115000D02*
X66265000Y-31115000D01*
X63725000Y-34907500D02*
X57817500Y-29000000D01*
%TO.N,Net-(J8-Pin_17)*%
X63725000Y-38735000D02*
X63725000Y-41275000D01*
X60552500Y-38735000D02*
X57817500Y-36000000D01*
X57817500Y-36000000D02*
X58450000Y-36000000D01*
X62860000Y-38680000D02*
X59865000Y-35685000D01*
X49417500Y-36000000D02*
X57817500Y-36000000D01*
X63725000Y-38735000D02*
X60552500Y-38735000D01*
X58450000Y-36000000D02*
X63725000Y-41275000D01*
%TO.N,Net-(J8-Pin_25)*%
X63725000Y-53275000D02*
X63500000Y-53500000D01*
X63725000Y-48895000D02*
X63725000Y-53275000D01*
X63725000Y-53275000D02*
X63725000Y-51435000D01*
X60750000Y-51000000D02*
X61620000Y-51000000D01*
X63290000Y-51000000D02*
X63725000Y-51435000D01*
X61620000Y-51000000D02*
X63725000Y-48895000D01*
X63725000Y-53975000D02*
X60750000Y-51000000D01*
X49417500Y-51000000D02*
X63290000Y-51000000D01*
D26*
%TO.N,Net-(J8-Pin_26)*%
X76935000Y-48895000D02*
X77000000Y-48960000D01*
X66265000Y-48895000D02*
X76935000Y-48895000D01*
%TO.N,Net-(J8-Pin_24)*%
X66265000Y-46355000D02*
X76935000Y-46355000D01*
X76935000Y-46355000D02*
X77000000Y-46420000D01*
%TD*%
M02*
