M48
; DRILL file {KiCad 9.0.7} date 2026-03-15T16:06:26-0400
; FORMAT={-:-/ absolute / metric / decimal}
; #@! TF.CreationDate,2026-03-15T16:06:26-04:00
; #@! TF.GenerationSoftware,Kicad,Pcbnew,9.0.7
; #@! TF.FileFunction,Plated,1,2,PTH
FMAT,2
METRIC
; #@! TA.AperFunction,Plated,PTH,ViaDrill
T1C0.300
; #@! TA.AperFunction,Plated,PTH,ComponentDrill
T2C0.800
; #@! TA.AperFunction,Plated,PTH,ComponentDrill
T3C1.000
; #@! TA.AperFunction,Plated,PTH,ComponentDrill
T4C1.300
; #@! TA.AperFunction,Plated,PTH,ComponentDrill
T5C1.700
; #@! TA.AperFunction,Plated,PTH,ComponentDrill
T6C3.000
; #@! TA.AperFunction,Plated,PTH,ComponentDrill
T7C3.200
; #@! TA.AperFunction,Plated,PTH,ComponentDrill
T8C3.900
%
G90
G05
T1
X72.974Y-61.595
X73.01Y-27.0
X73.01Y-28.25
X73.544Y-61.024
X73.75Y-27.0
X73.75Y-28.25
X74.8Y-58.3
X75.39Y-58.89
X76.06Y-25.75
X76.846Y-26.264
T2
X71.0Y-18.55
X73.0Y-18.55
X75.0Y-18.55
X77.0Y-18.55
T3
X17.0Y-34.5
X17.0Y-45.5
X37.5Y-62.0
X37.655Y-18.012
X48.5Y-62.0
X48.655Y-18.012
X63.725Y-18.415
X63.725Y-20.955
X63.725Y-23.495
X63.725Y-26.035
X63.725Y-28.575
X63.725Y-31.115
X63.725Y-33.655
X63.725Y-36.195
X63.725Y-38.735
X63.725Y-41.275
X63.725Y-43.815
X63.725Y-46.355
X63.725Y-48.895
X63.725Y-51.435
X63.725Y-53.975
X63.725Y-56.515
X63.725Y-59.055
X63.725Y-61.595
X66.265Y-18.415
X66.265Y-20.955
X66.265Y-23.495
X66.265Y-26.035
X66.265Y-28.575
X66.265Y-31.115
X66.265Y-33.655
X66.265Y-36.195
X66.265Y-38.735
X66.265Y-41.275
X66.265Y-43.815
X66.265Y-46.355
X66.265Y-48.895
X66.265Y-51.435
X66.265Y-53.975
X66.265Y-56.515
X66.265Y-59.055
X66.265Y-61.595
X77.0Y-46.42
X77.0Y-48.96
X77.0Y-51.5
X77.0Y-54.04
X77.0Y-56.58
T4
X83.64Y-38.925
X83.64Y-41.075
X85.59Y-38.3
X85.59Y-41.7
T5
X22.0Y-37.5
X22.0Y-42.5
X40.5Y-57.0
X40.655Y-23.012
X45.5Y-57.0
X45.655Y-23.012
T6
X85.09Y-33.75
X85.09Y-46.25
T7
X20.0Y-20.0
X20.0Y-60.0
X85.0Y-20.0
X85.0Y-60.0
T8
X28.317Y-29.0
X28.317Y-36.0
X28.317Y-51.0
X36.718Y-29.0
X36.718Y-36.0
X36.718Y-51.0
X49.417Y-29.0
X49.417Y-36.0
X49.417Y-51.0
X57.817Y-29.0
X57.817Y-36.0
X57.817Y-51.0
M30
