%TF.GenerationSoftware,KiCad,Pcbnew,9.0.7*%
%TF.CreationDate,2026-05-14T13:28:51-04:00*%
%TF.ProjectId,Control Board V3,436f6e74-726f-46c2-9042-6f6172642056,rev?*%
%TF.SameCoordinates,Original*%
%TF.FileFunction,Soldermask,Top*%
%TF.FilePolarity,Negative*%
%FSLAX46Y46*%
G04 Gerber Fmt 4.6, Leading zero omitted, Abs format (unit mm)*
G04 Created by KiCad (PCBNEW 9.0.7) date 2026-05-14 13:28:51*
%MOMM*%
%LPD*%
G01*
G04 APERTURE LIST*
G04 Aperture macros list*
%AMRoundRect*
0 Rectangle with rounded corners*
0 $1 Rounding radius*
0 $2 $3 $4 $5 $6 $7 $8 $9 X,Y pos of 4 corners*
0 Add a 4 corners polygon primitive as box body*
4,1,4,$2,$3,$4,$5,$6,$7,$8,$9,$2,$3,0*
0 Add four circle primitives for the rounded corners*
1,1,$1+$1,$2,$3*
1,1,$1+$1,$4,$5*
1,1,$1+$1,$6,$7*
1,1,$1+$1,$8,$9*
0 Add four rect primitives between the rounded corners*
20,1,$1+$1,$2,$3,$4,$5,0*
20,1,$1+$1,$4,$5,$6,$7,0*
20,1,$1+$1,$6,$7,$8,$9,0*
20,1,$1+$1,$8,$9,$2,$3,0*%
%AMFreePoly0*
4,1,37,0.603843,0.796157,0.639018,0.796157,0.711114,0.766294,0.766294,0.711114,0.796157,0.639018,0.796157,0.603843,0.800000,0.600000,0.800000,-0.600000,0.796157,-0.603843,0.796157,-0.639018,0.766294,-0.711114,0.711114,-0.766294,0.639018,-0.796157,0.603843,-0.796157,0.600000,-0.800000,0.000000,-0.800000,0.000000,-0.796148,-0.078414,-0.796148,-0.232228,-0.765552,-0.377117,-0.705537,
-0.507515,-0.618408,-0.618408,-0.507515,-0.705537,-0.377117,-0.765552,-0.232228,-0.796148,-0.078414,-0.796148,0.078414,-0.765552,0.232228,-0.705537,0.377117,-0.618408,0.507515,-0.507515,0.618408,-0.377117,0.705537,-0.232228,0.765552,-0.078414,0.796148,0.000000,0.796148,0.000000,0.800000,0.600000,0.800000,0.603843,0.796157,0.603843,0.796157,$1*%
%AMFreePoly1*
4,1,37,0.000000,0.796148,0.078414,0.796148,0.232228,0.765552,0.377117,0.705537,0.507515,0.618408,0.618408,0.507515,0.705537,0.377117,0.765552,0.232228,0.796148,0.078414,0.796148,-0.078414,0.765552,-0.232228,0.705537,-0.377117,0.618408,-0.507515,0.507515,-0.618408,0.377117,-0.705537,0.232228,-0.765552,0.078414,-0.796148,0.000000,-0.796148,0.000000,-0.800000,-0.600000,-0.800000,
-0.603843,-0.796157,-0.639018,-0.796157,-0.711114,-0.766294,-0.766294,-0.711114,-0.796157,-0.639018,-0.796157,-0.603843,-0.800000,-0.600000,-0.800000,0.600000,-0.796157,0.603843,-0.796157,0.639018,-0.766294,0.711114,-0.711114,0.766294,-0.639018,0.796157,-0.603843,0.796157,-0.600000,0.800000,0.000000,0.800000,0.000000,0.796148,0.000000,0.796148,$1*%
G04 Aperture macros list end*
%ADD10C,1.400000*%
%ADD11RoundRect,0.770000X0.980000X-0.980000X0.980000X0.980000X-0.980000X0.980000X-0.980000X-0.980000X0*%
%ADD12C,3.500000*%
%ADD13RoundRect,0.770000X-0.980000X0.980000X-0.980000X-0.980000X0.980000X-0.980000X0.980000X0.980000X0*%
%ADD14RoundRect,0.770000X-0.980000X-0.980000X0.980000X-0.980000X0.980000X0.980000X-0.980000X0.980000X0*%
%ADD15RoundRect,0.250000X0.475000X-0.250000X0.475000X0.250000X-0.475000X0.250000X-0.475000X-0.250000X0*%
%ADD16RoundRect,0.770000X0.980000X0.980000X-0.980000X0.980000X-0.980000X-0.980000X0.980000X-0.980000X0*%
%ADD17RoundRect,0.250000X-0.250000X-0.475000X0.250000X-0.475000X0.250000X0.475000X-0.250000X0.475000X0*%
%ADD18C,3.200000*%
%ADD19RoundRect,0.100000X-0.637500X-0.100000X0.637500X-0.100000X0.637500X0.100000X-0.637500X0.100000X0*%
%ADD20RoundRect,0.250000X-1.425000X0.362500X-1.425000X-0.362500X1.425000X-0.362500X1.425000X0.362500X0*%
%ADD21RoundRect,0.140000X-0.140000X-0.170000X0.140000X-0.170000X0.140000X0.170000X-0.140000X0.170000X0*%
%ADD22RoundRect,0.250000X0.250000X0.475000X-0.250000X0.475000X-0.250000X-0.475000X0.250000X-0.475000X0*%
%ADD23C,2.200000*%
%ADD24C,1.850000*%
%ADD25RoundRect,0.200000X0.600000X0.600000X-0.600000X0.600000X-0.600000X-0.600000X0.600000X-0.600000X0*%
%ADD26C,1.600000*%
%ADD27FreePoly0,180.000000*%
%ADD28FreePoly1,180.000000*%
%ADD29C,1.700000*%
%ADD30R,1.700000X1.700000*%
%ADD31RoundRect,0.200000X0.275000X-0.200000X0.275000X0.200000X-0.275000X0.200000X-0.275000X-0.200000X0*%
%ADD32RoundRect,0.160000X-0.160000X0.197500X-0.160000X-0.197500X0.160000X-0.197500X0.160000X0.197500X0*%
%ADD33RoundRect,0.150000X-0.150000X0.512500X-0.150000X-0.512500X0.150000X-0.512500X0.150000X0.512500X0*%
%ADD34RoundRect,0.140000X0.170000X-0.140000X0.170000X0.140000X-0.170000X0.140000X-0.170000X-0.140000X0*%
%ADD35RoundRect,0.160000X-0.197500X-0.160000X0.197500X-0.160000X0.197500X0.160000X-0.197500X0.160000X0*%
%ADD36RoundRect,0.250000X-0.325000X-0.650000X0.325000X-0.650000X0.325000X0.650000X-0.325000X0.650000X0*%
%ADD37RoundRect,0.250000X-0.475000X0.250000X-0.475000X-0.250000X0.475000X-0.250000X0.475000X0.250000X0*%
%ADD38RoundRect,0.125000X-0.125000X-0.125000X0.125000X-0.125000X0.125000X0.125000X-0.125000X0.125000X0*%
%ADD39RoundRect,0.140000X-0.170000X0.140000X-0.170000X-0.140000X0.170000X-0.140000X0.170000X0.140000X0*%
%ADD40RoundRect,0.046200X0.478800X2.078800X-0.478800X2.078800X-0.478800X-2.078800X0.478800X-2.078800X0*%
%ADD41RoundRect,0.044100X0.305900X2.080900X-0.305900X2.080900X-0.305900X-2.080900X0.305900X-2.080900X0*%
%ADD42RoundRect,0.042000X0.308000X0.208000X-0.308000X0.208000X-0.308000X-0.208000X0.308000X-0.208000X0*%
%ADD43RoundRect,0.042000X0.208000X0.308000X-0.208000X0.308000X-0.208000X-0.308000X0.208000X-0.308000X0*%
%ADD44RoundRect,0.200000X0.200000X0.275000X-0.200000X0.275000X-0.200000X-0.275000X0.200000X-0.275000X0*%
%ADD45RoundRect,0.200000X-0.200000X-0.275000X0.200000X-0.275000X0.200000X0.275000X-0.200000X0.275000X0*%
%ADD46RoundRect,0.250000X1.000000X0.900000X-1.000000X0.900000X-1.000000X-0.900000X1.000000X-0.900000X0*%
%ADD47RoundRect,0.250000X1.425000X-0.362500X1.425000X0.362500X-1.425000X0.362500X-1.425000X-0.362500X0*%
%ADD48RoundRect,0.125000X-0.125000X0.125000X-0.125000X-0.125000X0.125000X-0.125000X0.125000X0.125000X0*%
%ADD49RoundRect,0.140000X0.140000X0.170000X-0.140000X0.170000X-0.140000X-0.170000X0.140000X-0.170000X0*%
%ADD50RoundRect,0.100000X0.637500X0.100000X-0.637500X0.100000X-0.637500X-0.100000X0.637500X-0.100000X0*%
%ADD51RoundRect,0.050100X-0.174900X-0.099900X0.174900X-0.099900X0.174900X0.099900X-0.174900X0.099900X0*%
%ADD52RoundRect,0.050100X-0.324900X-0.099900X0.324900X-0.099900X0.324900X0.099900X-0.324900X0.099900X0*%
%ADD53RoundRect,0.050350X-0.449650X-0.424650X0.449650X-0.424650X0.449650X0.424650X-0.449650X0.424650X0*%
%ADD54C,2.400000*%
G04 APERTURE END LIST*
D10*
%TO.C,J17*%
X80000000Y-36000000D03*
X80000000Y-25000000D03*
D11*
X70000000Y-28000000D03*
D12*
X70000000Y-33000000D03*
%TD*%
D10*
%TO.C,J12*%
X15000000Y-82000000D03*
X15000000Y-93000000D03*
D13*
X25000000Y-90000000D03*
D12*
X25000000Y-85000000D03*
%TD*%
D10*
%TO.C,J16*%
X80000000Y-93000000D03*
X80000000Y-82000000D03*
D11*
X70000000Y-85000000D03*
D12*
X70000000Y-90000000D03*
%TD*%
D10*
%TO.C,J15*%
X58089487Y-105000000D03*
X69089487Y-105000000D03*
D14*
X66089487Y-95000000D03*
D12*
X61089487Y-95000000D03*
%TD*%
D10*
%TO.C,J14*%
X42000000Y-105000000D03*
X53000000Y-105000000D03*
D14*
X50000000Y-95000000D03*
D12*
X45000000Y-95000000D03*
%TD*%
D10*
%TO.C,J13*%
X26000000Y-105000000D03*
X37000000Y-105000000D03*
D14*
X34000000Y-95000000D03*
D12*
X29000000Y-95000000D03*
%TD*%
D10*
%TO.C,J8*%
X75000000Y-82000000D03*
X75000000Y-93000000D03*
D13*
X70000000Y-85000000D03*
D12*
X70000000Y-90000000D03*
%TD*%
D15*
%TO.C,C22*%
X66632604Y-88450000D03*
X66632604Y-86550000D03*
%TD*%
D10*
%TO.C,J7*%
X69089487Y-100000000D03*
X58089487Y-100000000D03*
D16*
X66089487Y-95000000D03*
D12*
X61089487Y-95000000D03*
%TD*%
D17*
%TO.C,C27*%
X62639487Y-91632604D03*
X64539487Y-91632604D03*
%TD*%
%TO.C,C26*%
X46550000Y-91632604D03*
X48450000Y-91632604D03*
%TD*%
D10*
%TO.C,J6*%
X53000000Y-100000000D03*
X42000000Y-100000000D03*
D16*
X50000000Y-95000000D03*
D12*
X45000000Y-95000000D03*
%TD*%
D10*
%TO.C,J5*%
X37000000Y-100000000D03*
X26000000Y-100000000D03*
D16*
X34000000Y-95000000D03*
D12*
X29000000Y-95000000D03*
%TD*%
D17*
%TO.C,C25*%
X30550000Y-91500000D03*
X32450000Y-91500000D03*
%TD*%
D18*
%TO.C,H2*%
X75000000Y-100000000D03*
%TD*%
D19*
%TO.C,U4*%
X78800000Y-39025000D03*
X78800000Y-39675000D03*
X78800000Y-40325000D03*
X78800000Y-40975000D03*
X73075000Y-40975000D03*
X73075000Y-40325000D03*
X73075000Y-39675000D03*
X73075000Y-39025000D03*
%TD*%
D20*
%TO.C,Rshunt1*%
X70000000Y-42962500D03*
X70000000Y-37037500D03*
%TD*%
D21*
%TO.C,C20*%
X76417500Y-42250000D03*
X75457500Y-42250000D03*
%TD*%
D22*
%TO.C,C23*%
X65400000Y-44600000D03*
X67300000Y-44600000D03*
%TD*%
D23*
%TO.C,A1*%
X50225000Y-16000000D03*
D24*
X49925000Y-19030000D03*
X45075000Y-19030000D03*
D23*
X44775000Y-16000000D03*
D25*
X56390000Y-15870000D03*
D26*
X56390000Y-18410000D03*
D27*
X56390000Y-20950000D03*
D26*
X56390000Y-23490000D03*
X56390000Y-26030000D03*
X56390000Y-28570000D03*
X56390000Y-31110000D03*
D27*
X56390000Y-33650000D03*
D26*
X56390000Y-36190000D03*
X56390000Y-38730000D03*
X56390000Y-41270000D03*
X56390000Y-43810000D03*
D27*
X56390000Y-46350000D03*
D26*
X56390000Y-48890000D03*
X56390000Y-51430000D03*
X56390000Y-53970000D03*
X56390000Y-56510000D03*
D27*
X56390000Y-59050000D03*
D26*
X56390000Y-61590000D03*
X56390000Y-64130000D03*
X38610000Y-64130000D03*
X38610000Y-61590000D03*
D28*
X38610000Y-59050000D03*
D26*
X38610000Y-56510000D03*
X38610000Y-53970000D03*
X38610000Y-51430000D03*
X38610000Y-48890000D03*
D28*
X38610000Y-46350000D03*
D26*
X38610000Y-43810000D03*
X38610000Y-41270000D03*
X38610000Y-38730000D03*
X38610000Y-36190000D03*
D28*
X38610000Y-33650000D03*
D26*
X38610000Y-31110000D03*
X38610000Y-28570000D03*
X38610000Y-26030000D03*
X38610000Y-23490000D03*
D28*
X38610000Y-20950000D03*
D26*
X38610000Y-18410000D03*
X38610000Y-15870000D03*
%TD*%
D12*
%TO.C,J1*%
X70000000Y-33000000D03*
D13*
X70000000Y-28000000D03*
D10*
X75000000Y-36000000D03*
X75000000Y-25000000D03*
%TD*%
D29*
%TO.C,J10*%
X82535000Y-68260000D03*
X82535000Y-70800000D03*
D30*
X82535000Y-73340000D03*
%TD*%
D31*
%TO.C,R8*%
X73737500Y-69000000D03*
X73737500Y-70650000D03*
%TD*%
D32*
%TO.C,Rfbb1*%
X74237500Y-74597500D03*
X74237500Y-73402500D03*
%TD*%
D33*
%TO.C,U5*%
X77187500Y-71587500D03*
X76237500Y-71587500D03*
X75287500Y-71587500D03*
X75287500Y-69312500D03*
X76237500Y-69312500D03*
X77187500Y-69312500D03*
%TD*%
D34*
%TO.C,C17*%
X78435000Y-70500000D03*
X78435000Y-71460000D03*
%TD*%
D29*
%TO.C,J9*%
X77875000Y-63000000D03*
X75335000Y-63000000D03*
D30*
X72795000Y-63000000D03*
%TD*%
D35*
%TO.C,Rfbt1*%
X73835000Y-72000000D03*
X72640000Y-72000000D03*
%TD*%
D36*
%TO.C,C19*%
X76810000Y-67000000D03*
X73860000Y-67000000D03*
%TD*%
D37*
%TO.C,C18*%
X72237500Y-75400000D03*
X72237500Y-73500000D03*
%TD*%
D38*
%TO.C,D4*%
X78435000Y-73485083D03*
X76235000Y-73485083D03*
%TD*%
D39*
%TO.C,C8*%
X62745000Y-72315000D03*
X62745000Y-71355000D03*
%TD*%
D40*
%TO.C,Q4*%
X59000000Y-76002500D03*
D41*
X56450000Y-76002500D03*
D42*
X56450000Y-72172500D03*
X56450000Y-70972500D03*
D43*
X58100000Y-70672500D03*
X59900000Y-70672500D03*
D42*
X61550000Y-70972500D03*
X61550000Y-72172500D03*
D41*
X61550000Y-76002500D03*
%TD*%
D34*
%TO.C,C7*%
X55245000Y-71355000D03*
X55245000Y-72315000D03*
%TD*%
D44*
%TO.C,R5*%
X59920000Y-69335000D03*
X61570000Y-69335000D03*
%TD*%
D22*
%TO.C,C6*%
X59650000Y-79525000D03*
X61550000Y-79525000D03*
%TD*%
D45*
%TO.C,R6*%
X58070000Y-69335000D03*
X56420000Y-69335000D03*
%TD*%
D46*
%TO.C,D2*%
X53050000Y-80725000D03*
X57350000Y-80725000D03*
%TD*%
D44*
%TO.C,R7*%
X21325000Y-52500000D03*
X19675000Y-52500000D03*
%TD*%
D47*
%TO.C,Rshunt2*%
X25000000Y-46962500D03*
X25000000Y-41037500D03*
%TD*%
D37*
%TO.C,C24*%
X28632604Y-86550000D03*
X28632604Y-88450000D03*
%TD*%
D46*
%TO.C,D3*%
X30150000Y-55000000D03*
X25850000Y-55000000D03*
%TD*%
D10*
%TO.C,J4*%
X20000000Y-93000000D03*
X20000000Y-82000000D03*
D11*
X25000000Y-90000000D03*
D12*
X25000000Y-85000000D03*
%TD*%
D17*
%TO.C,C5*%
X28050000Y-48500000D03*
X29950000Y-48500000D03*
%TD*%
D48*
%TO.C,D1*%
X23000000Y-52400000D03*
X23000000Y-54600000D03*
%TD*%
D19*
%TO.C,U6*%
X27937500Y-43025000D03*
X27937500Y-43675000D03*
X27937500Y-44325000D03*
X27937500Y-44975000D03*
X33662500Y-44975000D03*
X33662500Y-44325000D03*
X33662500Y-43675000D03*
X33662500Y-43025000D03*
%TD*%
D10*
%TO.C,J3*%
X80000000Y-48000000D03*
X80000000Y-59000000D03*
D13*
X75000000Y-51000000D03*
D12*
X75000000Y-56000000D03*
%TD*%
D49*
%TO.C,C28*%
X31300000Y-46225000D03*
X30340000Y-46225000D03*
%TD*%
D50*
%TO.C,U2*%
X22062500Y-45000000D03*
X22062500Y-44350000D03*
X22062500Y-43700000D03*
X22062500Y-43050000D03*
X16337500Y-43050000D03*
X16337500Y-43700000D03*
X16337500Y-44350000D03*
X16337500Y-45000000D03*
%TD*%
D49*
%TO.C,C21*%
X19660000Y-41800000D03*
X18700000Y-41800000D03*
%TD*%
D51*
%TO.C,Q2*%
X24525000Y-50850000D03*
X24525000Y-51500000D03*
X24525000Y-52150000D03*
X26475000Y-52150000D03*
X26475000Y-51500000D03*
X26475000Y-50850000D03*
D52*
X25595000Y-52150000D03*
D53*
X25500000Y-51175000D03*
%TD*%
D10*
%TO.C,J2*%
X15000000Y-38000000D03*
X15000000Y-27000000D03*
D11*
X20000000Y-35000000D03*
D12*
X20000000Y-30000000D03*
%TD*%
D30*
%TO.C,J11*%
X63000000Y-18275000D03*
D29*
X63000000Y-15735000D03*
%TD*%
D54*
%TO.C,L2*%
X20891037Y-57200002D03*
X53800000Y-76200000D03*
%TD*%
D18*
%TO.C,H1*%
X20000000Y-20000000D03*
%TD*%
%TO.C,H3*%
X75000000Y-20000000D03*
%TD*%
%TO.C,H4*%
X20000000Y-100000000D03*
%TD*%
M02*
