%TF.GenerationSoftware,KiCad,Pcbnew,9.0.7*%
%TF.CreationDate,2026-05-14T13:28:51-04:00*%
%TF.ProjectId,Control Board V3,436f6e74-726f-46c2-9042-6f6172642056,rev?*%
%TF.SameCoordinates,Original*%
%TF.FileFunction,Soldermask,Bot*%
%TF.FilePolarity,Negative*%
%FSLAX46Y46*%
G04 Gerber Fmt 4.6, Leading zero omitted, Abs format (unit mm)*
G04 Created by KiCad (PCBNEW 9.0.7) date 2026-05-14 13:28:51*
%MOMM*%
%LPD*%
G01*
G04 APERTURE LIST*
G04 Aperture macros list*
%AMRoundRect*
0 Rectangle with rounded corners*
0 $1 Rounding radius*
0 $2 $3 $4 $5 $6 $7 $8 $9 X,Y pos of 4 corners*
0 Add a 4 corners polygon primitive as box body*
4,1,4,$2,$3,$4,$5,$6,$7,$8,$9,$2,$3,0*
0 Add four circle primitives for the rounded corners*
1,1,$1+$1,$2,$3*
1,1,$1+$1,$4,$5*
1,1,$1+$1,$6,$7*
1,1,$1+$1,$8,$9*
0 Add four rect primitives between the rounded corners*
20,1,$1+$1,$2,$3,$4,$5,0*
20,1,$1+$1,$4,$5,$6,$7,0*
20,1,$1+$1,$6,$7,$8,$9,0*
20,1,$1+$1,$8,$9,$2,$3,0*%
%AMFreePoly0*
4,1,37,0.800000,0.796148,0.878414,0.796148,1.032228,0.765552,1.177117,0.705537,1.307515,0.618408,1.418408,0.507515,1.505537,0.377117,1.565552,0.232228,1.596148,0.078414,1.596148,-0.078414,1.565552,-0.232228,1.505537,-0.377117,1.418408,-0.507515,1.307515,-0.618408,1.177117,-0.705537,1.032228,-0.765552,0.878414,-0.796148,0.800000,-0.796148,0.800000,-0.800000,-1.400000,-0.800000,
-1.403843,-0.796157,-1.439018,-0.796157,-1.511114,-0.766294,-1.566294,-0.711114,-1.596157,-0.639018,-1.596157,-0.603843,-1.600000,-0.600000,-1.600000,0.600000,-1.596157,0.603843,-1.596157,0.639018,-1.566294,0.711114,-1.511114,0.766294,-1.439018,0.796157,-1.403843,0.796157,-1.400000,0.800000,0.800000,0.800000,0.800000,0.796148,0.800000,0.796148,$1*%
%AMFreePoly1*
4,1,37,1.403843,0.796157,1.439018,0.796157,1.511114,0.766294,1.566294,0.711114,1.596157,0.639018,1.596157,0.603843,1.600000,0.600000,1.600000,-0.600000,1.596157,-0.603843,1.596157,-0.639018,1.566294,-0.711114,1.511114,-0.766294,1.439018,-0.796157,1.403843,-0.796157,1.400000,-0.800000,-0.800000,-0.800000,-0.800000,-0.796148,-0.878414,-0.796148,-1.032228,-0.765552,-1.177117,-0.705537,
-1.307515,-0.618408,-1.418408,-0.507515,-1.505537,-0.377117,-1.565552,-0.232228,-1.596148,-0.078414,-1.596148,0.078414,-1.565552,0.232228,-1.505537,0.377117,-1.418408,0.507515,-1.307515,0.618408,-1.177117,0.705537,-1.032228,0.765552,-0.878414,0.796148,-0.800000,0.796148,-0.800000,0.800000,1.400000,0.800000,1.403843,0.796157,1.403843,0.796157,$1*%
%AMFreePoly2*
4,1,37,0.603843,0.796157,0.639018,0.796157,0.711114,0.766294,0.766294,0.711114,0.796157,0.639018,0.796157,0.603843,0.800000,0.600000,0.800000,-0.600000,0.796157,-0.603843,0.796157,-0.639018,0.766294,-0.711114,0.711114,-0.766294,0.639018,-0.796157,0.603843,-0.796157,0.600000,-0.800000,0.000000,-0.800000,0.000000,-0.796148,-0.078414,-0.796148,-0.232228,-0.765552,-0.377117,-0.705537,
-0.507515,-0.618408,-0.618408,-0.507515,-0.705537,-0.377117,-0.765552,-0.232228,-0.796148,-0.078414,-0.796148,0.078414,-0.765552,0.232228,-0.705537,0.377117,-0.618408,0.507515,-0.507515,0.618408,-0.377117,0.705537,-0.232228,0.765552,-0.078414,0.796148,0.000000,0.796148,0.000000,0.800000,0.600000,0.800000,0.603843,0.796157,0.603843,0.796157,$1*%
%AMFreePoly3*
4,1,37,0.000000,0.796148,0.078414,0.796148,0.232228,0.765552,0.377117,0.705537,0.507515,0.618408,0.618408,0.507515,0.705537,0.377117,0.765552,0.232228,0.796148,0.078414,0.796148,-0.078414,0.765552,-0.232228,0.705537,-0.377117,0.618408,-0.507515,0.507515,-0.618408,0.377117,-0.705537,0.232228,-0.765552,0.078414,-0.796148,0.000000,-0.796148,0.000000,-0.800000,-0.600000,-0.800000,
-0.603843,-0.796157,-0.639018,-0.796157,-0.711114,-0.766294,-0.766294,-0.711114,-0.796157,-0.639018,-0.796157,-0.603843,-0.800000,-0.600000,-0.800000,0.600000,-0.796157,0.603843,-0.796157,0.639018,-0.766294,0.711114,-0.711114,0.766294,-0.639018,0.796157,-0.603843,0.796157,-0.600000,0.800000,0.000000,0.800000,0.000000,0.796148,0.000000,0.796148,$1*%
G04 Aperture macros list end*
%ADD10C,1.400000*%
%ADD11RoundRect,0.770000X0.980000X-0.980000X0.980000X0.980000X-0.980000X0.980000X-0.980000X-0.980000X0*%
%ADD12C,3.500000*%
%ADD13RoundRect,0.770000X-0.980000X0.980000X-0.980000X-0.980000X0.980000X-0.980000X0.980000X0.980000X0*%
%ADD14RoundRect,0.770000X-0.980000X-0.980000X0.980000X-0.980000X0.980000X0.980000X-0.980000X0.980000X0*%
%ADD15RoundRect,0.770000X0.980000X0.980000X-0.980000X0.980000X-0.980000X-0.980000X0.980000X-0.980000X0*%
%ADD16C,3.200000*%
%ADD17RoundRect,0.225000X0.250000X-0.225000X0.250000X0.225000X-0.250000X0.225000X-0.250000X-0.225000X0*%
%ADD18RoundRect,0.225000X0.225000X0.250000X-0.225000X0.250000X-0.225000X-0.250000X0.225000X-0.250000X0*%
%ADD19RoundRect,0.200000X-0.275000X0.200000X-0.275000X-0.200000X0.275000X-0.200000X0.275000X0.200000X0*%
%ADD20RoundRect,0.200000X0.200000X0.275000X-0.200000X0.275000X-0.200000X-0.275000X0.200000X-0.275000X0*%
%ADD21RoundRect,0.250000X0.250000X0.475000X-0.250000X0.475000X-0.250000X-0.475000X0.250000X-0.475000X0*%
%ADD22RoundRect,0.250000X0.475000X-0.250000X0.475000X0.250000X-0.475000X0.250000X-0.475000X-0.250000X0*%
%ADD23RoundRect,0.250000X1.100000X-0.325000X1.100000X0.325000X-1.100000X0.325000X-1.100000X-0.325000X0*%
%ADD24RoundRect,0.075000X-0.662500X-0.075000X0.662500X-0.075000X0.662500X0.075000X-0.662500X0.075000X0*%
%ADD25C,2.200000*%
%ADD26C,1.850000*%
%ADD27FreePoly0,180.000000*%
%ADD28RoundRect,0.200000X0.600000X0.600000X-0.600000X0.600000X-0.600000X-0.600000X0.600000X-0.600000X0*%
%ADD29RoundRect,0.800000X0.800000X0.000010X-0.800000X0.000010X-0.800000X-0.000010X0.800000X-0.000010X0*%
%ADD30C,1.600000*%
%ADD31FreePoly1,180.000000*%
%ADD32FreePoly2,180.000000*%
%ADD33FreePoly3,180.000000*%
%ADD34C,1.700000*%
%ADD35R,1.700000X1.700000*%
%ADD36R,3.400000X2.400000*%
%ADD37RoundRect,0.200000X-0.200000X-0.275000X0.200000X-0.275000X0.200000X0.275000X-0.200000X0.275000X0*%
%ADD38C,2.400000*%
G04 APERTURE END LIST*
D10*
%TO.C,J17*%
X80000000Y-36000000D03*
X80000000Y-25000000D03*
D11*
X70000000Y-28000000D03*
D12*
X70000000Y-33000000D03*
%TD*%
D10*
%TO.C,J12*%
X15000000Y-82000000D03*
X15000000Y-93000000D03*
D13*
X25000000Y-90000000D03*
D12*
X25000000Y-85000000D03*
%TD*%
D10*
%TO.C,J16*%
X80000000Y-93000000D03*
X80000000Y-82000000D03*
D11*
X70000000Y-85000000D03*
D12*
X70000000Y-90000000D03*
%TD*%
D10*
%TO.C,J15*%
X58089487Y-105000000D03*
X69089487Y-105000000D03*
D14*
X66089487Y-95000000D03*
D12*
X61089487Y-95000000D03*
%TD*%
D10*
%TO.C,J14*%
X42000000Y-105000000D03*
X53000000Y-105000000D03*
D14*
X50000000Y-95000000D03*
D12*
X45000000Y-95000000D03*
%TD*%
D10*
%TO.C,J13*%
X26000000Y-105000000D03*
X37000000Y-105000000D03*
D14*
X34000000Y-95000000D03*
D12*
X29000000Y-95000000D03*
%TD*%
D10*
%TO.C,J8*%
X75000000Y-82000000D03*
X75000000Y-93000000D03*
D13*
X70000000Y-85000000D03*
D12*
X70000000Y-90000000D03*
%TD*%
D10*
%TO.C,J7*%
X69089487Y-100000000D03*
X58089487Y-100000000D03*
D15*
X66089487Y-95000000D03*
D12*
X61089487Y-95000000D03*
%TD*%
D10*
%TO.C,J6*%
X53000000Y-100000000D03*
X42000000Y-100000000D03*
D15*
X50000000Y-95000000D03*
D12*
X45000000Y-95000000D03*
%TD*%
D10*
%TO.C,J5*%
X37000000Y-100000000D03*
X26000000Y-100000000D03*
D15*
X34000000Y-95000000D03*
D12*
X29000000Y-95000000D03*
%TD*%
D16*
%TO.C,H2*%
X75000000Y-100000000D03*
%TD*%
D17*
%TO.C,C10*%
X65390000Y-42475000D03*
X65390000Y-44025000D03*
%TD*%
D18*
%TO.C,C11*%
X63865000Y-45975000D03*
X65415000Y-45975000D03*
%TD*%
D19*
%TO.C,R2*%
X64900000Y-39350000D03*
X64900000Y-37700000D03*
%TD*%
D20*
%TO.C,R1*%
X66350000Y-38000000D03*
X68000000Y-38000000D03*
%TD*%
D21*
%TO.C,C12*%
X63050000Y-47725000D03*
X64950000Y-47725000D03*
%TD*%
D17*
%TO.C,C1*%
X74590000Y-42475000D03*
X74590000Y-44025000D03*
%TD*%
D22*
%TO.C,C2*%
X74840000Y-45500000D03*
X74840000Y-47400000D03*
%TD*%
D23*
%TO.C,C9*%
X63040000Y-41450000D03*
X63040000Y-44400000D03*
%TD*%
D24*
%TO.C,U3*%
X72862500Y-48500000D03*
X72862500Y-48000000D03*
X72862500Y-47500000D03*
X72862500Y-47000000D03*
X72862500Y-46500000D03*
X72862500Y-46000000D03*
X72862500Y-45500000D03*
X72862500Y-45000000D03*
X72862500Y-44500000D03*
X72862500Y-44000000D03*
X72862500Y-43500000D03*
X72862500Y-43000000D03*
X72862500Y-42500000D03*
X72862500Y-42000000D03*
X72862500Y-41500000D03*
X72862500Y-41000000D03*
X72862500Y-40500000D03*
X72862500Y-40000000D03*
X72862500Y-39500000D03*
X67137500Y-39500000D03*
X67137500Y-40000000D03*
X67137500Y-40500000D03*
X67137500Y-41000000D03*
X67137500Y-41500000D03*
X67137500Y-42000000D03*
X67137500Y-42500000D03*
X67137500Y-43000000D03*
X67137500Y-43500000D03*
X67137500Y-44000000D03*
X67137500Y-44500000D03*
X67137500Y-45000000D03*
X67137500Y-45500000D03*
X67137500Y-46000000D03*
X67137500Y-46500000D03*
X67137500Y-47000000D03*
X67137500Y-47500000D03*
X67137500Y-48000000D03*
X67137500Y-48500000D03*
%TD*%
D25*
%TO.C,A1*%
X50225000Y-16000000D03*
D26*
X49925000Y-19030000D03*
X45075000Y-19030000D03*
D25*
X44775000Y-16000000D03*
D27*
X57190000Y-15870000D03*
D28*
X56390000Y-15870000D03*
D29*
X57190000Y-18410000D03*
D30*
X56390000Y-18410000D03*
D31*
X57190000Y-20950000D03*
D32*
X56390000Y-20950000D03*
D29*
X57190000Y-23490000D03*
D30*
X56390000Y-23490000D03*
D29*
X57190000Y-26030000D03*
D30*
X56390000Y-26030000D03*
D29*
X57190000Y-28570000D03*
D30*
X56390000Y-28570000D03*
D29*
X57190000Y-31110000D03*
D30*
X56390000Y-31110000D03*
D31*
X57190000Y-33650000D03*
D32*
X56390000Y-33650000D03*
D29*
X57190000Y-36190000D03*
D30*
X56390000Y-36190000D03*
D29*
X57190000Y-38730000D03*
D30*
X56390000Y-38730000D03*
D29*
X57190000Y-41270000D03*
D30*
X56390000Y-41270000D03*
D29*
X57190000Y-43810000D03*
D30*
X56390000Y-43810000D03*
D31*
X57190000Y-46350000D03*
D32*
X56390000Y-46350000D03*
D29*
X57190000Y-48890000D03*
D30*
X56390000Y-48890000D03*
D29*
X57190000Y-51430000D03*
D30*
X56390000Y-51430000D03*
D29*
X57190000Y-53970000D03*
D30*
X56390000Y-53970000D03*
D29*
X57190000Y-56510000D03*
D30*
X56390000Y-56510000D03*
D31*
X57190000Y-59050000D03*
D32*
X56390000Y-59050000D03*
D29*
X57190000Y-61590000D03*
D30*
X56390000Y-61590000D03*
D29*
X57190000Y-64130000D03*
D30*
X56390000Y-64130000D03*
X38610000Y-64130000D03*
D29*
X37810000Y-64130000D03*
D30*
X38610000Y-61590000D03*
D29*
X37810000Y-61590000D03*
D33*
X38610000Y-59050000D03*
D27*
X37810000Y-59050000D03*
D30*
X38610000Y-56510000D03*
D29*
X37810000Y-56510000D03*
D30*
X38610000Y-53970000D03*
D29*
X37810000Y-53970000D03*
D30*
X38610000Y-51430000D03*
D29*
X37810000Y-51430000D03*
D30*
X38610000Y-48890000D03*
D29*
X37810000Y-48890000D03*
D33*
X38610000Y-46350000D03*
D27*
X37810000Y-46350000D03*
D30*
X38610000Y-43810000D03*
D29*
X37810000Y-43810000D03*
D30*
X38610000Y-41270000D03*
D29*
X37810000Y-41270000D03*
D30*
X38610000Y-38730000D03*
D29*
X37810000Y-38730000D03*
D30*
X38610000Y-36190000D03*
D29*
X37810000Y-36190000D03*
D33*
X38610000Y-33650000D03*
D27*
X37810000Y-33650000D03*
D30*
X38610000Y-31110000D03*
D29*
X37810000Y-31110000D03*
D30*
X38610000Y-28570000D03*
D29*
X37810000Y-28570000D03*
D30*
X38610000Y-26030000D03*
D29*
X37810000Y-26030000D03*
D30*
X38610000Y-23490000D03*
D29*
X37810000Y-23490000D03*
D33*
X38610000Y-20950000D03*
D27*
X37810000Y-20950000D03*
D30*
X38610000Y-18410000D03*
D29*
X37810000Y-18410000D03*
D30*
X38610000Y-15870000D03*
D29*
X37810000Y-15870000D03*
%TD*%
D12*
%TO.C,J1*%
X70000000Y-33000000D03*
D13*
X70000000Y-28000000D03*
D10*
X75000000Y-36000000D03*
X75000000Y-25000000D03*
%TD*%
D34*
%TO.C,J10*%
X82535000Y-68260000D03*
X82535000Y-70800000D03*
D35*
X82535000Y-73340000D03*
%TD*%
D36*
%TO.C,L1*%
X75237500Y-74500000D03*
X75237500Y-66300000D03*
%TD*%
D34*
%TO.C,J9*%
X77875000Y-63000000D03*
X75335000Y-63000000D03*
D35*
X72795000Y-63000000D03*
%TD*%
D10*
%TO.C,J4*%
X20000000Y-93000000D03*
X20000000Y-82000000D03*
D11*
X25000000Y-90000000D03*
D12*
X25000000Y-85000000D03*
%TD*%
D10*
%TO.C,J3*%
X80000000Y-48000000D03*
X80000000Y-59000000D03*
D13*
X75000000Y-51000000D03*
D12*
X75000000Y-56000000D03*
%TD*%
D21*
%TO.C,C16*%
X20400000Y-51750000D03*
X18500000Y-51750000D03*
%TD*%
D17*
%TO.C,C3*%
X20400000Y-48037500D03*
X20400000Y-46487500D03*
%TD*%
D24*
%TO.C,U1*%
X22137500Y-52500000D03*
X22137500Y-52000000D03*
X22137500Y-51500000D03*
X22137500Y-51000000D03*
X22137500Y-50500000D03*
X22137500Y-50000000D03*
X22137500Y-49500000D03*
X22137500Y-49000000D03*
X22137500Y-48500000D03*
X22137500Y-48000000D03*
X22137500Y-47500000D03*
X22137500Y-47000000D03*
X22137500Y-46500000D03*
X22137500Y-46000000D03*
X22137500Y-45500000D03*
X22137500Y-45000000D03*
X22137500Y-44500000D03*
X22137500Y-44000000D03*
X22137500Y-43500000D03*
X27862500Y-43500000D03*
X27862500Y-44000000D03*
X27862500Y-44500000D03*
X27862500Y-45000000D03*
X27862500Y-45500000D03*
X27862500Y-46000000D03*
X27862500Y-46500000D03*
X27862500Y-47000000D03*
X27862500Y-47500000D03*
X27862500Y-48000000D03*
X27862500Y-48500000D03*
X27862500Y-49000000D03*
X27862500Y-49500000D03*
X27862500Y-50000000D03*
X27862500Y-50500000D03*
X27862500Y-51000000D03*
X27862500Y-51500000D03*
X27862500Y-52000000D03*
X27862500Y-52500000D03*
%TD*%
D37*
%TO.C,R3*%
X21350000Y-42000000D03*
X23000000Y-42000000D03*
%TD*%
D10*
%TO.C,J2*%
X15000000Y-38000000D03*
X15000000Y-27000000D03*
D11*
X20000000Y-35000000D03*
D12*
X20000000Y-30000000D03*
%TD*%
D18*
%TO.C,C15*%
X20425000Y-50000000D03*
X18875000Y-50000000D03*
%TD*%
D17*
%TO.C,C14*%
X29600000Y-48037500D03*
X29600000Y-46487500D03*
%TD*%
D23*
%TO.C,C13*%
X18050000Y-48425000D03*
X18050000Y-45475000D03*
%TD*%
D35*
%TO.C,J11*%
X63000000Y-18275000D03*
D34*
X63000000Y-15735000D03*
%TD*%
D19*
%TO.C,R4*%
X19900000Y-41700000D03*
X19900000Y-43350000D03*
%TD*%
D22*
%TO.C,C4*%
X29850000Y-51387500D03*
X29850000Y-49487500D03*
%TD*%
D38*
%TO.C,L2*%
X20891037Y-57200002D03*
X53800000Y-76200000D03*
%TD*%
D16*
%TO.C,H1*%
X20000000Y-20000000D03*
%TD*%
%TO.C,H3*%
X75000000Y-20000000D03*
%TD*%
%TO.C,H4*%
X20000000Y-100000000D03*
%TD*%
M02*
