%TF.GenerationSoftware,KiCad,Pcbnew,9.0.7*%
%TF.CreationDate,2026-05-14T13:28:51-04:00*%
%TF.ProjectId,Control Board V3,436f6e74-726f-46c2-9042-6f6172642056,rev?*%
%TF.SameCoordinates,Original*%
%TF.FileFunction,Paste,Bot*%
%TF.FilePolarity,Positive*%
%FSLAX46Y46*%
G04 Gerber Fmt 4.6, Leading zero omitted, Abs format (unit mm)*
G04 Created by KiCad (PCBNEW 9.0.7) date 2026-05-14 13:28:51*
%MOMM*%
%LPD*%
G01*
G04 APERTURE LIST*
G04 Aperture macros list*
%AMRoundRect*
0 Rectangle with rounded corners*
0 $1 Rounding radius*
0 $2 $3 $4 $5 $6 $7 $8 $9 X,Y pos of 4 corners*
0 Add a 4 corners polygon primitive as box body*
4,1,4,$2,$3,$4,$5,$6,$7,$8,$9,$2,$3,0*
0 Add four circle primitives for the rounded corners*
1,1,$1+$1,$2,$3*
1,1,$1+$1,$4,$5*
1,1,$1+$1,$6,$7*
1,1,$1+$1,$8,$9*
0 Add four rect primitives between the rounded corners*
20,1,$1+$1,$2,$3,$4,$5,0*
20,1,$1+$1,$4,$5,$6,$7,0*
20,1,$1+$1,$6,$7,$8,$9,0*
20,1,$1+$1,$8,$9,$2,$3,0*%
G04 Aperture macros list end*
%ADD10RoundRect,0.225000X0.250000X-0.225000X0.250000X0.225000X-0.250000X0.225000X-0.250000X-0.225000X0*%
%ADD11RoundRect,0.225000X0.225000X0.250000X-0.225000X0.250000X-0.225000X-0.250000X0.225000X-0.250000X0*%
%ADD12RoundRect,0.200000X-0.275000X0.200000X-0.275000X-0.200000X0.275000X-0.200000X0.275000X0.200000X0*%
%ADD13RoundRect,0.200000X0.200000X0.275000X-0.200000X0.275000X-0.200000X-0.275000X0.200000X-0.275000X0*%
%ADD14RoundRect,0.250000X0.250000X0.475000X-0.250000X0.475000X-0.250000X-0.475000X0.250000X-0.475000X0*%
%ADD15RoundRect,0.250000X0.475000X-0.250000X0.475000X0.250000X-0.475000X0.250000X-0.475000X-0.250000X0*%
%ADD16RoundRect,0.250000X1.100000X-0.325000X1.100000X0.325000X-1.100000X0.325000X-1.100000X-0.325000X0*%
%ADD17RoundRect,0.075000X-0.662500X-0.075000X0.662500X-0.075000X0.662500X0.075000X-0.662500X0.075000X0*%
%ADD18R,3.400000X2.400000*%
%ADD19RoundRect,0.200000X-0.200000X-0.275000X0.200000X-0.275000X0.200000X0.275000X-0.200000X0.275000X0*%
G04 APERTURE END LIST*
D10*
%TO.C,C10*%
X65390000Y-42475000D03*
X65390000Y-44025000D03*
%TD*%
D11*
%TO.C,C11*%
X63865000Y-45975000D03*
X65415000Y-45975000D03*
%TD*%
D12*
%TO.C,R2*%
X64900000Y-39350000D03*
X64900000Y-37700000D03*
%TD*%
D13*
%TO.C,R1*%
X66350000Y-38000000D03*
X68000000Y-38000000D03*
%TD*%
D14*
%TO.C,C12*%
X63050000Y-47725000D03*
X64950000Y-47725000D03*
%TD*%
D10*
%TO.C,C1*%
X74590000Y-42475000D03*
X74590000Y-44025000D03*
%TD*%
D15*
%TO.C,C2*%
X74840000Y-45500000D03*
X74840000Y-47400000D03*
%TD*%
D16*
%TO.C,C9*%
X63040000Y-41450000D03*
X63040000Y-44400000D03*
%TD*%
D17*
%TO.C,U3*%
X72862500Y-48500000D03*
X72862500Y-48000000D03*
X72862500Y-47500000D03*
X72862500Y-47000000D03*
X72862500Y-46500000D03*
X72862500Y-46000000D03*
X72862500Y-45500000D03*
X72862500Y-45000000D03*
X72862500Y-44500000D03*
X72862500Y-44000000D03*
X72862500Y-43500000D03*
X72862500Y-43000000D03*
X72862500Y-42500000D03*
X72862500Y-42000000D03*
X72862500Y-41500000D03*
X72862500Y-41000000D03*
X72862500Y-40500000D03*
X72862500Y-40000000D03*
X72862500Y-39500000D03*
X67137500Y-39500000D03*
X67137500Y-40000000D03*
X67137500Y-40500000D03*
X67137500Y-41000000D03*
X67137500Y-41500000D03*
X67137500Y-42000000D03*
X67137500Y-42500000D03*
X67137500Y-43000000D03*
X67137500Y-43500000D03*
X67137500Y-44000000D03*
X67137500Y-44500000D03*
X67137500Y-45000000D03*
X67137500Y-45500000D03*
X67137500Y-46000000D03*
X67137500Y-46500000D03*
X67137500Y-47000000D03*
X67137500Y-47500000D03*
X67137500Y-48000000D03*
X67137500Y-48500000D03*
%TD*%
D18*
%TO.C,L1*%
X75237500Y-74500000D03*
X75237500Y-66300000D03*
%TD*%
D14*
%TO.C,C16*%
X20400000Y-51750000D03*
X18500000Y-51750000D03*
%TD*%
D10*
%TO.C,C3*%
X20400000Y-48037500D03*
X20400000Y-46487500D03*
%TD*%
D17*
%TO.C,U1*%
X22137500Y-52500000D03*
X22137500Y-52000000D03*
X22137500Y-51500000D03*
X22137500Y-51000000D03*
X22137500Y-50500000D03*
X22137500Y-50000000D03*
X22137500Y-49500000D03*
X22137500Y-49000000D03*
X22137500Y-48500000D03*
X22137500Y-48000000D03*
X22137500Y-47500000D03*
X22137500Y-47000000D03*
X22137500Y-46500000D03*
X22137500Y-46000000D03*
X22137500Y-45500000D03*
X22137500Y-45000000D03*
X22137500Y-44500000D03*
X22137500Y-44000000D03*
X22137500Y-43500000D03*
X27862500Y-43500000D03*
X27862500Y-44000000D03*
X27862500Y-44500000D03*
X27862500Y-45000000D03*
X27862500Y-45500000D03*
X27862500Y-46000000D03*
X27862500Y-46500000D03*
X27862500Y-47000000D03*
X27862500Y-47500000D03*
X27862500Y-48000000D03*
X27862500Y-48500000D03*
X27862500Y-49000000D03*
X27862500Y-49500000D03*
X27862500Y-50000000D03*
X27862500Y-50500000D03*
X27862500Y-51000000D03*
X27862500Y-51500000D03*
X27862500Y-52000000D03*
X27862500Y-52500000D03*
%TD*%
D19*
%TO.C,R3*%
X21350000Y-42000000D03*
X23000000Y-42000000D03*
%TD*%
D11*
%TO.C,C15*%
X20425000Y-50000000D03*
X18875000Y-50000000D03*
%TD*%
D10*
%TO.C,C14*%
X29600000Y-48037500D03*
X29600000Y-46487500D03*
%TD*%
D16*
%TO.C,C13*%
X18050000Y-48425000D03*
X18050000Y-45475000D03*
%TD*%
D12*
%TO.C,R4*%
X19900000Y-41700000D03*
X19900000Y-43350000D03*
%TD*%
D15*
%TO.C,C4*%
X29850000Y-51387500D03*
X29850000Y-49487500D03*
%TD*%
M02*
