M48
; DRILL file {KiCad 9.0.7} date 2026-05-14T13:28:57-0400
; FORMAT={3:3/ absolute / metric / suppress leading zeros}
; #@! TF.CreationDate,2026-05-14T13:28:57-04:00
; #@! TF.GenerationSoftware,Kicad,Pcbnew,9.0.7
; #@! TF.FileFunction,Plated,1,4,PTH
FMAT,2
METRIC,TZ
; #@! TA.AperFunction,Plated,PTH,ViaDrill
T1C0.300
; #@! TA.AperFunction,Plated,PTH,ComponentDrill
T2C1.000
; #@! TA.AperFunction,Plated,PTH,ComponentDrill
T3C1.200
; #@! TA.AperFunction,Plated,PTH,ComponentDrill
T4C1.900
%
G90
G05
T1
X17540Y-44040
X17950Y-50550
X18000Y-42500
X18400Y-44300
X19300Y-42700
X19300Y-46500
X19300Y-50900
X20000Y-45500
X21106Y-47194
X23000Y-41038
X23244Y-51256
X23300Y-45750
X23500Y-49500
X23700Y-44000
X26300Y-44000
X26750Y-45750
X26788Y-49250
X28500Y-54500
X28500Y-55500
X28950Y-47150
X29000Y-43100
X29000Y-45500
X29500Y-53500
X29500Y-56500
X30000Y-45500
X30631Y-50269
X30750Y-53500
X30750Y-56500
X31250Y-47500
X31250Y-48500
X31250Y-49500
X31750Y-54500
X31750Y-55500
X31950Y-45550
X32250Y-47500
X32250Y-48500
X32500Y-43025
X32500Y-44000
X55500Y-69325
X55600Y-70625
X55900Y-72825
X57300Y-72125
X57500Y-78925
X58000Y-74000
X58000Y-75000
X58000Y-76000
X58000Y-77000
X58000Y-78000
X58500Y-78925
X59200Y-80825
X60000Y-74000
X60000Y-75000
X60000Y-76000
X60000Y-77000
X60000Y-78000
X62500Y-69325
X63050Y-45975
X63865Y-46910
X64090Y-42500
X64100Y-40150
X64800Y-41500
X65450Y-40250
X66007Y-43093
X66033Y-41832
X68000Y-37038
X68200Y-47250
X68450Y-45450
X68500Y-40000
X68500Y-41750
X71735Y-72400
X71750Y-45250
X71850Y-41750
X73011Y-74626
X73435Y-72800
X73948Y-43124
X74110Y-39120
X74429Y-41400
X74935Y-68000
X75400Y-41400
X75735Y-68000
X75900Y-45500
X77072Y-41573
X77566Y-40016
X77638Y-39025
T2
X15000Y-27000
X15000Y-38000
X15000Y-82000
X15000Y-93000
X20000Y-82000
X20000Y-93000
X26000Y-100000
X26000Y-105000
X37000Y-100000
X37000Y-105000
X38610Y-15870
X38610Y-18410
X38610Y-20950
X38610Y-23490
X38610Y-26030
X38610Y-28570
X38610Y-31110
X38610Y-33650
X38610Y-36190
X38610Y-38730
X38610Y-41270
X38610Y-43810
X38610Y-46350
X38610Y-48890
X38610Y-51430
X38610Y-53970
X38610Y-56510
X38610Y-59050
X38610Y-61590
X38610Y-64130
X42000Y-100000
X42000Y-105000
X53000Y-100000
X53000Y-105000
X56390Y-15870
X56390Y-18410
X56390Y-20950
X56390Y-23490
X56390Y-26030
X56390Y-28570
X56390Y-31110
X56390Y-33650
X56390Y-36190
X56390Y-38730
X56390Y-41270
X56390Y-43810
X56390Y-46350
X56390Y-48890
X56390Y-51430
X56390Y-53970
X56390Y-56510
X56390Y-59050
X56390Y-61590
X56390Y-64130
X58089Y-100000
X58089Y-105000
X63000Y-15735
X63000Y-18275
X69089Y-100000
X69089Y-105000
X72795Y-63000
X75000Y-25000
X75000Y-36000
X75000Y-82000
X75000Y-93000
X75335Y-63000
X77875Y-63000
X80000Y-25000
X80000Y-36000
X80000Y-48000
X80000Y-59000
X80000Y-82000
X80000Y-93000
X82535Y-68260
X82535Y-70800
X82535Y-73340
T3
X20891Y-57200
X53800Y-76200
T4
X20000Y-30000
X20000Y-35000
X25000Y-85000
X25000Y-85000
X25000Y-90000
X25000Y-90000
X29000Y-95000
X29000Y-95000
X34000Y-95000
X34000Y-95000
X45000Y-95000
X45000Y-95000
X50000Y-95000
X50000Y-95000
X61089Y-95000
X61089Y-95000
X66089Y-95000
X66089Y-95000
X70000Y-28000
X70000Y-28000
X70000Y-33000
X70000Y-33000
X70000Y-85000
X70000Y-85000
X70000Y-90000
X70000Y-90000
X75000Y-51000
X75000Y-56000
M30
