%TF.GenerationSoftware,KiCad,Pcbnew,9.0.7*%
%TF.CreationDate,2026-05-14T13:28:51-04:00*%
%TF.ProjectId,Control Board V3,436f6e74-726f-46c2-9042-6f6172642056,rev?*%
%TF.SameCoordinates,Original*%
%TF.FileFunction,Legend,Top*%
%TF.FilePolarity,Positive*%
%FSLAX46Y46*%
G04 Gerber Fmt 4.6, Leading zero omitted, Abs format (unit mm)*
G04 Created by KiCad (PCBNEW 9.0.7) date 2026-05-14 13:28:51*
%MOMM*%
%LPD*%
G01*
G04 APERTURE LIST*
%ADD10C,0.400000*%
%ADD11C,0.100000*%
%ADD12C,0.150000*%
%ADD13C,0.120000*%
G04 APERTURE END LIST*
D10*
X70265561Y-48476190D02*
X72265561Y-48476190D01*
X72265561Y-48476190D02*
X70836990Y-49142857D01*
X70836990Y-49142857D02*
X72265561Y-49809523D01*
X72265561Y-49809523D02*
X70265561Y-49809523D01*
X70265561Y-50761904D02*
X71598895Y-50761904D01*
X72265561Y-50761904D02*
X72170323Y-50666666D01*
X72170323Y-50666666D02*
X72075085Y-50761904D01*
X72075085Y-50761904D02*
X72170323Y-50857142D01*
X72170323Y-50857142D02*
X72265561Y-50761904D01*
X72265561Y-50761904D02*
X72075085Y-50761904D01*
X71598895Y-51714285D02*
X70265561Y-51714285D01*
X71408419Y-51714285D02*
X71503657Y-51809523D01*
X71503657Y-51809523D02*
X71598895Y-51999999D01*
X71598895Y-51999999D02*
X71598895Y-52285714D01*
X71598895Y-52285714D02*
X71503657Y-52476190D01*
X71503657Y-52476190D02*
X71313180Y-52571428D01*
X71313180Y-52571428D02*
X70265561Y-52571428D01*
X70265561Y-53523809D02*
X71598895Y-53523809D01*
X72265561Y-53523809D02*
X72170323Y-53428571D01*
X72170323Y-53428571D02*
X72075085Y-53523809D01*
X72075085Y-53523809D02*
X72170323Y-53619047D01*
X72170323Y-53619047D02*
X72265561Y-53523809D01*
X72265561Y-53523809D02*
X72075085Y-53523809D01*
X70265561Y-54476190D02*
X72265561Y-54476190D01*
X72265561Y-54476190D02*
X72265561Y-55238095D01*
X72265561Y-55238095D02*
X72170323Y-55428571D01*
X72170323Y-55428571D02*
X72075085Y-55523809D01*
X72075085Y-55523809D02*
X71884609Y-55619047D01*
X71884609Y-55619047D02*
X71598895Y-55619047D01*
X71598895Y-55619047D02*
X71408419Y-55523809D01*
X71408419Y-55523809D02*
X71313180Y-55428571D01*
X71313180Y-55428571D02*
X71217942Y-55238095D01*
X71217942Y-55238095D02*
X71217942Y-54476190D01*
X70456038Y-57619047D02*
X70360800Y-57523809D01*
X70360800Y-57523809D02*
X70265561Y-57238095D01*
X70265561Y-57238095D02*
X70265561Y-57047619D01*
X70265561Y-57047619D02*
X70360800Y-56761904D01*
X70360800Y-56761904D02*
X70551276Y-56571428D01*
X70551276Y-56571428D02*
X70741752Y-56476190D01*
X70741752Y-56476190D02*
X71122704Y-56380952D01*
X71122704Y-56380952D02*
X71408419Y-56380952D01*
X71408419Y-56380952D02*
X71789371Y-56476190D01*
X71789371Y-56476190D02*
X71979847Y-56571428D01*
X71979847Y-56571428D02*
X72170323Y-56761904D01*
X72170323Y-56761904D02*
X72265561Y-57047619D01*
X72265561Y-57047619D02*
X72265561Y-57238095D01*
X72265561Y-57238095D02*
X72170323Y-57523809D01*
X72170323Y-57523809D02*
X72075085Y-57619047D01*
X65265561Y-28190476D02*
X67265561Y-28190476D01*
X67265561Y-28190476D02*
X67265561Y-28952381D01*
X67265561Y-28952381D02*
X67170323Y-29142857D01*
X67170323Y-29142857D02*
X67075085Y-29238095D01*
X67075085Y-29238095D02*
X66884609Y-29333333D01*
X66884609Y-29333333D02*
X66598895Y-29333333D01*
X66598895Y-29333333D02*
X66408419Y-29238095D01*
X66408419Y-29238095D02*
X66313180Y-29142857D01*
X66313180Y-29142857D02*
X66217942Y-28952381D01*
X66217942Y-28952381D02*
X66217942Y-28190476D01*
X65265561Y-30190476D02*
X67265561Y-30190476D01*
X67265561Y-30190476D02*
X65836990Y-30857143D01*
X65836990Y-30857143D02*
X67265561Y-31523809D01*
X67265561Y-31523809D02*
X65265561Y-31523809D01*
X65265561Y-32476190D02*
X67265561Y-32476190D01*
X67265561Y-32476190D02*
X65836990Y-33142857D01*
X65836990Y-33142857D02*
X67265561Y-33809523D01*
X67265561Y-33809523D02*
X65265561Y-33809523D01*
X24543961Y-38142857D02*
X24639200Y-38238095D01*
X24639200Y-38238095D02*
X24734438Y-38523809D01*
X24734438Y-38523809D02*
X24734438Y-38714285D01*
X24734438Y-38714285D02*
X24639200Y-39000000D01*
X24639200Y-39000000D02*
X24448723Y-39190476D01*
X24448723Y-39190476D02*
X24258247Y-39285714D01*
X24258247Y-39285714D02*
X23877295Y-39380952D01*
X23877295Y-39380952D02*
X23591580Y-39380952D01*
X23591580Y-39380952D02*
X23210628Y-39285714D01*
X23210628Y-39285714D02*
X23020152Y-39190476D01*
X23020152Y-39190476D02*
X22829676Y-39000000D01*
X22829676Y-39000000D02*
X22734438Y-38714285D01*
X22734438Y-38714285D02*
X22734438Y-38523809D01*
X22734438Y-38523809D02*
X22829676Y-38238095D01*
X22829676Y-38238095D02*
X22924914Y-38142857D01*
X24163009Y-37380952D02*
X24163009Y-36428571D01*
X24734438Y-37571428D02*
X22734438Y-36904762D01*
X22734438Y-36904762D02*
X24734438Y-36238095D01*
X24734438Y-35571428D02*
X22734438Y-35571428D01*
X22734438Y-35571428D02*
X22734438Y-34809523D01*
X22734438Y-34809523D02*
X22829676Y-34619047D01*
X22829676Y-34619047D02*
X22924914Y-34523809D01*
X22924914Y-34523809D02*
X23115390Y-34428571D01*
X23115390Y-34428571D02*
X23401104Y-34428571D01*
X23401104Y-34428571D02*
X23591580Y-34523809D01*
X23591580Y-34523809D02*
X23686819Y-34619047D01*
X23686819Y-34619047D02*
X23782057Y-34809523D01*
X23782057Y-34809523D02*
X23782057Y-35571428D01*
X23686819Y-32904761D02*
X23782057Y-32619047D01*
X23782057Y-32619047D02*
X23877295Y-32523809D01*
X23877295Y-32523809D02*
X24067771Y-32428571D01*
X24067771Y-32428571D02*
X24353485Y-32428571D01*
X24353485Y-32428571D02*
X24543961Y-32523809D01*
X24543961Y-32523809D02*
X24639200Y-32619047D01*
X24639200Y-32619047D02*
X24734438Y-32809523D01*
X24734438Y-32809523D02*
X24734438Y-33571428D01*
X24734438Y-33571428D02*
X22734438Y-33571428D01*
X22734438Y-33571428D02*
X22734438Y-32904761D01*
X22734438Y-32904761D02*
X22829676Y-32714285D01*
X22829676Y-32714285D02*
X22924914Y-32619047D01*
X22924914Y-32619047D02*
X23115390Y-32523809D01*
X23115390Y-32523809D02*
X23305866Y-32523809D01*
X23305866Y-32523809D02*
X23496342Y-32619047D01*
X23496342Y-32619047D02*
X23591580Y-32714285D01*
X23591580Y-32714285D02*
X23686819Y-32904761D01*
X23686819Y-32904761D02*
X23686819Y-33571428D01*
X24163009Y-31666666D02*
X24163009Y-30714285D01*
X24734438Y-31857142D02*
X22734438Y-31190476D01*
X22734438Y-31190476D02*
X24734438Y-30523809D01*
X24734438Y-29857142D02*
X22734438Y-29857142D01*
X22734438Y-29857142D02*
X24734438Y-28714285D01*
X24734438Y-28714285D02*
X22734438Y-28714285D01*
X24734438Y-27761904D02*
X22734438Y-27761904D01*
X24734438Y-26619047D02*
X23591580Y-27476190D01*
X22734438Y-26619047D02*
X23877295Y-27761904D01*
D11*
X54900000Y-81300000D02*
X55800000Y-80684397D01*
X55800000Y-81300000D02*
X55800001Y-80100003D01*
X54900000Y-80100000D02*
X55800000Y-80684397D01*
X77700000Y-72900000D02*
X76800000Y-73515603D01*
X76800000Y-72900000D02*
X76800000Y-74099999D01*
X77700000Y-74100000D02*
X76800000Y-73515603D01*
X27900000Y-55600000D02*
X28800000Y-54984397D01*
X28800000Y-55600000D02*
X28800000Y-54400004D01*
X27900000Y-54400000D02*
X28800000Y-54984397D01*
X23600000Y-52800000D02*
X22400000Y-52800000D01*
X22400000Y-53700000D02*
X22984397Y-52800000D01*
X23600000Y-53700000D02*
X22984397Y-52800000D01*
D12*
X72454819Y-87833333D02*
X73169104Y-87833333D01*
X73169104Y-87833333D02*
X73311961Y-87880952D01*
X73311961Y-87880952D02*
X73407200Y-87976190D01*
X73407200Y-87976190D02*
X73454819Y-88119047D01*
X73454819Y-88119047D02*
X73454819Y-88214285D01*
X72883390Y-87214285D02*
X72835771Y-87309523D01*
X72835771Y-87309523D02*
X72788152Y-87357142D01*
X72788152Y-87357142D02*
X72692914Y-87404761D01*
X72692914Y-87404761D02*
X72645295Y-87404761D01*
X72645295Y-87404761D02*
X72550057Y-87357142D01*
X72550057Y-87357142D02*
X72502438Y-87309523D01*
X72502438Y-87309523D02*
X72454819Y-87214285D01*
X72454819Y-87214285D02*
X72454819Y-87023809D01*
X72454819Y-87023809D02*
X72502438Y-86928571D01*
X72502438Y-86928571D02*
X72550057Y-86880952D01*
X72550057Y-86880952D02*
X72645295Y-86833333D01*
X72645295Y-86833333D02*
X72692914Y-86833333D01*
X72692914Y-86833333D02*
X72788152Y-86880952D01*
X72788152Y-86880952D02*
X72835771Y-86928571D01*
X72835771Y-86928571D02*
X72883390Y-87023809D01*
X72883390Y-87023809D02*
X72883390Y-87214285D01*
X72883390Y-87214285D02*
X72931009Y-87309523D01*
X72931009Y-87309523D02*
X72978628Y-87357142D01*
X72978628Y-87357142D02*
X73073866Y-87404761D01*
X73073866Y-87404761D02*
X73264342Y-87404761D01*
X73264342Y-87404761D02*
X73359580Y-87357142D01*
X73359580Y-87357142D02*
X73407200Y-87309523D01*
X73407200Y-87309523D02*
X73454819Y-87214285D01*
X73454819Y-87214285D02*
X73454819Y-87023809D01*
X73454819Y-87023809D02*
X73407200Y-86928571D01*
X73407200Y-86928571D02*
X73359580Y-86880952D01*
X73359580Y-86880952D02*
X73264342Y-86833333D01*
X73264342Y-86833333D02*
X73073866Y-86833333D01*
X73073866Y-86833333D02*
X72978628Y-86880952D01*
X72978628Y-86880952D02*
X72931009Y-86928571D01*
X72931009Y-86928571D02*
X72883390Y-87023809D01*
X70114700Y-82571428D02*
X70114700Y-81428571D01*
X70114700Y-93571428D02*
X70114700Y-92428571D01*
X70686128Y-92999999D02*
X69543271Y-92999999D01*
X65312184Y-88142857D02*
X65359804Y-88190476D01*
X65359804Y-88190476D02*
X65407423Y-88333333D01*
X65407423Y-88333333D02*
X65407423Y-88428571D01*
X65407423Y-88428571D02*
X65359804Y-88571428D01*
X65359804Y-88571428D02*
X65264565Y-88666666D01*
X65264565Y-88666666D02*
X65169327Y-88714285D01*
X65169327Y-88714285D02*
X64978851Y-88761904D01*
X64978851Y-88761904D02*
X64835994Y-88761904D01*
X64835994Y-88761904D02*
X64645518Y-88714285D01*
X64645518Y-88714285D02*
X64550280Y-88666666D01*
X64550280Y-88666666D02*
X64455042Y-88571428D01*
X64455042Y-88571428D02*
X64407423Y-88428571D01*
X64407423Y-88428571D02*
X64407423Y-88333333D01*
X64407423Y-88333333D02*
X64455042Y-88190476D01*
X64455042Y-88190476D02*
X64502661Y-88142857D01*
X64502661Y-87761904D02*
X64455042Y-87714285D01*
X64455042Y-87714285D02*
X64407423Y-87619047D01*
X64407423Y-87619047D02*
X64407423Y-87380952D01*
X64407423Y-87380952D02*
X64455042Y-87285714D01*
X64455042Y-87285714D02*
X64502661Y-87238095D01*
X64502661Y-87238095D02*
X64597899Y-87190476D01*
X64597899Y-87190476D02*
X64693137Y-87190476D01*
X64693137Y-87190476D02*
X64835994Y-87238095D01*
X64835994Y-87238095D02*
X65407423Y-87809523D01*
X65407423Y-87809523D02*
X65407423Y-87190476D01*
X64502661Y-86809523D02*
X64455042Y-86761904D01*
X64455042Y-86761904D02*
X64407423Y-86666666D01*
X64407423Y-86666666D02*
X64407423Y-86428571D01*
X64407423Y-86428571D02*
X64455042Y-86333333D01*
X64455042Y-86333333D02*
X64502661Y-86285714D01*
X64502661Y-86285714D02*
X64597899Y-86238095D01*
X64597899Y-86238095D02*
X64693137Y-86238095D01*
X64693137Y-86238095D02*
X64835994Y-86285714D01*
X64835994Y-86285714D02*
X65407423Y-86857142D01*
X65407423Y-86857142D02*
X65407423Y-86238095D01*
X63256153Y-97452169D02*
X63256153Y-98166454D01*
X63256153Y-98166454D02*
X63208534Y-98309311D01*
X63208534Y-98309311D02*
X63113296Y-98404550D01*
X63113296Y-98404550D02*
X62970439Y-98452169D01*
X62970439Y-98452169D02*
X62875201Y-98452169D01*
X63637106Y-97452169D02*
X64303772Y-97452169D01*
X64303772Y-97452169D02*
X63875201Y-98452169D01*
X57518058Y-95114700D02*
X58660916Y-95114700D01*
X58089487Y-95686128D02*
X58089487Y-94543271D01*
X68518058Y-95114700D02*
X69660916Y-95114700D01*
X62946629Y-90312184D02*
X62899010Y-90359804D01*
X62899010Y-90359804D02*
X62756153Y-90407423D01*
X62756153Y-90407423D02*
X62660915Y-90407423D01*
X62660915Y-90407423D02*
X62518058Y-90359804D01*
X62518058Y-90359804D02*
X62422820Y-90264565D01*
X62422820Y-90264565D02*
X62375201Y-90169327D01*
X62375201Y-90169327D02*
X62327582Y-89978851D01*
X62327582Y-89978851D02*
X62327582Y-89835994D01*
X62327582Y-89835994D02*
X62375201Y-89645518D01*
X62375201Y-89645518D02*
X62422820Y-89550280D01*
X62422820Y-89550280D02*
X62518058Y-89455042D01*
X62518058Y-89455042D02*
X62660915Y-89407423D01*
X62660915Y-89407423D02*
X62756153Y-89407423D01*
X62756153Y-89407423D02*
X62899010Y-89455042D01*
X62899010Y-89455042D02*
X62946629Y-89502661D01*
X63327582Y-89502661D02*
X63375201Y-89455042D01*
X63375201Y-89455042D02*
X63470439Y-89407423D01*
X63470439Y-89407423D02*
X63708534Y-89407423D01*
X63708534Y-89407423D02*
X63803772Y-89455042D01*
X63803772Y-89455042D02*
X63851391Y-89502661D01*
X63851391Y-89502661D02*
X63899010Y-89597899D01*
X63899010Y-89597899D02*
X63899010Y-89693137D01*
X63899010Y-89693137D02*
X63851391Y-89835994D01*
X63851391Y-89835994D02*
X63279963Y-90407423D01*
X63279963Y-90407423D02*
X63899010Y-90407423D01*
X64232344Y-89407423D02*
X64899010Y-89407423D01*
X64899010Y-89407423D02*
X64470439Y-90407423D01*
X46857142Y-90312184D02*
X46809523Y-90359804D01*
X46809523Y-90359804D02*
X46666666Y-90407423D01*
X46666666Y-90407423D02*
X46571428Y-90407423D01*
X46571428Y-90407423D02*
X46428571Y-90359804D01*
X46428571Y-90359804D02*
X46333333Y-90264565D01*
X46333333Y-90264565D02*
X46285714Y-90169327D01*
X46285714Y-90169327D02*
X46238095Y-89978851D01*
X46238095Y-89978851D02*
X46238095Y-89835994D01*
X46238095Y-89835994D02*
X46285714Y-89645518D01*
X46285714Y-89645518D02*
X46333333Y-89550280D01*
X46333333Y-89550280D02*
X46428571Y-89455042D01*
X46428571Y-89455042D02*
X46571428Y-89407423D01*
X46571428Y-89407423D02*
X46666666Y-89407423D01*
X46666666Y-89407423D02*
X46809523Y-89455042D01*
X46809523Y-89455042D02*
X46857142Y-89502661D01*
X47238095Y-89502661D02*
X47285714Y-89455042D01*
X47285714Y-89455042D02*
X47380952Y-89407423D01*
X47380952Y-89407423D02*
X47619047Y-89407423D01*
X47619047Y-89407423D02*
X47714285Y-89455042D01*
X47714285Y-89455042D02*
X47761904Y-89502661D01*
X47761904Y-89502661D02*
X47809523Y-89597899D01*
X47809523Y-89597899D02*
X47809523Y-89693137D01*
X47809523Y-89693137D02*
X47761904Y-89835994D01*
X47761904Y-89835994D02*
X47190476Y-90407423D01*
X47190476Y-90407423D02*
X47809523Y-90407423D01*
X48666666Y-89407423D02*
X48476190Y-89407423D01*
X48476190Y-89407423D02*
X48380952Y-89455042D01*
X48380952Y-89455042D02*
X48333333Y-89502661D01*
X48333333Y-89502661D02*
X48238095Y-89645518D01*
X48238095Y-89645518D02*
X48190476Y-89835994D01*
X48190476Y-89835994D02*
X48190476Y-90216946D01*
X48190476Y-90216946D02*
X48238095Y-90312184D01*
X48238095Y-90312184D02*
X48285714Y-90359804D01*
X48285714Y-90359804D02*
X48380952Y-90407423D01*
X48380952Y-90407423D02*
X48571428Y-90407423D01*
X48571428Y-90407423D02*
X48666666Y-90359804D01*
X48666666Y-90359804D02*
X48714285Y-90312184D01*
X48714285Y-90312184D02*
X48761904Y-90216946D01*
X48761904Y-90216946D02*
X48761904Y-89978851D01*
X48761904Y-89978851D02*
X48714285Y-89883613D01*
X48714285Y-89883613D02*
X48666666Y-89835994D01*
X48666666Y-89835994D02*
X48571428Y-89788375D01*
X48571428Y-89788375D02*
X48380952Y-89788375D01*
X48380952Y-89788375D02*
X48285714Y-89835994D01*
X48285714Y-89835994D02*
X48238095Y-89883613D01*
X48238095Y-89883613D02*
X48190476Y-89978851D01*
X47166666Y-97454819D02*
X47166666Y-98169104D01*
X47166666Y-98169104D02*
X47119047Y-98311961D01*
X47119047Y-98311961D02*
X47023809Y-98407200D01*
X47023809Y-98407200D02*
X46880952Y-98454819D01*
X46880952Y-98454819D02*
X46785714Y-98454819D01*
X48071428Y-97454819D02*
X47880952Y-97454819D01*
X47880952Y-97454819D02*
X47785714Y-97502438D01*
X47785714Y-97502438D02*
X47738095Y-97550057D01*
X47738095Y-97550057D02*
X47642857Y-97692914D01*
X47642857Y-97692914D02*
X47595238Y-97883390D01*
X47595238Y-97883390D02*
X47595238Y-98264342D01*
X47595238Y-98264342D02*
X47642857Y-98359580D01*
X47642857Y-98359580D02*
X47690476Y-98407200D01*
X47690476Y-98407200D02*
X47785714Y-98454819D01*
X47785714Y-98454819D02*
X47976190Y-98454819D01*
X47976190Y-98454819D02*
X48071428Y-98407200D01*
X48071428Y-98407200D02*
X48119047Y-98359580D01*
X48119047Y-98359580D02*
X48166666Y-98264342D01*
X48166666Y-98264342D02*
X48166666Y-98026247D01*
X48166666Y-98026247D02*
X48119047Y-97931009D01*
X48119047Y-97931009D02*
X48071428Y-97883390D01*
X48071428Y-97883390D02*
X47976190Y-97835771D01*
X47976190Y-97835771D02*
X47785714Y-97835771D01*
X47785714Y-97835771D02*
X47690476Y-97883390D01*
X47690476Y-97883390D02*
X47642857Y-97931009D01*
X47642857Y-97931009D02*
X47595238Y-98026247D01*
X41428571Y-95114700D02*
X42571429Y-95114700D01*
X42000000Y-95686128D02*
X42000000Y-94543271D01*
X52428571Y-95114700D02*
X53571429Y-95114700D01*
X31166666Y-97454819D02*
X31166666Y-98169104D01*
X31166666Y-98169104D02*
X31119047Y-98311961D01*
X31119047Y-98311961D02*
X31023809Y-98407200D01*
X31023809Y-98407200D02*
X30880952Y-98454819D01*
X30880952Y-98454819D02*
X30785714Y-98454819D01*
X32119047Y-97454819D02*
X31642857Y-97454819D01*
X31642857Y-97454819D02*
X31595238Y-97931009D01*
X31595238Y-97931009D02*
X31642857Y-97883390D01*
X31642857Y-97883390D02*
X31738095Y-97835771D01*
X31738095Y-97835771D02*
X31976190Y-97835771D01*
X31976190Y-97835771D02*
X32071428Y-97883390D01*
X32071428Y-97883390D02*
X32119047Y-97931009D01*
X32119047Y-97931009D02*
X32166666Y-98026247D01*
X32166666Y-98026247D02*
X32166666Y-98264342D01*
X32166666Y-98264342D02*
X32119047Y-98359580D01*
X32119047Y-98359580D02*
X32071428Y-98407200D01*
X32071428Y-98407200D02*
X31976190Y-98454819D01*
X31976190Y-98454819D02*
X31738095Y-98454819D01*
X31738095Y-98454819D02*
X31642857Y-98407200D01*
X31642857Y-98407200D02*
X31595238Y-98359580D01*
X36428571Y-95114700D02*
X37571429Y-95114700D01*
X25428571Y-95114700D02*
X26571429Y-95114700D01*
X26000000Y-95686128D02*
X26000000Y-94543271D01*
X30857142Y-90179580D02*
X30809523Y-90227200D01*
X30809523Y-90227200D02*
X30666666Y-90274819D01*
X30666666Y-90274819D02*
X30571428Y-90274819D01*
X30571428Y-90274819D02*
X30428571Y-90227200D01*
X30428571Y-90227200D02*
X30333333Y-90131961D01*
X30333333Y-90131961D02*
X30285714Y-90036723D01*
X30285714Y-90036723D02*
X30238095Y-89846247D01*
X30238095Y-89846247D02*
X30238095Y-89703390D01*
X30238095Y-89703390D02*
X30285714Y-89512914D01*
X30285714Y-89512914D02*
X30333333Y-89417676D01*
X30333333Y-89417676D02*
X30428571Y-89322438D01*
X30428571Y-89322438D02*
X30571428Y-89274819D01*
X30571428Y-89274819D02*
X30666666Y-89274819D01*
X30666666Y-89274819D02*
X30809523Y-89322438D01*
X30809523Y-89322438D02*
X30857142Y-89370057D01*
X31238095Y-89370057D02*
X31285714Y-89322438D01*
X31285714Y-89322438D02*
X31380952Y-89274819D01*
X31380952Y-89274819D02*
X31619047Y-89274819D01*
X31619047Y-89274819D02*
X31714285Y-89322438D01*
X31714285Y-89322438D02*
X31761904Y-89370057D01*
X31761904Y-89370057D02*
X31809523Y-89465295D01*
X31809523Y-89465295D02*
X31809523Y-89560533D01*
X31809523Y-89560533D02*
X31761904Y-89703390D01*
X31761904Y-89703390D02*
X31190476Y-90274819D01*
X31190476Y-90274819D02*
X31809523Y-90274819D01*
X32714285Y-89274819D02*
X32238095Y-89274819D01*
X32238095Y-89274819D02*
X32190476Y-89751009D01*
X32190476Y-89751009D02*
X32238095Y-89703390D01*
X32238095Y-89703390D02*
X32333333Y-89655771D01*
X32333333Y-89655771D02*
X32571428Y-89655771D01*
X32571428Y-89655771D02*
X32666666Y-89703390D01*
X32666666Y-89703390D02*
X32714285Y-89751009D01*
X32714285Y-89751009D02*
X32761904Y-89846247D01*
X32761904Y-89846247D02*
X32761904Y-90084342D01*
X32761904Y-90084342D02*
X32714285Y-90179580D01*
X32714285Y-90179580D02*
X32666666Y-90227200D01*
X32666666Y-90227200D02*
X32571428Y-90274819D01*
X32571428Y-90274819D02*
X32333333Y-90274819D01*
X32333333Y-90274819D02*
X32238095Y-90227200D01*
X32238095Y-90227200D02*
X32190476Y-90179580D01*
X78238095Y-104454819D02*
X78238095Y-103454819D01*
X78238095Y-103931009D02*
X78809523Y-103931009D01*
X78809523Y-104454819D02*
X78809523Y-103454819D01*
X79238095Y-103550057D02*
X79285714Y-103502438D01*
X79285714Y-103502438D02*
X79380952Y-103454819D01*
X79380952Y-103454819D02*
X79619047Y-103454819D01*
X79619047Y-103454819D02*
X79714285Y-103502438D01*
X79714285Y-103502438D02*
X79761904Y-103550057D01*
X79761904Y-103550057D02*
X79809523Y-103645295D01*
X79809523Y-103645295D02*
X79809523Y-103740533D01*
X79809523Y-103740533D02*
X79761904Y-103883390D01*
X79761904Y-103883390D02*
X79190476Y-104454819D01*
X79190476Y-104454819D02*
X79809523Y-104454819D01*
X75175595Y-37004819D02*
X75175595Y-37814342D01*
X75175595Y-37814342D02*
X75223214Y-37909580D01*
X75223214Y-37909580D02*
X75270833Y-37957200D01*
X75270833Y-37957200D02*
X75366071Y-38004819D01*
X75366071Y-38004819D02*
X75556547Y-38004819D01*
X75556547Y-38004819D02*
X75651785Y-37957200D01*
X75651785Y-37957200D02*
X75699404Y-37909580D01*
X75699404Y-37909580D02*
X75747023Y-37814342D01*
X75747023Y-37814342D02*
X75747023Y-37004819D01*
X76651785Y-37338152D02*
X76651785Y-38004819D01*
X76413690Y-36957200D02*
X76175595Y-37671485D01*
X76175595Y-37671485D02*
X76794642Y-37671485D01*
X70316033Y-41549999D02*
X69982700Y-41783332D01*
X70316033Y-41949999D02*
X69616033Y-41949999D01*
X69616033Y-41949999D02*
X69616033Y-41683332D01*
X69616033Y-41683332D02*
X69649366Y-41616666D01*
X69649366Y-41616666D02*
X69682700Y-41583332D01*
X69682700Y-41583332D02*
X69749366Y-41549999D01*
X69749366Y-41549999D02*
X69849366Y-41549999D01*
X69849366Y-41549999D02*
X69916033Y-41583332D01*
X69916033Y-41583332D02*
X69949366Y-41616666D01*
X69949366Y-41616666D02*
X69982700Y-41683332D01*
X69982700Y-41683332D02*
X69982700Y-41949999D01*
X70282700Y-41283332D02*
X70316033Y-41216666D01*
X70316033Y-41216666D02*
X70316033Y-41083332D01*
X70316033Y-41083332D02*
X70282700Y-41016666D01*
X70282700Y-41016666D02*
X70216033Y-40983332D01*
X70216033Y-40983332D02*
X70182700Y-40983332D01*
X70182700Y-40983332D02*
X70116033Y-41016666D01*
X70116033Y-41016666D02*
X70082700Y-41083332D01*
X70082700Y-41083332D02*
X70082700Y-41183332D01*
X70082700Y-41183332D02*
X70049366Y-41249999D01*
X70049366Y-41249999D02*
X69982700Y-41283332D01*
X69982700Y-41283332D02*
X69949366Y-41283332D01*
X69949366Y-41283332D02*
X69882700Y-41249999D01*
X69882700Y-41249999D02*
X69849366Y-41183332D01*
X69849366Y-41183332D02*
X69849366Y-41083332D01*
X69849366Y-41083332D02*
X69882700Y-41016666D01*
X70316033Y-40683332D02*
X69616033Y-40683332D01*
X70316033Y-40383332D02*
X69949366Y-40383332D01*
X69949366Y-40383332D02*
X69882700Y-40416665D01*
X69882700Y-40416665D02*
X69849366Y-40483332D01*
X69849366Y-40483332D02*
X69849366Y-40583332D01*
X69849366Y-40583332D02*
X69882700Y-40649999D01*
X69882700Y-40649999D02*
X69916033Y-40683332D01*
X69849366Y-39749999D02*
X70316033Y-39749999D01*
X69849366Y-40049999D02*
X70216033Y-40049999D01*
X70216033Y-40049999D02*
X70282700Y-40016666D01*
X70282700Y-40016666D02*
X70316033Y-39949999D01*
X70316033Y-39949999D02*
X70316033Y-39849999D01*
X70316033Y-39849999D02*
X70282700Y-39783332D01*
X70282700Y-39783332D02*
X70249366Y-39749999D01*
X69849366Y-39416666D02*
X70316033Y-39416666D01*
X69916033Y-39416666D02*
X69882700Y-39383333D01*
X69882700Y-39383333D02*
X69849366Y-39316666D01*
X69849366Y-39316666D02*
X69849366Y-39216666D01*
X69849366Y-39216666D02*
X69882700Y-39149999D01*
X69882700Y-39149999D02*
X69949366Y-39116666D01*
X69949366Y-39116666D02*
X70316033Y-39116666D01*
X69849366Y-38883333D02*
X69849366Y-38616666D01*
X69616033Y-38783333D02*
X70216033Y-38783333D01*
X70216033Y-38783333D02*
X70282700Y-38750000D01*
X70282700Y-38750000D02*
X70316033Y-38683333D01*
X70316033Y-38683333D02*
X70316033Y-38616666D01*
X70316033Y-38016666D02*
X70316033Y-38416666D01*
X70316033Y-38216666D02*
X69616033Y-38216666D01*
X69616033Y-38216666D02*
X69716033Y-38283333D01*
X69716033Y-38283333D02*
X69782700Y-38350000D01*
X69782700Y-38350000D02*
X69816033Y-38416666D01*
X76357142Y-43709580D02*
X76309523Y-43757200D01*
X76309523Y-43757200D02*
X76166666Y-43804819D01*
X76166666Y-43804819D02*
X76071428Y-43804819D01*
X76071428Y-43804819D02*
X75928571Y-43757200D01*
X75928571Y-43757200D02*
X75833333Y-43661961D01*
X75833333Y-43661961D02*
X75785714Y-43566723D01*
X75785714Y-43566723D02*
X75738095Y-43376247D01*
X75738095Y-43376247D02*
X75738095Y-43233390D01*
X75738095Y-43233390D02*
X75785714Y-43042914D01*
X75785714Y-43042914D02*
X75833333Y-42947676D01*
X75833333Y-42947676D02*
X75928571Y-42852438D01*
X75928571Y-42852438D02*
X76071428Y-42804819D01*
X76071428Y-42804819D02*
X76166666Y-42804819D01*
X76166666Y-42804819D02*
X76309523Y-42852438D01*
X76309523Y-42852438D02*
X76357142Y-42900057D01*
X76738095Y-42900057D02*
X76785714Y-42852438D01*
X76785714Y-42852438D02*
X76880952Y-42804819D01*
X76880952Y-42804819D02*
X77119047Y-42804819D01*
X77119047Y-42804819D02*
X77214285Y-42852438D01*
X77214285Y-42852438D02*
X77261904Y-42900057D01*
X77261904Y-42900057D02*
X77309523Y-42995295D01*
X77309523Y-42995295D02*
X77309523Y-43090533D01*
X77309523Y-43090533D02*
X77261904Y-43233390D01*
X77261904Y-43233390D02*
X76690476Y-43804819D01*
X76690476Y-43804819D02*
X77309523Y-43804819D01*
X77928571Y-42804819D02*
X78023809Y-42804819D01*
X78023809Y-42804819D02*
X78119047Y-42852438D01*
X78119047Y-42852438D02*
X78166666Y-42900057D01*
X78166666Y-42900057D02*
X78214285Y-42995295D01*
X78214285Y-42995295D02*
X78261904Y-43185771D01*
X78261904Y-43185771D02*
X78261904Y-43423866D01*
X78261904Y-43423866D02*
X78214285Y-43614342D01*
X78214285Y-43614342D02*
X78166666Y-43709580D01*
X78166666Y-43709580D02*
X78119047Y-43757200D01*
X78119047Y-43757200D02*
X78023809Y-43804819D01*
X78023809Y-43804819D02*
X77928571Y-43804819D01*
X77928571Y-43804819D02*
X77833333Y-43757200D01*
X77833333Y-43757200D02*
X77785714Y-43709580D01*
X77785714Y-43709580D02*
X77738095Y-43614342D01*
X77738095Y-43614342D02*
X77690476Y-43423866D01*
X77690476Y-43423866D02*
X77690476Y-43185771D01*
X77690476Y-43185771D02*
X77738095Y-42995295D01*
X77738095Y-42995295D02*
X77785714Y-42900057D01*
X77785714Y-42900057D02*
X77833333Y-42852438D01*
X77833333Y-42852438D02*
X77928571Y-42804819D01*
X65707142Y-43459580D02*
X65659523Y-43507200D01*
X65659523Y-43507200D02*
X65516666Y-43554819D01*
X65516666Y-43554819D02*
X65421428Y-43554819D01*
X65421428Y-43554819D02*
X65278571Y-43507200D01*
X65278571Y-43507200D02*
X65183333Y-43411961D01*
X65183333Y-43411961D02*
X65135714Y-43316723D01*
X65135714Y-43316723D02*
X65088095Y-43126247D01*
X65088095Y-43126247D02*
X65088095Y-42983390D01*
X65088095Y-42983390D02*
X65135714Y-42792914D01*
X65135714Y-42792914D02*
X65183333Y-42697676D01*
X65183333Y-42697676D02*
X65278571Y-42602438D01*
X65278571Y-42602438D02*
X65421428Y-42554819D01*
X65421428Y-42554819D02*
X65516666Y-42554819D01*
X65516666Y-42554819D02*
X65659523Y-42602438D01*
X65659523Y-42602438D02*
X65707142Y-42650057D01*
X66088095Y-42650057D02*
X66135714Y-42602438D01*
X66135714Y-42602438D02*
X66230952Y-42554819D01*
X66230952Y-42554819D02*
X66469047Y-42554819D01*
X66469047Y-42554819D02*
X66564285Y-42602438D01*
X66564285Y-42602438D02*
X66611904Y-42650057D01*
X66611904Y-42650057D02*
X66659523Y-42745295D01*
X66659523Y-42745295D02*
X66659523Y-42840533D01*
X66659523Y-42840533D02*
X66611904Y-42983390D01*
X66611904Y-42983390D02*
X66040476Y-43554819D01*
X66040476Y-43554819D02*
X66659523Y-43554819D01*
X66992857Y-42554819D02*
X67611904Y-42554819D01*
X67611904Y-42554819D02*
X67278571Y-42935771D01*
X67278571Y-42935771D02*
X67421428Y-42935771D01*
X67421428Y-42935771D02*
X67516666Y-42983390D01*
X67516666Y-42983390D02*
X67564285Y-43031009D01*
X67564285Y-43031009D02*
X67611904Y-43126247D01*
X67611904Y-43126247D02*
X67611904Y-43364342D01*
X67611904Y-43364342D02*
X67564285Y-43459580D01*
X67564285Y-43459580D02*
X67516666Y-43507200D01*
X67516666Y-43507200D02*
X67421428Y-43554819D01*
X67421428Y-43554819D02*
X67135714Y-43554819D01*
X67135714Y-43554819D02*
X67040476Y-43507200D01*
X67040476Y-43507200D02*
X66992857Y-43459580D01*
X72454819Y-30833333D02*
X73169104Y-30833333D01*
X73169104Y-30833333D02*
X73311961Y-30880952D01*
X73311961Y-30880952D02*
X73407200Y-30976190D01*
X73407200Y-30976190D02*
X73454819Y-31119047D01*
X73454819Y-31119047D02*
X73454819Y-31214285D01*
X73454819Y-29833333D02*
X73454819Y-30404761D01*
X73454819Y-30119047D02*
X72454819Y-30119047D01*
X72454819Y-30119047D02*
X72597676Y-30214285D01*
X72597676Y-30214285D02*
X72692914Y-30309523D01*
X72692914Y-30309523D02*
X72740533Y-30404761D01*
X70114700Y-36571428D02*
X70114700Y-35428571D01*
X70686128Y-35999999D02*
X69543271Y-35999999D01*
X70114700Y-25571428D02*
X70114700Y-24428571D01*
X81725476Y-75174819D02*
X81725476Y-75889104D01*
X81725476Y-75889104D02*
X81677857Y-76031961D01*
X81677857Y-76031961D02*
X81582619Y-76127200D01*
X81582619Y-76127200D02*
X81439762Y-76174819D01*
X81439762Y-76174819D02*
X81344524Y-76174819D01*
X82725476Y-76174819D02*
X82154048Y-76174819D01*
X82439762Y-76174819D02*
X82439762Y-75174819D01*
X82439762Y-75174819D02*
X82344524Y-75317676D01*
X82344524Y-75317676D02*
X82249286Y-75412914D01*
X82249286Y-75412914D02*
X82154048Y-75460533D01*
X83344524Y-75174819D02*
X83439762Y-75174819D01*
X83439762Y-75174819D02*
X83535000Y-75222438D01*
X83535000Y-75222438D02*
X83582619Y-75270057D01*
X83582619Y-75270057D02*
X83630238Y-75365295D01*
X83630238Y-75365295D02*
X83677857Y-75555771D01*
X83677857Y-75555771D02*
X83677857Y-75793866D01*
X83677857Y-75793866D02*
X83630238Y-75984342D01*
X83630238Y-75984342D02*
X83582619Y-76079580D01*
X83582619Y-76079580D02*
X83535000Y-76127200D01*
X83535000Y-76127200D02*
X83439762Y-76174819D01*
X83439762Y-76174819D02*
X83344524Y-76174819D01*
X83344524Y-76174819D02*
X83249286Y-76127200D01*
X83249286Y-76127200D02*
X83201667Y-76079580D01*
X83201667Y-76079580D02*
X83154048Y-75984342D01*
X83154048Y-75984342D02*
X83106429Y-75793866D01*
X83106429Y-75793866D02*
X83106429Y-75555771D01*
X83106429Y-75555771D02*
X83154048Y-75365295D01*
X83154048Y-75365295D02*
X83201667Y-75270057D01*
X83201667Y-75270057D02*
X83249286Y-75222438D01*
X83249286Y-75222438D02*
X83344524Y-75174819D01*
X72762319Y-69166666D02*
X72286128Y-69499999D01*
X72762319Y-69738094D02*
X71762319Y-69738094D01*
X71762319Y-69738094D02*
X71762319Y-69357142D01*
X71762319Y-69357142D02*
X71809938Y-69261904D01*
X71809938Y-69261904D02*
X71857557Y-69214285D01*
X71857557Y-69214285D02*
X71952795Y-69166666D01*
X71952795Y-69166666D02*
X72095652Y-69166666D01*
X72095652Y-69166666D02*
X72190890Y-69214285D01*
X72190890Y-69214285D02*
X72238509Y-69261904D01*
X72238509Y-69261904D02*
X72286128Y-69357142D01*
X72286128Y-69357142D02*
X72286128Y-69738094D01*
X72190890Y-68595237D02*
X72143271Y-68690475D01*
X72143271Y-68690475D02*
X72095652Y-68738094D01*
X72095652Y-68738094D02*
X72000414Y-68785713D01*
X72000414Y-68785713D02*
X71952795Y-68785713D01*
X71952795Y-68785713D02*
X71857557Y-68738094D01*
X71857557Y-68738094D02*
X71809938Y-68690475D01*
X71809938Y-68690475D02*
X71762319Y-68595237D01*
X71762319Y-68595237D02*
X71762319Y-68404761D01*
X71762319Y-68404761D02*
X71809938Y-68309523D01*
X71809938Y-68309523D02*
X71857557Y-68261904D01*
X71857557Y-68261904D02*
X71952795Y-68214285D01*
X71952795Y-68214285D02*
X72000414Y-68214285D01*
X72000414Y-68214285D02*
X72095652Y-68261904D01*
X72095652Y-68261904D02*
X72143271Y-68309523D01*
X72143271Y-68309523D02*
X72190890Y-68404761D01*
X72190890Y-68404761D02*
X72190890Y-68595237D01*
X72190890Y-68595237D02*
X72238509Y-68690475D01*
X72238509Y-68690475D02*
X72286128Y-68738094D01*
X72286128Y-68738094D02*
X72381366Y-68785713D01*
X72381366Y-68785713D02*
X72571842Y-68785713D01*
X72571842Y-68785713D02*
X72667080Y-68738094D01*
X72667080Y-68738094D02*
X72714700Y-68690475D01*
X72714700Y-68690475D02*
X72762319Y-68595237D01*
X72762319Y-68595237D02*
X72762319Y-68404761D01*
X72762319Y-68404761D02*
X72714700Y-68309523D01*
X72714700Y-68309523D02*
X72667080Y-68261904D01*
X72667080Y-68261904D02*
X72571842Y-68214285D01*
X72571842Y-68214285D02*
X72381366Y-68214285D01*
X72381366Y-68214285D02*
X72286128Y-68261904D01*
X72286128Y-68261904D02*
X72238509Y-68309523D01*
X72238509Y-68309523D02*
X72190890Y-68404761D01*
D13*
X74458831Y-77814285D02*
X74173117Y-78014285D01*
X74458831Y-78157142D02*
X73858831Y-78157142D01*
X73858831Y-78157142D02*
X73858831Y-77928571D01*
X73858831Y-77928571D02*
X73887402Y-77871428D01*
X73887402Y-77871428D02*
X73915974Y-77842857D01*
X73915974Y-77842857D02*
X73973117Y-77814285D01*
X73973117Y-77814285D02*
X74058831Y-77814285D01*
X74058831Y-77814285D02*
X74115974Y-77842857D01*
X74115974Y-77842857D02*
X74144545Y-77871428D01*
X74144545Y-77871428D02*
X74173117Y-77928571D01*
X74173117Y-77928571D02*
X74173117Y-78157142D01*
X74058831Y-77642857D02*
X74058831Y-77414285D01*
X74458831Y-77557142D02*
X73944545Y-77557142D01*
X73944545Y-77557142D02*
X73887402Y-77528571D01*
X73887402Y-77528571D02*
X73858831Y-77471428D01*
X73858831Y-77471428D02*
X73858831Y-77414285D01*
X74458831Y-77214285D02*
X73858831Y-77214285D01*
X74087402Y-77214285D02*
X74058831Y-77157143D01*
X74058831Y-77157143D02*
X74058831Y-77042857D01*
X74058831Y-77042857D02*
X74087402Y-76985714D01*
X74087402Y-76985714D02*
X74115974Y-76957143D01*
X74115974Y-76957143D02*
X74173117Y-76928571D01*
X74173117Y-76928571D02*
X74344545Y-76928571D01*
X74344545Y-76928571D02*
X74401688Y-76957143D01*
X74401688Y-76957143D02*
X74430260Y-76985714D01*
X74430260Y-76985714D02*
X74458831Y-77042857D01*
X74458831Y-77042857D02*
X74458831Y-77157143D01*
X74458831Y-77157143D02*
X74430260Y-77214285D01*
X74458831Y-76671428D02*
X73858831Y-76671428D01*
X74087402Y-76671428D02*
X74058831Y-76614286D01*
X74058831Y-76614286D02*
X74058831Y-76500000D01*
X74058831Y-76500000D02*
X74087402Y-76442857D01*
X74087402Y-76442857D02*
X74115974Y-76414286D01*
X74115974Y-76414286D02*
X74173117Y-76385714D01*
X74173117Y-76385714D02*
X74344545Y-76385714D01*
X74344545Y-76385714D02*
X74401688Y-76414286D01*
X74401688Y-76414286D02*
X74430260Y-76442857D01*
X74430260Y-76442857D02*
X74458831Y-76500000D01*
X74458831Y-76500000D02*
X74458831Y-76614286D01*
X74458831Y-76614286D02*
X74430260Y-76671428D01*
X74458831Y-75814286D02*
X74458831Y-76157143D01*
X74458831Y-75985714D02*
X73858831Y-75985714D01*
X73858831Y-75985714D02*
X73944545Y-76042857D01*
X73944545Y-76042857D02*
X74001688Y-76100000D01*
X74001688Y-76100000D02*
X74030260Y-76157143D01*
D12*
X78454819Y-69711904D02*
X79264342Y-69711904D01*
X79264342Y-69711904D02*
X79359580Y-69664285D01*
X79359580Y-69664285D02*
X79407200Y-69616666D01*
X79407200Y-69616666D02*
X79454819Y-69521428D01*
X79454819Y-69521428D02*
X79454819Y-69330952D01*
X79454819Y-69330952D02*
X79407200Y-69235714D01*
X79407200Y-69235714D02*
X79359580Y-69188095D01*
X79359580Y-69188095D02*
X79264342Y-69140476D01*
X79264342Y-69140476D02*
X78454819Y-69140476D01*
X78454819Y-68188095D02*
X78454819Y-68664285D01*
X78454819Y-68664285D02*
X78931009Y-68711904D01*
X78931009Y-68711904D02*
X78883390Y-68664285D01*
X78883390Y-68664285D02*
X78835771Y-68569047D01*
X78835771Y-68569047D02*
X78835771Y-68330952D01*
X78835771Y-68330952D02*
X78883390Y-68235714D01*
X78883390Y-68235714D02*
X78931009Y-68188095D01*
X78931009Y-68188095D02*
X79026247Y-68140476D01*
X79026247Y-68140476D02*
X79264342Y-68140476D01*
X79264342Y-68140476D02*
X79359580Y-68188095D01*
X79359580Y-68188095D02*
X79407200Y-68235714D01*
X79407200Y-68235714D02*
X79454819Y-68330952D01*
X79454819Y-68330952D02*
X79454819Y-68569047D01*
X79454819Y-68569047D02*
X79407200Y-68664285D01*
X79407200Y-68664285D02*
X79359580Y-68711904D01*
X79786104Y-71514285D02*
X79824200Y-71552381D01*
X79824200Y-71552381D02*
X79862295Y-71666666D01*
X79862295Y-71666666D02*
X79862295Y-71742857D01*
X79862295Y-71742857D02*
X79824200Y-71857143D01*
X79824200Y-71857143D02*
X79748009Y-71933333D01*
X79748009Y-71933333D02*
X79671819Y-71971428D01*
X79671819Y-71971428D02*
X79519438Y-72009524D01*
X79519438Y-72009524D02*
X79405152Y-72009524D01*
X79405152Y-72009524D02*
X79252771Y-71971428D01*
X79252771Y-71971428D02*
X79176580Y-71933333D01*
X79176580Y-71933333D02*
X79100390Y-71857143D01*
X79100390Y-71857143D02*
X79062295Y-71742857D01*
X79062295Y-71742857D02*
X79062295Y-71666666D01*
X79062295Y-71666666D02*
X79100390Y-71552381D01*
X79100390Y-71552381D02*
X79138485Y-71514285D01*
X79862295Y-70752381D02*
X79862295Y-71209524D01*
X79862295Y-70980952D02*
X79062295Y-70980952D01*
X79062295Y-70980952D02*
X79176580Y-71057143D01*
X79176580Y-71057143D02*
X79252771Y-71133333D01*
X79252771Y-71133333D02*
X79290866Y-71209524D01*
X79062295Y-70485714D02*
X79062295Y-69952380D01*
X79062295Y-69952380D02*
X79862295Y-70295238D01*
X69869819Y-63333333D02*
X70584104Y-63333333D01*
X70584104Y-63333333D02*
X70726961Y-63380952D01*
X70726961Y-63380952D02*
X70822200Y-63476190D01*
X70822200Y-63476190D02*
X70869819Y-63619047D01*
X70869819Y-63619047D02*
X70869819Y-63714285D01*
X70869819Y-62809523D02*
X70869819Y-62619047D01*
X70869819Y-62619047D02*
X70822200Y-62523809D01*
X70822200Y-62523809D02*
X70774580Y-62476190D01*
X70774580Y-62476190D02*
X70631723Y-62380952D01*
X70631723Y-62380952D02*
X70441247Y-62333333D01*
X70441247Y-62333333D02*
X70060295Y-62333333D01*
X70060295Y-62333333D02*
X69965057Y-62380952D01*
X69965057Y-62380952D02*
X69917438Y-62428571D01*
X69917438Y-62428571D02*
X69869819Y-62523809D01*
X69869819Y-62523809D02*
X69869819Y-62714285D01*
X69869819Y-62714285D02*
X69917438Y-62809523D01*
X69917438Y-62809523D02*
X69965057Y-62857142D01*
X69965057Y-62857142D02*
X70060295Y-62904761D01*
X70060295Y-62904761D02*
X70298390Y-62904761D01*
X70298390Y-62904761D02*
X70393628Y-62857142D01*
X70393628Y-62857142D02*
X70441247Y-62809523D01*
X70441247Y-62809523D02*
X70488866Y-62714285D01*
X70488866Y-62714285D02*
X70488866Y-62523809D01*
X70488866Y-62523809D02*
X70441247Y-62428571D01*
X70441247Y-62428571D02*
X70393628Y-62380952D01*
X70393628Y-62380952D02*
X70298390Y-62333333D01*
D13*
X71606331Y-71714285D02*
X71320617Y-71914285D01*
X71606331Y-72057142D02*
X71006331Y-72057142D01*
X71006331Y-72057142D02*
X71006331Y-71828571D01*
X71006331Y-71828571D02*
X71034902Y-71771428D01*
X71034902Y-71771428D02*
X71063474Y-71742857D01*
X71063474Y-71742857D02*
X71120617Y-71714285D01*
X71120617Y-71714285D02*
X71206331Y-71714285D01*
X71206331Y-71714285D02*
X71263474Y-71742857D01*
X71263474Y-71742857D02*
X71292045Y-71771428D01*
X71292045Y-71771428D02*
X71320617Y-71828571D01*
X71320617Y-71828571D02*
X71320617Y-72057142D01*
X71206331Y-71542857D02*
X71206331Y-71314285D01*
X71606331Y-71457142D02*
X71092045Y-71457142D01*
X71092045Y-71457142D02*
X71034902Y-71428571D01*
X71034902Y-71428571D02*
X71006331Y-71371428D01*
X71006331Y-71371428D02*
X71006331Y-71314285D01*
X71606331Y-71114285D02*
X71006331Y-71114285D01*
X71234902Y-71114285D02*
X71206331Y-71057143D01*
X71206331Y-71057143D02*
X71206331Y-70942857D01*
X71206331Y-70942857D02*
X71234902Y-70885714D01*
X71234902Y-70885714D02*
X71263474Y-70857143D01*
X71263474Y-70857143D02*
X71320617Y-70828571D01*
X71320617Y-70828571D02*
X71492045Y-70828571D01*
X71492045Y-70828571D02*
X71549188Y-70857143D01*
X71549188Y-70857143D02*
X71577760Y-70885714D01*
X71577760Y-70885714D02*
X71606331Y-70942857D01*
X71606331Y-70942857D02*
X71606331Y-71057143D01*
X71606331Y-71057143D02*
X71577760Y-71114285D01*
X71206331Y-70657143D02*
X71206331Y-70428571D01*
X71006331Y-70571428D02*
X71520617Y-70571428D01*
X71520617Y-70571428D02*
X71577760Y-70542857D01*
X71577760Y-70542857D02*
X71606331Y-70485714D01*
X71606331Y-70485714D02*
X71606331Y-70428571D01*
X71606331Y-69914286D02*
X71606331Y-70257143D01*
X71606331Y-70085714D02*
X71006331Y-70085714D01*
X71006331Y-70085714D02*
X71092045Y-70142857D01*
X71092045Y-70142857D02*
X71149188Y-70200000D01*
X71149188Y-70200000D02*
X71177760Y-70257143D01*
D12*
X74692142Y-65509580D02*
X74644523Y-65557200D01*
X74644523Y-65557200D02*
X74501666Y-65604819D01*
X74501666Y-65604819D02*
X74406428Y-65604819D01*
X74406428Y-65604819D02*
X74263571Y-65557200D01*
X74263571Y-65557200D02*
X74168333Y-65461961D01*
X74168333Y-65461961D02*
X74120714Y-65366723D01*
X74120714Y-65366723D02*
X74073095Y-65176247D01*
X74073095Y-65176247D02*
X74073095Y-65033390D01*
X74073095Y-65033390D02*
X74120714Y-64842914D01*
X74120714Y-64842914D02*
X74168333Y-64747676D01*
X74168333Y-64747676D02*
X74263571Y-64652438D01*
X74263571Y-64652438D02*
X74406428Y-64604819D01*
X74406428Y-64604819D02*
X74501666Y-64604819D01*
X74501666Y-64604819D02*
X74644523Y-64652438D01*
X74644523Y-64652438D02*
X74692142Y-64700057D01*
X75644523Y-65604819D02*
X75073095Y-65604819D01*
X75358809Y-65604819D02*
X75358809Y-64604819D01*
X75358809Y-64604819D02*
X75263571Y-64747676D01*
X75263571Y-64747676D02*
X75168333Y-64842914D01*
X75168333Y-64842914D02*
X75073095Y-64890533D01*
X76120714Y-65604819D02*
X76311190Y-65604819D01*
X76311190Y-65604819D02*
X76406428Y-65557200D01*
X76406428Y-65557200D02*
X76454047Y-65509580D01*
X76454047Y-65509580D02*
X76549285Y-65366723D01*
X76549285Y-65366723D02*
X76596904Y-65176247D01*
X76596904Y-65176247D02*
X76596904Y-64795295D01*
X76596904Y-64795295D02*
X76549285Y-64700057D01*
X76549285Y-64700057D02*
X76501666Y-64652438D01*
X76501666Y-64652438D02*
X76406428Y-64604819D01*
X76406428Y-64604819D02*
X76215952Y-64604819D01*
X76215952Y-64604819D02*
X76120714Y-64652438D01*
X76120714Y-64652438D02*
X76073095Y-64700057D01*
X76073095Y-64700057D02*
X76025476Y-64795295D01*
X76025476Y-64795295D02*
X76025476Y-65033390D01*
X76025476Y-65033390D02*
X76073095Y-65128628D01*
X76073095Y-65128628D02*
X76120714Y-65176247D01*
X76120714Y-65176247D02*
X76215952Y-65223866D01*
X76215952Y-65223866D02*
X76406428Y-65223866D01*
X76406428Y-65223866D02*
X76501666Y-65176247D01*
X76501666Y-65176247D02*
X76549285Y-65128628D01*
X76549285Y-65128628D02*
X76596904Y-65033390D01*
X70997080Y-75092857D02*
X71044700Y-75140476D01*
X71044700Y-75140476D02*
X71092319Y-75283333D01*
X71092319Y-75283333D02*
X71092319Y-75378571D01*
X71092319Y-75378571D02*
X71044700Y-75521428D01*
X71044700Y-75521428D02*
X70949461Y-75616666D01*
X70949461Y-75616666D02*
X70854223Y-75664285D01*
X70854223Y-75664285D02*
X70663747Y-75711904D01*
X70663747Y-75711904D02*
X70520890Y-75711904D01*
X70520890Y-75711904D02*
X70330414Y-75664285D01*
X70330414Y-75664285D02*
X70235176Y-75616666D01*
X70235176Y-75616666D02*
X70139938Y-75521428D01*
X70139938Y-75521428D02*
X70092319Y-75378571D01*
X70092319Y-75378571D02*
X70092319Y-75283333D01*
X70092319Y-75283333D02*
X70139938Y-75140476D01*
X70139938Y-75140476D02*
X70187557Y-75092857D01*
X71092319Y-74140476D02*
X71092319Y-74711904D01*
X71092319Y-74426190D02*
X70092319Y-74426190D01*
X70092319Y-74426190D02*
X70235176Y-74521428D01*
X70235176Y-74521428D02*
X70330414Y-74616666D01*
X70330414Y-74616666D02*
X70378033Y-74711904D01*
X70520890Y-73569047D02*
X70473271Y-73664285D01*
X70473271Y-73664285D02*
X70425652Y-73711904D01*
X70425652Y-73711904D02*
X70330414Y-73759523D01*
X70330414Y-73759523D02*
X70282795Y-73759523D01*
X70282795Y-73759523D02*
X70187557Y-73711904D01*
X70187557Y-73711904D02*
X70139938Y-73664285D01*
X70139938Y-73664285D02*
X70092319Y-73569047D01*
X70092319Y-73569047D02*
X70092319Y-73378571D01*
X70092319Y-73378571D02*
X70139938Y-73283333D01*
X70139938Y-73283333D02*
X70187557Y-73235714D01*
X70187557Y-73235714D02*
X70282795Y-73188095D01*
X70282795Y-73188095D02*
X70330414Y-73188095D01*
X70330414Y-73188095D02*
X70425652Y-73235714D01*
X70425652Y-73235714D02*
X70473271Y-73283333D01*
X70473271Y-73283333D02*
X70520890Y-73378571D01*
X70520890Y-73378571D02*
X70520890Y-73569047D01*
X70520890Y-73569047D02*
X70568509Y-73664285D01*
X70568509Y-73664285D02*
X70616128Y-73711904D01*
X70616128Y-73711904D02*
X70711366Y-73759523D01*
X70711366Y-73759523D02*
X70901842Y-73759523D01*
X70901842Y-73759523D02*
X70997080Y-73711904D01*
X70997080Y-73711904D02*
X71044700Y-73664285D01*
X71044700Y-73664285D02*
X71092319Y-73569047D01*
X71092319Y-73569047D02*
X71092319Y-73378571D01*
X71092319Y-73378571D02*
X71044700Y-73283333D01*
X71044700Y-73283333D02*
X70997080Y-73235714D01*
X70997080Y-73235714D02*
X70901842Y-73188095D01*
X70901842Y-73188095D02*
X70711366Y-73188095D01*
X70711366Y-73188095D02*
X70616128Y-73235714D01*
X70616128Y-73235714D02*
X70568509Y-73283333D01*
X70568509Y-73283333D02*
X70520890Y-73378571D01*
X78996905Y-73939902D02*
X78996905Y-72939902D01*
X78996905Y-72939902D02*
X79235000Y-72939902D01*
X79235000Y-72939902D02*
X79377857Y-72987521D01*
X79377857Y-72987521D02*
X79473095Y-73082759D01*
X79473095Y-73082759D02*
X79520714Y-73177997D01*
X79520714Y-73177997D02*
X79568333Y-73368473D01*
X79568333Y-73368473D02*
X79568333Y-73511330D01*
X79568333Y-73511330D02*
X79520714Y-73701806D01*
X79520714Y-73701806D02*
X79473095Y-73797044D01*
X79473095Y-73797044D02*
X79377857Y-73892283D01*
X79377857Y-73892283D02*
X79235000Y-73939902D01*
X79235000Y-73939902D02*
X78996905Y-73939902D01*
X80425476Y-73273235D02*
X80425476Y-73939902D01*
X80187381Y-72892283D02*
X79949286Y-73606568D01*
X79949286Y-73606568D02*
X80568333Y-73606568D01*
X64264580Y-72001666D02*
X64312200Y-72049285D01*
X64312200Y-72049285D02*
X64359819Y-72192142D01*
X64359819Y-72192142D02*
X64359819Y-72287380D01*
X64359819Y-72287380D02*
X64312200Y-72430237D01*
X64312200Y-72430237D02*
X64216961Y-72525475D01*
X64216961Y-72525475D02*
X64121723Y-72573094D01*
X64121723Y-72573094D02*
X63931247Y-72620713D01*
X63931247Y-72620713D02*
X63788390Y-72620713D01*
X63788390Y-72620713D02*
X63597914Y-72573094D01*
X63597914Y-72573094D02*
X63502676Y-72525475D01*
X63502676Y-72525475D02*
X63407438Y-72430237D01*
X63407438Y-72430237D02*
X63359819Y-72287380D01*
X63359819Y-72287380D02*
X63359819Y-72192142D01*
X63359819Y-72192142D02*
X63407438Y-72049285D01*
X63407438Y-72049285D02*
X63455057Y-72001666D01*
X63788390Y-71430237D02*
X63740771Y-71525475D01*
X63740771Y-71525475D02*
X63693152Y-71573094D01*
X63693152Y-71573094D02*
X63597914Y-71620713D01*
X63597914Y-71620713D02*
X63550295Y-71620713D01*
X63550295Y-71620713D02*
X63455057Y-71573094D01*
X63455057Y-71573094D02*
X63407438Y-71525475D01*
X63407438Y-71525475D02*
X63359819Y-71430237D01*
X63359819Y-71430237D02*
X63359819Y-71239761D01*
X63359819Y-71239761D02*
X63407438Y-71144523D01*
X63407438Y-71144523D02*
X63455057Y-71096904D01*
X63455057Y-71096904D02*
X63550295Y-71049285D01*
X63550295Y-71049285D02*
X63597914Y-71049285D01*
X63597914Y-71049285D02*
X63693152Y-71096904D01*
X63693152Y-71096904D02*
X63740771Y-71144523D01*
X63740771Y-71144523D02*
X63788390Y-71239761D01*
X63788390Y-71239761D02*
X63788390Y-71430237D01*
X63788390Y-71430237D02*
X63836009Y-71525475D01*
X63836009Y-71525475D02*
X63883628Y-71573094D01*
X63883628Y-71573094D02*
X63978866Y-71620713D01*
X63978866Y-71620713D02*
X64169342Y-71620713D01*
X64169342Y-71620713D02*
X64264580Y-71573094D01*
X64264580Y-71573094D02*
X64312200Y-71525475D01*
X64312200Y-71525475D02*
X64359819Y-71430237D01*
X64359819Y-71430237D02*
X64359819Y-71239761D01*
X64359819Y-71239761D02*
X64312200Y-71144523D01*
X64312200Y-71144523D02*
X64264580Y-71096904D01*
X64264580Y-71096904D02*
X64169342Y-71049285D01*
X64169342Y-71049285D02*
X63978866Y-71049285D01*
X63978866Y-71049285D02*
X63883628Y-71096904D01*
X63883628Y-71096904D02*
X63836009Y-71144523D01*
X63836009Y-71144523D02*
X63788390Y-71239761D01*
X63650057Y-76107738D02*
X63602438Y-76202976D01*
X63602438Y-76202976D02*
X63507200Y-76298214D01*
X63507200Y-76298214D02*
X63364342Y-76441071D01*
X63364342Y-76441071D02*
X63316723Y-76536309D01*
X63316723Y-76536309D02*
X63316723Y-76631547D01*
X63554819Y-76583928D02*
X63507200Y-76679166D01*
X63507200Y-76679166D02*
X63411961Y-76774404D01*
X63411961Y-76774404D02*
X63221485Y-76822023D01*
X63221485Y-76822023D02*
X62888152Y-76822023D01*
X62888152Y-76822023D02*
X62697676Y-76774404D01*
X62697676Y-76774404D02*
X62602438Y-76679166D01*
X62602438Y-76679166D02*
X62554819Y-76583928D01*
X62554819Y-76583928D02*
X62554819Y-76393452D01*
X62554819Y-76393452D02*
X62602438Y-76298214D01*
X62602438Y-76298214D02*
X62697676Y-76202976D01*
X62697676Y-76202976D02*
X62888152Y-76155357D01*
X62888152Y-76155357D02*
X63221485Y-76155357D01*
X63221485Y-76155357D02*
X63411961Y-76202976D01*
X63411961Y-76202976D02*
X63507200Y-76298214D01*
X63507200Y-76298214D02*
X63554819Y-76393452D01*
X63554819Y-76393452D02*
X63554819Y-76583928D01*
X62888152Y-75298214D02*
X63554819Y-75298214D01*
X62507200Y-75536309D02*
X63221485Y-75774404D01*
X63221485Y-75774404D02*
X63221485Y-75155357D01*
X54444580Y-72001666D02*
X54492200Y-72049285D01*
X54492200Y-72049285D02*
X54539819Y-72192142D01*
X54539819Y-72192142D02*
X54539819Y-72287380D01*
X54539819Y-72287380D02*
X54492200Y-72430237D01*
X54492200Y-72430237D02*
X54396961Y-72525475D01*
X54396961Y-72525475D02*
X54301723Y-72573094D01*
X54301723Y-72573094D02*
X54111247Y-72620713D01*
X54111247Y-72620713D02*
X53968390Y-72620713D01*
X53968390Y-72620713D02*
X53777914Y-72573094D01*
X53777914Y-72573094D02*
X53682676Y-72525475D01*
X53682676Y-72525475D02*
X53587438Y-72430237D01*
X53587438Y-72430237D02*
X53539819Y-72287380D01*
X53539819Y-72287380D02*
X53539819Y-72192142D01*
X53539819Y-72192142D02*
X53587438Y-72049285D01*
X53587438Y-72049285D02*
X53635057Y-72001666D01*
X53539819Y-71668332D02*
X53539819Y-71001666D01*
X53539819Y-71001666D02*
X54539819Y-71430237D01*
X60578333Y-68379819D02*
X60245000Y-67903628D01*
X60006905Y-68379819D02*
X60006905Y-67379819D01*
X60006905Y-67379819D02*
X60387857Y-67379819D01*
X60387857Y-67379819D02*
X60483095Y-67427438D01*
X60483095Y-67427438D02*
X60530714Y-67475057D01*
X60530714Y-67475057D02*
X60578333Y-67570295D01*
X60578333Y-67570295D02*
X60578333Y-67713152D01*
X60578333Y-67713152D02*
X60530714Y-67808390D01*
X60530714Y-67808390D02*
X60483095Y-67856009D01*
X60483095Y-67856009D02*
X60387857Y-67903628D01*
X60387857Y-67903628D02*
X60006905Y-67903628D01*
X61483095Y-67379819D02*
X61006905Y-67379819D01*
X61006905Y-67379819D02*
X60959286Y-67856009D01*
X60959286Y-67856009D02*
X61006905Y-67808390D01*
X61006905Y-67808390D02*
X61102143Y-67760771D01*
X61102143Y-67760771D02*
X61340238Y-67760771D01*
X61340238Y-67760771D02*
X61435476Y-67808390D01*
X61435476Y-67808390D02*
X61483095Y-67856009D01*
X61483095Y-67856009D02*
X61530714Y-67951247D01*
X61530714Y-67951247D02*
X61530714Y-68189342D01*
X61530714Y-68189342D02*
X61483095Y-68284580D01*
X61483095Y-68284580D02*
X61435476Y-68332200D01*
X61435476Y-68332200D02*
X61340238Y-68379819D01*
X61340238Y-68379819D02*
X61102143Y-68379819D01*
X61102143Y-68379819D02*
X61006905Y-68332200D01*
X61006905Y-68332200D02*
X60959286Y-68284580D01*
X60433333Y-81564580D02*
X60385714Y-81612200D01*
X60385714Y-81612200D02*
X60242857Y-81659819D01*
X60242857Y-81659819D02*
X60147619Y-81659819D01*
X60147619Y-81659819D02*
X60004762Y-81612200D01*
X60004762Y-81612200D02*
X59909524Y-81516961D01*
X59909524Y-81516961D02*
X59861905Y-81421723D01*
X59861905Y-81421723D02*
X59814286Y-81231247D01*
X59814286Y-81231247D02*
X59814286Y-81088390D01*
X59814286Y-81088390D02*
X59861905Y-80897914D01*
X59861905Y-80897914D02*
X59909524Y-80802676D01*
X59909524Y-80802676D02*
X60004762Y-80707438D01*
X60004762Y-80707438D02*
X60147619Y-80659819D01*
X60147619Y-80659819D02*
X60242857Y-80659819D01*
X60242857Y-80659819D02*
X60385714Y-80707438D01*
X60385714Y-80707438D02*
X60433333Y-80755057D01*
X61290476Y-80659819D02*
X61100000Y-80659819D01*
X61100000Y-80659819D02*
X61004762Y-80707438D01*
X61004762Y-80707438D02*
X60957143Y-80755057D01*
X60957143Y-80755057D02*
X60861905Y-80897914D01*
X60861905Y-80897914D02*
X60814286Y-81088390D01*
X60814286Y-81088390D02*
X60814286Y-81469342D01*
X60814286Y-81469342D02*
X60861905Y-81564580D01*
X60861905Y-81564580D02*
X60909524Y-81612200D01*
X60909524Y-81612200D02*
X61004762Y-81659819D01*
X61004762Y-81659819D02*
X61195238Y-81659819D01*
X61195238Y-81659819D02*
X61290476Y-81612200D01*
X61290476Y-81612200D02*
X61338095Y-81564580D01*
X61338095Y-81564580D02*
X61385714Y-81469342D01*
X61385714Y-81469342D02*
X61385714Y-81231247D01*
X61385714Y-81231247D02*
X61338095Y-81136009D01*
X61338095Y-81136009D02*
X61290476Y-81088390D01*
X61290476Y-81088390D02*
X61195238Y-81040771D01*
X61195238Y-81040771D02*
X61004762Y-81040771D01*
X61004762Y-81040771D02*
X60909524Y-81088390D01*
X60909524Y-81088390D02*
X60861905Y-81136009D01*
X60861905Y-81136009D02*
X60814286Y-81231247D01*
X57078333Y-68359819D02*
X56745000Y-67883628D01*
X56506905Y-68359819D02*
X56506905Y-67359819D01*
X56506905Y-67359819D02*
X56887857Y-67359819D01*
X56887857Y-67359819D02*
X56983095Y-67407438D01*
X56983095Y-67407438D02*
X57030714Y-67455057D01*
X57030714Y-67455057D02*
X57078333Y-67550295D01*
X57078333Y-67550295D02*
X57078333Y-67693152D01*
X57078333Y-67693152D02*
X57030714Y-67788390D01*
X57030714Y-67788390D02*
X56983095Y-67836009D01*
X56983095Y-67836009D02*
X56887857Y-67883628D01*
X56887857Y-67883628D02*
X56506905Y-67883628D01*
X57935476Y-67359819D02*
X57745000Y-67359819D01*
X57745000Y-67359819D02*
X57649762Y-67407438D01*
X57649762Y-67407438D02*
X57602143Y-67455057D01*
X57602143Y-67455057D02*
X57506905Y-67597914D01*
X57506905Y-67597914D02*
X57459286Y-67788390D01*
X57459286Y-67788390D02*
X57459286Y-68169342D01*
X57459286Y-68169342D02*
X57506905Y-68264580D01*
X57506905Y-68264580D02*
X57554524Y-68312200D01*
X57554524Y-68312200D02*
X57649762Y-68359819D01*
X57649762Y-68359819D02*
X57840238Y-68359819D01*
X57840238Y-68359819D02*
X57935476Y-68312200D01*
X57935476Y-68312200D02*
X57983095Y-68264580D01*
X57983095Y-68264580D02*
X58030714Y-68169342D01*
X58030714Y-68169342D02*
X58030714Y-67931247D01*
X58030714Y-67931247D02*
X57983095Y-67836009D01*
X57983095Y-67836009D02*
X57935476Y-67788390D01*
X57935476Y-67788390D02*
X57840238Y-67740771D01*
X57840238Y-67740771D02*
X57649762Y-67740771D01*
X57649762Y-67740771D02*
X57554524Y-67788390D01*
X57554524Y-67788390D02*
X57506905Y-67836009D01*
X57506905Y-67836009D02*
X57459286Y-67931247D01*
X54461905Y-84179819D02*
X54461905Y-83179819D01*
X54461905Y-83179819D02*
X54700000Y-83179819D01*
X54700000Y-83179819D02*
X54842857Y-83227438D01*
X54842857Y-83227438D02*
X54938095Y-83322676D01*
X54938095Y-83322676D02*
X54985714Y-83417914D01*
X54985714Y-83417914D02*
X55033333Y-83608390D01*
X55033333Y-83608390D02*
X55033333Y-83751247D01*
X55033333Y-83751247D02*
X54985714Y-83941723D01*
X54985714Y-83941723D02*
X54938095Y-84036961D01*
X54938095Y-84036961D02*
X54842857Y-84132200D01*
X54842857Y-84132200D02*
X54700000Y-84179819D01*
X54700000Y-84179819D02*
X54461905Y-84179819D01*
X55414286Y-83275057D02*
X55461905Y-83227438D01*
X55461905Y-83227438D02*
X55557143Y-83179819D01*
X55557143Y-83179819D02*
X55795238Y-83179819D01*
X55795238Y-83179819D02*
X55890476Y-83227438D01*
X55890476Y-83227438D02*
X55938095Y-83275057D01*
X55938095Y-83275057D02*
X55985714Y-83370295D01*
X55985714Y-83370295D02*
X55985714Y-83465533D01*
X55985714Y-83465533D02*
X55938095Y-83608390D01*
X55938095Y-83608390D02*
X55366667Y-84179819D01*
X55366667Y-84179819D02*
X55985714Y-84179819D01*
X20333333Y-54384819D02*
X20000000Y-53908628D01*
X19761905Y-54384819D02*
X19761905Y-53384819D01*
X19761905Y-53384819D02*
X20142857Y-53384819D01*
X20142857Y-53384819D02*
X20238095Y-53432438D01*
X20238095Y-53432438D02*
X20285714Y-53480057D01*
X20285714Y-53480057D02*
X20333333Y-53575295D01*
X20333333Y-53575295D02*
X20333333Y-53718152D01*
X20333333Y-53718152D02*
X20285714Y-53813390D01*
X20285714Y-53813390D02*
X20238095Y-53861009D01*
X20238095Y-53861009D02*
X20142857Y-53908628D01*
X20142857Y-53908628D02*
X19761905Y-53908628D01*
X20666667Y-53384819D02*
X21333333Y-53384819D01*
X21333333Y-53384819D02*
X20904762Y-54384819D01*
X25316033Y-45549999D02*
X24982700Y-45783332D01*
X25316033Y-45949999D02*
X24616033Y-45949999D01*
X24616033Y-45949999D02*
X24616033Y-45683332D01*
X24616033Y-45683332D02*
X24649366Y-45616666D01*
X24649366Y-45616666D02*
X24682700Y-45583332D01*
X24682700Y-45583332D02*
X24749366Y-45549999D01*
X24749366Y-45549999D02*
X24849366Y-45549999D01*
X24849366Y-45549999D02*
X24916033Y-45583332D01*
X24916033Y-45583332D02*
X24949366Y-45616666D01*
X24949366Y-45616666D02*
X24982700Y-45683332D01*
X24982700Y-45683332D02*
X24982700Y-45949999D01*
X25282700Y-45283332D02*
X25316033Y-45216666D01*
X25316033Y-45216666D02*
X25316033Y-45083332D01*
X25316033Y-45083332D02*
X25282700Y-45016666D01*
X25282700Y-45016666D02*
X25216033Y-44983332D01*
X25216033Y-44983332D02*
X25182700Y-44983332D01*
X25182700Y-44983332D02*
X25116033Y-45016666D01*
X25116033Y-45016666D02*
X25082700Y-45083332D01*
X25082700Y-45083332D02*
X25082700Y-45183332D01*
X25082700Y-45183332D02*
X25049366Y-45249999D01*
X25049366Y-45249999D02*
X24982700Y-45283332D01*
X24982700Y-45283332D02*
X24949366Y-45283332D01*
X24949366Y-45283332D02*
X24882700Y-45249999D01*
X24882700Y-45249999D02*
X24849366Y-45183332D01*
X24849366Y-45183332D02*
X24849366Y-45083332D01*
X24849366Y-45083332D02*
X24882700Y-45016666D01*
X25316033Y-44683332D02*
X24616033Y-44683332D01*
X25316033Y-44383332D02*
X24949366Y-44383332D01*
X24949366Y-44383332D02*
X24882700Y-44416665D01*
X24882700Y-44416665D02*
X24849366Y-44483332D01*
X24849366Y-44483332D02*
X24849366Y-44583332D01*
X24849366Y-44583332D02*
X24882700Y-44649999D01*
X24882700Y-44649999D02*
X24916033Y-44683332D01*
X24849366Y-43749999D02*
X25316033Y-43749999D01*
X24849366Y-44049999D02*
X25216033Y-44049999D01*
X25216033Y-44049999D02*
X25282700Y-44016666D01*
X25282700Y-44016666D02*
X25316033Y-43949999D01*
X25316033Y-43949999D02*
X25316033Y-43849999D01*
X25316033Y-43849999D02*
X25282700Y-43783332D01*
X25282700Y-43783332D02*
X25249366Y-43749999D01*
X24849366Y-43416666D02*
X25316033Y-43416666D01*
X24916033Y-43416666D02*
X24882700Y-43383333D01*
X24882700Y-43383333D02*
X24849366Y-43316666D01*
X24849366Y-43316666D02*
X24849366Y-43216666D01*
X24849366Y-43216666D02*
X24882700Y-43149999D01*
X24882700Y-43149999D02*
X24949366Y-43116666D01*
X24949366Y-43116666D02*
X25316033Y-43116666D01*
X24849366Y-42883333D02*
X24849366Y-42616666D01*
X24616033Y-42783333D02*
X25216033Y-42783333D01*
X25216033Y-42783333D02*
X25282700Y-42750000D01*
X25282700Y-42750000D02*
X25316033Y-42683333D01*
X25316033Y-42683333D02*
X25316033Y-42616666D01*
X24682700Y-42416666D02*
X24649366Y-42383333D01*
X24649366Y-42383333D02*
X24616033Y-42316666D01*
X24616033Y-42316666D02*
X24616033Y-42150000D01*
X24616033Y-42150000D02*
X24649366Y-42083333D01*
X24649366Y-42083333D02*
X24682700Y-42050000D01*
X24682700Y-42050000D02*
X24749366Y-42016666D01*
X24749366Y-42016666D02*
X24816033Y-42016666D01*
X24816033Y-42016666D02*
X24916033Y-42050000D01*
X24916033Y-42050000D02*
X25316033Y-42450000D01*
X25316033Y-42450000D02*
X25316033Y-42016666D01*
X30672184Y-88142857D02*
X30719804Y-88190476D01*
X30719804Y-88190476D02*
X30767423Y-88333333D01*
X30767423Y-88333333D02*
X30767423Y-88428571D01*
X30767423Y-88428571D02*
X30719804Y-88571428D01*
X30719804Y-88571428D02*
X30624565Y-88666666D01*
X30624565Y-88666666D02*
X30529327Y-88714285D01*
X30529327Y-88714285D02*
X30338851Y-88761904D01*
X30338851Y-88761904D02*
X30195994Y-88761904D01*
X30195994Y-88761904D02*
X30005518Y-88714285D01*
X30005518Y-88714285D02*
X29910280Y-88666666D01*
X29910280Y-88666666D02*
X29815042Y-88571428D01*
X29815042Y-88571428D02*
X29767423Y-88428571D01*
X29767423Y-88428571D02*
X29767423Y-88333333D01*
X29767423Y-88333333D02*
X29815042Y-88190476D01*
X29815042Y-88190476D02*
X29862661Y-88142857D01*
X29862661Y-87761904D02*
X29815042Y-87714285D01*
X29815042Y-87714285D02*
X29767423Y-87619047D01*
X29767423Y-87619047D02*
X29767423Y-87380952D01*
X29767423Y-87380952D02*
X29815042Y-87285714D01*
X29815042Y-87285714D02*
X29862661Y-87238095D01*
X29862661Y-87238095D02*
X29957899Y-87190476D01*
X29957899Y-87190476D02*
X30053137Y-87190476D01*
X30053137Y-87190476D02*
X30195994Y-87238095D01*
X30195994Y-87238095D02*
X30767423Y-87809523D01*
X30767423Y-87809523D02*
X30767423Y-87190476D01*
X30100756Y-86333333D02*
X30767423Y-86333333D01*
X29719804Y-86571428D02*
X30434089Y-86809523D01*
X30434089Y-86809523D02*
X30434089Y-86190476D01*
X27261905Y-58454819D02*
X27261905Y-57454819D01*
X27261905Y-57454819D02*
X27500000Y-57454819D01*
X27500000Y-57454819D02*
X27642857Y-57502438D01*
X27642857Y-57502438D02*
X27738095Y-57597676D01*
X27738095Y-57597676D02*
X27785714Y-57692914D01*
X27785714Y-57692914D02*
X27833333Y-57883390D01*
X27833333Y-57883390D02*
X27833333Y-58026247D01*
X27833333Y-58026247D02*
X27785714Y-58216723D01*
X27785714Y-58216723D02*
X27738095Y-58311961D01*
X27738095Y-58311961D02*
X27642857Y-58407200D01*
X27642857Y-58407200D02*
X27500000Y-58454819D01*
X27500000Y-58454819D02*
X27261905Y-58454819D01*
X28166667Y-57454819D02*
X28785714Y-57454819D01*
X28785714Y-57454819D02*
X28452381Y-57835771D01*
X28452381Y-57835771D02*
X28595238Y-57835771D01*
X28595238Y-57835771D02*
X28690476Y-57883390D01*
X28690476Y-57883390D02*
X28738095Y-57931009D01*
X28738095Y-57931009D02*
X28785714Y-58026247D01*
X28785714Y-58026247D02*
X28785714Y-58264342D01*
X28785714Y-58264342D02*
X28738095Y-58359580D01*
X28738095Y-58359580D02*
X28690476Y-58407200D01*
X28690476Y-58407200D02*
X28595238Y-58454819D01*
X28595238Y-58454819D02*
X28309524Y-58454819D01*
X28309524Y-58454819D02*
X28214286Y-58407200D01*
X28214286Y-58407200D02*
X28166667Y-58359580D01*
X21454819Y-87833333D02*
X22169104Y-87833333D01*
X22169104Y-87833333D02*
X22311961Y-87880952D01*
X22311961Y-87880952D02*
X22407200Y-87976190D01*
X22407200Y-87976190D02*
X22454819Y-88119047D01*
X22454819Y-88119047D02*
X22454819Y-88214285D01*
X21788152Y-86928571D02*
X22454819Y-86928571D01*
X21407200Y-87166666D02*
X22121485Y-87404761D01*
X22121485Y-87404761D02*
X22121485Y-86785714D01*
X25114700Y-93571428D02*
X25114700Y-92428571D01*
X25114700Y-82571428D02*
X25114700Y-81428571D01*
X25686128Y-81999999D02*
X24543271Y-81999999D01*
X28833333Y-50399580D02*
X28785714Y-50447200D01*
X28785714Y-50447200D02*
X28642857Y-50494819D01*
X28642857Y-50494819D02*
X28547619Y-50494819D01*
X28547619Y-50494819D02*
X28404762Y-50447200D01*
X28404762Y-50447200D02*
X28309524Y-50351961D01*
X28309524Y-50351961D02*
X28261905Y-50256723D01*
X28261905Y-50256723D02*
X28214286Y-50066247D01*
X28214286Y-50066247D02*
X28214286Y-49923390D01*
X28214286Y-49923390D02*
X28261905Y-49732914D01*
X28261905Y-49732914D02*
X28309524Y-49637676D01*
X28309524Y-49637676D02*
X28404762Y-49542438D01*
X28404762Y-49542438D02*
X28547619Y-49494819D01*
X28547619Y-49494819D02*
X28642857Y-49494819D01*
X28642857Y-49494819D02*
X28785714Y-49542438D01*
X28785714Y-49542438D02*
X28833333Y-49590057D01*
X29738095Y-49494819D02*
X29261905Y-49494819D01*
X29261905Y-49494819D02*
X29214286Y-49971009D01*
X29214286Y-49971009D02*
X29261905Y-49923390D01*
X29261905Y-49923390D02*
X29357143Y-49875771D01*
X29357143Y-49875771D02*
X29595238Y-49875771D01*
X29595238Y-49875771D02*
X29690476Y-49923390D01*
X29690476Y-49923390D02*
X29738095Y-49971009D01*
X29738095Y-49971009D02*
X29785714Y-50066247D01*
X29785714Y-50066247D02*
X29785714Y-50304342D01*
X29785714Y-50304342D02*
X29738095Y-50399580D01*
X29738095Y-50399580D02*
X29690476Y-50447200D01*
X29690476Y-50447200D02*
X29595238Y-50494819D01*
X29595238Y-50494819D02*
X29357143Y-50494819D01*
X29357143Y-50494819D02*
X29261905Y-50447200D01*
X29261905Y-50447200D02*
X29214286Y-50399580D01*
X23434819Y-56618094D02*
X22434819Y-56618094D01*
X22434819Y-56618094D02*
X22434819Y-56379999D01*
X22434819Y-56379999D02*
X22482438Y-56237142D01*
X22482438Y-56237142D02*
X22577676Y-56141904D01*
X22577676Y-56141904D02*
X22672914Y-56094285D01*
X22672914Y-56094285D02*
X22863390Y-56046666D01*
X22863390Y-56046666D02*
X23006247Y-56046666D01*
X23006247Y-56046666D02*
X23196723Y-56094285D01*
X23196723Y-56094285D02*
X23291961Y-56141904D01*
X23291961Y-56141904D02*
X23387200Y-56237142D01*
X23387200Y-56237142D02*
X23434819Y-56379999D01*
X23434819Y-56379999D02*
X23434819Y-56618094D01*
X23434819Y-55094285D02*
X23434819Y-55665713D01*
X23434819Y-55379999D02*
X22434819Y-55379999D01*
X22434819Y-55379999D02*
X22577676Y-55475237D01*
X22577676Y-55475237D02*
X22672914Y-55570475D01*
X22672914Y-55570475D02*
X22720533Y-55665713D01*
X30038095Y-41004819D02*
X30038095Y-41814342D01*
X30038095Y-41814342D02*
X30085714Y-41909580D01*
X30085714Y-41909580D02*
X30133333Y-41957200D01*
X30133333Y-41957200D02*
X30228571Y-42004819D01*
X30228571Y-42004819D02*
X30419047Y-42004819D01*
X30419047Y-42004819D02*
X30514285Y-41957200D01*
X30514285Y-41957200D02*
X30561904Y-41909580D01*
X30561904Y-41909580D02*
X30609523Y-41814342D01*
X30609523Y-41814342D02*
X30609523Y-41004819D01*
X31514285Y-41004819D02*
X31323809Y-41004819D01*
X31323809Y-41004819D02*
X31228571Y-41052438D01*
X31228571Y-41052438D02*
X31180952Y-41100057D01*
X31180952Y-41100057D02*
X31085714Y-41242914D01*
X31085714Y-41242914D02*
X31038095Y-41433390D01*
X31038095Y-41433390D02*
X31038095Y-41814342D01*
X31038095Y-41814342D02*
X31085714Y-41909580D01*
X31085714Y-41909580D02*
X31133333Y-41957200D01*
X31133333Y-41957200D02*
X31228571Y-42004819D01*
X31228571Y-42004819D02*
X31419047Y-42004819D01*
X31419047Y-42004819D02*
X31514285Y-41957200D01*
X31514285Y-41957200D02*
X31561904Y-41909580D01*
X31561904Y-41909580D02*
X31609523Y-41814342D01*
X31609523Y-41814342D02*
X31609523Y-41576247D01*
X31609523Y-41576247D02*
X31561904Y-41481009D01*
X31561904Y-41481009D02*
X31514285Y-41433390D01*
X31514285Y-41433390D02*
X31419047Y-41385771D01*
X31419047Y-41385771D02*
X31228571Y-41385771D01*
X31228571Y-41385771D02*
X31133333Y-41433390D01*
X31133333Y-41433390D02*
X31085714Y-41481009D01*
X31085714Y-41481009D02*
X31038095Y-41576247D01*
X77454819Y-53833333D02*
X78169104Y-53833333D01*
X78169104Y-53833333D02*
X78311961Y-53880952D01*
X78311961Y-53880952D02*
X78407200Y-53976190D01*
X78407200Y-53976190D02*
X78454819Y-54119047D01*
X78454819Y-54119047D02*
X78454819Y-54214285D01*
X77454819Y-53452380D02*
X77454819Y-52833333D01*
X77454819Y-52833333D02*
X77835771Y-53166666D01*
X77835771Y-53166666D02*
X77835771Y-53023809D01*
X77835771Y-53023809D02*
X77883390Y-52928571D01*
X77883390Y-52928571D02*
X77931009Y-52880952D01*
X77931009Y-52880952D02*
X78026247Y-52833333D01*
X78026247Y-52833333D02*
X78264342Y-52833333D01*
X78264342Y-52833333D02*
X78359580Y-52880952D01*
X78359580Y-52880952D02*
X78407200Y-52928571D01*
X78407200Y-52928571D02*
X78454819Y-53023809D01*
X78454819Y-53023809D02*
X78454819Y-53309523D01*
X78454819Y-53309523D02*
X78407200Y-53404761D01*
X78407200Y-53404761D02*
X78359580Y-53452380D01*
X75114700Y-59571428D02*
X75114700Y-58428571D01*
X75686128Y-58999999D02*
X74543271Y-58999999D01*
X75114700Y-48571428D02*
X75114700Y-47428571D01*
D13*
X30434285Y-47254188D02*
X30405713Y-47282760D01*
X30405713Y-47282760D02*
X30319999Y-47311331D01*
X30319999Y-47311331D02*
X30262856Y-47311331D01*
X30262856Y-47311331D02*
X30177142Y-47282760D01*
X30177142Y-47282760D02*
X30119999Y-47225617D01*
X30119999Y-47225617D02*
X30091428Y-47168474D01*
X30091428Y-47168474D02*
X30062856Y-47054188D01*
X30062856Y-47054188D02*
X30062856Y-46968474D01*
X30062856Y-46968474D02*
X30091428Y-46854188D01*
X30091428Y-46854188D02*
X30119999Y-46797045D01*
X30119999Y-46797045D02*
X30177142Y-46739902D01*
X30177142Y-46739902D02*
X30262856Y-46711331D01*
X30262856Y-46711331D02*
X30319999Y-46711331D01*
X30319999Y-46711331D02*
X30405713Y-46739902D01*
X30405713Y-46739902D02*
X30434285Y-46768474D01*
X30662856Y-46768474D02*
X30691428Y-46739902D01*
X30691428Y-46739902D02*
X30748571Y-46711331D01*
X30748571Y-46711331D02*
X30891428Y-46711331D01*
X30891428Y-46711331D02*
X30948571Y-46739902D01*
X30948571Y-46739902D02*
X30977142Y-46768474D01*
X30977142Y-46768474D02*
X31005713Y-46825617D01*
X31005713Y-46825617D02*
X31005713Y-46882760D01*
X31005713Y-46882760D02*
X30977142Y-46968474D01*
X30977142Y-46968474D02*
X30634285Y-47311331D01*
X30634285Y-47311331D02*
X31005713Y-47311331D01*
X31348571Y-46968474D02*
X31291428Y-46939902D01*
X31291428Y-46939902D02*
X31262857Y-46911331D01*
X31262857Y-46911331D02*
X31234285Y-46854188D01*
X31234285Y-46854188D02*
X31234285Y-46825617D01*
X31234285Y-46825617D02*
X31262857Y-46768474D01*
X31262857Y-46768474D02*
X31291428Y-46739902D01*
X31291428Y-46739902D02*
X31348571Y-46711331D01*
X31348571Y-46711331D02*
X31462857Y-46711331D01*
X31462857Y-46711331D02*
X31520000Y-46739902D01*
X31520000Y-46739902D02*
X31548571Y-46768474D01*
X31548571Y-46768474D02*
X31577142Y-46825617D01*
X31577142Y-46825617D02*
X31577142Y-46854188D01*
X31577142Y-46854188D02*
X31548571Y-46911331D01*
X31548571Y-46911331D02*
X31520000Y-46939902D01*
X31520000Y-46939902D02*
X31462857Y-46968474D01*
X31462857Y-46968474D02*
X31348571Y-46968474D01*
X31348571Y-46968474D02*
X31291428Y-46997045D01*
X31291428Y-46997045D02*
X31262857Y-47025617D01*
X31262857Y-47025617D02*
X31234285Y-47082760D01*
X31234285Y-47082760D02*
X31234285Y-47197045D01*
X31234285Y-47197045D02*
X31262857Y-47254188D01*
X31262857Y-47254188D02*
X31291428Y-47282760D01*
X31291428Y-47282760D02*
X31348571Y-47311331D01*
X31348571Y-47311331D02*
X31462857Y-47311331D01*
X31462857Y-47311331D02*
X31520000Y-47282760D01*
X31520000Y-47282760D02*
X31548571Y-47254188D01*
X31548571Y-47254188D02*
X31577142Y-47197045D01*
X31577142Y-47197045D02*
X31577142Y-47082760D01*
X31577142Y-47082760D02*
X31548571Y-47025617D01*
X31548571Y-47025617D02*
X31520000Y-46997045D01*
X31520000Y-46997045D02*
X31462857Y-46968474D01*
D12*
X18438095Y-45929819D02*
X18438095Y-46739342D01*
X18438095Y-46739342D02*
X18485714Y-46834580D01*
X18485714Y-46834580D02*
X18533333Y-46882200D01*
X18533333Y-46882200D02*
X18628571Y-46929819D01*
X18628571Y-46929819D02*
X18819047Y-46929819D01*
X18819047Y-46929819D02*
X18914285Y-46882200D01*
X18914285Y-46882200D02*
X18961904Y-46834580D01*
X18961904Y-46834580D02*
X19009523Y-46739342D01*
X19009523Y-46739342D02*
X19009523Y-45929819D01*
X19438095Y-46025057D02*
X19485714Y-45977438D01*
X19485714Y-45977438D02*
X19580952Y-45929819D01*
X19580952Y-45929819D02*
X19819047Y-45929819D01*
X19819047Y-45929819D02*
X19914285Y-45977438D01*
X19914285Y-45977438D02*
X19961904Y-46025057D01*
X19961904Y-46025057D02*
X20009523Y-46120295D01*
X20009523Y-46120295D02*
X20009523Y-46215533D01*
X20009523Y-46215533D02*
X19961904Y-46358390D01*
X19961904Y-46358390D02*
X19390476Y-46929819D01*
X19390476Y-46929819D02*
X20009523Y-46929819D01*
X18537142Y-41059580D02*
X18489523Y-41107200D01*
X18489523Y-41107200D02*
X18346666Y-41154819D01*
X18346666Y-41154819D02*
X18251428Y-41154819D01*
X18251428Y-41154819D02*
X18108571Y-41107200D01*
X18108571Y-41107200D02*
X18013333Y-41011961D01*
X18013333Y-41011961D02*
X17965714Y-40916723D01*
X17965714Y-40916723D02*
X17918095Y-40726247D01*
X17918095Y-40726247D02*
X17918095Y-40583390D01*
X17918095Y-40583390D02*
X17965714Y-40392914D01*
X17965714Y-40392914D02*
X18013333Y-40297676D01*
X18013333Y-40297676D02*
X18108571Y-40202438D01*
X18108571Y-40202438D02*
X18251428Y-40154819D01*
X18251428Y-40154819D02*
X18346666Y-40154819D01*
X18346666Y-40154819D02*
X18489523Y-40202438D01*
X18489523Y-40202438D02*
X18537142Y-40250057D01*
X18918095Y-40250057D02*
X18965714Y-40202438D01*
X18965714Y-40202438D02*
X19060952Y-40154819D01*
X19060952Y-40154819D02*
X19299047Y-40154819D01*
X19299047Y-40154819D02*
X19394285Y-40202438D01*
X19394285Y-40202438D02*
X19441904Y-40250057D01*
X19441904Y-40250057D02*
X19489523Y-40345295D01*
X19489523Y-40345295D02*
X19489523Y-40440533D01*
X19489523Y-40440533D02*
X19441904Y-40583390D01*
X19441904Y-40583390D02*
X18870476Y-41154819D01*
X18870476Y-41154819D02*
X19489523Y-41154819D01*
X20441904Y-41154819D02*
X19870476Y-41154819D01*
X20156190Y-41154819D02*
X20156190Y-40154819D01*
X20156190Y-40154819D02*
X20060952Y-40297676D01*
X20060952Y-40297676D02*
X19965714Y-40392914D01*
X19965714Y-40392914D02*
X19870476Y-40440533D01*
X25404761Y-50150057D02*
X25309523Y-50102438D01*
X25309523Y-50102438D02*
X25214285Y-50007200D01*
X25214285Y-50007200D02*
X25071428Y-49864342D01*
X25071428Y-49864342D02*
X24976190Y-49816723D01*
X24976190Y-49816723D02*
X24880952Y-49816723D01*
X24928571Y-50054819D02*
X24833333Y-50007200D01*
X24833333Y-50007200D02*
X24738095Y-49911961D01*
X24738095Y-49911961D02*
X24690476Y-49721485D01*
X24690476Y-49721485D02*
X24690476Y-49388152D01*
X24690476Y-49388152D02*
X24738095Y-49197676D01*
X24738095Y-49197676D02*
X24833333Y-49102438D01*
X24833333Y-49102438D02*
X24928571Y-49054819D01*
X24928571Y-49054819D02*
X25119047Y-49054819D01*
X25119047Y-49054819D02*
X25214285Y-49102438D01*
X25214285Y-49102438D02*
X25309523Y-49197676D01*
X25309523Y-49197676D02*
X25357142Y-49388152D01*
X25357142Y-49388152D02*
X25357142Y-49721485D01*
X25357142Y-49721485D02*
X25309523Y-49911961D01*
X25309523Y-49911961D02*
X25214285Y-50007200D01*
X25214285Y-50007200D02*
X25119047Y-50054819D01*
X25119047Y-50054819D02*
X24928571Y-50054819D01*
X25738095Y-49150057D02*
X25785714Y-49102438D01*
X25785714Y-49102438D02*
X25880952Y-49054819D01*
X25880952Y-49054819D02*
X26119047Y-49054819D01*
X26119047Y-49054819D02*
X26214285Y-49102438D01*
X26214285Y-49102438D02*
X26261904Y-49150057D01*
X26261904Y-49150057D02*
X26309523Y-49245295D01*
X26309523Y-49245295D02*
X26309523Y-49340533D01*
X26309523Y-49340533D02*
X26261904Y-49483390D01*
X26261904Y-49483390D02*
X25690476Y-50054819D01*
X25690476Y-50054819D02*
X26309523Y-50054819D01*
X16454819Y-32833333D02*
X17169104Y-32833333D01*
X17169104Y-32833333D02*
X17311961Y-32880952D01*
X17311961Y-32880952D02*
X17407200Y-32976190D01*
X17407200Y-32976190D02*
X17454819Y-33119047D01*
X17454819Y-33119047D02*
X17454819Y-33214285D01*
X16550057Y-32404761D02*
X16502438Y-32357142D01*
X16502438Y-32357142D02*
X16454819Y-32261904D01*
X16454819Y-32261904D02*
X16454819Y-32023809D01*
X16454819Y-32023809D02*
X16502438Y-31928571D01*
X16502438Y-31928571D02*
X16550057Y-31880952D01*
X16550057Y-31880952D02*
X16645295Y-31833333D01*
X16645295Y-31833333D02*
X16740533Y-31833333D01*
X16740533Y-31833333D02*
X16883390Y-31880952D01*
X16883390Y-31880952D02*
X17454819Y-32452380D01*
X17454819Y-32452380D02*
X17454819Y-31833333D01*
X20114700Y-38571428D02*
X20114700Y-37428571D01*
X20114700Y-27571428D02*
X20114700Y-26428571D01*
X20686128Y-26999999D02*
X19543271Y-26999999D01*
X32921272Y-74029688D02*
X32508879Y-73791593D01*
X32508879Y-73791593D02*
X33008879Y-72925568D01*
X33621089Y-73388999D02*
X33686138Y-73371569D01*
X33686138Y-73371569D02*
X33792426Y-73377949D01*
X33792426Y-73377949D02*
X33998622Y-73496996D01*
X33998622Y-73496996D02*
X34057291Y-73585855D01*
X34057291Y-73585855D02*
X34074721Y-73650903D01*
X34074721Y-73650903D02*
X34068341Y-73757192D01*
X34068341Y-73757192D02*
X34020722Y-73839670D01*
X34020722Y-73839670D02*
X33908054Y-73939579D01*
X33908054Y-73939579D02*
X33127468Y-74148736D01*
X33127468Y-74148736D02*
X33663579Y-74458260D01*
X15238095Y-16454819D02*
X15238095Y-15454819D01*
X15238095Y-15931009D02*
X15809523Y-15931009D01*
X15809523Y-16454819D02*
X15809523Y-15454819D01*
X16809523Y-16454819D02*
X16238095Y-16454819D01*
X16523809Y-16454819D02*
X16523809Y-15454819D01*
X16523809Y-15454819D02*
X16428571Y-15597676D01*
X16428571Y-15597676D02*
X16333333Y-15692914D01*
X16333333Y-15692914D02*
X16238095Y-15740533D01*
X78238095Y-16454819D02*
X78238095Y-15454819D01*
X78238095Y-15931009D02*
X78809523Y-15931009D01*
X78809523Y-16454819D02*
X78809523Y-15454819D01*
X79190476Y-15454819D02*
X79809523Y-15454819D01*
X79809523Y-15454819D02*
X79476190Y-15835771D01*
X79476190Y-15835771D02*
X79619047Y-15835771D01*
X79619047Y-15835771D02*
X79714285Y-15883390D01*
X79714285Y-15883390D02*
X79761904Y-15931009D01*
X79761904Y-15931009D02*
X79809523Y-16026247D01*
X79809523Y-16026247D02*
X79809523Y-16264342D01*
X79809523Y-16264342D02*
X79761904Y-16359580D01*
X79761904Y-16359580D02*
X79714285Y-16407200D01*
X79714285Y-16407200D02*
X79619047Y-16454819D01*
X79619047Y-16454819D02*
X79333333Y-16454819D01*
X79333333Y-16454819D02*
X79238095Y-16407200D01*
X79238095Y-16407200D02*
X79190476Y-16359580D01*
X15238095Y-104454819D02*
X15238095Y-103454819D01*
X15238095Y-103931009D02*
X15809523Y-103931009D01*
X15809523Y-104454819D02*
X15809523Y-103454819D01*
X16714285Y-103788152D02*
X16714285Y-104454819D01*
X16476190Y-103407200D02*
X16238095Y-104121485D01*
X16238095Y-104121485D02*
X16857142Y-104121485D01*
D13*
%TO.C,J8*%
X73890000Y-81740000D02*
X73890000Y-93260000D01*
X76110000Y-81740000D02*
X76110000Y-82440000D01*
X76110000Y-92560000D02*
X76110000Y-93260000D01*
X78160000Y-82440000D02*
X76110000Y-82440000D01*
X78160000Y-82440000D02*
X78160000Y-82970000D01*
X78160000Y-92030000D02*
X78160000Y-92560000D01*
X78160000Y-92560000D02*
X76110000Y-92560000D01*
X84160000Y-82970000D02*
X78160000Y-82970000D01*
X84160000Y-82970000D02*
X84160000Y-92000000D01*
X84160000Y-92030000D02*
X78160000Y-92030000D01*
X73903365Y-81678271D02*
G75*
G02*
X76110000Y-81850000I1096635J-171730D01*
G01*
X76110000Y-93150000D02*
G75*
G02*
X73890000Y-93150000I-1110000J0D01*
G01*
%TO.C,C22*%
X65897604Y-87761252D02*
X65897604Y-87238748D01*
X67367604Y-87761252D02*
X67367604Y-87238748D01*
%TO.C,J7*%
X58529487Y-101110000D02*
X57829487Y-101110000D01*
X58529487Y-103160000D02*
X58529487Y-101110000D01*
X59059487Y-103160000D02*
X58529487Y-103160000D01*
X59059487Y-109160000D02*
X59059487Y-103160000D01*
X68119487Y-109160000D02*
X59089487Y-109160000D01*
X68119487Y-109160000D02*
X68119487Y-103160000D01*
X68649487Y-103160000D02*
X68119487Y-103160000D01*
X68649487Y-103160000D02*
X68649487Y-101110000D01*
X69349487Y-98890000D02*
X57829487Y-98890000D01*
X69349487Y-101110000D02*
X68649487Y-101110000D01*
X57939487Y-101110000D02*
G75*
G02*
X57939487Y-98890000I0J1110000D01*
G01*
X69411216Y-98903365D02*
G75*
G02*
X69239487Y-101110000I-171730J-1096635D01*
G01*
%TO.C,C27*%
X63328235Y-90897604D02*
X63850739Y-90897604D01*
X63328235Y-92367604D02*
X63850739Y-92367604D01*
%TO.C,C26*%
X47238748Y-90897604D02*
X47761252Y-90897604D01*
X47238748Y-92367604D02*
X47761252Y-92367604D01*
%TO.C,J6*%
X42440000Y-101110000D02*
X41740000Y-101110000D01*
X42440000Y-103160000D02*
X42440000Y-101110000D01*
X42970000Y-103160000D02*
X42440000Y-103160000D01*
X42970000Y-109160000D02*
X42970000Y-103160000D01*
X52030000Y-109160000D02*
X43000000Y-109160000D01*
X52030000Y-109160000D02*
X52030000Y-103160000D01*
X52560000Y-103160000D02*
X52030000Y-103160000D01*
X52560000Y-103160000D02*
X52560000Y-101110000D01*
X53260000Y-98890000D02*
X41740000Y-98890000D01*
X53260000Y-101110000D02*
X52560000Y-101110000D01*
X41850000Y-101110000D02*
G75*
G02*
X41850000Y-98890000I0J1110000D01*
G01*
X53321729Y-98903365D02*
G75*
G02*
X53150000Y-101110000I-171730J-1096635D01*
G01*
%TO.C,J5*%
X26440000Y-101110000D02*
X25740000Y-101110000D01*
X26440000Y-103160000D02*
X26440000Y-101110000D01*
X26970000Y-103160000D02*
X26440000Y-103160000D01*
X26970000Y-109160000D02*
X26970000Y-103160000D01*
X36030000Y-109160000D02*
X27000000Y-109160000D01*
X36030000Y-109160000D02*
X36030000Y-103160000D01*
X36560000Y-103160000D02*
X36030000Y-103160000D01*
X36560000Y-103160000D02*
X36560000Y-101110000D01*
X37260000Y-98890000D02*
X25740000Y-98890000D01*
X37260000Y-101110000D02*
X36560000Y-101110000D01*
X25850000Y-101110000D02*
G75*
G02*
X25850000Y-98890000I0J1110000D01*
G01*
X37321729Y-98903365D02*
G75*
G02*
X37150000Y-101110000I-171730J-1096635D01*
G01*
%TO.C,C25*%
X31238748Y-90765000D02*
X31761252Y-90765000D01*
X31238748Y-92235000D02*
X31761252Y-92235000D01*
%TO.C,U4*%
X73067500Y-38560000D02*
X72827500Y-38230000D01*
X73307500Y-38230000D01*
X73067500Y-38560000D01*
G36*
X73067500Y-38560000D02*
G01*
X72827500Y-38230000D01*
X73307500Y-38230000D01*
X73067500Y-38560000D01*
G37*
X78247500Y-38390000D02*
X78247500Y-38565000D01*
X73627500Y-38390000D02*
X78247500Y-38390000D01*
X73627500Y-38565000D02*
X73627500Y-38390000D01*
X78247500Y-41435000D02*
X78247500Y-41610000D01*
X78247500Y-41610000D02*
X73627500Y-41610000D01*
X73627500Y-41610000D02*
X73627500Y-41435000D01*
%TO.C,Rshunt1*%
X71710000Y-37822936D02*
X71710000Y-42177064D01*
X68290000Y-37822936D02*
X68290000Y-42177064D01*
%TO.C,C20*%
X75829664Y-41890000D02*
X76045336Y-41890000D01*
X75829664Y-42610000D02*
X76045336Y-42610000D01*
%TO.C,C23*%
X66611252Y-43865000D02*
X66088748Y-43865000D01*
X66611252Y-45335000D02*
X66088748Y-45335000D01*
%TO.C,J1*%
X76110000Y-36150000D02*
G75*
G02*
X73890000Y-36150000I-1110000J0D01*
G01*
X73903365Y-24678271D02*
G75*
G02*
X76110000Y-24850000I1096635J-171730D01*
G01*
X84160000Y-35030000D02*
X78160000Y-35030000D01*
X84160000Y-25970000D02*
X84160000Y-35000000D01*
X84160000Y-25970000D02*
X78160000Y-25970000D01*
X78160000Y-35560000D02*
X76110000Y-35560000D01*
X78160000Y-35030000D02*
X78160000Y-35560000D01*
X78160000Y-25440000D02*
X78160000Y-25970000D01*
X78160000Y-25440000D02*
X76110000Y-25440000D01*
X76110000Y-35560000D02*
X76110000Y-36260000D01*
X76110000Y-24740000D02*
X76110000Y-25440000D01*
X73890000Y-24740000D02*
X73890000Y-36260000D01*
%TO.C,J10*%
X83915000Y-66880000D02*
X81155000Y-66880000D01*
X83915000Y-72070000D02*
X83915000Y-66880000D01*
X83915000Y-72070000D02*
X81155000Y-72070000D01*
X81155000Y-72070000D02*
X81155000Y-66880000D01*
X83915000Y-73340000D02*
X83915000Y-74720000D01*
X83915000Y-74720000D02*
X82535000Y-74720000D01*
%TO.C,R8*%
X73215000Y-70062258D02*
X73215000Y-69587742D01*
X74260000Y-70062258D02*
X74260000Y-69587742D01*
%TO.C,Rfbb1*%
X73857500Y-73832379D02*
X73857500Y-74167621D01*
X74617500Y-73832379D02*
X74617500Y-74167621D01*
%TO.C,U5*%
X78077500Y-69240000D02*
X77747500Y-69000000D01*
X78077500Y-68760000D01*
X78077500Y-69240000D01*
G36*
X78077500Y-69240000D02*
G01*
X77747500Y-69000000D01*
X78077500Y-68760000D01*
X78077500Y-69240000D01*
G37*
X74677500Y-71360000D02*
X74677500Y-69540000D01*
X74727500Y-71360000D02*
X74677500Y-71360000D01*
X77797500Y-71360000D02*
X77747500Y-71360000D01*
X74677500Y-69540000D02*
X74727500Y-69540000D01*
X77747500Y-69540000D02*
X77797500Y-69540000D01*
X77797500Y-69540000D02*
X77797500Y-71360000D01*
%TO.C,C17*%
X78075000Y-71087836D02*
X78075000Y-70872164D01*
X78795000Y-71087836D02*
X78795000Y-70872164D01*
%TO.C,J9*%
X71415000Y-64380000D02*
X71415000Y-63000000D01*
X72795000Y-64380000D02*
X71415000Y-64380000D01*
X74065000Y-64380000D02*
X79255000Y-64380000D01*
X74065000Y-64380000D02*
X74065000Y-61620000D01*
X79255000Y-64380000D02*
X79255000Y-61620000D01*
X74065000Y-61620000D02*
X79255000Y-61620000D01*
%TO.C,Rfbt1*%
X73069879Y-72380000D02*
X73405121Y-72380000D01*
X73069879Y-71620000D02*
X73405121Y-71620000D01*
%TO.C,C19*%
X74623748Y-67910000D02*
X76046252Y-67910000D01*
X74623748Y-66090000D02*
X76046252Y-66090000D01*
%TO.C,C18*%
X71502500Y-74188748D02*
X71502500Y-74711252D01*
X72972500Y-74188748D02*
X72972500Y-74711252D01*
%TO.C,D4*%
X75725000Y-74335083D02*
X78385000Y-74335083D01*
X75725000Y-72635083D02*
X75725000Y-74335083D01*
X75725000Y-72635083D02*
X78385000Y-72635083D01*
%TO.C,C8*%
X63105000Y-71727164D02*
X63105000Y-71942836D01*
X62385000Y-71727164D02*
X62385000Y-71942836D01*
%TO.C,Q4*%
X62130000Y-78635000D02*
X62130000Y-78355000D01*
X62410000Y-78355000D01*
X62130000Y-78635000D01*
G36*
X62130000Y-78635000D02*
G01*
X62130000Y-78355000D01*
X62410000Y-78355000D01*
X62130000Y-78635000D01*
G37*
X62110000Y-72665000D02*
X62110000Y-73632500D01*
X62110000Y-70485000D02*
X62110000Y-70115000D01*
X62110000Y-70115000D02*
X60392500Y-70115000D01*
X60955000Y-78335000D02*
X59780000Y-78335000D01*
X59400000Y-70125000D02*
X58600000Y-70125000D01*
X58225000Y-78335000D02*
X57050000Y-78335000D01*
X55890000Y-72665000D02*
X55890000Y-73632500D01*
X55890000Y-70485000D02*
X55890000Y-70115000D01*
X55890000Y-70115000D02*
X57607500Y-70115000D01*
%TO.C,C7*%
X55605000Y-71942836D02*
X55605000Y-71727164D01*
X54885000Y-71942836D02*
X54885000Y-71727164D01*
%TO.C,R5*%
X60982258Y-69857500D02*
X60507742Y-69857500D01*
X60982258Y-68812500D02*
X60507742Y-68812500D01*
%TO.C,C6*%
X60861252Y-80260000D02*
X60338748Y-80260000D01*
X60861252Y-78790000D02*
X60338748Y-78790000D01*
%TO.C,R6*%
X57007742Y-69857500D02*
X57482258Y-69857500D01*
X57007742Y-68812500D02*
X57482258Y-68812500D01*
%TO.C,D2*%
X58860000Y-82875000D02*
X58860000Y-78575000D01*
X58860000Y-82875000D02*
X53050000Y-82875000D01*
X58860000Y-78575000D02*
X53050000Y-78575000D01*
%TO.C,R7*%
X20737258Y-51977500D02*
X20262742Y-51977500D01*
X20737258Y-53022500D02*
X20262742Y-53022500D01*
%TO.C,Rshunt2*%
X23290000Y-46177064D02*
X23290000Y-41822936D01*
X26710000Y-46177064D02*
X26710000Y-41822936D01*
%TO.C,C24*%
X27897604Y-87238748D02*
X27897604Y-87761252D01*
X29367604Y-87238748D02*
X29367604Y-87761252D01*
%TO.C,D3*%
X31660000Y-52850000D02*
X25850000Y-52850000D01*
X31660000Y-57150000D02*
X25850000Y-57150000D01*
X31660000Y-57150000D02*
X31660000Y-52850000D01*
%TO.C,J4*%
X10840000Y-82970000D02*
X16840000Y-82970000D01*
X10840000Y-92030000D02*
X10840000Y-83000000D01*
X10840000Y-92030000D02*
X16840000Y-92030000D01*
X16840000Y-82440000D02*
X18890000Y-82440000D01*
X16840000Y-82970000D02*
X16840000Y-82440000D01*
X16840000Y-92560000D02*
X16840000Y-92030000D01*
X16840000Y-92560000D02*
X18890000Y-92560000D01*
X18890000Y-82440000D02*
X18890000Y-81740000D01*
X18890000Y-93260000D02*
X18890000Y-92560000D01*
X21110000Y-93260000D02*
X21110000Y-81740000D01*
X18890000Y-81850000D02*
G75*
G02*
X21110000Y-81850000I1110000J0D01*
G01*
X21096635Y-93321729D02*
G75*
G02*
X18890000Y-93150000I-1096635J171730D01*
G01*
%TO.C,C5*%
X28738748Y-47765000D02*
X29261252Y-47765000D01*
X28738748Y-49235000D02*
X29261252Y-49235000D01*
%TO.C,D1*%
X22150000Y-51890000D02*
X22150000Y-54550000D01*
X23850000Y-51890000D02*
X22150000Y-51890000D01*
X23850000Y-51890000D02*
X23850000Y-54550000D01*
%TO.C,U6*%
X28490000Y-42390000D02*
X33110000Y-42390000D01*
X28490000Y-42565000D02*
X28490000Y-42390000D01*
X28490000Y-45610000D02*
X28490000Y-45435000D01*
X33110000Y-42390000D02*
X33110000Y-42565000D01*
X33110000Y-45435000D02*
X33110000Y-45610000D01*
X33110000Y-45610000D02*
X28490000Y-45610000D01*
X27930000Y-42560000D02*
X27690000Y-42230000D01*
X28170000Y-42230000D01*
X27930000Y-42560000D01*
G36*
X27930000Y-42560000D02*
G01*
X27690000Y-42230000D01*
X28170000Y-42230000D01*
X27930000Y-42560000D01*
G37*
%TO.C,J3*%
X78890000Y-47740000D02*
X78890000Y-59260000D01*
X81110000Y-47740000D02*
X81110000Y-48440000D01*
X81110000Y-58560000D02*
X81110000Y-59260000D01*
X83160000Y-48440000D02*
X81110000Y-48440000D01*
X83160000Y-48440000D02*
X83160000Y-48970000D01*
X83160000Y-58030000D02*
X83160000Y-58560000D01*
X83160000Y-58560000D02*
X81110000Y-58560000D01*
X89160000Y-48970000D02*
X83160000Y-48970000D01*
X89160000Y-48970000D02*
X89160000Y-58000000D01*
X89160000Y-58030000D02*
X83160000Y-58030000D01*
X78903365Y-47678271D02*
G75*
G02*
X81110000Y-47850000I1096635J-171730D01*
G01*
X81110000Y-59150000D02*
G75*
G02*
X78890000Y-59150000I-1110000J0D01*
G01*
%TO.C,C28*%
X30927836Y-45865000D02*
X30712164Y-45865000D01*
X30927836Y-46585000D02*
X30712164Y-46585000D01*
%TO.C,U2*%
X16890000Y-42415000D02*
X21510000Y-42415000D01*
X16890000Y-42590000D02*
X16890000Y-42415000D01*
X16890000Y-45635000D02*
X16890000Y-45460000D01*
X21510000Y-42415000D02*
X21510000Y-42590000D01*
X21510000Y-45460000D02*
X21510000Y-45635000D01*
X21510000Y-45635000D02*
X16890000Y-45635000D01*
X22310000Y-45795000D02*
X21830000Y-45795000D01*
X22070000Y-45465000D01*
X22310000Y-45795000D01*
G36*
X22310000Y-45795000D02*
G01*
X21830000Y-45795000D01*
X22070000Y-45465000D01*
X22310000Y-45795000D01*
G37*
%TO.C,C21*%
X19287836Y-41440000D02*
X19072164Y-41440000D01*
X19287836Y-42160000D02*
X19072164Y-42160000D01*
%TO.C,Q2*%
X24390000Y-52430000D02*
X24390000Y-52610000D01*
X24390000Y-52610000D02*
X26610000Y-52610000D01*
X24710000Y-50390000D02*
X26610000Y-50390000D01*
X26610000Y-50390000D02*
X26610000Y-50570000D01*
X26610000Y-52430000D02*
X26610000Y-52610000D01*
X24390000Y-50440000D02*
X24110000Y-50440000D01*
X24390000Y-50160000D01*
X24390000Y-50440000D01*
G36*
X24390000Y-50440000D02*
G01*
X24110000Y-50440000D01*
X24390000Y-50160000D01*
X24390000Y-50440000D01*
G37*
%TO.C,J2*%
X11840000Y-27440000D02*
X13890000Y-27440000D01*
X13890000Y-27440000D02*
X13890000Y-26740000D01*
X5840000Y-27970000D02*
X11840000Y-27970000D01*
X11840000Y-27970000D02*
X11840000Y-27440000D01*
X5840000Y-37030000D02*
X5840000Y-28000000D01*
X5840000Y-37030000D02*
X11840000Y-37030000D01*
X11840000Y-37560000D02*
X11840000Y-37030000D01*
X11840000Y-37560000D02*
X13890000Y-37560000D01*
X13890000Y-38260000D02*
X13890000Y-37560000D01*
X16110000Y-38260000D02*
X16110000Y-26740000D01*
X13890000Y-26850000D02*
G75*
G02*
X16110000Y-26850000I1110000J0D01*
G01*
X16096635Y-38321729D02*
G75*
G02*
X13890000Y-38150000I-1096635J171730D01*
G01*
%TO.C,L2*%
X53927371Y-68069388D02*
X46822371Y-80375612D01*
X20763666Y-65330611D01*
X27868667Y-53024388D01*
X53927371Y-68069388D01*
X52552921Y-75480000D02*
X50374870Y-74222501D01*
X22138111Y-57920000D02*
X24316167Y-59177499D01*
%TD*%
M02*
