%TF.GenerationSoftware,KiCad,Pcbnew,9.0.7*%
%TF.CreationDate,2026-05-14T13:28:51-04:00*%
%TF.ProjectId,Control Board V3,436f6e74-726f-46c2-9042-6f6172642056,rev?*%
%TF.SameCoordinates,Original*%
%TF.FileFunction,Copper,L2,Inr*%
%TF.FilePolarity,Positive*%
%FSLAX46Y46*%
G04 Gerber Fmt 4.6, Leading zero omitted, Abs format (unit mm)*
G04 Created by KiCad (PCBNEW 9.0.7) date 2026-05-14 13:28:51*
%MOMM*%
%LPD*%
G01*
G04 APERTURE LIST*
G04 Aperture macros list*
%AMRoundRect*
0 Rectangle with rounded corners*
0 $1 Rounding radius*
0 $2 $3 $4 $5 $6 $7 $8 $9 X,Y pos of 4 corners*
0 Add a 4 corners polygon primitive as box body*
4,1,4,$2,$3,$4,$5,$6,$7,$8,$9,$2,$3,0*
0 Add four circle primitives for the rounded corners*
1,1,$1+$1,$2,$3*
1,1,$1+$1,$4,$5*
1,1,$1+$1,$6,$7*
1,1,$1+$1,$8,$9*
0 Add four rect primitives between the rounded corners*
20,1,$1+$1,$2,$3,$4,$5,0*
20,1,$1+$1,$4,$5,$6,$7,0*
20,1,$1+$1,$6,$7,$8,$9,0*
20,1,$1+$1,$8,$9,$2,$3,0*%
%AMFreePoly0*
4,1,37,0.603843,0.796157,0.639018,0.796157,0.711114,0.766294,0.766294,0.711114,0.796157,0.639018,0.796157,0.603843,0.800000,0.600000,0.800000,-0.600000,0.796157,-0.603843,0.796157,-0.639018,0.766294,-0.711114,0.711114,-0.766294,0.639018,-0.796157,0.603843,-0.796157,0.600000,-0.800000,0.000000,-0.800000,0.000000,-0.796148,-0.078414,-0.796148,-0.232228,-0.765552,-0.377117,-0.705537,
-0.507515,-0.618408,-0.618408,-0.507515,-0.705537,-0.377117,-0.765552,-0.232228,-0.796148,-0.078414,-0.796148,0.078414,-0.765552,0.232228,-0.705537,0.377117,-0.618408,0.507515,-0.507515,0.618408,-0.377117,0.705537,-0.232228,0.765552,-0.078414,0.796148,0.000000,0.796148,0.000000,0.800000,0.600000,0.800000,0.603843,0.796157,0.603843,0.796157,$1*%
%AMFreePoly1*
4,1,37,0.000000,0.796148,0.078414,0.796148,0.232228,0.765552,0.377117,0.705537,0.507515,0.618408,0.618408,0.507515,0.705537,0.377117,0.765552,0.232228,0.796148,0.078414,0.796148,-0.078414,0.765552,-0.232228,0.705537,-0.377117,0.618408,-0.507515,0.507515,-0.618408,0.377117,-0.705537,0.232228,-0.765552,0.078414,-0.796148,0.000000,-0.796148,0.000000,-0.800000,-0.600000,-0.800000,
-0.603843,-0.796157,-0.639018,-0.796157,-0.711114,-0.766294,-0.766294,-0.711114,-0.796157,-0.639018,-0.796157,-0.603843,-0.800000,-0.600000,-0.800000,0.600000,-0.796157,0.603843,-0.796157,0.639018,-0.766294,0.711114,-0.711114,0.766294,-0.639018,0.796157,-0.603843,0.796157,-0.600000,0.800000,0.000000,0.800000,0.000000,0.796148,0.000000,0.796148,$1*%
G04 Aperture macros list end*
%TA.AperFunction,ComponentPad*%
%ADD10C,1.400000*%
%TD*%
%TA.AperFunction,ComponentPad*%
%ADD11RoundRect,0.770000X0.980000X-0.980000X0.980000X0.980000X-0.980000X0.980000X-0.980000X-0.980000X0*%
%TD*%
%TA.AperFunction,ComponentPad*%
%ADD12C,3.500000*%
%TD*%
%TA.AperFunction,ComponentPad*%
%ADD13RoundRect,0.770000X-0.980000X0.980000X-0.980000X-0.980000X0.980000X-0.980000X0.980000X0.980000X0*%
%TD*%
%TA.AperFunction,ComponentPad*%
%ADD14RoundRect,0.770000X-0.980000X-0.980000X0.980000X-0.980000X0.980000X0.980000X-0.980000X0.980000X0*%
%TD*%
%TA.AperFunction,ComponentPad*%
%ADD15RoundRect,0.770000X0.980000X0.980000X-0.980000X0.980000X-0.980000X-0.980000X0.980000X-0.980000X0*%
%TD*%
%TA.AperFunction,ComponentPad*%
%ADD16RoundRect,0.200000X0.600000X0.600000X-0.600000X0.600000X-0.600000X-0.600000X0.600000X-0.600000X0*%
%TD*%
%TA.AperFunction,ComponentPad*%
%ADD17C,1.600000*%
%TD*%
%TA.AperFunction,ComponentPad*%
%ADD18FreePoly0,180.000000*%
%TD*%
%TA.AperFunction,ComponentPad*%
%ADD19FreePoly1,180.000000*%
%TD*%
%TA.AperFunction,ComponentPad*%
%ADD20C,1.700000*%
%TD*%
%TA.AperFunction,ComponentPad*%
%ADD21R,1.700000X1.700000*%
%TD*%
%TA.AperFunction,ComponentPad*%
%ADD22C,2.400000*%
%TD*%
%TA.AperFunction,ViaPad*%
%ADD23C,0.600000*%
%TD*%
G04 APERTURE END LIST*
D10*
%TO.N,*%
%TO.C,J17*%
X80000000Y-36000000D03*
X80000000Y-25000000D03*
D11*
%TO.N,PGND*%
X70000000Y-28000000D03*
D12*
%TO.N,PM01*%
X70000000Y-33000000D03*
%TD*%
D10*
%TO.N,*%
%TO.C,J12*%
X15000000Y-82000000D03*
X15000000Y-93000000D03*
D13*
%TO.N,PGND*%
X25000000Y-90000000D03*
D12*
%TO.N,V_DT*%
X25000000Y-85000000D03*
%TD*%
D10*
%TO.N,*%
%TO.C,J16*%
X80000000Y-93000000D03*
X80000000Y-82000000D03*
D11*
%TO.N,PGND*%
X70000000Y-85000000D03*
D12*
%TO.N,V_DT*%
X70000000Y-90000000D03*
%TD*%
D10*
%TO.N,*%
%TO.C,J15*%
X58089487Y-105000000D03*
X69089487Y-105000000D03*
D14*
%TO.N,PGND*%
X66089487Y-95000000D03*
D12*
%TO.N,V_DT*%
X61089487Y-95000000D03*
%TD*%
D10*
%TO.N,*%
%TO.C,J14*%
X42000000Y-105000000D03*
X53000000Y-105000000D03*
D14*
%TO.N,PGND*%
X50000000Y-95000000D03*
D12*
%TO.N,V_DT*%
X45000000Y-95000000D03*
%TD*%
D10*
%TO.N,*%
%TO.C,J13*%
X26000000Y-105000000D03*
X37000000Y-105000000D03*
D14*
%TO.N,PGND*%
X34000000Y-95000000D03*
D12*
%TO.N,V_DT*%
X29000000Y-95000000D03*
%TD*%
D10*
%TO.N,*%
%TO.C,J8*%
X75000000Y-82000000D03*
X75000000Y-93000000D03*
D13*
%TO.N,PGND*%
X70000000Y-85000000D03*
D12*
%TO.N,V_DT*%
X70000000Y-90000000D03*
%TD*%
D10*
%TO.N,*%
%TO.C,J7*%
X69089487Y-100000000D03*
X58089487Y-100000000D03*
D15*
%TO.N,PGND*%
X66089487Y-95000000D03*
D12*
%TO.N,V_DT*%
X61089487Y-95000000D03*
%TD*%
D10*
%TO.N,*%
%TO.C,J6*%
X53000000Y-100000000D03*
X42000000Y-100000000D03*
D15*
%TO.N,PGND*%
X50000000Y-95000000D03*
D12*
%TO.N,V_DT*%
X45000000Y-95000000D03*
%TD*%
D10*
%TO.N,*%
%TO.C,J5*%
X37000000Y-100000000D03*
X26000000Y-100000000D03*
D15*
%TO.N,PGND*%
X34000000Y-95000000D03*
D12*
%TO.N,V_DT*%
X29000000Y-95000000D03*
%TD*%
D16*
%TO.N,Net-(A1-GPIO0)*%
%TO.C,A1*%
X56390000Y-15870000D03*
D17*
%TO.N,Net-(A1-GPIO1)*%
X56390000Y-18410000D03*
D18*
%TO.N,DGND*%
X56390000Y-20950000D03*
D17*
%TO.N,unconnected-(A1-GPIO2-Pad4)*%
X56390000Y-23490000D03*
%TO.N,unconnected-(A1-GPIO3-Pad5)*%
X56390000Y-26030000D03*
%TO.N,unconnected-(A1-GPIO4-Pad6)*%
X56390000Y-28570000D03*
%TO.N,unconnected-(A1-GPIO5-Pad7)*%
X56390000Y-31110000D03*
D18*
%TO.N,DGND*%
X56390000Y-33650000D03*
D17*
%TO.N,unconnected-(A1-GPIO6-Pad9)*%
X56390000Y-36190000D03*
%TO.N,unconnected-(A1-GPIO7-Pad10)*%
X56390000Y-38730000D03*
%TO.N,unconnected-(A1-GPIO8-Pad11)*%
X56390000Y-41270000D03*
%TO.N,unconnected-(A1-GPIO9-Pad12)*%
X56390000Y-43810000D03*
D18*
%TO.N,DGND*%
X56390000Y-46350000D03*
D17*
%TO.N,SPI1_CLK*%
X56390000Y-48890000D03*
%TO.N,SPI1_MOSI*%
X56390000Y-51430000D03*
%TO.N,SPI1_MISO*%
X56390000Y-53970000D03*
%TO.N,SPI1_CS*%
X56390000Y-56510000D03*
D18*
%TO.N,DGND*%
X56390000Y-59050000D03*
D17*
%TO.N,PWM_H*%
X56390000Y-61590000D03*
%TO.N,PWM_L*%
X56390000Y-64130000D03*
%TO.N,SPI0_MISO*%
X38610000Y-64130000D03*
%TO.N,SPI0_CS*%
X38610000Y-61590000D03*
D19*
%TO.N,DGND*%
X38610000Y-59050000D03*
D17*
%TO.N,SPI0_CLK*%
X38610000Y-56510000D03*
%TO.N,SPI0_MOSI*%
X38610000Y-53970000D03*
%TO.N,unconnected-(A1-GPIO20-Pad26)*%
X38610000Y-51430000D03*
%TO.N,unconnected-(A1-GPIO21-Pad27)*%
X38610000Y-48890000D03*
D19*
%TO.N,DGND*%
X38610000Y-46350000D03*
D17*
%TO.N,unconnected-(A1-GPIO22-Pad29)*%
X38610000Y-43810000D03*
%TO.N,unconnected-(A1-RUN-Pad30)*%
X38610000Y-41270000D03*
%TO.N,unconnected-(A1-GPIO26_ADC0-Pad31)*%
X38610000Y-38730000D03*
%TO.N,unconnected-(A1-GPIO27_ADC1-Pad32)*%
X38610000Y-36190000D03*
D19*
%TO.N,DGND*%
X38610000Y-33650000D03*
D17*
%TO.N,unconnected-(A1-GPIO28_ADC2-Pad34)*%
X38610000Y-31110000D03*
%TO.N,unconnected-(A1-ADC_VREF-Pad35)*%
X38610000Y-28570000D03*
%TO.N,3V3*%
X38610000Y-26030000D03*
%TO.N,unconnected-(A1-3V3_EN-Pad37)*%
X38610000Y-23490000D03*
D19*
%TO.N,DGND*%
X38610000Y-20950000D03*
D17*
%TO.N,5V*%
X38610000Y-18410000D03*
X38610000Y-15870000D03*
%TD*%
D12*
%TO.N,PM01*%
%TO.C,J1*%
X70000000Y-33000000D03*
D13*
%TO.N,PGND*%
X70000000Y-28000000D03*
D10*
%TO.N,*%
X75000000Y-36000000D03*
X75000000Y-25000000D03*
%TD*%
D20*
%TO.N,MiniPC-*%
%TO.C,J10*%
X82535000Y-68260000D03*
%TO.N,PSU_GND*%
X82535000Y-70800000D03*
D21*
%TO.N,PGND*%
X82535000Y-73340000D03*
%TD*%
D20*
%TO.N,MiniPC+*%
%TO.C,J9*%
X77875000Y-63000000D03*
%TO.N,PSU_Vin*%
X75335000Y-63000000D03*
D21*
%TO.N,V_DT*%
X72795000Y-63000000D03*
%TD*%
D10*
%TO.N,*%
%TO.C,J4*%
X20000000Y-93000000D03*
X20000000Y-82000000D03*
D11*
%TO.N,PGND*%
X25000000Y-90000000D03*
D12*
%TO.N,V_DT*%
X25000000Y-85000000D03*
%TD*%
D10*
%TO.N,*%
%TO.C,J3*%
X80000000Y-48000000D03*
X80000000Y-59000000D03*
D13*
%TO.N,MiniPC-*%
X75000000Y-51000000D03*
D12*
%TO.N,MiniPC+*%
X75000000Y-56000000D03*
%TD*%
D10*
%TO.N,*%
%TO.C,J2*%
X15000000Y-38000000D03*
X15000000Y-27000000D03*
D11*
%TO.N,PGND*%
X20000000Y-35000000D03*
D12*
%TO.N,CM01*%
X20000000Y-30000000D03*
%TD*%
D21*
%TO.N,Net-(A1-GPIO1)*%
%TO.C,J11*%
X63000000Y-18275000D03*
D20*
%TO.N,Net-(A1-GPIO0)*%
X63000000Y-15735000D03*
%TD*%
D22*
%TO.N,Net-(D1-A)*%
%TO.C,L2*%
X20891037Y-57200002D03*
%TO.N,Net-(D2-A2)*%
X53800000Y-76200000D03*
%TD*%
D23*
%TO.N,PGND*%
X68500000Y-40000000D03*
X64090000Y-42500000D03*
X71750000Y-45250000D03*
X75400000Y-41400000D03*
X65450000Y-40250000D03*
X66007500Y-43092500D03*
X66032500Y-41832500D03*
X74428750Y-41400000D03*
X74110000Y-39120000D03*
%TO.N,5V*%
X77072500Y-41572500D03*
%TO.N,PGND*%
X68500000Y-41750000D03*
X64800000Y-41500000D03*
X77565870Y-40015870D03*
X68450000Y-45450000D03*
X71850000Y-41750000D03*
%TO.N,DGND*%
X75900000Y-45500000D03*
X68200000Y-47250000D03*
%TO.N,PGND*%
X64100000Y-40150000D03*
X73947502Y-43124439D03*
%TO.N,Net-(U3-AIN_0P)*%
X77637500Y-39025000D03*
%TO.N,PGND*%
X63050000Y-45975000D03*
X63865000Y-46910000D03*
%TO.N,PM01*%
X68000000Y-37037500D03*
%TO.N,PGND*%
X23500000Y-49500000D03*
%TO.N,Net-(U5-SW)*%
X75735000Y-68000000D03*
X74935000Y-68000000D03*
%TO.N,DGND*%
X73011250Y-74626250D03*
X62500000Y-69325000D03*
%TO.N,PGND*%
X57500000Y-78925000D03*
X58500000Y-78925000D03*
%TO.N,DGND*%
X55900000Y-72825000D03*
%TO.N,PGND*%
X60000000Y-74000000D03*
X58000000Y-76000000D03*
X58000000Y-75000000D03*
X58000000Y-77000000D03*
X60000000Y-77000000D03*
%TO.N,5V*%
X55600000Y-70625000D03*
%TO.N,DGND*%
X55500000Y-69325000D03*
%TO.N,PGND*%
X58000000Y-78000000D03*
X60000000Y-76000000D03*
X60000000Y-78000000D03*
%TO.N,DGND*%
X57300000Y-72125000D03*
%TO.N,PGND*%
X60000000Y-75000000D03*
X59200000Y-80825000D03*
X58000000Y-74000000D03*
%TO.N,5V*%
X18000000Y-42500000D03*
X31950000Y-45550000D03*
X71735000Y-72400000D03*
X73435000Y-72800000D03*
%TO.N,PGND*%
X26300000Y-44000000D03*
X29000000Y-45500000D03*
%TO.N,DGND*%
X31250000Y-49500000D03*
%TO.N,PGND*%
X19300000Y-46500000D03*
X26750000Y-45750000D03*
X20000000Y-45500000D03*
X26787500Y-49250000D03*
%TO.N,DGND*%
X30631250Y-50268750D03*
%TO.N,PGND*%
X17540367Y-44040367D03*
X19300000Y-42700000D03*
X30000000Y-45500000D03*
X28950000Y-47150000D03*
X29000000Y-43100000D03*
%TO.N,DGND*%
X23243750Y-51256250D03*
%TO.N,PGND*%
X23300000Y-45750000D03*
X23700000Y-44000000D03*
X21106250Y-47193750D03*
X32500000Y-44000000D03*
X31750000Y-54500000D03*
X32250000Y-47500000D03*
X32250000Y-48500000D03*
X31750000Y-55500000D03*
X30750000Y-53500000D03*
X30750000Y-56500000D03*
X28500000Y-55500000D03*
X31250000Y-48500000D03*
X29500000Y-56500000D03*
X28500000Y-54500000D03*
X31250000Y-47500000D03*
X29500000Y-53500000D03*
%TO.N,CM01*%
X23000000Y-41037500D03*
%TO.N,Net-(U1-AIN_2P)*%
X32500000Y-43025000D03*
%TO.N,Net-(U1-AIN_0P)*%
X18400000Y-44300000D03*
%TO.N,PGND*%
X19300000Y-50900000D03*
X17950000Y-50550000D03*
%TD*%
%TA.AperFunction,Conductor*%
%TO.N,PGND*%
G36*
X84458691Y-10519407D02*
G01*
X84494655Y-10568907D01*
X84499500Y-10599500D01*
X84499500Y-109400500D01*
X84480593Y-109458691D01*
X84431093Y-109494655D01*
X84400500Y-109499500D01*
X10599500Y-109499500D01*
X10541309Y-109480593D01*
X10505345Y-109431093D01*
X10500500Y-109400500D01*
X10500500Y-104906381D01*
X25049500Y-104906381D01*
X25049500Y-105093618D01*
X25086026Y-105277249D01*
X25157677Y-105450229D01*
X25157681Y-105450238D01*
X25232065Y-105561559D01*
X25261698Y-105605908D01*
X25394092Y-105738302D01*
X25460463Y-105782649D01*
X25549761Y-105842318D01*
X25549767Y-105842320D01*
X25549769Y-105842322D01*
X25722749Y-105913973D01*
X25906384Y-105950500D01*
X25906385Y-105950500D01*
X26093615Y-105950500D01*
X26093616Y-105950500D01*
X26277251Y-105913973D01*
X26450231Y-105842322D01*
X26450234Y-105842319D01*
X26450238Y-105842318D01*
X26495187Y-105812282D01*
X26605908Y-105738302D01*
X26738302Y-105605908D01*
X26812282Y-105495187D01*
X26842318Y-105450238D01*
X26842319Y-105450234D01*
X26842322Y-105450231D01*
X26913973Y-105277251D01*
X26950500Y-105093616D01*
X26950500Y-104906384D01*
X26950499Y-104906381D01*
X36049500Y-104906381D01*
X36049500Y-105093618D01*
X36086026Y-105277249D01*
X36157677Y-105450229D01*
X36157681Y-105450238D01*
X36232065Y-105561559D01*
X36261698Y-105605908D01*
X36394092Y-105738302D01*
X36460463Y-105782649D01*
X36549761Y-105842318D01*
X36549767Y-105842320D01*
X36549769Y-105842322D01*
X36722749Y-105913973D01*
X36906384Y-105950500D01*
X36906385Y-105950500D01*
X37093615Y-105950500D01*
X37093616Y-105950500D01*
X37277251Y-105913973D01*
X37450231Y-105842322D01*
X37450234Y-105842319D01*
X37450238Y-105842318D01*
X37495187Y-105812282D01*
X37605908Y-105738302D01*
X37738302Y-105605908D01*
X37812282Y-105495187D01*
X37842318Y-105450238D01*
X37842319Y-105450234D01*
X37842322Y-105450231D01*
X37913973Y-105277251D01*
X37950500Y-105093616D01*
X37950500Y-104906384D01*
X37950499Y-104906381D01*
X41049500Y-104906381D01*
X41049500Y-105093618D01*
X41086026Y-105277249D01*
X41157677Y-105450229D01*
X41157681Y-105450238D01*
X41232065Y-105561559D01*
X41261698Y-105605908D01*
X41394092Y-105738302D01*
X41460463Y-105782649D01*
X41549761Y-105842318D01*
X41549767Y-105842320D01*
X41549769Y-105842322D01*
X41722749Y-105913973D01*
X41906384Y-105950500D01*
X41906385Y-105950500D01*
X42093615Y-105950500D01*
X42093616Y-105950500D01*
X42277251Y-105913973D01*
X42450231Y-105842322D01*
X42450234Y-105842319D01*
X42450238Y-105842318D01*
X42495187Y-105812282D01*
X42605908Y-105738302D01*
X42738302Y-105605908D01*
X42812282Y-105495187D01*
X42842318Y-105450238D01*
X42842319Y-105450234D01*
X42842322Y-105450231D01*
X42913973Y-105277251D01*
X42950500Y-105093616D01*
X42950500Y-104906384D01*
X42950499Y-104906381D01*
X52049500Y-104906381D01*
X52049500Y-105093618D01*
X52086026Y-105277249D01*
X52157677Y-105450229D01*
X52157681Y-105450238D01*
X52232065Y-105561559D01*
X52261698Y-105605908D01*
X52394092Y-105738302D01*
X52460463Y-105782649D01*
X52549761Y-105842318D01*
X52549767Y-105842320D01*
X52549769Y-105842322D01*
X52722749Y-105913973D01*
X52906384Y-105950500D01*
X52906385Y-105950500D01*
X53093615Y-105950500D01*
X53093616Y-105950500D01*
X53277251Y-105913973D01*
X53450231Y-105842322D01*
X53450234Y-105842319D01*
X53450238Y-105842318D01*
X53495187Y-105812282D01*
X53605908Y-105738302D01*
X53738302Y-105605908D01*
X53812282Y-105495187D01*
X53842318Y-105450238D01*
X53842319Y-105450234D01*
X53842322Y-105450231D01*
X53913973Y-105277251D01*
X53950500Y-105093616D01*
X53950500Y-104906384D01*
X53950499Y-104906381D01*
X57138987Y-104906381D01*
X57138987Y-105093618D01*
X57175513Y-105277249D01*
X57247164Y-105450229D01*
X57247168Y-105450238D01*
X57321552Y-105561559D01*
X57351185Y-105605908D01*
X57483579Y-105738302D01*
X57549950Y-105782649D01*
X57639248Y-105842318D01*
X57639254Y-105842320D01*
X57639256Y-105842322D01*
X57812236Y-105913973D01*
X57995871Y-105950500D01*
X57995872Y-105950500D01*
X58183102Y-105950500D01*
X58183103Y-105950500D01*
X58366738Y-105913973D01*
X58539718Y-105842322D01*
X58539721Y-105842319D01*
X58539725Y-105842318D01*
X58584674Y-105812282D01*
X58695395Y-105738302D01*
X58827789Y-105605908D01*
X58901769Y-105495187D01*
X58931805Y-105450238D01*
X58931806Y-105450234D01*
X58931809Y-105450231D01*
X59003460Y-105277251D01*
X59039987Y-105093616D01*
X59039987Y-104906384D01*
X59039986Y-104906381D01*
X68138987Y-104906381D01*
X68138987Y-105093618D01*
X68175513Y-105277249D01*
X68247164Y-105450229D01*
X68247168Y-105450238D01*
X68321552Y-105561559D01*
X68351185Y-105605908D01*
X68483579Y-105738302D01*
X68549950Y-105782649D01*
X68639248Y-105842318D01*
X68639254Y-105842320D01*
X68639256Y-105842322D01*
X68812236Y-105913973D01*
X68995871Y-105950500D01*
X68995872Y-105950500D01*
X69183102Y-105950500D01*
X69183103Y-105950500D01*
X69366738Y-105913973D01*
X69539718Y-105842322D01*
X69539721Y-105842319D01*
X69539725Y-105842318D01*
X69584674Y-105812282D01*
X69695395Y-105738302D01*
X69827789Y-105605908D01*
X69901769Y-105495187D01*
X69931805Y-105450238D01*
X69931806Y-105450234D01*
X69931809Y-105450231D01*
X70003460Y-105277251D01*
X70039987Y-105093616D01*
X70039987Y-104906384D01*
X70003460Y-104722749D01*
X69931809Y-104549769D01*
X69931807Y-104549767D01*
X69931805Y-104549761D01*
X69872136Y-104460463D01*
X69827789Y-104394092D01*
X69695395Y-104261698D01*
X69651046Y-104232065D01*
X69539725Y-104157681D01*
X69539716Y-104157677D01*
X69366736Y-104086026D01*
X69183105Y-104049500D01*
X69183103Y-104049500D01*
X68995871Y-104049500D01*
X68995868Y-104049500D01*
X68812237Y-104086026D01*
X68639257Y-104157677D01*
X68639248Y-104157681D01*
X68483579Y-104261698D01*
X68483575Y-104261701D01*
X68351188Y-104394088D01*
X68351185Y-104394092D01*
X68247168Y-104549761D01*
X68247164Y-104549770D01*
X68175513Y-104722750D01*
X68138987Y-104906381D01*
X59039986Y-104906381D01*
X59003460Y-104722749D01*
X58931809Y-104549769D01*
X58931807Y-104549767D01*
X58931805Y-104549761D01*
X58872136Y-104460463D01*
X58827789Y-104394092D01*
X58695395Y-104261698D01*
X58651046Y-104232065D01*
X58539725Y-104157681D01*
X58539716Y-104157677D01*
X58366736Y-104086026D01*
X58183105Y-104049500D01*
X58183103Y-104049500D01*
X57995871Y-104049500D01*
X57995868Y-104049500D01*
X57812237Y-104086026D01*
X57639257Y-104157677D01*
X57639248Y-104157681D01*
X57483579Y-104261698D01*
X57483575Y-104261701D01*
X57351188Y-104394088D01*
X57351185Y-104394092D01*
X57247168Y-104549761D01*
X57247164Y-104549770D01*
X57175513Y-104722750D01*
X57138987Y-104906381D01*
X53950499Y-104906381D01*
X53913973Y-104722749D01*
X53842322Y-104549769D01*
X53842320Y-104549767D01*
X53842318Y-104549761D01*
X53782649Y-104460463D01*
X53738302Y-104394092D01*
X53605908Y-104261698D01*
X53561559Y-104232065D01*
X53450238Y-104157681D01*
X53450229Y-104157677D01*
X53277249Y-104086026D01*
X53093618Y-104049500D01*
X53093616Y-104049500D01*
X52906384Y-104049500D01*
X52906381Y-104049500D01*
X52722750Y-104086026D01*
X52549770Y-104157677D01*
X52549761Y-104157681D01*
X52394092Y-104261698D01*
X52394088Y-104261701D01*
X52261701Y-104394088D01*
X52261698Y-104394092D01*
X52157681Y-104549761D01*
X52157677Y-104549770D01*
X52086026Y-104722750D01*
X52049500Y-104906381D01*
X42950499Y-104906381D01*
X42913973Y-104722749D01*
X42842322Y-104549769D01*
X42842320Y-104549767D01*
X42842318Y-104549761D01*
X42782649Y-104460463D01*
X42738302Y-104394092D01*
X42605908Y-104261698D01*
X42561559Y-104232065D01*
X42450238Y-104157681D01*
X42450229Y-104157677D01*
X42277249Y-104086026D01*
X42093618Y-104049500D01*
X42093616Y-104049500D01*
X41906384Y-104049500D01*
X41906381Y-104049500D01*
X41722750Y-104086026D01*
X41549770Y-104157677D01*
X41549761Y-104157681D01*
X41394092Y-104261698D01*
X41394088Y-104261701D01*
X41261701Y-104394088D01*
X41261698Y-104394092D01*
X41157681Y-104549761D01*
X41157677Y-104549770D01*
X41086026Y-104722750D01*
X41049500Y-104906381D01*
X37950499Y-104906381D01*
X37913973Y-104722749D01*
X37842322Y-104549769D01*
X37842320Y-104549767D01*
X37842318Y-104549761D01*
X37782649Y-104460463D01*
X37738302Y-104394092D01*
X37605908Y-104261698D01*
X37561559Y-104232065D01*
X37450238Y-104157681D01*
X37450229Y-104157677D01*
X37277249Y-104086026D01*
X37093618Y-104049500D01*
X37093616Y-104049500D01*
X36906384Y-104049500D01*
X36906381Y-104049500D01*
X36722750Y-104086026D01*
X36549770Y-104157677D01*
X36549761Y-104157681D01*
X36394092Y-104261698D01*
X36394088Y-104261701D01*
X36261701Y-104394088D01*
X36261698Y-104394092D01*
X36157681Y-104549761D01*
X36157677Y-104549770D01*
X36086026Y-104722750D01*
X36049500Y-104906381D01*
X26950499Y-104906381D01*
X26913973Y-104722749D01*
X26842322Y-104549769D01*
X26842320Y-104549767D01*
X26842318Y-104549761D01*
X26782649Y-104460463D01*
X26738302Y-104394092D01*
X26605908Y-104261698D01*
X26561559Y-104232065D01*
X26450238Y-104157681D01*
X26450229Y-104157677D01*
X26277249Y-104086026D01*
X26093618Y-104049500D01*
X26093616Y-104049500D01*
X25906384Y-104049500D01*
X25906381Y-104049500D01*
X25722750Y-104086026D01*
X25549770Y-104157677D01*
X25549761Y-104157681D01*
X25394092Y-104261698D01*
X25394088Y-104261701D01*
X25261701Y-104394088D01*
X25261698Y-104394092D01*
X25157681Y-104549761D01*
X25157677Y-104549770D01*
X25086026Y-104722750D01*
X25049500Y-104906381D01*
X10500500Y-104906381D01*
X10500500Y-99878710D01*
X18149500Y-99878710D01*
X18149500Y-100121289D01*
X18181161Y-100361781D01*
X18181161Y-100361786D01*
X18243944Y-100596092D01*
X18243948Y-100596105D01*
X18336772Y-100820204D01*
X18336774Y-100820208D01*
X18336776Y-100820212D01*
X18411998Y-100950500D01*
X18458066Y-101030292D01*
X18605729Y-101222731D01*
X18605731Y-101222733D01*
X18605735Y-101222738D01*
X18777262Y-101394265D01*
X18777266Y-101394268D01*
X18777268Y-101394270D01*
X18969707Y-101541933D01*
X18969711Y-101541936D01*
X19179788Y-101663224D01*
X19403900Y-101756054D01*
X19638211Y-101818838D01*
X19878712Y-101850500D01*
X19878713Y-101850500D01*
X20121287Y-101850500D01*
X20121288Y-101850500D01*
X20361789Y-101818838D01*
X20596100Y-101756054D01*
X20820212Y-101663224D01*
X21030289Y-101541936D01*
X21222738Y-101394265D01*
X21394265Y-101222738D01*
X21541936Y-101030289D01*
X21663224Y-100820212D01*
X21756054Y-100596100D01*
X21818838Y-100361789D01*
X21850500Y-100121288D01*
X21850500Y-99906381D01*
X25049500Y-99906381D01*
X25049500Y-100093618D01*
X25086026Y-100277249D01*
X25157677Y-100450229D01*
X25157681Y-100450238D01*
X25232065Y-100561559D01*
X25261698Y-100605908D01*
X25394092Y-100738302D01*
X25460463Y-100782649D01*
X25549761Y-100842318D01*
X25549767Y-100842320D01*
X25549769Y-100842322D01*
X25722749Y-100913973D01*
X25906384Y-100950500D01*
X25906385Y-100950500D01*
X26093615Y-100950500D01*
X26093616Y-100950500D01*
X26277251Y-100913973D01*
X26450231Y-100842322D01*
X26450234Y-100842319D01*
X26450238Y-100842318D01*
X26495187Y-100812282D01*
X26605908Y-100738302D01*
X26738302Y-100605908D01*
X26812282Y-100495187D01*
X26842318Y-100450238D01*
X26842319Y-100450234D01*
X26842322Y-100450231D01*
X26913973Y-100277251D01*
X26950500Y-100093616D01*
X26950500Y-99906384D01*
X26950499Y-99906381D01*
X36049500Y-99906381D01*
X36049500Y-100093618D01*
X36086026Y-100277249D01*
X36157677Y-100450229D01*
X36157681Y-100450238D01*
X36232065Y-100561559D01*
X36261698Y-100605908D01*
X36394092Y-100738302D01*
X36460463Y-100782649D01*
X36549761Y-100842318D01*
X36549767Y-100842320D01*
X36549769Y-100842322D01*
X36722749Y-100913973D01*
X36906384Y-100950500D01*
X36906385Y-100950500D01*
X37093615Y-100950500D01*
X37093616Y-100950500D01*
X37277251Y-100913973D01*
X37450231Y-100842322D01*
X37450234Y-100842319D01*
X37450238Y-100842318D01*
X37495187Y-100812282D01*
X37605908Y-100738302D01*
X37738302Y-100605908D01*
X37812282Y-100495187D01*
X37842318Y-100450238D01*
X37842319Y-100450234D01*
X37842322Y-100450231D01*
X37913973Y-100277251D01*
X37950500Y-100093616D01*
X37950500Y-99906384D01*
X37950499Y-99906381D01*
X41049500Y-99906381D01*
X41049500Y-100093618D01*
X41086026Y-100277249D01*
X41157677Y-100450229D01*
X41157681Y-100450238D01*
X41232065Y-100561559D01*
X41261698Y-100605908D01*
X41394092Y-100738302D01*
X41460463Y-100782649D01*
X41549761Y-100842318D01*
X41549767Y-100842320D01*
X41549769Y-100842322D01*
X41722749Y-100913973D01*
X41906384Y-100950500D01*
X41906385Y-100950500D01*
X42093615Y-100950500D01*
X42093616Y-100950500D01*
X42277251Y-100913973D01*
X42450231Y-100842322D01*
X42450234Y-100842319D01*
X42450238Y-100842318D01*
X42495187Y-100812282D01*
X42605908Y-100738302D01*
X42738302Y-100605908D01*
X42812282Y-100495187D01*
X42842318Y-100450238D01*
X42842319Y-100450234D01*
X42842322Y-100450231D01*
X42913973Y-100277251D01*
X42950500Y-100093616D01*
X42950500Y-99906384D01*
X42950499Y-99906381D01*
X52049500Y-99906381D01*
X52049500Y-100093618D01*
X52086026Y-100277249D01*
X52157677Y-100450229D01*
X52157681Y-100450238D01*
X52232065Y-100561559D01*
X52261698Y-100605908D01*
X52394092Y-100738302D01*
X52460463Y-100782649D01*
X52549761Y-100842318D01*
X52549767Y-100842320D01*
X52549769Y-100842322D01*
X52722749Y-100913973D01*
X52906384Y-100950500D01*
X52906385Y-100950500D01*
X53093615Y-100950500D01*
X53093616Y-100950500D01*
X53277251Y-100913973D01*
X53450231Y-100842322D01*
X53450234Y-100842319D01*
X53450238Y-100842318D01*
X53495187Y-100812282D01*
X53605908Y-100738302D01*
X53738302Y-100605908D01*
X53812282Y-100495187D01*
X53842318Y-100450238D01*
X53842319Y-100450234D01*
X53842322Y-100450231D01*
X53913973Y-100277251D01*
X53950500Y-100093616D01*
X53950500Y-99906384D01*
X53950499Y-99906381D01*
X57138987Y-99906381D01*
X57138987Y-100093618D01*
X57175513Y-100277249D01*
X57247164Y-100450229D01*
X57247168Y-100450238D01*
X57321552Y-100561559D01*
X57351185Y-100605908D01*
X57483579Y-100738302D01*
X57549950Y-100782649D01*
X57639248Y-100842318D01*
X57639254Y-100842320D01*
X57639256Y-100842322D01*
X57812236Y-100913973D01*
X57995871Y-100950500D01*
X57995872Y-100950500D01*
X58183102Y-100950500D01*
X58183103Y-100950500D01*
X58366738Y-100913973D01*
X58539718Y-100842322D01*
X58539721Y-100842319D01*
X58539725Y-100842318D01*
X58584674Y-100812282D01*
X58695395Y-100738302D01*
X58827789Y-100605908D01*
X58901769Y-100495187D01*
X58931805Y-100450238D01*
X58931806Y-100450234D01*
X58931809Y-100450231D01*
X59003460Y-100277251D01*
X59039987Y-100093616D01*
X59039987Y-99906384D01*
X59039986Y-99906381D01*
X68138987Y-99906381D01*
X68138987Y-100093618D01*
X68175513Y-100277249D01*
X68247164Y-100450229D01*
X68247168Y-100450238D01*
X68321552Y-100561559D01*
X68351185Y-100605908D01*
X68483579Y-100738302D01*
X68549950Y-100782649D01*
X68639248Y-100842318D01*
X68639254Y-100842320D01*
X68639256Y-100842322D01*
X68812236Y-100913973D01*
X68995871Y-100950500D01*
X68995872Y-100950500D01*
X69183102Y-100950500D01*
X69183103Y-100950500D01*
X69366738Y-100913973D01*
X69539718Y-100842322D01*
X69539721Y-100842319D01*
X69539725Y-100842318D01*
X69584674Y-100812282D01*
X69695395Y-100738302D01*
X69827789Y-100605908D01*
X69901769Y-100495187D01*
X69931805Y-100450238D01*
X69931806Y-100450234D01*
X69931809Y-100450231D01*
X70003460Y-100277251D01*
X70039987Y-100093616D01*
X70039987Y-99906384D01*
X70034482Y-99878710D01*
X73149500Y-99878710D01*
X73149500Y-100121289D01*
X73181161Y-100361781D01*
X73181161Y-100361786D01*
X73243944Y-100596092D01*
X73243948Y-100596105D01*
X73336772Y-100820204D01*
X73336774Y-100820208D01*
X73336776Y-100820212D01*
X73411998Y-100950500D01*
X73458066Y-101030292D01*
X73605729Y-101222731D01*
X73605731Y-101222733D01*
X73605735Y-101222738D01*
X73777262Y-101394265D01*
X73777266Y-101394268D01*
X73777268Y-101394270D01*
X73969707Y-101541933D01*
X73969711Y-101541936D01*
X74179788Y-101663224D01*
X74403900Y-101756054D01*
X74638211Y-101818838D01*
X74878712Y-101850500D01*
X74878713Y-101850500D01*
X75121287Y-101850500D01*
X75121288Y-101850500D01*
X75361789Y-101818838D01*
X75596100Y-101756054D01*
X75820212Y-101663224D01*
X76030289Y-101541936D01*
X76222738Y-101394265D01*
X76394265Y-101222738D01*
X76541936Y-101030289D01*
X76663224Y-100820212D01*
X76756054Y-100596100D01*
X76818838Y-100361789D01*
X76850500Y-100121288D01*
X76850500Y-99878712D01*
X76818838Y-99638211D01*
X76756054Y-99403900D01*
X76663224Y-99179788D01*
X76541936Y-98969711D01*
X76394265Y-98777262D01*
X76222738Y-98605735D01*
X76222733Y-98605731D01*
X76222731Y-98605729D01*
X76030292Y-98458066D01*
X76030289Y-98458064D01*
X75820212Y-98336776D01*
X75820208Y-98336774D01*
X75820204Y-98336772D01*
X75596105Y-98243948D01*
X75596104Y-98243947D01*
X75596100Y-98243946D01*
X75361789Y-98181162D01*
X75361786Y-98181161D01*
X75361784Y-98181161D01*
X75121289Y-98149500D01*
X75121288Y-98149500D01*
X74878712Y-98149500D01*
X74878710Y-98149500D01*
X74638218Y-98181161D01*
X74638213Y-98181161D01*
X74403907Y-98243944D01*
X74403894Y-98243948D01*
X74179795Y-98336772D01*
X73969707Y-98458066D01*
X73777268Y-98605729D01*
X73605729Y-98777268D01*
X73458066Y-98969707D01*
X73336772Y-99179795D01*
X73243948Y-99403894D01*
X73243944Y-99403907D01*
X73181161Y-99638213D01*
X73181161Y-99638218D01*
X73149500Y-99878710D01*
X70034482Y-99878710D01*
X70003460Y-99722749D01*
X69931809Y-99549769D01*
X69931807Y-99549767D01*
X69931805Y-99549761D01*
X69872136Y-99460463D01*
X69827789Y-99394092D01*
X69695395Y-99261698D01*
X69651046Y-99232065D01*
X69539725Y-99157681D01*
X69539716Y-99157677D01*
X69366736Y-99086026D01*
X69183105Y-99049500D01*
X69183103Y-99049500D01*
X68995871Y-99049500D01*
X68995868Y-99049500D01*
X68812237Y-99086026D01*
X68639257Y-99157677D01*
X68639248Y-99157681D01*
X68483579Y-99261698D01*
X68483575Y-99261701D01*
X68351188Y-99394088D01*
X68351185Y-99394092D01*
X68247168Y-99549761D01*
X68247164Y-99549770D01*
X68175513Y-99722750D01*
X68138987Y-99906381D01*
X59039986Y-99906381D01*
X59003460Y-99722749D01*
X58931809Y-99549769D01*
X58931807Y-99549767D01*
X58931805Y-99549761D01*
X58872136Y-99460463D01*
X58827789Y-99394092D01*
X58695395Y-99261698D01*
X58651046Y-99232065D01*
X58539725Y-99157681D01*
X58539716Y-99157677D01*
X58366736Y-99086026D01*
X58183105Y-99049500D01*
X58183103Y-99049500D01*
X57995871Y-99049500D01*
X57995868Y-99049500D01*
X57812237Y-99086026D01*
X57639257Y-99157677D01*
X57639248Y-99157681D01*
X57483579Y-99261698D01*
X57483575Y-99261701D01*
X57351188Y-99394088D01*
X57351185Y-99394092D01*
X57247168Y-99549761D01*
X57247164Y-99549770D01*
X57175513Y-99722750D01*
X57138987Y-99906381D01*
X53950499Y-99906381D01*
X53913973Y-99722749D01*
X53842322Y-99549769D01*
X53842320Y-99549767D01*
X53842318Y-99549761D01*
X53782649Y-99460463D01*
X53738302Y-99394092D01*
X53605908Y-99261698D01*
X53561559Y-99232065D01*
X53450238Y-99157681D01*
X53450229Y-99157677D01*
X53277249Y-99086026D01*
X53093618Y-99049500D01*
X53093616Y-99049500D01*
X52906384Y-99049500D01*
X52906381Y-99049500D01*
X52722750Y-99086026D01*
X52549770Y-99157677D01*
X52549761Y-99157681D01*
X52394092Y-99261698D01*
X52394088Y-99261701D01*
X52261701Y-99394088D01*
X52261698Y-99394092D01*
X52157681Y-99549761D01*
X52157677Y-99549770D01*
X52086026Y-99722750D01*
X52049500Y-99906381D01*
X42950499Y-99906381D01*
X42913973Y-99722749D01*
X42842322Y-99549769D01*
X42842320Y-99549767D01*
X42842318Y-99549761D01*
X42782649Y-99460463D01*
X42738302Y-99394092D01*
X42605908Y-99261698D01*
X42561559Y-99232065D01*
X42450238Y-99157681D01*
X42450229Y-99157677D01*
X42277249Y-99086026D01*
X42093618Y-99049500D01*
X42093616Y-99049500D01*
X41906384Y-99049500D01*
X41906381Y-99049500D01*
X41722750Y-99086026D01*
X41549770Y-99157677D01*
X41549761Y-99157681D01*
X41394092Y-99261698D01*
X41394088Y-99261701D01*
X41261701Y-99394088D01*
X41261698Y-99394092D01*
X41157681Y-99549761D01*
X41157677Y-99549770D01*
X41086026Y-99722750D01*
X41049500Y-99906381D01*
X37950499Y-99906381D01*
X37913973Y-99722749D01*
X37842322Y-99549769D01*
X37842320Y-99549767D01*
X37842318Y-99549761D01*
X37782649Y-99460463D01*
X37738302Y-99394092D01*
X37605908Y-99261698D01*
X37561559Y-99232065D01*
X37450238Y-99157681D01*
X37450229Y-99157677D01*
X37277249Y-99086026D01*
X37093618Y-99049500D01*
X37093616Y-99049500D01*
X36906384Y-99049500D01*
X36906381Y-99049500D01*
X36722750Y-99086026D01*
X36549770Y-99157677D01*
X36549761Y-99157681D01*
X36394092Y-99261698D01*
X36394088Y-99261701D01*
X36261701Y-99394088D01*
X36261698Y-99394092D01*
X36157681Y-99549761D01*
X36157677Y-99549770D01*
X36086026Y-99722750D01*
X36049500Y-99906381D01*
X26950499Y-99906381D01*
X26913973Y-99722749D01*
X26842322Y-99549769D01*
X26842320Y-99549767D01*
X26842318Y-99549761D01*
X26782649Y-99460463D01*
X26738302Y-99394092D01*
X26605908Y-99261698D01*
X26561559Y-99232065D01*
X26450238Y-99157681D01*
X26450229Y-99157677D01*
X26277249Y-99086026D01*
X26093618Y-99049500D01*
X26093616Y-99049500D01*
X25906384Y-99049500D01*
X25906381Y-99049500D01*
X25722750Y-99086026D01*
X25549770Y-99157677D01*
X25549761Y-99157681D01*
X25394092Y-99261698D01*
X25394088Y-99261701D01*
X25261701Y-99394088D01*
X25261698Y-99394092D01*
X25157681Y-99549761D01*
X25157677Y-99549770D01*
X25086026Y-99722750D01*
X25049500Y-99906381D01*
X21850500Y-99906381D01*
X21850500Y-99878712D01*
X21818838Y-99638211D01*
X21756054Y-99403900D01*
X21663224Y-99179788D01*
X21541936Y-98969711D01*
X21394265Y-98777262D01*
X21222738Y-98605735D01*
X21222733Y-98605731D01*
X21222731Y-98605729D01*
X21030292Y-98458066D01*
X21030289Y-98458064D01*
X20820212Y-98336776D01*
X20820208Y-98336774D01*
X20820204Y-98336772D01*
X20596105Y-98243948D01*
X20596104Y-98243947D01*
X20596100Y-98243946D01*
X20361789Y-98181162D01*
X20361786Y-98181161D01*
X20361784Y-98181161D01*
X20121289Y-98149500D01*
X20121288Y-98149500D01*
X19878712Y-98149500D01*
X19878710Y-98149500D01*
X19638218Y-98181161D01*
X19638213Y-98181161D01*
X19403907Y-98243944D01*
X19403894Y-98243948D01*
X19179795Y-98336772D01*
X18969707Y-98458066D01*
X18777268Y-98605729D01*
X18605729Y-98777268D01*
X18458066Y-98969707D01*
X18336772Y-99179795D01*
X18243948Y-99403894D01*
X18243944Y-99403907D01*
X18181161Y-99638213D01*
X18181161Y-99638218D01*
X18149500Y-99878710D01*
X10500500Y-99878710D01*
X10500500Y-94868880D01*
X26999500Y-94868880D01*
X26999500Y-95131120D01*
X27033730Y-95391116D01*
X27101600Y-95644411D01*
X27101604Y-95644424D01*
X27201953Y-95886689D01*
X27201955Y-95886693D01*
X27201957Y-95886697D01*
X27333076Y-96113803D01*
X27492718Y-96321851D01*
X27678149Y-96507282D01*
X27886197Y-96666924D01*
X28113303Y-96798043D01*
X28355581Y-96898398D01*
X28608884Y-96966270D01*
X28868880Y-97000500D01*
X28868881Y-97000500D01*
X29131119Y-97000500D01*
X29131120Y-97000500D01*
X29391116Y-96966270D01*
X29644419Y-96898398D01*
X29886697Y-96798043D01*
X30113803Y-96666924D01*
X30321851Y-96507282D01*
X30507282Y-96321851D01*
X30666924Y-96113803D01*
X30798043Y-95886697D01*
X30898398Y-95644419D01*
X30966270Y-95391116D01*
X31000500Y-95131120D01*
X31000500Y-94868880D01*
X42999500Y-94868880D01*
X42999500Y-95131120D01*
X43033730Y-95391116D01*
X43101600Y-95644411D01*
X43101604Y-95644424D01*
X43201953Y-95886689D01*
X43201955Y-95886693D01*
X43201957Y-95886697D01*
X43333076Y-96113803D01*
X43492718Y-96321851D01*
X43678149Y-96507282D01*
X43886197Y-96666924D01*
X44113303Y-96798043D01*
X44355581Y-96898398D01*
X44608884Y-96966270D01*
X44868880Y-97000500D01*
X44868881Y-97000500D01*
X45131119Y-97000500D01*
X45131120Y-97000500D01*
X45391116Y-96966270D01*
X45644419Y-96898398D01*
X45886697Y-96798043D01*
X46113803Y-96666924D01*
X46321851Y-96507282D01*
X46507282Y-96321851D01*
X46666924Y-96113803D01*
X46798043Y-95886697D01*
X46898398Y-95644419D01*
X46966270Y-95391116D01*
X47000500Y-95131120D01*
X47000500Y-94868880D01*
X59088987Y-94868880D01*
X59088987Y-95131120D01*
X59123217Y-95391116D01*
X59191087Y-95644411D01*
X59191091Y-95644424D01*
X59291440Y-95886689D01*
X59291442Y-95886693D01*
X59291444Y-95886697D01*
X59422563Y-96113803D01*
X59582205Y-96321851D01*
X59767636Y-96507282D01*
X59975684Y-96666924D01*
X60202790Y-96798043D01*
X60445068Y-96898398D01*
X60698371Y-96966270D01*
X60958367Y-97000500D01*
X60958368Y-97000500D01*
X61220606Y-97000500D01*
X61220607Y-97000500D01*
X61480603Y-96966270D01*
X61733906Y-96898398D01*
X61976184Y-96798043D01*
X62203290Y-96666924D01*
X62411338Y-96507282D01*
X62596769Y-96321851D01*
X62756411Y-96113803D01*
X62887530Y-95886697D01*
X62987885Y-95644419D01*
X63055757Y-95391116D01*
X63089987Y-95131120D01*
X63089987Y-94868880D01*
X63055757Y-94608884D01*
X62987885Y-94355581D01*
X62887530Y-94113303D01*
X62756411Y-93886197D01*
X62596769Y-93678149D01*
X62411338Y-93492718D01*
X62203290Y-93333076D01*
X62203291Y-93333076D01*
X62203289Y-93333075D01*
X62106594Y-93277249D01*
X61976184Y-93201957D01*
X61976180Y-93201955D01*
X61976176Y-93201953D01*
X61733911Y-93101604D01*
X61733910Y-93101603D01*
X61733906Y-93101602D01*
X61480603Y-93033730D01*
X61480598Y-93033729D01*
X61480597Y-93033729D01*
X61221921Y-92999673D01*
X61220607Y-92999500D01*
X60958367Y-92999500D01*
X60958366Y-92999500D01*
X60698376Y-93033729D01*
X60698373Y-93033729D01*
X60698371Y-93033730D01*
X60512951Y-93083412D01*
X60445075Y-93101600D01*
X60445062Y-93101604D01*
X60202797Y-93201953D01*
X59975684Y-93333075D01*
X59767639Y-93492715D01*
X59582202Y-93678152D01*
X59422562Y-93886197D01*
X59291440Y-94113310D01*
X59191091Y-94355575D01*
X59191089Y-94355581D01*
X59123217Y-94608884D01*
X59088987Y-94868880D01*
X47000500Y-94868880D01*
X46966270Y-94608884D01*
X46898398Y-94355581D01*
X46798043Y-94113303D01*
X46666924Y-93886197D01*
X46507282Y-93678149D01*
X46321851Y-93492718D01*
X46113803Y-93333076D01*
X46113804Y-93333076D01*
X46113802Y-93333075D01*
X46017107Y-93277249D01*
X45886697Y-93201957D01*
X45886693Y-93201955D01*
X45886689Y-93201953D01*
X45644424Y-93101604D01*
X45644423Y-93101603D01*
X45644419Y-93101602D01*
X45391116Y-93033730D01*
X45391111Y-93033729D01*
X45391110Y-93033729D01*
X45131120Y-92999500D01*
X44868880Y-92999500D01*
X44868879Y-92999500D01*
X44608889Y-93033729D01*
X44608886Y-93033729D01*
X44608884Y-93033730D01*
X44423464Y-93083412D01*
X44355588Y-93101600D01*
X44355575Y-93101604D01*
X44113310Y-93201953D01*
X43886197Y-93333075D01*
X43678152Y-93492715D01*
X43492715Y-93678152D01*
X43333075Y-93886197D01*
X43201953Y-94113310D01*
X43101604Y-94355575D01*
X43101602Y-94355581D01*
X43033730Y-94608884D01*
X42999500Y-94868880D01*
X31000500Y-94868880D01*
X30966270Y-94608884D01*
X30898398Y-94355581D01*
X30798043Y-94113303D01*
X30666924Y-93886197D01*
X30507282Y-93678149D01*
X30321851Y-93492718D01*
X30113803Y-93333076D01*
X30113804Y-93333076D01*
X30113802Y-93333075D01*
X30017107Y-93277249D01*
X29886697Y-93201957D01*
X29886693Y-93201955D01*
X29886689Y-93201953D01*
X29644424Y-93101604D01*
X29644423Y-93101603D01*
X29644419Y-93101602D01*
X29391116Y-93033730D01*
X29391111Y-93033729D01*
X29391110Y-93033729D01*
X29131120Y-92999500D01*
X28868880Y-92999500D01*
X28868879Y-92999500D01*
X28608889Y-93033729D01*
X28608886Y-93033729D01*
X28608884Y-93033730D01*
X28423464Y-93083412D01*
X28355588Y-93101600D01*
X28355575Y-93101604D01*
X28113310Y-93201953D01*
X27886197Y-93333075D01*
X27678152Y-93492715D01*
X27492715Y-93678152D01*
X27333075Y-93886197D01*
X27201953Y-94113310D01*
X27101604Y-94355575D01*
X27101602Y-94355581D01*
X27033730Y-94608884D01*
X26999500Y-94868880D01*
X10500500Y-94868880D01*
X10500500Y-92906381D01*
X14049500Y-92906381D01*
X14049500Y-93093618D01*
X14086026Y-93277249D01*
X14157677Y-93450229D01*
X14157681Y-93450238D01*
X14232065Y-93561559D01*
X14261698Y-93605908D01*
X14394092Y-93738302D01*
X14460463Y-93782649D01*
X14549761Y-93842318D01*
X14549767Y-93842320D01*
X14549769Y-93842322D01*
X14722749Y-93913973D01*
X14906384Y-93950500D01*
X14906385Y-93950500D01*
X15093615Y-93950500D01*
X15093616Y-93950500D01*
X15277251Y-93913973D01*
X15450231Y-93842322D01*
X15450234Y-93842319D01*
X15450238Y-93842318D01*
X15495187Y-93812282D01*
X15605908Y-93738302D01*
X15738302Y-93605908D01*
X15813935Y-93492715D01*
X15842318Y-93450238D01*
X15842319Y-93450234D01*
X15842322Y-93450231D01*
X15913973Y-93277251D01*
X15950500Y-93093616D01*
X15950500Y-92906384D01*
X15950499Y-92906381D01*
X19049500Y-92906381D01*
X19049500Y-93093618D01*
X19086026Y-93277249D01*
X19157677Y-93450229D01*
X19157681Y-93450238D01*
X19232065Y-93561559D01*
X19261698Y-93605908D01*
X19394092Y-93738302D01*
X19460463Y-93782649D01*
X19549761Y-93842318D01*
X19549767Y-93842320D01*
X19549769Y-93842322D01*
X19722749Y-93913973D01*
X19906384Y-93950500D01*
X19906385Y-93950500D01*
X20093615Y-93950500D01*
X20093616Y-93950500D01*
X20277251Y-93913973D01*
X20450231Y-93842322D01*
X20450234Y-93842319D01*
X20450238Y-93842318D01*
X20495187Y-93812282D01*
X20605908Y-93738302D01*
X20738302Y-93605908D01*
X20813935Y-93492715D01*
X20842318Y-93450238D01*
X20842319Y-93450234D01*
X20842322Y-93450231D01*
X20913973Y-93277251D01*
X20950500Y-93093616D01*
X20950500Y-92906384D01*
X20950499Y-92906381D01*
X74049500Y-92906381D01*
X74049500Y-93093618D01*
X74086026Y-93277249D01*
X74157677Y-93450229D01*
X74157681Y-93450238D01*
X74232065Y-93561559D01*
X74261698Y-93605908D01*
X74394092Y-93738302D01*
X74460463Y-93782649D01*
X74549761Y-93842318D01*
X74549767Y-93842320D01*
X74549769Y-93842322D01*
X74722749Y-93913973D01*
X74906384Y-93950500D01*
X74906385Y-93950500D01*
X75093615Y-93950500D01*
X75093616Y-93950500D01*
X75277251Y-93913973D01*
X75450231Y-93842322D01*
X75450234Y-93842319D01*
X75450238Y-93842318D01*
X75495187Y-93812282D01*
X75605908Y-93738302D01*
X75738302Y-93605908D01*
X75813935Y-93492715D01*
X75842318Y-93450238D01*
X75842319Y-93450234D01*
X75842322Y-93450231D01*
X75913973Y-93277251D01*
X75950500Y-93093616D01*
X75950500Y-92906384D01*
X75950499Y-92906381D01*
X79049500Y-92906381D01*
X79049500Y-93093618D01*
X79086026Y-93277249D01*
X79157677Y-93450229D01*
X79157681Y-93450238D01*
X79232065Y-93561559D01*
X79261698Y-93605908D01*
X79394092Y-93738302D01*
X79460463Y-93782649D01*
X79549761Y-93842318D01*
X79549767Y-93842320D01*
X79549769Y-93842322D01*
X79722749Y-93913973D01*
X79906384Y-93950500D01*
X79906385Y-93950500D01*
X80093615Y-93950500D01*
X80093616Y-93950500D01*
X80277251Y-93913973D01*
X80450231Y-93842322D01*
X80450234Y-93842319D01*
X80450238Y-93842318D01*
X80495187Y-93812282D01*
X80605908Y-93738302D01*
X80738302Y-93605908D01*
X80813935Y-93492715D01*
X80842318Y-93450238D01*
X80842319Y-93450234D01*
X80842322Y-93450231D01*
X80913973Y-93277251D01*
X80950500Y-93093616D01*
X80950500Y-92906384D01*
X80913973Y-92722749D01*
X80842322Y-92549769D01*
X80842320Y-92549767D01*
X80842318Y-92549761D01*
X80782649Y-92460463D01*
X80738302Y-92394092D01*
X80605908Y-92261698D01*
X80561559Y-92232065D01*
X80450238Y-92157681D01*
X80450229Y-92157677D01*
X80277249Y-92086026D01*
X80093618Y-92049500D01*
X80093616Y-92049500D01*
X79906384Y-92049500D01*
X79906381Y-92049500D01*
X79722750Y-92086026D01*
X79549770Y-92157677D01*
X79549761Y-92157681D01*
X79394092Y-92261698D01*
X79394088Y-92261701D01*
X79261701Y-92394088D01*
X79261698Y-92394092D01*
X79157681Y-92549761D01*
X79157677Y-92549770D01*
X79086026Y-92722750D01*
X79049500Y-92906381D01*
X75950499Y-92906381D01*
X75913973Y-92722749D01*
X75842322Y-92549769D01*
X75842320Y-92549767D01*
X75842318Y-92549761D01*
X75782649Y-92460463D01*
X75738302Y-92394092D01*
X75605908Y-92261698D01*
X75561559Y-92232065D01*
X75450238Y-92157681D01*
X75450229Y-92157677D01*
X75277249Y-92086026D01*
X75093618Y-92049500D01*
X75093616Y-92049500D01*
X74906384Y-92049500D01*
X74906381Y-92049500D01*
X74722750Y-92086026D01*
X74549770Y-92157677D01*
X74549761Y-92157681D01*
X74394092Y-92261698D01*
X74394088Y-92261701D01*
X74261701Y-92394088D01*
X74261698Y-92394092D01*
X74157681Y-92549761D01*
X74157677Y-92549770D01*
X74086026Y-92722750D01*
X74049500Y-92906381D01*
X20950499Y-92906381D01*
X20913973Y-92722749D01*
X20842322Y-92549769D01*
X20842320Y-92549767D01*
X20842318Y-92549761D01*
X20782649Y-92460463D01*
X20738302Y-92394092D01*
X20605908Y-92261698D01*
X20561559Y-92232065D01*
X20450238Y-92157681D01*
X20450229Y-92157677D01*
X20277249Y-92086026D01*
X20093618Y-92049500D01*
X20093616Y-92049500D01*
X19906384Y-92049500D01*
X19906381Y-92049500D01*
X19722750Y-92086026D01*
X19549770Y-92157677D01*
X19549761Y-92157681D01*
X19394092Y-92261698D01*
X19394088Y-92261701D01*
X19261701Y-92394088D01*
X19261698Y-92394092D01*
X19157681Y-92549761D01*
X19157677Y-92549770D01*
X19086026Y-92722750D01*
X19049500Y-92906381D01*
X15950499Y-92906381D01*
X15913973Y-92722749D01*
X15842322Y-92549769D01*
X15842320Y-92549767D01*
X15842318Y-92549761D01*
X15782649Y-92460463D01*
X15738302Y-92394092D01*
X15605908Y-92261698D01*
X15561559Y-92232065D01*
X15450238Y-92157681D01*
X15450229Y-92157677D01*
X15277249Y-92086026D01*
X15093618Y-92049500D01*
X15093616Y-92049500D01*
X14906384Y-92049500D01*
X14906381Y-92049500D01*
X14722750Y-92086026D01*
X14549770Y-92157677D01*
X14549761Y-92157681D01*
X14394092Y-92261698D01*
X14394088Y-92261701D01*
X14261701Y-92394088D01*
X14261698Y-92394092D01*
X14157681Y-92549761D01*
X14157677Y-92549770D01*
X14086026Y-92722750D01*
X14049500Y-92906381D01*
X10500500Y-92906381D01*
X10500500Y-89868880D01*
X67999500Y-89868880D01*
X67999500Y-90131120D01*
X68033730Y-90391116D01*
X68101600Y-90644411D01*
X68101604Y-90644424D01*
X68201953Y-90886689D01*
X68201955Y-90886693D01*
X68201957Y-90886697D01*
X68333076Y-91113803D01*
X68492718Y-91321851D01*
X68678149Y-91507282D01*
X68886197Y-91666924D01*
X69113303Y-91798043D01*
X69355581Y-91898398D01*
X69608884Y-91966270D01*
X69868880Y-92000500D01*
X69868881Y-92000500D01*
X70131119Y-92000500D01*
X70131120Y-92000500D01*
X70391116Y-91966270D01*
X70644419Y-91898398D01*
X70886697Y-91798043D01*
X71113803Y-91666924D01*
X71321851Y-91507282D01*
X71507282Y-91321851D01*
X71666924Y-91113803D01*
X71798043Y-90886697D01*
X71898398Y-90644419D01*
X71966270Y-90391116D01*
X72000500Y-90131120D01*
X72000500Y-89868880D01*
X71966270Y-89608884D01*
X71898398Y-89355581D01*
X71798043Y-89113303D01*
X71666924Y-88886197D01*
X71507282Y-88678149D01*
X71321851Y-88492718D01*
X71113803Y-88333076D01*
X71113804Y-88333076D01*
X71113802Y-88333075D01*
X71021630Y-88279860D01*
X70886697Y-88201957D01*
X70886693Y-88201955D01*
X70886689Y-88201953D01*
X70644424Y-88101604D01*
X70644423Y-88101603D01*
X70644419Y-88101602D01*
X70391116Y-88033730D01*
X70391111Y-88033729D01*
X70391110Y-88033729D01*
X70131120Y-87999500D01*
X69868880Y-87999500D01*
X69868879Y-87999500D01*
X69608889Y-88033729D01*
X69608886Y-88033729D01*
X69608884Y-88033730D01*
X69423464Y-88083412D01*
X69355588Y-88101600D01*
X69355575Y-88101604D01*
X69113310Y-88201953D01*
X68886197Y-88333075D01*
X68678152Y-88492715D01*
X68492715Y-88678152D01*
X68333075Y-88886197D01*
X68201953Y-89113310D01*
X68101604Y-89355575D01*
X68101602Y-89355581D01*
X68033730Y-89608884D01*
X67999500Y-89868880D01*
X10500500Y-89868880D01*
X10500500Y-84868880D01*
X22999500Y-84868880D01*
X22999500Y-85131120D01*
X23033730Y-85391116D01*
X23101600Y-85644411D01*
X23101604Y-85644424D01*
X23201953Y-85886689D01*
X23201955Y-85886693D01*
X23201957Y-85886697D01*
X23333076Y-86113803D01*
X23492718Y-86321851D01*
X23678149Y-86507282D01*
X23886197Y-86666924D01*
X24113303Y-86798043D01*
X24355581Y-86898398D01*
X24608884Y-86966270D01*
X24868880Y-87000500D01*
X24868881Y-87000500D01*
X25131119Y-87000500D01*
X25131120Y-87000500D01*
X25391116Y-86966270D01*
X25644419Y-86898398D01*
X25886697Y-86798043D01*
X26113803Y-86666924D01*
X26321851Y-86507282D01*
X26507282Y-86321851D01*
X26666924Y-86113803D01*
X26798043Y-85886697D01*
X26898398Y-85644419D01*
X26966270Y-85391116D01*
X27000500Y-85131120D01*
X27000500Y-84868880D01*
X26966270Y-84608884D01*
X26898398Y-84355581D01*
X26798043Y-84113303D01*
X26666924Y-83886197D01*
X26507282Y-83678149D01*
X26321851Y-83492718D01*
X26113803Y-83333076D01*
X26113804Y-83333076D01*
X26113802Y-83333075D01*
X26021630Y-83279860D01*
X25886697Y-83201957D01*
X25886693Y-83201955D01*
X25886689Y-83201953D01*
X25644424Y-83101604D01*
X25644423Y-83101603D01*
X25644419Y-83101602D01*
X25391116Y-83033730D01*
X25391111Y-83033729D01*
X25391110Y-83033729D01*
X25131120Y-82999500D01*
X24868880Y-82999500D01*
X24868879Y-82999500D01*
X24608889Y-83033729D01*
X24608886Y-83033729D01*
X24608884Y-83033730D01*
X24423464Y-83083412D01*
X24355588Y-83101600D01*
X24355575Y-83101604D01*
X24113310Y-83201953D01*
X23886197Y-83333075D01*
X23678152Y-83492715D01*
X23492715Y-83678152D01*
X23333075Y-83886197D01*
X23201953Y-84113310D01*
X23101604Y-84355575D01*
X23101602Y-84355581D01*
X23033730Y-84608884D01*
X22999500Y-84868880D01*
X10500500Y-84868880D01*
X10500500Y-81906381D01*
X14049500Y-81906381D01*
X14049500Y-82093618D01*
X14086026Y-82277249D01*
X14157677Y-82450229D01*
X14157681Y-82450238D01*
X14232065Y-82561559D01*
X14261698Y-82605908D01*
X14394092Y-82738302D01*
X14460463Y-82782649D01*
X14549761Y-82842318D01*
X14549767Y-82842320D01*
X14549769Y-82842322D01*
X14722749Y-82913973D01*
X14906384Y-82950500D01*
X14906385Y-82950500D01*
X15093615Y-82950500D01*
X15093616Y-82950500D01*
X15277251Y-82913973D01*
X15450231Y-82842322D01*
X15450234Y-82842319D01*
X15450238Y-82842318D01*
X15495187Y-82812282D01*
X15605908Y-82738302D01*
X15738302Y-82605908D01*
X15812282Y-82495187D01*
X15842318Y-82450238D01*
X15842319Y-82450234D01*
X15842322Y-82450231D01*
X15913973Y-82277251D01*
X15950500Y-82093616D01*
X15950500Y-81906384D01*
X15950499Y-81906381D01*
X19049500Y-81906381D01*
X19049500Y-82093618D01*
X19086026Y-82277249D01*
X19157677Y-82450229D01*
X19157681Y-82450238D01*
X19232065Y-82561559D01*
X19261698Y-82605908D01*
X19394092Y-82738302D01*
X19460463Y-82782649D01*
X19549761Y-82842318D01*
X19549767Y-82842320D01*
X19549769Y-82842322D01*
X19722749Y-82913973D01*
X19906384Y-82950500D01*
X19906385Y-82950500D01*
X20093615Y-82950500D01*
X20093616Y-82950500D01*
X20277251Y-82913973D01*
X20450231Y-82842322D01*
X20450234Y-82842319D01*
X20450238Y-82842318D01*
X20495187Y-82812282D01*
X20605908Y-82738302D01*
X20738302Y-82605908D01*
X20812282Y-82495187D01*
X20842318Y-82450238D01*
X20842319Y-82450234D01*
X20842322Y-82450231D01*
X20913973Y-82277251D01*
X20950500Y-82093616D01*
X20950500Y-81906384D01*
X20950499Y-81906381D01*
X74049500Y-81906381D01*
X74049500Y-82093618D01*
X74086026Y-82277249D01*
X74157677Y-82450229D01*
X74157681Y-82450238D01*
X74232065Y-82561559D01*
X74261698Y-82605908D01*
X74394092Y-82738302D01*
X74460463Y-82782649D01*
X74549761Y-82842318D01*
X74549767Y-82842320D01*
X74549769Y-82842322D01*
X74722749Y-82913973D01*
X74906384Y-82950500D01*
X74906385Y-82950500D01*
X75093615Y-82950500D01*
X75093616Y-82950500D01*
X75277251Y-82913973D01*
X75450231Y-82842322D01*
X75450234Y-82842319D01*
X75450238Y-82842318D01*
X75495187Y-82812282D01*
X75605908Y-82738302D01*
X75738302Y-82605908D01*
X75812282Y-82495187D01*
X75842318Y-82450238D01*
X75842319Y-82450234D01*
X75842322Y-82450231D01*
X75913973Y-82277251D01*
X75950500Y-82093616D01*
X75950500Y-81906384D01*
X75950499Y-81906381D01*
X79049500Y-81906381D01*
X79049500Y-82093618D01*
X79086026Y-82277249D01*
X79157677Y-82450229D01*
X79157681Y-82450238D01*
X79232065Y-82561559D01*
X79261698Y-82605908D01*
X79394092Y-82738302D01*
X79460463Y-82782649D01*
X79549761Y-82842318D01*
X79549767Y-82842320D01*
X79549769Y-82842322D01*
X79722749Y-82913973D01*
X79906384Y-82950500D01*
X79906385Y-82950500D01*
X80093615Y-82950500D01*
X80093616Y-82950500D01*
X80277251Y-82913973D01*
X80450231Y-82842322D01*
X80450234Y-82842319D01*
X80450238Y-82842318D01*
X80495187Y-82812282D01*
X80605908Y-82738302D01*
X80738302Y-82605908D01*
X80812282Y-82495187D01*
X80842318Y-82450238D01*
X80842319Y-82450234D01*
X80842322Y-82450231D01*
X80913973Y-82277251D01*
X80950500Y-82093616D01*
X80950500Y-81906384D01*
X80913973Y-81722749D01*
X80842322Y-81549769D01*
X80842320Y-81549767D01*
X80842318Y-81549761D01*
X80782649Y-81460463D01*
X80738302Y-81394092D01*
X80605908Y-81261698D01*
X80561559Y-81232065D01*
X80450238Y-81157681D01*
X80450229Y-81157677D01*
X80277249Y-81086026D01*
X80093618Y-81049500D01*
X80093616Y-81049500D01*
X79906384Y-81049500D01*
X79906381Y-81049500D01*
X79722750Y-81086026D01*
X79549770Y-81157677D01*
X79549761Y-81157681D01*
X79394092Y-81261698D01*
X79394088Y-81261701D01*
X79261701Y-81394088D01*
X79261698Y-81394092D01*
X79157681Y-81549761D01*
X79157677Y-81549770D01*
X79086026Y-81722750D01*
X79049500Y-81906381D01*
X75950499Y-81906381D01*
X75913973Y-81722749D01*
X75842322Y-81549769D01*
X75842320Y-81549767D01*
X75842318Y-81549761D01*
X75782649Y-81460463D01*
X75738302Y-81394092D01*
X75605908Y-81261698D01*
X75561559Y-81232065D01*
X75450238Y-81157681D01*
X75450229Y-81157677D01*
X75277249Y-81086026D01*
X75093618Y-81049500D01*
X75093616Y-81049500D01*
X74906384Y-81049500D01*
X74906381Y-81049500D01*
X74722750Y-81086026D01*
X74549770Y-81157677D01*
X74549761Y-81157681D01*
X74394092Y-81261698D01*
X74394088Y-81261701D01*
X74261701Y-81394088D01*
X74261698Y-81394092D01*
X74157681Y-81549761D01*
X74157677Y-81549770D01*
X74086026Y-81722750D01*
X74049500Y-81906381D01*
X20950499Y-81906381D01*
X20913973Y-81722749D01*
X20842322Y-81549769D01*
X20842320Y-81549767D01*
X20842318Y-81549761D01*
X20782649Y-81460463D01*
X20738302Y-81394092D01*
X20605908Y-81261698D01*
X20561559Y-81232065D01*
X20450238Y-81157681D01*
X20450229Y-81157677D01*
X20277249Y-81086026D01*
X20093618Y-81049500D01*
X20093616Y-81049500D01*
X19906384Y-81049500D01*
X19906381Y-81049500D01*
X19722750Y-81086026D01*
X19549770Y-81157677D01*
X19549761Y-81157681D01*
X19394092Y-81261698D01*
X19394088Y-81261701D01*
X19261701Y-81394088D01*
X19261698Y-81394092D01*
X19157681Y-81549761D01*
X19157677Y-81549770D01*
X19086026Y-81722750D01*
X19049500Y-81906381D01*
X15950499Y-81906381D01*
X15913973Y-81722749D01*
X15842322Y-81549769D01*
X15842320Y-81549767D01*
X15842318Y-81549761D01*
X15782649Y-81460463D01*
X15738302Y-81394092D01*
X15605908Y-81261698D01*
X15561559Y-81232065D01*
X15450238Y-81157681D01*
X15450229Y-81157677D01*
X15277249Y-81086026D01*
X15093618Y-81049500D01*
X15093616Y-81049500D01*
X14906384Y-81049500D01*
X14906381Y-81049500D01*
X14722750Y-81086026D01*
X14549770Y-81157677D01*
X14549761Y-81157681D01*
X14394092Y-81261698D01*
X14394088Y-81261701D01*
X14261701Y-81394088D01*
X14261698Y-81394092D01*
X14157681Y-81549761D01*
X14157677Y-81549770D01*
X14086026Y-81722750D01*
X14049500Y-81906381D01*
X10500500Y-81906381D01*
X10500500Y-76085839D01*
X52349500Y-76085839D01*
X52349500Y-76314160D01*
X52385214Y-76539655D01*
X52455769Y-76756799D01*
X52559420Y-76960227D01*
X52559424Y-76960233D01*
X52693616Y-77144931D01*
X52693618Y-77144933D01*
X52693621Y-77144937D01*
X52855063Y-77306379D01*
X52855066Y-77306381D01*
X52855068Y-77306383D01*
X53039766Y-77440575D01*
X53039772Y-77440579D01*
X53243201Y-77544231D01*
X53460340Y-77614784D01*
X53460341Y-77614784D01*
X53460344Y-77614785D01*
X53685840Y-77650500D01*
X53685843Y-77650500D01*
X53914160Y-77650500D01*
X54139655Y-77614785D01*
X54139656Y-77614784D01*
X54139660Y-77614784D01*
X54356799Y-77544231D01*
X54560228Y-77440579D01*
X54744937Y-77306379D01*
X54906379Y-77144937D01*
X55040579Y-76960228D01*
X55144231Y-76756799D01*
X55214784Y-76539660D01*
X55250500Y-76314157D01*
X55250500Y-76085843D01*
X55250500Y-76085839D01*
X55214785Y-75860344D01*
X55214784Y-75860340D01*
X55144231Y-75643201D01*
X55040579Y-75439772D01*
X54906379Y-75255063D01*
X54744937Y-75093621D01*
X54744933Y-75093618D01*
X54744931Y-75093616D01*
X54560233Y-74959424D01*
X54560227Y-74959420D01*
X54356799Y-74855769D01*
X54139655Y-74785214D01*
X53914160Y-74749500D01*
X53914157Y-74749500D01*
X53685843Y-74749500D01*
X53685840Y-74749500D01*
X53460344Y-74785214D01*
X53243200Y-74855769D01*
X53039772Y-74959420D01*
X53039766Y-74959424D01*
X52855068Y-75093616D01*
X52693616Y-75255068D01*
X52559424Y-75439766D01*
X52559420Y-75439772D01*
X52455769Y-75643200D01*
X52385214Y-75860344D01*
X52349500Y-76085839D01*
X10500500Y-76085839D01*
X10500500Y-74553775D01*
X72460750Y-74553775D01*
X72460750Y-74698725D01*
X72490337Y-74809146D01*
X72498267Y-74838739D01*
X72570737Y-74964260D01*
X72570739Y-74964262D01*
X72570741Y-74964265D01*
X72673235Y-75066759D01*
X72673237Y-75066760D01*
X72673239Y-75066762D01*
X72798761Y-75139232D01*
X72798762Y-75139232D01*
X72798765Y-75139234D01*
X72938775Y-75176750D01*
X72938776Y-75176750D01*
X73083724Y-75176750D01*
X73083725Y-75176750D01*
X73223735Y-75139234D01*
X73223737Y-75139232D01*
X73223739Y-75139232D01*
X73349260Y-75066762D01*
X73349260Y-75066761D01*
X73349265Y-75066759D01*
X73451759Y-74964265D01*
X73454556Y-74959420D01*
X73524232Y-74838739D01*
X73524232Y-74838737D01*
X73524234Y-74838735D01*
X73561750Y-74698725D01*
X73561750Y-74553775D01*
X73524234Y-74413765D01*
X73524232Y-74413762D01*
X73524232Y-74413760D01*
X73451762Y-74288239D01*
X73451760Y-74288237D01*
X73451759Y-74288235D01*
X73349265Y-74185741D01*
X73349262Y-74185739D01*
X73349260Y-74185737D01*
X73223738Y-74113267D01*
X73223739Y-74113267D01*
X73194146Y-74105337D01*
X73083725Y-74075750D01*
X72938775Y-74075750D01*
X72877040Y-74092291D01*
X72798760Y-74113267D01*
X72673239Y-74185737D01*
X72570737Y-74288239D01*
X72498267Y-74413760D01*
X72498266Y-74413765D01*
X72460750Y-74553775D01*
X10500500Y-74553775D01*
X10500500Y-72752525D01*
X55349500Y-72752525D01*
X55349500Y-72897474D01*
X55387017Y-73037489D01*
X55459487Y-73163010D01*
X55459489Y-73163012D01*
X55459491Y-73163015D01*
X55561985Y-73265509D01*
X55561987Y-73265510D01*
X55561989Y-73265512D01*
X55687511Y-73337982D01*
X55687512Y-73337982D01*
X55687515Y-73337984D01*
X55827525Y-73375500D01*
X55827526Y-73375500D01*
X55972474Y-73375500D01*
X55972475Y-73375500D01*
X56112485Y-73337984D01*
X56112487Y-73337982D01*
X56112489Y-73337982D01*
X56238010Y-73265512D01*
X56238010Y-73265511D01*
X56238015Y-73265509D01*
X56340509Y-73163015D01*
X56412984Y-73037485D01*
X56450500Y-72897475D01*
X56450500Y-72752525D01*
X56412984Y-72612515D01*
X56412982Y-72612512D01*
X56412982Y-72612510D01*
X56340512Y-72486989D01*
X56340510Y-72486987D01*
X56340509Y-72486985D01*
X56238015Y-72384491D01*
X56238012Y-72384489D01*
X56238010Y-72384487D01*
X56112488Y-72312017D01*
X56112489Y-72312017D01*
X56050522Y-72295413D01*
X55972475Y-72274500D01*
X55827525Y-72274500D01*
X55765790Y-72291041D01*
X55687510Y-72312017D01*
X55561989Y-72384487D01*
X55459487Y-72486989D01*
X55387017Y-72612510D01*
X55349500Y-72752525D01*
X10500500Y-72752525D01*
X10500500Y-72052525D01*
X56749500Y-72052525D01*
X56749500Y-72197474D01*
X56787017Y-72337489D01*
X56859487Y-72463010D01*
X56859489Y-72463012D01*
X56859491Y-72463015D01*
X56961985Y-72565509D01*
X56961987Y-72565510D01*
X56961989Y-72565512D01*
X57087511Y-72637982D01*
X57087512Y-72637982D01*
X57087515Y-72637984D01*
X57227525Y-72675500D01*
X57227526Y-72675500D01*
X57372474Y-72675500D01*
X57372475Y-72675500D01*
X57512485Y-72637984D01*
X57512487Y-72637982D01*
X57512489Y-72637982D01*
X57638010Y-72565512D01*
X57638010Y-72565511D01*
X57638015Y-72565509D01*
X57740509Y-72463015D01*
X57812984Y-72337485D01*
X57815653Y-72327525D01*
X71184500Y-72327525D01*
X71184500Y-72472475D01*
X71214087Y-72582896D01*
X71222017Y-72612489D01*
X71294487Y-72738010D01*
X71294489Y-72738012D01*
X71294491Y-72738015D01*
X71396985Y-72840509D01*
X71396987Y-72840510D01*
X71396989Y-72840512D01*
X71522511Y-72912982D01*
X71522512Y-72912982D01*
X71522515Y-72912984D01*
X71662525Y-72950500D01*
X71662526Y-72950500D01*
X71807474Y-72950500D01*
X71807475Y-72950500D01*
X71947485Y-72912984D01*
X71947487Y-72912982D01*
X71947489Y-72912982D01*
X72073010Y-72840512D01*
X72073010Y-72840511D01*
X72073015Y-72840509D01*
X72175509Y-72738015D01*
X72181565Y-72727525D01*
X72884500Y-72727525D01*
X72884500Y-72872475D01*
X72905407Y-72950500D01*
X72922017Y-73012489D01*
X72994487Y-73138010D01*
X72994489Y-73138012D01*
X72994491Y-73138015D01*
X73096985Y-73240509D01*
X73096987Y-73240510D01*
X73096989Y-73240512D01*
X73222511Y-73312982D01*
X73222512Y-73312982D01*
X73222515Y-73312984D01*
X73362525Y-73350500D01*
X73362526Y-73350500D01*
X73507474Y-73350500D01*
X73507475Y-73350500D01*
X73647485Y-73312984D01*
X73647487Y-73312982D01*
X73647489Y-73312982D01*
X73773010Y-73240512D01*
X73773010Y-73240511D01*
X73773015Y-73240509D01*
X73875509Y-73138015D01*
X73947984Y-73012485D01*
X73985500Y-72872475D01*
X73985500Y-72727525D01*
X73947984Y-72587515D01*
X73947982Y-72587512D01*
X73947982Y-72587510D01*
X73875512Y-72461989D01*
X73875510Y-72461987D01*
X73875509Y-72461985D01*
X73773015Y-72359491D01*
X73773012Y-72359489D01*
X73773010Y-72359487D01*
X73647488Y-72287017D01*
X73647489Y-72287017D01*
X73600775Y-72274500D01*
X73507475Y-72249500D01*
X73362525Y-72249500D01*
X73300790Y-72266041D01*
X73222510Y-72287017D01*
X73096989Y-72359487D01*
X72994487Y-72461989D01*
X72922017Y-72587510D01*
X72899503Y-72671535D01*
X72884500Y-72727525D01*
X72181565Y-72727525D01*
X72196030Y-72702471D01*
X72213892Y-72671535D01*
X72234388Y-72636033D01*
X72247984Y-72612485D01*
X72285500Y-72472475D01*
X72285500Y-72327525D01*
X72247984Y-72187515D01*
X72247982Y-72187512D01*
X72247982Y-72187510D01*
X72175512Y-72061989D01*
X72175510Y-72061987D01*
X72175509Y-72061985D01*
X72073015Y-71959491D01*
X72073012Y-71959489D01*
X72073010Y-71959487D01*
X71947488Y-71887017D01*
X71947489Y-71887017D01*
X71896674Y-71873401D01*
X71807475Y-71849500D01*
X71662525Y-71849500D01*
X71600790Y-71866041D01*
X71522510Y-71887017D01*
X71396989Y-71959487D01*
X71294487Y-72061989D01*
X71222017Y-72187510D01*
X71222016Y-72187515D01*
X71184500Y-72327525D01*
X57815653Y-72327525D01*
X57819808Y-72312017D01*
X57824257Y-72295415D01*
X57824257Y-72295413D01*
X57850500Y-72197474D01*
X57850500Y-72052525D01*
X57825570Y-71959487D01*
X57812984Y-71912515D01*
X57812982Y-71912512D01*
X57812982Y-71912510D01*
X57740512Y-71786989D01*
X57740510Y-71786987D01*
X57740509Y-71786985D01*
X57638015Y-71684491D01*
X57638012Y-71684489D01*
X57638010Y-71684487D01*
X57512488Y-71612017D01*
X57512489Y-71612017D01*
X57482896Y-71604087D01*
X57372475Y-71574500D01*
X57227525Y-71574500D01*
X57165790Y-71591041D01*
X57087510Y-71612017D01*
X56961989Y-71684487D01*
X56859487Y-71786989D01*
X56787017Y-71912510D01*
X56749500Y-72052525D01*
X10500500Y-72052525D01*
X10500500Y-70552525D01*
X55049500Y-70552525D01*
X55049500Y-70697474D01*
X55087017Y-70837489D01*
X55159487Y-70963010D01*
X55159489Y-70963012D01*
X55159491Y-70963015D01*
X55261985Y-71065509D01*
X55261987Y-71065510D01*
X55261989Y-71065512D01*
X55387511Y-71137982D01*
X55387512Y-71137982D01*
X55387515Y-71137984D01*
X55527525Y-71175500D01*
X55527526Y-71175500D01*
X55672474Y-71175500D01*
X55672475Y-71175500D01*
X55812485Y-71137984D01*
X55812487Y-71137982D01*
X55812489Y-71137982D01*
X55938010Y-71065512D01*
X55938010Y-71065511D01*
X55938015Y-71065509D01*
X56040509Y-70963015D01*
X56040512Y-70963010D01*
X56112982Y-70837489D01*
X56112982Y-70837487D01*
X56112984Y-70837485D01*
X56146237Y-70713385D01*
X81434500Y-70713385D01*
X81434500Y-70886614D01*
X81461597Y-71057702D01*
X81461598Y-71057706D01*
X81515123Y-71222438D01*
X81515125Y-71222441D01*
X81515126Y-71222444D01*
X81515127Y-71222445D01*
X81593768Y-71376788D01*
X81695586Y-71516928D01*
X81818072Y-71639414D01*
X81958212Y-71741232D01*
X82112555Y-71819873D01*
X82112557Y-71819873D01*
X82112558Y-71819874D01*
X82112561Y-71819876D01*
X82277293Y-71873401D01*
X82277297Y-71873402D01*
X82448386Y-71900500D01*
X82448389Y-71900500D01*
X82621614Y-71900500D01*
X82792702Y-71873402D01*
X82792706Y-71873401D01*
X82957438Y-71819876D01*
X82957440Y-71819874D01*
X82957445Y-71819873D01*
X83111788Y-71741232D01*
X83251928Y-71639414D01*
X83374414Y-71516928D01*
X83476232Y-71376788D01*
X83554873Y-71222445D01*
X83554874Y-71222440D01*
X83554876Y-71222438D01*
X83608401Y-71057706D01*
X83608402Y-71057702D01*
X83635500Y-70886614D01*
X83635500Y-70713385D01*
X83608402Y-70542297D01*
X83608401Y-70542293D01*
X83554876Y-70377561D01*
X83554874Y-70377558D01*
X83554873Y-70377557D01*
X83554873Y-70377555D01*
X83476232Y-70223212D01*
X83374414Y-70083072D01*
X83251928Y-69960586D01*
X83111788Y-69858768D01*
X83111787Y-69858767D01*
X83111785Y-69858766D01*
X82957441Y-69780125D01*
X82957438Y-69780123D01*
X82792706Y-69726598D01*
X82792702Y-69726597D01*
X82621614Y-69699500D01*
X82621611Y-69699500D01*
X82448389Y-69699500D01*
X82448386Y-69699500D01*
X82277297Y-69726597D01*
X82277293Y-69726598D01*
X82112561Y-69780123D01*
X82112558Y-69780125D01*
X81958214Y-69858766D01*
X81818073Y-69960585D01*
X81695585Y-70083073D01*
X81593766Y-70223214D01*
X81515125Y-70377558D01*
X81515123Y-70377561D01*
X81461598Y-70542293D01*
X81461597Y-70542297D01*
X81434500Y-70713385D01*
X56146237Y-70713385D01*
X56150500Y-70697475D01*
X56150500Y-70552525D01*
X56112984Y-70412515D01*
X56112982Y-70412512D01*
X56112982Y-70412510D01*
X56040512Y-70286989D01*
X56040510Y-70286987D01*
X56040509Y-70286985D01*
X55938015Y-70184491D01*
X55938012Y-70184489D01*
X55938010Y-70184487D01*
X55812488Y-70112017D01*
X55812489Y-70112017D01*
X55782896Y-70104087D01*
X55672475Y-70074500D01*
X55527525Y-70074500D01*
X55465790Y-70091041D01*
X55387510Y-70112017D01*
X55261989Y-70184487D01*
X55159487Y-70286989D01*
X55087017Y-70412510D01*
X55049500Y-70552525D01*
X10500500Y-70552525D01*
X10500500Y-69252525D01*
X54949500Y-69252525D01*
X54949500Y-69397474D01*
X54987017Y-69537489D01*
X55059487Y-69663010D01*
X55059489Y-69663012D01*
X55059491Y-69663015D01*
X55161985Y-69765509D01*
X55161987Y-69765510D01*
X55161989Y-69765512D01*
X55287511Y-69837982D01*
X55287512Y-69837982D01*
X55287515Y-69837984D01*
X55427525Y-69875500D01*
X55427526Y-69875500D01*
X55572474Y-69875500D01*
X55572475Y-69875500D01*
X55712485Y-69837984D01*
X55712487Y-69837982D01*
X55712489Y-69837982D01*
X55838010Y-69765512D01*
X55838010Y-69765511D01*
X55838015Y-69765509D01*
X55940509Y-69663015D01*
X56012984Y-69537485D01*
X56050500Y-69397475D01*
X56050500Y-69252525D01*
X61949500Y-69252525D01*
X61949500Y-69397474D01*
X61987017Y-69537489D01*
X62059487Y-69663010D01*
X62059489Y-69663012D01*
X62059491Y-69663015D01*
X62161985Y-69765509D01*
X62161987Y-69765510D01*
X62161989Y-69765512D01*
X62287511Y-69837982D01*
X62287512Y-69837982D01*
X62287515Y-69837984D01*
X62427525Y-69875500D01*
X62427526Y-69875500D01*
X62572474Y-69875500D01*
X62572475Y-69875500D01*
X62712485Y-69837984D01*
X62712487Y-69837982D01*
X62712489Y-69837982D01*
X62838010Y-69765512D01*
X62838010Y-69765511D01*
X62838015Y-69765509D01*
X62940509Y-69663015D01*
X63012984Y-69537485D01*
X63050500Y-69397475D01*
X63050500Y-69252525D01*
X63012984Y-69112515D01*
X63012982Y-69112512D01*
X63012982Y-69112510D01*
X62940512Y-68986989D01*
X62940510Y-68986987D01*
X62940509Y-68986985D01*
X62838015Y-68884491D01*
X62838012Y-68884489D01*
X62838010Y-68884487D01*
X62712488Y-68812017D01*
X62712489Y-68812017D01*
X62682896Y-68804087D01*
X62572475Y-68774500D01*
X62427525Y-68774500D01*
X62365790Y-68791041D01*
X62287510Y-68812017D01*
X62161989Y-68884487D01*
X62059487Y-68986989D01*
X61987017Y-69112510D01*
X61949500Y-69252525D01*
X56050500Y-69252525D01*
X56012984Y-69112515D01*
X56012982Y-69112512D01*
X56012982Y-69112510D01*
X55940512Y-68986989D01*
X55940510Y-68986987D01*
X55940509Y-68986985D01*
X55838015Y-68884491D01*
X55838012Y-68884489D01*
X55838010Y-68884487D01*
X55712488Y-68812017D01*
X55712489Y-68812017D01*
X55682896Y-68804087D01*
X55572475Y-68774500D01*
X55427525Y-68774500D01*
X55365790Y-68791041D01*
X55287510Y-68812017D01*
X55161989Y-68884487D01*
X55059487Y-68986989D01*
X54987017Y-69112510D01*
X54949500Y-69252525D01*
X10500500Y-69252525D01*
X10500500Y-67927525D01*
X74384500Y-67927525D01*
X74384500Y-68072474D01*
X74422017Y-68212489D01*
X74494487Y-68338010D01*
X74494489Y-68338012D01*
X74494491Y-68338015D01*
X74596985Y-68440509D01*
X74596987Y-68440510D01*
X74596989Y-68440512D01*
X74722511Y-68512982D01*
X74722512Y-68512982D01*
X74722515Y-68512984D01*
X74862525Y-68550500D01*
X74862526Y-68550500D01*
X75007474Y-68550500D01*
X75007475Y-68550500D01*
X75147485Y-68512984D01*
X75147487Y-68512982D01*
X75147489Y-68512982D01*
X75210250Y-68476746D01*
X75273015Y-68440509D01*
X75273019Y-68440504D01*
X75274730Y-68439193D01*
X75276193Y-68438674D01*
X75278635Y-68437265D01*
X75278896Y-68437717D01*
X75332406Y-68418767D01*
X75391072Y-68436143D01*
X75395270Y-68439193D01*
X75396988Y-68440511D01*
X75522511Y-68512982D01*
X75522512Y-68512982D01*
X75522515Y-68512984D01*
X75662525Y-68550500D01*
X75662526Y-68550500D01*
X75807474Y-68550500D01*
X75807475Y-68550500D01*
X75947485Y-68512984D01*
X75947487Y-68512982D01*
X75947489Y-68512982D01*
X76073010Y-68440512D01*
X76073010Y-68440511D01*
X76073015Y-68440509D01*
X76175509Y-68338015D01*
X76247984Y-68212485D01*
X76258461Y-68173385D01*
X81434500Y-68173385D01*
X81434500Y-68346614D01*
X81461597Y-68517702D01*
X81461598Y-68517706D01*
X81515123Y-68682438D01*
X81515125Y-68682441D01*
X81581146Y-68812017D01*
X81593768Y-68836788D01*
X81695586Y-68976928D01*
X81818072Y-69099414D01*
X81958212Y-69201232D01*
X82112555Y-69279873D01*
X82112557Y-69279873D01*
X82112558Y-69279874D01*
X82112561Y-69279876D01*
X82277293Y-69333401D01*
X82277297Y-69333402D01*
X82448386Y-69360500D01*
X82448389Y-69360500D01*
X82621614Y-69360500D01*
X82792702Y-69333402D01*
X82792706Y-69333401D01*
X82957438Y-69279876D01*
X82957440Y-69279874D01*
X82957445Y-69279873D01*
X83111788Y-69201232D01*
X83251928Y-69099414D01*
X83374414Y-68976928D01*
X83476232Y-68836788D01*
X83554873Y-68682445D01*
X83554874Y-68682440D01*
X83554876Y-68682438D01*
X83608401Y-68517706D01*
X83608402Y-68517702D01*
X83635500Y-68346614D01*
X83635500Y-68173385D01*
X83608402Y-68002297D01*
X83608401Y-68002293D01*
X83554876Y-67837561D01*
X83554874Y-67837558D01*
X83554873Y-67837557D01*
X83554873Y-67837555D01*
X83476232Y-67683212D01*
X83374414Y-67543072D01*
X83251928Y-67420586D01*
X83111788Y-67318768D01*
X83111787Y-67318767D01*
X83111785Y-67318766D01*
X82957441Y-67240125D01*
X82957438Y-67240123D01*
X82792706Y-67186598D01*
X82792702Y-67186597D01*
X82621614Y-67159500D01*
X82621611Y-67159500D01*
X82448389Y-67159500D01*
X82448386Y-67159500D01*
X82277297Y-67186597D01*
X82277293Y-67186598D01*
X82112561Y-67240123D01*
X82112558Y-67240125D01*
X81958214Y-67318766D01*
X81818073Y-67420585D01*
X81695585Y-67543073D01*
X81593766Y-67683214D01*
X81515125Y-67837558D01*
X81515123Y-67837561D01*
X81461598Y-68002293D01*
X81461597Y-68002297D01*
X81434500Y-68173385D01*
X76258461Y-68173385D01*
X76266368Y-68143878D01*
X76266368Y-68143876D01*
X76285500Y-68072474D01*
X76285500Y-67927525D01*
X76261392Y-67837555D01*
X76247984Y-67787515D01*
X76247982Y-67787512D01*
X76247982Y-67787510D01*
X76175512Y-67661989D01*
X76175510Y-67661987D01*
X76175509Y-67661985D01*
X76073015Y-67559491D01*
X76073012Y-67559489D01*
X76073010Y-67559487D01*
X75947488Y-67487017D01*
X75947489Y-67487017D01*
X75917896Y-67479087D01*
X75807475Y-67449500D01*
X75662525Y-67449500D01*
X75600790Y-67466041D01*
X75522510Y-67487017D01*
X75396983Y-67559490D01*
X75395262Y-67560812D01*
X75393797Y-67561330D01*
X75391365Y-67562735D01*
X75391104Y-67562283D01*
X75337585Y-67581232D01*
X75278921Y-67563851D01*
X75274738Y-67560812D01*
X75273016Y-67559490D01*
X75147488Y-67487017D01*
X75147489Y-67487017D01*
X75117896Y-67479087D01*
X75007475Y-67449500D01*
X74862525Y-67449500D01*
X74800790Y-67466041D01*
X74722510Y-67487017D01*
X74596989Y-67559487D01*
X74494487Y-67661989D01*
X74422017Y-67787510D01*
X74384500Y-67927525D01*
X10500500Y-67927525D01*
X10500500Y-64026532D01*
X37559500Y-64026532D01*
X37559500Y-64233467D01*
X37599869Y-64436418D01*
X37679058Y-64627597D01*
X37679059Y-64627598D01*
X37794023Y-64799655D01*
X37940345Y-64945977D01*
X38112402Y-65060941D01*
X38303580Y-65140130D01*
X38506535Y-65180500D01*
X38506536Y-65180500D01*
X38713464Y-65180500D01*
X38713465Y-65180500D01*
X38916420Y-65140130D01*
X39107598Y-65060941D01*
X39279655Y-64945977D01*
X39425977Y-64799655D01*
X39540941Y-64627598D01*
X39620130Y-64436420D01*
X39660500Y-64233465D01*
X39660500Y-64026535D01*
X39620130Y-63823580D01*
X39540941Y-63632402D01*
X39425977Y-63460345D01*
X39279655Y-63314023D01*
X39279651Y-63314020D01*
X39107597Y-63199058D01*
X38916418Y-63119869D01*
X38713467Y-63079500D01*
X38713465Y-63079500D01*
X38506535Y-63079500D01*
X38506532Y-63079500D01*
X38303581Y-63119869D01*
X38112402Y-63199058D01*
X37940348Y-63314020D01*
X37794020Y-63460348D01*
X37679058Y-63632402D01*
X37599869Y-63823581D01*
X37559500Y-64026532D01*
X10500500Y-64026532D01*
X10500500Y-61486532D01*
X37559500Y-61486532D01*
X37559500Y-61693467D01*
X37599869Y-61896418D01*
X37679058Y-62087597D01*
X37794020Y-62259651D01*
X37794023Y-62259655D01*
X37940345Y-62405977D01*
X38112402Y-62520941D01*
X38303580Y-62600130D01*
X38506535Y-62640500D01*
X38506536Y-62640500D01*
X38713464Y-62640500D01*
X38713465Y-62640500D01*
X38916420Y-62600130D01*
X39107598Y-62520941D01*
X39279655Y-62405977D01*
X39425977Y-62259655D01*
X39540941Y-62087598D01*
X39620130Y-61896420D01*
X39660500Y-61693465D01*
X39660500Y-61486535D01*
X39631332Y-61339895D01*
X40400000Y-61339895D01*
X45043448Y-64945977D01*
X45061723Y-64960169D01*
X45096085Y-65010794D01*
X45100000Y-65038360D01*
X45100000Y-66000000D01*
X45100001Y-66000000D01*
X49899999Y-66000000D01*
X49900000Y-66000000D01*
X49900000Y-65038360D01*
X49918907Y-64980169D01*
X49938277Y-64960169D01*
X49956552Y-64945977D01*
X51140495Y-64026532D01*
X55339500Y-64026532D01*
X55339500Y-64233467D01*
X55379869Y-64436418D01*
X55459058Y-64627597D01*
X55459059Y-64627598D01*
X55574023Y-64799655D01*
X55720345Y-64945977D01*
X55892402Y-65060941D01*
X56083580Y-65140130D01*
X56286535Y-65180500D01*
X56286536Y-65180500D01*
X56493464Y-65180500D01*
X56493465Y-65180500D01*
X56696420Y-65140130D01*
X56887598Y-65060941D01*
X57059655Y-64945977D01*
X57205977Y-64799655D01*
X57320941Y-64627598D01*
X57400130Y-64436420D01*
X57440500Y-64233465D01*
X57440500Y-64026535D01*
X57400130Y-63823580D01*
X57320941Y-63632402D01*
X57205977Y-63460345D01*
X57059655Y-63314023D01*
X57059651Y-63314020D01*
X56887597Y-63199058D01*
X56696418Y-63119869D01*
X56493467Y-63079500D01*
X56493465Y-63079500D01*
X56286535Y-63079500D01*
X56286532Y-63079500D01*
X56083581Y-63119869D01*
X55892402Y-63199058D01*
X55720348Y-63314020D01*
X55574020Y-63460348D01*
X55459058Y-63632402D01*
X55379869Y-63823581D01*
X55339500Y-64026532D01*
X51140495Y-64026532D01*
X54411180Y-61486532D01*
X55339500Y-61486532D01*
X55339500Y-61693467D01*
X55379869Y-61896418D01*
X55459058Y-62087597D01*
X55574020Y-62259651D01*
X55574023Y-62259655D01*
X55720345Y-62405977D01*
X55892402Y-62520941D01*
X56083580Y-62600130D01*
X56286535Y-62640500D01*
X56286536Y-62640500D01*
X56493464Y-62640500D01*
X56493465Y-62640500D01*
X56696420Y-62600130D01*
X56887598Y-62520941D01*
X57059655Y-62405977D01*
X57205977Y-62259655D01*
X57295731Y-62125327D01*
X71694500Y-62125327D01*
X71694500Y-63874672D01*
X71694501Y-63874684D01*
X71709033Y-63947736D01*
X71709035Y-63947742D01*
X71764397Y-64030599D01*
X71764399Y-64030601D01*
X71847260Y-64085966D01*
X71902808Y-64097015D01*
X71920315Y-64100498D01*
X71920320Y-64100498D01*
X71920326Y-64100500D01*
X71920327Y-64100500D01*
X73669673Y-64100500D01*
X73669674Y-64100500D01*
X73742740Y-64085966D01*
X73825601Y-64030601D01*
X73880966Y-63947740D01*
X73895500Y-63874674D01*
X73895500Y-62913385D01*
X74234500Y-62913385D01*
X74234500Y-63086614D01*
X74261597Y-63257702D01*
X74261598Y-63257706D01*
X74315123Y-63422438D01*
X74315125Y-63422441D01*
X74315126Y-63422444D01*
X74315127Y-63422445D01*
X74393768Y-63576788D01*
X74495586Y-63716928D01*
X74618072Y-63839414D01*
X74758212Y-63941232D01*
X74912555Y-64019873D01*
X74912557Y-64019873D01*
X74912558Y-64019874D01*
X74912561Y-64019876D01*
X75077293Y-64073401D01*
X75077297Y-64073402D01*
X75248386Y-64100500D01*
X75248389Y-64100500D01*
X75421614Y-64100500D01*
X75592702Y-64073402D01*
X75592706Y-64073401D01*
X75757438Y-64019876D01*
X75757440Y-64019874D01*
X75757445Y-64019873D01*
X75911788Y-63941232D01*
X76051928Y-63839414D01*
X76174414Y-63716928D01*
X76276232Y-63576788D01*
X76354873Y-63422445D01*
X76354874Y-63422440D01*
X76354876Y-63422438D01*
X76408401Y-63257706D01*
X76408402Y-63257702D01*
X76435500Y-63086614D01*
X76435500Y-62913385D01*
X76774500Y-62913385D01*
X76774500Y-63086614D01*
X76801597Y-63257702D01*
X76801598Y-63257706D01*
X76855123Y-63422438D01*
X76855125Y-63422441D01*
X76855126Y-63422444D01*
X76855127Y-63422445D01*
X76933768Y-63576788D01*
X77035586Y-63716928D01*
X77158072Y-63839414D01*
X77298212Y-63941232D01*
X77452555Y-64019873D01*
X77452557Y-64019873D01*
X77452558Y-64019874D01*
X77452561Y-64019876D01*
X77617293Y-64073401D01*
X77617297Y-64073402D01*
X77788386Y-64100500D01*
X77788389Y-64100500D01*
X77961614Y-64100500D01*
X78132702Y-64073402D01*
X78132706Y-64073401D01*
X78297438Y-64019876D01*
X78297440Y-64019874D01*
X78297445Y-64019873D01*
X78451788Y-63941232D01*
X78591928Y-63839414D01*
X78714414Y-63716928D01*
X78816232Y-63576788D01*
X78894873Y-63422445D01*
X78894874Y-63422440D01*
X78894876Y-63422438D01*
X78948401Y-63257706D01*
X78948402Y-63257702D01*
X78975500Y-63086614D01*
X78975500Y-62913385D01*
X78948402Y-62742297D01*
X78948401Y-62742293D01*
X78894876Y-62577561D01*
X78894874Y-62577558D01*
X78894873Y-62577557D01*
X78894873Y-62577555D01*
X78816232Y-62423212D01*
X78714414Y-62283072D01*
X78591928Y-62160586D01*
X78451788Y-62058768D01*
X78451787Y-62058767D01*
X78451785Y-62058766D01*
X78297441Y-61980125D01*
X78297438Y-61980123D01*
X78132706Y-61926598D01*
X78132702Y-61926597D01*
X77961614Y-61899500D01*
X77961611Y-61899500D01*
X77788389Y-61899500D01*
X77788386Y-61899500D01*
X77617297Y-61926597D01*
X77617293Y-61926598D01*
X77452561Y-61980123D01*
X77452558Y-61980125D01*
X77298214Y-62058766D01*
X77158073Y-62160585D01*
X77035585Y-62283073D01*
X76933766Y-62423214D01*
X76855125Y-62577558D01*
X76855123Y-62577561D01*
X76801598Y-62742293D01*
X76801597Y-62742297D01*
X76774500Y-62913385D01*
X76435500Y-62913385D01*
X76408402Y-62742297D01*
X76408401Y-62742293D01*
X76354876Y-62577561D01*
X76354874Y-62577558D01*
X76354873Y-62577557D01*
X76354873Y-62577555D01*
X76276232Y-62423212D01*
X76174414Y-62283072D01*
X76051928Y-62160586D01*
X75911788Y-62058768D01*
X75911787Y-62058767D01*
X75911785Y-62058766D01*
X75757441Y-61980125D01*
X75757438Y-61980123D01*
X75592706Y-61926598D01*
X75592702Y-61926597D01*
X75421614Y-61899500D01*
X75421611Y-61899500D01*
X75248389Y-61899500D01*
X75248386Y-61899500D01*
X75077297Y-61926597D01*
X75077293Y-61926598D01*
X74912561Y-61980123D01*
X74912558Y-61980125D01*
X74758214Y-62058766D01*
X74618073Y-62160585D01*
X74495585Y-62283073D01*
X74393766Y-62423214D01*
X74315125Y-62577558D01*
X74315123Y-62577561D01*
X74261598Y-62742293D01*
X74261597Y-62742297D01*
X74234500Y-62913385D01*
X73895500Y-62913385D01*
X73895500Y-62125326D01*
X73880966Y-62052260D01*
X73832768Y-61980125D01*
X73825602Y-61969400D01*
X73825599Y-61969397D01*
X73742742Y-61914035D01*
X73742740Y-61914034D01*
X73742737Y-61914033D01*
X73742736Y-61914033D01*
X73669684Y-61899501D01*
X73669674Y-61899500D01*
X71920326Y-61899500D01*
X71920325Y-61899500D01*
X71920315Y-61899501D01*
X71847263Y-61914033D01*
X71847257Y-61914035D01*
X71764400Y-61969397D01*
X71764397Y-61969400D01*
X71709035Y-62052257D01*
X71709033Y-62052263D01*
X71694501Y-62125315D01*
X71694500Y-62125327D01*
X57295731Y-62125327D01*
X57320941Y-62087598D01*
X57400130Y-61896420D01*
X57440500Y-61693465D01*
X57440500Y-61486535D01*
X57400130Y-61283580D01*
X57320941Y-61092402D01*
X57205977Y-60920345D01*
X57059655Y-60774023D01*
X56887598Y-60659059D01*
X56887599Y-60659059D01*
X56887597Y-60659058D01*
X56696418Y-60579869D01*
X56493467Y-60539500D01*
X56493465Y-60539500D01*
X56286535Y-60539500D01*
X56286532Y-60539500D01*
X56083581Y-60579869D01*
X55892402Y-60659058D01*
X55720348Y-60774020D01*
X55574020Y-60920348D01*
X55459058Y-61092402D01*
X55379869Y-61283581D01*
X55339500Y-61486532D01*
X54411180Y-61486532D01*
X54600000Y-61339895D01*
X54600000Y-58410215D01*
X55334500Y-58410215D01*
X55334500Y-59689784D01*
X55353948Y-59787555D01*
X55353948Y-59787557D01*
X55384395Y-59861063D01*
X55384394Y-59861063D01*
X55439779Y-59943952D01*
X55439782Y-59943957D01*
X55496044Y-60000219D01*
X55496047Y-60000221D01*
X55578930Y-60055601D01*
X55578932Y-60055602D01*
X55578935Y-60055604D01*
X55652444Y-60086052D01*
X55750218Y-60105500D01*
X55750219Y-60105500D01*
X56468800Y-60105500D01*
X56500512Y-60102376D01*
X56518638Y-60100591D01*
X56673196Y-60069848D01*
X56721127Y-60055308D01*
X56866718Y-59995002D01*
X56910890Y-59971392D01*
X57041918Y-59883842D01*
X57080636Y-59852067D01*
X57192067Y-59740636D01*
X57223842Y-59701918D01*
X57311392Y-59570890D01*
X57335002Y-59526718D01*
X57395308Y-59381127D01*
X57409848Y-59333196D01*
X57440591Y-59178638D01*
X57442376Y-59160512D01*
X57445500Y-59128800D01*
X57445500Y-58971199D01*
X57440591Y-58921363D01*
X57440589Y-58921352D01*
X57440488Y-58920843D01*
X57440486Y-58920834D01*
X57437611Y-58906381D01*
X79049500Y-58906381D01*
X79049500Y-59093618D01*
X79086026Y-59277249D01*
X79157677Y-59450229D01*
X79157681Y-59450238D01*
X79232065Y-59561559D01*
X79261698Y-59605908D01*
X79394092Y-59738302D01*
X79460463Y-59782649D01*
X79549761Y-59842318D01*
X79549767Y-59842320D01*
X79549769Y-59842322D01*
X79722749Y-59913973D01*
X79906384Y-59950500D01*
X79906385Y-59950500D01*
X80093615Y-59950500D01*
X80093616Y-59950500D01*
X80277251Y-59913973D01*
X80450231Y-59842322D01*
X80450234Y-59842319D01*
X80450238Y-59842318D01*
X80495187Y-59812282D01*
X80605908Y-59738302D01*
X80738302Y-59605908D01*
X80812282Y-59495187D01*
X80842318Y-59450238D01*
X80842319Y-59450234D01*
X80842322Y-59450231D01*
X80913973Y-59277251D01*
X80950500Y-59093616D01*
X80950500Y-58906384D01*
X80913973Y-58722749D01*
X80842322Y-58549769D01*
X80842320Y-58549767D01*
X80842318Y-58549761D01*
X80769362Y-58440577D01*
X80738302Y-58394092D01*
X80605908Y-58261698D01*
X80561559Y-58232065D01*
X80450238Y-58157681D01*
X80450229Y-58157677D01*
X80277249Y-58086026D01*
X80093618Y-58049500D01*
X80093616Y-58049500D01*
X79906384Y-58049500D01*
X79906381Y-58049500D01*
X79722750Y-58086026D01*
X79549770Y-58157677D01*
X79549761Y-58157681D01*
X79394092Y-58261698D01*
X79394088Y-58261701D01*
X79261701Y-58394088D01*
X79261698Y-58394092D01*
X79157681Y-58549761D01*
X79157677Y-58549770D01*
X79086026Y-58722750D01*
X79049500Y-58906381D01*
X57437611Y-58906381D01*
X57409848Y-58766804D01*
X57395308Y-58718873D01*
X57335002Y-58573282D01*
X57311392Y-58529110D01*
X57223842Y-58398082D01*
X57192067Y-58359364D01*
X57080636Y-58247933D01*
X57041918Y-58216158D01*
X56954401Y-58157681D01*
X56910897Y-58128612D01*
X56910892Y-58128609D01*
X56866715Y-58104996D01*
X56721134Y-58044694D01*
X56713027Y-58042235D01*
X56673196Y-58030152D01*
X56518638Y-57999409D01*
X56518636Y-57999408D01*
X56468800Y-57994500D01*
X56468793Y-57994500D01*
X55750218Y-57994500D01*
X55750215Y-57994500D01*
X55652444Y-58013948D01*
X55652442Y-58013948D01*
X55578936Y-58044395D01*
X55496046Y-58099779D01*
X55439778Y-58156047D01*
X55384398Y-58238930D01*
X55384393Y-58238940D01*
X55353948Y-58312442D01*
X55353948Y-58312444D01*
X55334500Y-58410215D01*
X54600000Y-58410215D01*
X54600000Y-57000000D01*
X40400000Y-57000000D01*
X40400000Y-61339895D01*
X39631332Y-61339895D01*
X39620130Y-61283580D01*
X39540941Y-61092402D01*
X39425977Y-60920345D01*
X39279655Y-60774023D01*
X39107598Y-60659059D01*
X39107599Y-60659059D01*
X39107597Y-60659058D01*
X38916418Y-60579869D01*
X38713467Y-60539500D01*
X38713465Y-60539500D01*
X38506535Y-60539500D01*
X38506532Y-60539500D01*
X38303581Y-60579869D01*
X38112402Y-60659058D01*
X37940348Y-60774020D01*
X37794020Y-60920348D01*
X37679058Y-61092402D01*
X37599869Y-61283581D01*
X37559500Y-61486532D01*
X10500500Y-61486532D01*
X10500500Y-58971199D01*
X37554500Y-58971199D01*
X37554500Y-59128800D01*
X37559408Y-59178634D01*
X37559409Y-59178638D01*
X37590152Y-59333196D01*
X37602235Y-59373027D01*
X37604694Y-59381134D01*
X37664996Y-59526715D01*
X37688609Y-59570892D01*
X37688612Y-59570897D01*
X37712006Y-59605908D01*
X37768050Y-59689784D01*
X37776159Y-59701919D01*
X37806017Y-59738302D01*
X37807933Y-59740636D01*
X37919364Y-59852067D01*
X37958082Y-59883842D01*
X38044250Y-59941418D01*
X38089102Y-59971387D01*
X38089107Y-59971390D01*
X38089110Y-59971392D01*
X38133282Y-59995002D01*
X38133284Y-59995003D01*
X38278865Y-60055305D01*
X38278867Y-60055305D01*
X38278873Y-60055308D01*
X38326804Y-60069848D01*
X38481362Y-60100591D01*
X38487592Y-60101204D01*
X38531200Y-60105500D01*
X38531207Y-60105500D01*
X39249781Y-60105500D01*
X39249782Y-60105500D01*
X39347556Y-60086052D01*
X39421065Y-60055604D01*
X39421067Y-60055603D01*
X39503957Y-60000218D01*
X39560219Y-59943956D01*
X39615604Y-59861065D01*
X39646052Y-59787556D01*
X39665500Y-59689782D01*
X39665500Y-58410218D01*
X39646052Y-58312444D01*
X39615604Y-58238936D01*
X39615605Y-58238936D01*
X39560220Y-58156046D01*
X39560218Y-58156043D01*
X39503956Y-58099781D01*
X39503952Y-58099778D01*
X39421069Y-58044398D01*
X39421059Y-58044393D01*
X39347556Y-58013948D01*
X39249784Y-57994500D01*
X39249782Y-57994500D01*
X38531207Y-57994500D01*
X38531200Y-57994500D01*
X38481365Y-57999408D01*
X38326813Y-58030150D01*
X38326808Y-58030151D01*
X38326804Y-58030152D01*
X38306888Y-58036193D01*
X38278865Y-58044694D01*
X38133284Y-58104996D01*
X38089107Y-58128609D01*
X38089102Y-58128612D01*
X37958080Y-58216159D01*
X37919369Y-58247928D01*
X37807928Y-58359369D01*
X37776159Y-58398080D01*
X37688612Y-58529102D01*
X37688609Y-58529107D01*
X37664996Y-58573284D01*
X37604694Y-58718865D01*
X37590152Y-58766805D01*
X37590150Y-58766813D01*
X37559408Y-58921365D01*
X37554500Y-58971199D01*
X10500500Y-58971199D01*
X10500500Y-57085841D01*
X19440537Y-57085841D01*
X19440537Y-57314162D01*
X19476251Y-57539657D01*
X19546806Y-57756801D01*
X19650457Y-57960229D01*
X19650461Y-57960235D01*
X19784653Y-58144933D01*
X19784655Y-58144935D01*
X19784658Y-58144939D01*
X19946100Y-58306381D01*
X19946103Y-58306383D01*
X19946105Y-58306385D01*
X20089014Y-58410215D01*
X20130809Y-58440581D01*
X20334238Y-58544233D01*
X20551377Y-58614786D01*
X20551378Y-58614786D01*
X20551381Y-58614787D01*
X20776877Y-58650502D01*
X20776880Y-58650502D01*
X21005197Y-58650502D01*
X21230692Y-58614787D01*
X21230693Y-58614786D01*
X21230697Y-58614786D01*
X21447836Y-58544233D01*
X21651265Y-58440581D01*
X21835974Y-58306381D01*
X21997416Y-58144939D01*
X22131616Y-57960230D01*
X22235268Y-57756801D01*
X22305821Y-57539662D01*
X22310949Y-57507284D01*
X22341537Y-57314162D01*
X22341537Y-57085841D01*
X22305822Y-56860346D01*
X22291550Y-56816421D01*
X22235268Y-56643203D01*
X22131616Y-56439774D01*
X22107467Y-56406536D01*
X22107464Y-56406532D01*
X37559500Y-56406532D01*
X37559500Y-56613467D01*
X37599869Y-56816418D01*
X37679058Y-57007597D01*
X37750022Y-57113803D01*
X37794023Y-57179655D01*
X37940345Y-57325977D01*
X38112402Y-57440941D01*
X38303580Y-57520130D01*
X38506535Y-57560500D01*
X38506536Y-57560500D01*
X38713464Y-57560500D01*
X38713465Y-57560500D01*
X38916420Y-57520130D01*
X39107598Y-57440941D01*
X39279655Y-57325977D01*
X39425977Y-57179655D01*
X39540941Y-57007598D01*
X39620130Y-56816420D01*
X39660500Y-56613465D01*
X39660500Y-56406535D01*
X39660499Y-56406532D01*
X55339500Y-56406532D01*
X55339500Y-56613467D01*
X55379869Y-56816418D01*
X55459058Y-57007597D01*
X55530022Y-57113803D01*
X55574023Y-57179655D01*
X55720345Y-57325977D01*
X55892402Y-57440941D01*
X56083580Y-57520130D01*
X56286535Y-57560500D01*
X56286536Y-57560500D01*
X56493464Y-57560500D01*
X56493465Y-57560500D01*
X56696420Y-57520130D01*
X56887598Y-57440941D01*
X57059655Y-57325977D01*
X57205977Y-57179655D01*
X57320941Y-57007598D01*
X57400130Y-56816420D01*
X57440500Y-56613465D01*
X57440500Y-56406535D01*
X57400130Y-56203580D01*
X57320941Y-56012402D01*
X57225043Y-55868880D01*
X72999500Y-55868880D01*
X72999500Y-56131120D01*
X73033730Y-56391116D01*
X73101276Y-56643202D01*
X73101600Y-56644411D01*
X73101604Y-56644424D01*
X73201953Y-56886689D01*
X73201955Y-56886693D01*
X73201957Y-56886697D01*
X73221823Y-56921106D01*
X73316934Y-57085845D01*
X73333076Y-57113803D01*
X73492718Y-57321851D01*
X73678149Y-57507282D01*
X73886197Y-57666924D01*
X74113303Y-57798043D01*
X74355581Y-57898398D01*
X74608884Y-57966270D01*
X74868880Y-58000500D01*
X74868881Y-58000500D01*
X75131119Y-58000500D01*
X75131120Y-58000500D01*
X75391116Y-57966270D01*
X75644419Y-57898398D01*
X75886697Y-57798043D01*
X76113803Y-57666924D01*
X76321851Y-57507282D01*
X76507282Y-57321851D01*
X76666924Y-57113803D01*
X76798043Y-56886697D01*
X76898398Y-56644419D01*
X76966270Y-56391116D01*
X77000500Y-56131120D01*
X77000500Y-55868880D01*
X76966270Y-55608884D01*
X76898398Y-55355581D01*
X76798043Y-55113303D01*
X76666924Y-54886197D01*
X76507282Y-54678149D01*
X76321851Y-54492718D01*
X76113803Y-54333076D01*
X76113804Y-54333076D01*
X76113802Y-54333075D01*
X76015668Y-54276418D01*
X75886697Y-54201957D01*
X75886693Y-54201955D01*
X75886689Y-54201953D01*
X75644424Y-54101604D01*
X75644423Y-54101603D01*
X75644419Y-54101602D01*
X75391116Y-54033730D01*
X75391111Y-54033729D01*
X75391110Y-54033729D01*
X75131120Y-53999500D01*
X74868880Y-53999500D01*
X74868879Y-53999500D01*
X74608889Y-54033729D01*
X74608886Y-54033729D01*
X74608884Y-54033730D01*
X74460598Y-54073463D01*
X74355588Y-54101600D01*
X74355575Y-54101604D01*
X74113310Y-54201953D01*
X73886197Y-54333075D01*
X73678152Y-54492715D01*
X73492715Y-54678152D01*
X73333075Y-54886197D01*
X73201953Y-55113310D01*
X73101604Y-55355575D01*
X73101600Y-55355588D01*
X73033729Y-55608889D01*
X73003257Y-55840345D01*
X72999500Y-55868880D01*
X57225043Y-55868880D01*
X57205977Y-55840345D01*
X57059655Y-55694023D01*
X57059651Y-55694020D01*
X56887597Y-55579058D01*
X56696418Y-55499869D01*
X56493467Y-55459500D01*
X56493465Y-55459500D01*
X56286535Y-55459500D01*
X56286532Y-55459500D01*
X56083581Y-55499869D01*
X55892402Y-55579058D01*
X55720348Y-55694020D01*
X55574020Y-55840348D01*
X55459058Y-56012402D01*
X55379869Y-56203581D01*
X55339500Y-56406532D01*
X39660499Y-56406532D01*
X39620130Y-56203580D01*
X39540941Y-56012402D01*
X39425977Y-55840345D01*
X39279655Y-55694023D01*
X39279651Y-55694020D01*
X39107597Y-55579058D01*
X38916418Y-55499869D01*
X38713467Y-55459500D01*
X38713465Y-55459500D01*
X38506535Y-55459500D01*
X38506532Y-55459500D01*
X38303581Y-55499869D01*
X38112402Y-55579058D01*
X37940348Y-55694020D01*
X37794020Y-55840348D01*
X37679058Y-56012402D01*
X37599869Y-56203581D01*
X37559500Y-56406532D01*
X22107464Y-56406532D01*
X21997420Y-56255070D01*
X21997418Y-56255068D01*
X21997416Y-56255065D01*
X21835974Y-56093623D01*
X21835970Y-56093620D01*
X21835968Y-56093618D01*
X21651270Y-55959426D01*
X21651264Y-55959422D01*
X21447836Y-55855771D01*
X21230692Y-55785216D01*
X21005197Y-55749502D01*
X21005194Y-55749502D01*
X20776880Y-55749502D01*
X20776877Y-55749502D01*
X20551381Y-55785216D01*
X20334237Y-55855771D01*
X20130809Y-55959422D01*
X20130803Y-55959426D01*
X19946105Y-56093618D01*
X19784653Y-56255070D01*
X19650461Y-56439768D01*
X19650457Y-56439774D01*
X19546806Y-56643202D01*
X19476251Y-56860346D01*
X19440537Y-57085841D01*
X10500500Y-57085841D01*
X10500500Y-53866532D01*
X37559500Y-53866532D01*
X37559500Y-54073467D01*
X37599869Y-54276418D01*
X37679058Y-54467597D01*
X37794020Y-54639651D01*
X37794023Y-54639655D01*
X37940345Y-54785977D01*
X38112402Y-54900941D01*
X38303580Y-54980130D01*
X38506535Y-55020500D01*
X38506536Y-55020500D01*
X38713464Y-55020500D01*
X38713465Y-55020500D01*
X38916420Y-54980130D01*
X39107598Y-54900941D01*
X39279655Y-54785977D01*
X39425977Y-54639655D01*
X39540941Y-54467598D01*
X39620130Y-54276420D01*
X39660500Y-54073465D01*
X39660500Y-53866535D01*
X39660499Y-53866532D01*
X55339500Y-53866532D01*
X55339500Y-54073467D01*
X55379869Y-54276418D01*
X55459058Y-54467597D01*
X55574020Y-54639651D01*
X55574023Y-54639655D01*
X55720345Y-54785977D01*
X55892402Y-54900941D01*
X56083580Y-54980130D01*
X56286535Y-55020500D01*
X56286536Y-55020500D01*
X56493464Y-55020500D01*
X56493465Y-55020500D01*
X56696420Y-54980130D01*
X56887598Y-54900941D01*
X57059655Y-54785977D01*
X57205977Y-54639655D01*
X57320941Y-54467598D01*
X57400130Y-54276420D01*
X57440500Y-54073465D01*
X57440500Y-53866535D01*
X57400130Y-53663580D01*
X57320941Y-53472402D01*
X57205977Y-53300345D01*
X57059655Y-53154023D01*
X56887598Y-53039059D01*
X56887599Y-53039059D01*
X56887597Y-53039058D01*
X56696418Y-52959869D01*
X56493467Y-52919500D01*
X56493465Y-52919500D01*
X56286535Y-52919500D01*
X56286532Y-52919500D01*
X56083581Y-52959869D01*
X55892402Y-53039058D01*
X55720348Y-53154020D01*
X55574020Y-53300348D01*
X55459058Y-53472402D01*
X55379869Y-53663581D01*
X55339500Y-53866532D01*
X39660499Y-53866532D01*
X39620130Y-53663580D01*
X39540941Y-53472402D01*
X39425977Y-53300345D01*
X39279655Y-53154023D01*
X39107598Y-53039059D01*
X39107599Y-53039059D01*
X39107597Y-53039058D01*
X38916418Y-52959869D01*
X38713467Y-52919500D01*
X38713465Y-52919500D01*
X38506535Y-52919500D01*
X38506532Y-52919500D01*
X38303581Y-52959869D01*
X38112402Y-53039058D01*
X37940348Y-53154020D01*
X37794020Y-53300348D01*
X37679058Y-53472402D01*
X37599869Y-53663581D01*
X37559500Y-53866532D01*
X10500500Y-53866532D01*
X10500500Y-51183775D01*
X22693250Y-51183775D01*
X22693250Y-51328724D01*
X22730767Y-51468739D01*
X22803237Y-51594260D01*
X22803239Y-51594262D01*
X22803241Y-51594265D01*
X22905735Y-51696759D01*
X22905737Y-51696760D01*
X22905739Y-51696762D01*
X23031261Y-51769232D01*
X23031262Y-51769232D01*
X23031265Y-51769234D01*
X23171275Y-51806750D01*
X23171276Y-51806750D01*
X23316224Y-51806750D01*
X23316225Y-51806750D01*
X23456235Y-51769234D01*
X23456237Y-51769232D01*
X23456239Y-51769232D01*
X23581760Y-51696762D01*
X23581760Y-51696761D01*
X23581765Y-51696759D01*
X23684259Y-51594265D01*
X23756734Y-51468735D01*
X23794250Y-51328725D01*
X23794250Y-51326532D01*
X37559500Y-51326532D01*
X37559500Y-51533467D01*
X37599869Y-51736418D01*
X37679058Y-51927597D01*
X37747576Y-52030142D01*
X37794023Y-52099655D01*
X37940345Y-52245977D01*
X38112402Y-52360941D01*
X38303580Y-52440130D01*
X38506535Y-52480500D01*
X38506536Y-52480500D01*
X38713464Y-52480500D01*
X38713465Y-52480500D01*
X38916420Y-52440130D01*
X39107598Y-52360941D01*
X39279655Y-52245977D01*
X39425977Y-52099655D01*
X39540941Y-51927598D01*
X39620130Y-51736420D01*
X39660500Y-51533465D01*
X39660500Y-51326535D01*
X39660499Y-51326532D01*
X55339500Y-51326532D01*
X55339500Y-51533467D01*
X55379869Y-51736418D01*
X55459058Y-51927597D01*
X55527576Y-52030142D01*
X55574023Y-52099655D01*
X55720345Y-52245977D01*
X55892402Y-52360941D01*
X56083580Y-52440130D01*
X56286535Y-52480500D01*
X56286536Y-52480500D01*
X56493464Y-52480500D01*
X56493465Y-52480500D01*
X56696420Y-52440130D01*
X56887598Y-52360941D01*
X57059655Y-52245977D01*
X57205977Y-52099655D01*
X57320941Y-51927598D01*
X57400130Y-51736420D01*
X57440500Y-51533465D01*
X57440500Y-51326535D01*
X57400130Y-51123580D01*
X57320941Y-50932402D01*
X57205977Y-50760345D01*
X57059655Y-50614023D01*
X57048793Y-50606765D01*
X56887597Y-50499058D01*
X56696418Y-50419869D01*
X56493467Y-50379500D01*
X56493465Y-50379500D01*
X56286535Y-50379500D01*
X56286532Y-50379500D01*
X56083581Y-50419869D01*
X55892402Y-50499058D01*
X55720348Y-50614020D01*
X55574020Y-50760348D01*
X55459058Y-50932402D01*
X55379869Y-51123581D01*
X55339500Y-51326532D01*
X39660499Y-51326532D01*
X39620130Y-51123580D01*
X39540941Y-50932402D01*
X39425977Y-50760345D01*
X39279655Y-50614023D01*
X39268793Y-50606765D01*
X39107597Y-50499058D01*
X38916418Y-50419869D01*
X38713467Y-50379500D01*
X38713465Y-50379500D01*
X38506535Y-50379500D01*
X38506532Y-50379500D01*
X38303581Y-50419869D01*
X38112402Y-50499058D01*
X37940348Y-50614020D01*
X37794020Y-50760348D01*
X37679058Y-50932402D01*
X37599869Y-51123581D01*
X37559500Y-51326532D01*
X23794250Y-51326532D01*
X23794250Y-51183775D01*
X23756734Y-51043765D01*
X23756732Y-51043762D01*
X23756732Y-51043760D01*
X23684262Y-50918239D01*
X23684260Y-50918237D01*
X23684259Y-50918235D01*
X23581765Y-50815741D01*
X23581762Y-50815739D01*
X23581760Y-50815737D01*
X23456238Y-50743267D01*
X23456239Y-50743267D01*
X23426646Y-50735337D01*
X23316225Y-50705750D01*
X23171275Y-50705750D01*
X23109540Y-50722291D01*
X23031260Y-50743267D01*
X22905739Y-50815737D01*
X22803237Y-50918239D01*
X22730767Y-51043760D01*
X22693250Y-51183775D01*
X10500500Y-51183775D01*
X10500500Y-50196275D01*
X30080750Y-50196275D01*
X30080750Y-50341224D01*
X30118267Y-50481239D01*
X30190737Y-50606760D01*
X30190739Y-50606762D01*
X30190741Y-50606765D01*
X30293235Y-50709259D01*
X30293237Y-50709260D01*
X30293239Y-50709262D01*
X30418761Y-50781732D01*
X30418762Y-50781732D01*
X30418765Y-50781734D01*
X30558775Y-50819250D01*
X30558776Y-50819250D01*
X30703724Y-50819250D01*
X30703725Y-50819250D01*
X30843735Y-50781734D01*
X30843737Y-50781732D01*
X30843739Y-50781732D01*
X30969260Y-50709262D01*
X30969260Y-50709261D01*
X30969265Y-50709259D01*
X31071759Y-50606765D01*
X31071762Y-50606760D01*
X31144232Y-50481239D01*
X31144232Y-50481237D01*
X31144234Y-50481235D01*
X31181750Y-50341225D01*
X31181750Y-50196275D01*
X31176082Y-50175122D01*
X31179284Y-50114022D01*
X31217789Y-50066472D01*
X31271709Y-50050500D01*
X31322474Y-50050500D01*
X31322475Y-50050500D01*
X31462485Y-50012984D01*
X31462487Y-50012982D01*
X31462489Y-50012982D01*
X31537168Y-49969866D01*
X72999500Y-49969866D01*
X72999500Y-52030142D01*
X73014265Y-52180050D01*
X73072619Y-52372418D01*
X73072621Y-52372423D01*
X73167374Y-52549695D01*
X73167377Y-52549700D01*
X73167379Y-52549703D01*
X73220558Y-52614502D01*
X73294901Y-52705089D01*
X73294910Y-52705098D01*
X73367379Y-52764571D01*
X73450297Y-52832621D01*
X73450302Y-52832623D01*
X73450304Y-52832625D01*
X73627576Y-52927378D01*
X73627582Y-52927381D01*
X73761593Y-52968032D01*
X73819946Y-52985734D01*
X73819952Y-52985735D01*
X73867327Y-52990400D01*
X73969865Y-53000500D01*
X76030134Y-53000499D01*
X76030142Y-53000499D01*
X76139166Y-52989760D01*
X76180053Y-52985734D01*
X76372418Y-52927381D01*
X76549703Y-52832621D01*
X76705094Y-52705094D01*
X76832621Y-52549703D01*
X76927381Y-52372418D01*
X76985734Y-52180053D01*
X77000500Y-52030135D01*
X77000499Y-49969866D01*
X77000499Y-49969865D01*
X77000499Y-49969857D01*
X76985734Y-49819949D01*
X76985734Y-49819947D01*
X76927381Y-49627582D01*
X76897926Y-49572475D01*
X76832625Y-49450304D01*
X76832623Y-49450302D01*
X76832621Y-49450297D01*
X76764571Y-49367379D01*
X76705098Y-49294910D01*
X76705089Y-49294901D01*
X76585087Y-49196418D01*
X76549703Y-49167379D01*
X76549700Y-49167377D01*
X76549695Y-49167374D01*
X76372423Y-49072621D01*
X76372418Y-49072619D01*
X76180053Y-49014265D01*
X76180047Y-49014264D01*
X76048520Y-49001310D01*
X76030135Y-48999500D01*
X76030133Y-48999500D01*
X73969857Y-48999500D01*
X73819949Y-49014265D01*
X73627581Y-49072619D01*
X73627576Y-49072621D01*
X73450304Y-49167374D01*
X73450298Y-49167378D01*
X73294910Y-49294901D01*
X73294901Y-49294910D01*
X73167378Y-49450298D01*
X73167374Y-49450304D01*
X73072621Y-49627576D01*
X73072619Y-49627581D01*
X73014265Y-49819946D01*
X73014264Y-49819952D01*
X72999500Y-49969866D01*
X31537168Y-49969866D01*
X31588010Y-49940512D01*
X31588010Y-49940511D01*
X31588015Y-49940509D01*
X31690509Y-49838015D01*
X31700938Y-49819952D01*
X31762982Y-49712489D01*
X31762982Y-49712487D01*
X31762984Y-49712485D01*
X31800500Y-49572475D01*
X31800500Y-49427525D01*
X31762984Y-49287515D01*
X31762982Y-49287512D01*
X31762982Y-49287510D01*
X31690512Y-49161989D01*
X31690510Y-49161987D01*
X31690509Y-49161985D01*
X31588015Y-49059491D01*
X31588012Y-49059489D01*
X31588010Y-49059487D01*
X31462488Y-48987017D01*
X31462489Y-48987017D01*
X31432896Y-48979087D01*
X31322475Y-48949500D01*
X31177525Y-48949500D01*
X31115790Y-48966041D01*
X31037510Y-48987017D01*
X30911989Y-49059487D01*
X30809487Y-49161989D01*
X30737017Y-49287510D01*
X30699500Y-49427525D01*
X30699500Y-49572474D01*
X30705168Y-49593627D01*
X30701966Y-49654728D01*
X30663461Y-49702278D01*
X30609541Y-49718250D01*
X30558775Y-49718250D01*
X30515454Y-49729858D01*
X30418760Y-49755767D01*
X30293239Y-49828237D01*
X30190737Y-49930739D01*
X30118267Y-50056260D01*
X30080750Y-50196275D01*
X10500500Y-50196275D01*
X10500500Y-48786532D01*
X37559500Y-48786532D01*
X37559500Y-48993467D01*
X37599869Y-49196418D01*
X37679058Y-49387597D01*
X37794020Y-49559651D01*
X37794023Y-49559655D01*
X37940345Y-49705977D01*
X38112402Y-49820941D01*
X38303580Y-49900130D01*
X38506535Y-49940500D01*
X38506536Y-49940500D01*
X38713464Y-49940500D01*
X38713465Y-49940500D01*
X38916420Y-49900130D01*
X39107598Y-49820941D01*
X39279655Y-49705977D01*
X39425977Y-49559655D01*
X39540941Y-49387598D01*
X39620130Y-49196420D01*
X39660500Y-48993465D01*
X39660500Y-48786535D01*
X39660499Y-48786532D01*
X55339500Y-48786532D01*
X55339500Y-48993467D01*
X55379869Y-49196418D01*
X55459058Y-49387597D01*
X55574020Y-49559651D01*
X55574023Y-49559655D01*
X55720345Y-49705977D01*
X55892402Y-49820941D01*
X56083580Y-49900130D01*
X56286535Y-49940500D01*
X56286536Y-49940500D01*
X56493464Y-49940500D01*
X56493465Y-49940500D01*
X56696420Y-49900130D01*
X56887598Y-49820941D01*
X57059655Y-49705977D01*
X57205977Y-49559655D01*
X57320941Y-49387598D01*
X57400130Y-49196420D01*
X57440500Y-48993465D01*
X57440500Y-48786535D01*
X57400130Y-48583580D01*
X57320941Y-48392402D01*
X57205977Y-48220345D01*
X57059655Y-48074023D01*
X56887598Y-47959059D01*
X56887599Y-47959059D01*
X56887597Y-47959058D01*
X56760424Y-47906381D01*
X79049500Y-47906381D01*
X79049500Y-48093618D01*
X79086026Y-48277249D01*
X79157677Y-48450229D01*
X79157681Y-48450238D01*
X79232065Y-48561559D01*
X79261698Y-48605908D01*
X79394092Y-48738302D01*
X79460463Y-48782649D01*
X79549761Y-48842318D01*
X79549767Y-48842320D01*
X79549769Y-48842322D01*
X79722749Y-48913973D01*
X79906384Y-48950500D01*
X79906385Y-48950500D01*
X80093615Y-48950500D01*
X80093616Y-48950500D01*
X80277251Y-48913973D01*
X80450231Y-48842322D01*
X80450234Y-48842319D01*
X80450238Y-48842318D01*
X80495187Y-48812282D01*
X80605908Y-48738302D01*
X80738302Y-48605908D01*
X80812282Y-48495187D01*
X80842318Y-48450238D01*
X80842319Y-48450234D01*
X80842322Y-48450231D01*
X80913973Y-48277251D01*
X80950500Y-48093616D01*
X80950500Y-47906384D01*
X80913973Y-47722749D01*
X80842322Y-47549769D01*
X80842320Y-47549767D01*
X80842318Y-47549761D01*
X80782649Y-47460463D01*
X80738302Y-47394092D01*
X80605908Y-47261698D01*
X80561559Y-47232065D01*
X80450238Y-47157681D01*
X80450229Y-47157677D01*
X80277249Y-47086026D01*
X80093618Y-47049500D01*
X80093616Y-47049500D01*
X79906384Y-47049500D01*
X79906381Y-47049500D01*
X79722750Y-47086026D01*
X79549770Y-47157677D01*
X79549761Y-47157681D01*
X79394092Y-47261698D01*
X79394088Y-47261701D01*
X79261701Y-47394088D01*
X79261698Y-47394092D01*
X79157681Y-47549761D01*
X79157677Y-47549770D01*
X79086026Y-47722750D01*
X79049500Y-47906381D01*
X56760424Y-47906381D01*
X56696418Y-47879869D01*
X56493467Y-47839500D01*
X56493465Y-47839500D01*
X56286535Y-47839500D01*
X56286532Y-47839500D01*
X56083581Y-47879869D01*
X55892402Y-47959058D01*
X55720348Y-48074020D01*
X55574020Y-48220348D01*
X55459058Y-48392402D01*
X55379869Y-48583581D01*
X55339500Y-48786532D01*
X39660499Y-48786532D01*
X39620130Y-48583580D01*
X39540941Y-48392402D01*
X39425977Y-48220345D01*
X39279655Y-48074023D01*
X39107598Y-47959059D01*
X39107599Y-47959059D01*
X39107597Y-47959058D01*
X38916418Y-47879869D01*
X38713467Y-47839500D01*
X38713465Y-47839500D01*
X38506535Y-47839500D01*
X38506532Y-47839500D01*
X38303581Y-47879869D01*
X38112402Y-47959058D01*
X37940348Y-48074020D01*
X37794020Y-48220348D01*
X37679058Y-48392402D01*
X37599869Y-48583581D01*
X37559500Y-48786532D01*
X10500500Y-48786532D01*
X10500500Y-46271199D01*
X37554500Y-46271199D01*
X37554500Y-46428800D01*
X37559408Y-46478634D01*
X37559409Y-46478638D01*
X37590152Y-46633196D01*
X37602235Y-46673027D01*
X37604694Y-46681134D01*
X37664996Y-46826715D01*
X37688609Y-46870892D01*
X37688612Y-46870897D01*
X37716069Y-46911989D01*
X37776158Y-47001918D01*
X37807933Y-47040636D01*
X37919364Y-47152067D01*
X37958082Y-47183842D01*
X38044250Y-47241418D01*
X38089102Y-47271387D01*
X38089107Y-47271390D01*
X38089110Y-47271392D01*
X38133282Y-47295002D01*
X38133284Y-47295003D01*
X38278865Y-47355305D01*
X38278867Y-47355305D01*
X38278873Y-47355308D01*
X38326804Y-47369848D01*
X38481362Y-47400591D01*
X38487592Y-47401204D01*
X38531200Y-47405500D01*
X38531207Y-47405500D01*
X39249781Y-47405500D01*
X39249782Y-47405500D01*
X39347556Y-47386052D01*
X39421065Y-47355604D01*
X39421067Y-47355603D01*
X39503957Y-47300218D01*
X39560219Y-47243956D01*
X39615604Y-47161065D01*
X39646052Y-47087556D01*
X39665500Y-46989782D01*
X39665500Y-45710218D01*
X39665499Y-45710215D01*
X55334500Y-45710215D01*
X55334500Y-46989784D01*
X55353948Y-47087555D01*
X55353948Y-47087557D01*
X55384395Y-47161063D01*
X55384394Y-47161063D01*
X55439779Y-47243952D01*
X55439782Y-47243957D01*
X55496044Y-47300219D01*
X55496047Y-47300221D01*
X55578930Y-47355601D01*
X55578932Y-47355602D01*
X55578935Y-47355604D01*
X55652444Y-47386052D01*
X55750218Y-47405500D01*
X55750219Y-47405500D01*
X56468800Y-47405500D01*
X56500512Y-47402376D01*
X56518638Y-47400591D01*
X56673196Y-47369848D01*
X56721127Y-47355308D01*
X56866718Y-47295002D01*
X56910890Y-47271392D01*
X57041918Y-47183842D01*
X57049615Y-47177525D01*
X67649500Y-47177525D01*
X67649500Y-47322475D01*
X67671747Y-47405500D01*
X67687017Y-47462489D01*
X67759487Y-47588010D01*
X67759489Y-47588012D01*
X67759491Y-47588015D01*
X67861985Y-47690509D01*
X67861987Y-47690510D01*
X67861989Y-47690512D01*
X67987511Y-47762982D01*
X67987512Y-47762982D01*
X67987515Y-47762984D01*
X68127525Y-47800500D01*
X68127526Y-47800500D01*
X68272474Y-47800500D01*
X68272475Y-47800500D01*
X68412485Y-47762984D01*
X68412487Y-47762982D01*
X68412489Y-47762982D01*
X68538010Y-47690512D01*
X68538010Y-47690511D01*
X68538015Y-47690509D01*
X68640509Y-47588015D01*
X68662590Y-47549770D01*
X68712982Y-47462489D01*
X68712982Y-47462487D01*
X68712984Y-47462485D01*
X68750500Y-47322475D01*
X68750500Y-47177525D01*
X68712984Y-47037515D01*
X68712982Y-47037512D01*
X68712982Y-47037510D01*
X68640512Y-46911989D01*
X68640510Y-46911987D01*
X68640509Y-46911985D01*
X68538015Y-46809491D01*
X68538012Y-46809489D01*
X68538010Y-46809487D01*
X68412488Y-46737017D01*
X68412489Y-46737017D01*
X68382896Y-46729087D01*
X68272475Y-46699500D01*
X68127525Y-46699500D01*
X68065790Y-46716041D01*
X67987510Y-46737017D01*
X67861989Y-46809487D01*
X67759487Y-46911989D01*
X67687017Y-47037510D01*
X67656320Y-47152071D01*
X67649500Y-47177525D01*
X57049615Y-47177525D01*
X57080636Y-47152067D01*
X57192067Y-47040636D01*
X57223842Y-47001918D01*
X57311392Y-46870890D01*
X57335002Y-46826718D01*
X57395308Y-46681127D01*
X57409848Y-46633196D01*
X57440591Y-46478638D01*
X57442376Y-46460512D01*
X57445500Y-46428800D01*
X57445500Y-46271199D01*
X57440591Y-46221365D01*
X57440591Y-46221362D01*
X57409848Y-46066804D01*
X57395308Y-46018873D01*
X57383560Y-45990512D01*
X57335003Y-45873284D01*
X57335002Y-45873282D01*
X57311392Y-45829110D01*
X57223842Y-45698082D01*
X57192067Y-45659364D01*
X57080636Y-45547933D01*
X57041918Y-45516158D01*
X56984100Y-45477525D01*
X56910897Y-45428612D01*
X56910892Y-45428609D01*
X56908864Y-45427525D01*
X75349500Y-45427525D01*
X75349500Y-45572475D01*
X75379087Y-45682896D01*
X75387017Y-45712489D01*
X75459487Y-45838010D01*
X75459489Y-45838012D01*
X75459491Y-45838015D01*
X75561985Y-45940509D01*
X75561987Y-45940510D01*
X75561989Y-45940512D01*
X75687511Y-46012982D01*
X75687512Y-46012982D01*
X75687515Y-46012984D01*
X75827525Y-46050500D01*
X75827526Y-46050500D01*
X75972474Y-46050500D01*
X75972475Y-46050500D01*
X76112485Y-46012984D01*
X76112487Y-46012982D01*
X76112489Y-46012982D01*
X76238010Y-45940512D01*
X76238010Y-45940511D01*
X76238015Y-45940509D01*
X76340509Y-45838015D01*
X76384114Y-45762489D01*
X76412982Y-45712489D01*
X76412982Y-45712487D01*
X76412984Y-45712485D01*
X76450500Y-45572475D01*
X76450500Y-45427525D01*
X76412984Y-45287515D01*
X76412982Y-45287512D01*
X76412982Y-45287510D01*
X76340512Y-45161989D01*
X76340510Y-45161987D01*
X76340509Y-45161985D01*
X76238015Y-45059491D01*
X76238012Y-45059489D01*
X76238010Y-45059487D01*
X76112488Y-44987017D01*
X76112489Y-44987017D01*
X76082896Y-44979087D01*
X75972475Y-44949500D01*
X75827525Y-44949500D01*
X75765790Y-44966041D01*
X75687510Y-44987017D01*
X75561989Y-45059487D01*
X75459487Y-45161989D01*
X75387017Y-45287510D01*
X75371774Y-45344397D01*
X75349500Y-45427525D01*
X56908864Y-45427525D01*
X56866715Y-45404996D01*
X56721134Y-45344694D01*
X56713027Y-45342235D01*
X56673196Y-45330152D01*
X56518638Y-45299409D01*
X56518636Y-45299408D01*
X56468800Y-45294500D01*
X56468793Y-45294500D01*
X55750218Y-45294500D01*
X55750215Y-45294500D01*
X55652444Y-45313948D01*
X55652442Y-45313948D01*
X55578936Y-45344395D01*
X55496046Y-45399779D01*
X55439778Y-45456047D01*
X55384398Y-45538930D01*
X55384393Y-45538940D01*
X55353948Y-45612442D01*
X55353948Y-45612444D01*
X55334500Y-45710215D01*
X39665499Y-45710215D01*
X39646052Y-45612444D01*
X39615604Y-45538936D01*
X39615605Y-45538936D01*
X39560220Y-45456046D01*
X39560218Y-45456043D01*
X39503956Y-45399781D01*
X39503952Y-45399778D01*
X39421069Y-45344398D01*
X39421059Y-45344393D01*
X39347556Y-45313948D01*
X39249784Y-45294500D01*
X39249782Y-45294500D01*
X38531207Y-45294500D01*
X38531200Y-45294500D01*
X38481365Y-45299408D01*
X38326813Y-45330150D01*
X38326808Y-45330151D01*
X38326804Y-45330152D01*
X38306888Y-45336193D01*
X38278865Y-45344694D01*
X38133284Y-45404996D01*
X38089107Y-45428609D01*
X38089102Y-45428612D01*
X37958080Y-45516159D01*
X37919369Y-45547928D01*
X37807928Y-45659369D01*
X37776159Y-45698080D01*
X37688612Y-45829102D01*
X37688609Y-45829107D01*
X37664996Y-45873284D01*
X37604694Y-46018865D01*
X37604692Y-46018873D01*
X37591312Y-46062982D01*
X37590152Y-46066805D01*
X37590150Y-46066813D01*
X37559408Y-46221365D01*
X37554500Y-46271199D01*
X10500500Y-46271199D01*
X10500500Y-45477525D01*
X31399500Y-45477525D01*
X31399500Y-45622475D01*
X31429087Y-45732896D01*
X31437017Y-45762489D01*
X31509487Y-45888010D01*
X31509489Y-45888012D01*
X31509491Y-45888015D01*
X31611985Y-45990509D01*
X31611987Y-45990510D01*
X31611989Y-45990512D01*
X31737511Y-46062982D01*
X31737512Y-46062982D01*
X31737515Y-46062984D01*
X31877525Y-46100500D01*
X31877526Y-46100500D01*
X32022474Y-46100500D01*
X32022475Y-46100500D01*
X32162485Y-46062984D01*
X32162487Y-46062982D01*
X32162489Y-46062982D01*
X32288010Y-45990512D01*
X32288010Y-45990511D01*
X32288015Y-45990509D01*
X32390509Y-45888015D01*
X32419377Y-45838015D01*
X32462982Y-45762489D01*
X32462982Y-45762487D01*
X32462984Y-45762485D01*
X32500500Y-45622475D01*
X32500500Y-45477525D01*
X32462984Y-45337515D01*
X32462982Y-45337512D01*
X32462982Y-45337510D01*
X32390512Y-45211989D01*
X32390510Y-45211987D01*
X32390509Y-45211985D01*
X32288015Y-45109491D01*
X32288012Y-45109489D01*
X32288010Y-45109487D01*
X32162488Y-45037017D01*
X32162489Y-45037017D01*
X32132896Y-45029087D01*
X32022475Y-44999500D01*
X31877525Y-44999500D01*
X31815790Y-45016041D01*
X31737510Y-45037017D01*
X31611989Y-45109487D01*
X31509487Y-45211989D01*
X31437017Y-45337510D01*
X31412607Y-45428608D01*
X31399500Y-45477525D01*
X10500500Y-45477525D01*
X10500500Y-44227525D01*
X17849500Y-44227525D01*
X17849500Y-44372474D01*
X17887017Y-44512489D01*
X17959487Y-44638010D01*
X17959489Y-44638012D01*
X17959491Y-44638015D01*
X18061985Y-44740509D01*
X18061987Y-44740510D01*
X18061989Y-44740512D01*
X18187511Y-44812982D01*
X18187512Y-44812982D01*
X18187515Y-44812984D01*
X18327525Y-44850500D01*
X18327526Y-44850500D01*
X18472474Y-44850500D01*
X18472475Y-44850500D01*
X18612485Y-44812984D01*
X18612487Y-44812982D01*
X18612489Y-44812982D01*
X18738010Y-44740512D01*
X18738010Y-44740511D01*
X18738015Y-44740509D01*
X18840509Y-44638015D01*
X18912984Y-44512485D01*
X18950500Y-44372475D01*
X18950500Y-44227525D01*
X18912984Y-44087515D01*
X18912982Y-44087512D01*
X18912982Y-44087510D01*
X18840512Y-43961989D01*
X18840510Y-43961987D01*
X18840509Y-43961985D01*
X18738015Y-43859491D01*
X18738012Y-43859489D01*
X18738010Y-43859487D01*
X18613164Y-43787407D01*
X18613163Y-43787406D01*
X18612490Y-43787018D01*
X18612489Y-43787017D01*
X18582896Y-43779087D01*
X18472475Y-43749500D01*
X18327525Y-43749500D01*
X18265790Y-43766041D01*
X18187510Y-43787017D01*
X18061989Y-43859487D01*
X17959487Y-43961989D01*
X17887017Y-44087510D01*
X17849500Y-44227525D01*
X10500500Y-44227525D01*
X10500500Y-43706532D01*
X37559500Y-43706532D01*
X37559500Y-43913467D01*
X37599869Y-44116418D01*
X37679058Y-44307597D01*
X37679059Y-44307598D01*
X37794023Y-44479655D01*
X37940345Y-44625977D01*
X38112402Y-44740941D01*
X38303580Y-44820130D01*
X38506535Y-44860500D01*
X38506536Y-44860500D01*
X38713464Y-44860500D01*
X38713465Y-44860500D01*
X38916420Y-44820130D01*
X39107598Y-44740941D01*
X39279655Y-44625977D01*
X39425977Y-44479655D01*
X39540941Y-44307598D01*
X39620130Y-44116420D01*
X39660500Y-43913465D01*
X39660500Y-43706535D01*
X39660499Y-43706532D01*
X55339500Y-43706532D01*
X55339500Y-43913467D01*
X55379869Y-44116418D01*
X55459058Y-44307597D01*
X55459059Y-44307598D01*
X55574023Y-44479655D01*
X55720345Y-44625977D01*
X55892402Y-44740941D01*
X56083580Y-44820130D01*
X56286535Y-44860500D01*
X56286536Y-44860500D01*
X56493464Y-44860500D01*
X56493465Y-44860500D01*
X56696420Y-44820130D01*
X56887598Y-44740941D01*
X57059655Y-44625977D01*
X57205977Y-44479655D01*
X57320941Y-44307598D01*
X57400130Y-44116420D01*
X57440500Y-43913465D01*
X57440500Y-43706535D01*
X57400130Y-43503580D01*
X57320941Y-43312402D01*
X57205977Y-43140345D01*
X57059655Y-42994023D01*
X57059651Y-42994020D01*
X56887597Y-42879058D01*
X56696418Y-42799869D01*
X56493467Y-42759500D01*
X56493465Y-42759500D01*
X56286535Y-42759500D01*
X56286532Y-42759500D01*
X56083581Y-42799869D01*
X55892402Y-42879058D01*
X55720348Y-42994020D01*
X55574020Y-43140348D01*
X55459058Y-43312402D01*
X55379869Y-43503581D01*
X55339500Y-43706532D01*
X39660499Y-43706532D01*
X39620130Y-43503580D01*
X39540941Y-43312402D01*
X39425977Y-43140345D01*
X39279655Y-42994023D01*
X39279651Y-42994020D01*
X39107597Y-42879058D01*
X38916418Y-42799869D01*
X38713467Y-42759500D01*
X38713465Y-42759500D01*
X38506535Y-42759500D01*
X38506532Y-42759500D01*
X38303581Y-42799869D01*
X38112402Y-42879058D01*
X37940348Y-42994020D01*
X37794020Y-43140348D01*
X37679058Y-43312402D01*
X37599869Y-43503581D01*
X37559500Y-43706532D01*
X10500500Y-43706532D01*
X10500500Y-42427525D01*
X17449500Y-42427525D01*
X17449500Y-42572474D01*
X17487017Y-42712489D01*
X17559487Y-42838010D01*
X17559489Y-42838012D01*
X17559491Y-42838015D01*
X17661985Y-42940509D01*
X17661987Y-42940510D01*
X17661989Y-42940512D01*
X17787511Y-43012982D01*
X17787512Y-43012982D01*
X17787515Y-43012984D01*
X17927525Y-43050500D01*
X17927526Y-43050500D01*
X18072474Y-43050500D01*
X18072475Y-43050500D01*
X18212485Y-43012984D01*
X18212487Y-43012982D01*
X18212489Y-43012982D01*
X18317203Y-42952525D01*
X31949500Y-42952525D01*
X31949500Y-43097474D01*
X31987017Y-43237489D01*
X32059487Y-43363010D01*
X32059489Y-43363012D01*
X32059491Y-43363015D01*
X32161985Y-43465509D01*
X32161987Y-43465510D01*
X32161989Y-43465512D01*
X32287511Y-43537982D01*
X32287512Y-43537982D01*
X32287515Y-43537984D01*
X32427525Y-43575500D01*
X32427526Y-43575500D01*
X32572474Y-43575500D01*
X32572475Y-43575500D01*
X32712485Y-43537984D01*
X32712487Y-43537982D01*
X32712489Y-43537982D01*
X32838010Y-43465512D01*
X32838010Y-43465511D01*
X32838015Y-43465509D01*
X32940509Y-43363015D01*
X33012984Y-43237485D01*
X33050500Y-43097475D01*
X33050500Y-42952525D01*
X33012984Y-42812515D01*
X33012982Y-42812512D01*
X33012982Y-42812510D01*
X32940512Y-42686989D01*
X32940510Y-42686987D01*
X32940509Y-42686985D01*
X32838015Y-42584491D01*
X32838012Y-42584489D01*
X32838010Y-42584487D01*
X32712488Y-42512017D01*
X32712489Y-42512017D01*
X32682896Y-42504087D01*
X32572475Y-42474500D01*
X32427525Y-42474500D01*
X32365790Y-42491041D01*
X32287510Y-42512017D01*
X32161989Y-42584487D01*
X32059487Y-42686989D01*
X31987017Y-42812510D01*
X31949500Y-42952525D01*
X18317203Y-42952525D01*
X18338010Y-42940512D01*
X18338010Y-42940511D01*
X18338015Y-42940509D01*
X18440509Y-42838015D01*
X18440512Y-42838010D01*
X18512982Y-42712489D01*
X18512982Y-42712487D01*
X18512984Y-42712485D01*
X18550500Y-42572475D01*
X18550500Y-42427525D01*
X18512984Y-42287515D01*
X18512982Y-42287512D01*
X18512982Y-42287510D01*
X18440512Y-42161989D01*
X18440510Y-42161987D01*
X18440509Y-42161985D01*
X18338015Y-42059491D01*
X18338012Y-42059489D01*
X18338010Y-42059487D01*
X18212488Y-41987017D01*
X18212489Y-41987017D01*
X18182896Y-41979087D01*
X18072475Y-41949500D01*
X17927525Y-41949500D01*
X17865790Y-41966041D01*
X17787510Y-41987017D01*
X17661989Y-42059487D01*
X17559487Y-42161989D01*
X17487017Y-42287510D01*
X17449500Y-42427525D01*
X10500500Y-42427525D01*
X10500500Y-40965025D01*
X22449500Y-40965025D01*
X22449500Y-41109975D01*
X22464656Y-41166536D01*
X22487017Y-41249989D01*
X22559487Y-41375510D01*
X22559489Y-41375512D01*
X22559491Y-41375515D01*
X22661985Y-41478009D01*
X22661987Y-41478010D01*
X22661989Y-41478012D01*
X22787511Y-41550482D01*
X22787512Y-41550482D01*
X22787515Y-41550484D01*
X22927525Y-41588000D01*
X22927526Y-41588000D01*
X23072474Y-41588000D01*
X23072475Y-41588000D01*
X23212485Y-41550484D01*
X23212487Y-41550482D01*
X23212489Y-41550482D01*
X23338010Y-41478012D01*
X23338010Y-41478011D01*
X23338015Y-41478009D01*
X23440509Y-41375515D01*
X23440512Y-41375510D01*
X23512982Y-41249989D01*
X23512982Y-41249987D01*
X23512984Y-41249985D01*
X23535345Y-41166532D01*
X37559500Y-41166532D01*
X37559500Y-41373467D01*
X37599869Y-41576418D01*
X37679058Y-41767597D01*
X37690679Y-41784989D01*
X37794023Y-41939655D01*
X37940345Y-42085977D01*
X38112402Y-42200941D01*
X38303580Y-42280130D01*
X38506535Y-42320500D01*
X38506536Y-42320500D01*
X38713464Y-42320500D01*
X38713465Y-42320500D01*
X38916420Y-42280130D01*
X39107598Y-42200941D01*
X39279655Y-42085977D01*
X39425977Y-41939655D01*
X39540941Y-41767598D01*
X39620130Y-41576420D01*
X39660500Y-41373465D01*
X39660500Y-41166535D01*
X39660499Y-41166532D01*
X55339500Y-41166532D01*
X55339500Y-41373467D01*
X55379869Y-41576418D01*
X55459058Y-41767597D01*
X55470679Y-41784989D01*
X55574023Y-41939655D01*
X55720345Y-42085977D01*
X55892402Y-42200941D01*
X56083580Y-42280130D01*
X56286535Y-42320500D01*
X56286536Y-42320500D01*
X56493464Y-42320500D01*
X56493465Y-42320500D01*
X56696420Y-42280130D01*
X56887598Y-42200941D01*
X57059655Y-42085977D01*
X57205977Y-41939655D01*
X57320941Y-41767598D01*
X57400130Y-41576420D01*
X57415326Y-41500025D01*
X76522000Y-41500025D01*
X76522000Y-41644974D01*
X76559517Y-41784989D01*
X76631987Y-41910510D01*
X76631989Y-41910512D01*
X76631991Y-41910515D01*
X76734485Y-42013009D01*
X76734487Y-42013010D01*
X76734489Y-42013012D01*
X76860011Y-42085482D01*
X76860012Y-42085482D01*
X76860015Y-42085484D01*
X77000025Y-42123000D01*
X77000026Y-42123000D01*
X77144974Y-42123000D01*
X77144975Y-42123000D01*
X77284985Y-42085484D01*
X77284987Y-42085482D01*
X77284989Y-42085482D01*
X77410510Y-42013012D01*
X77410510Y-42013011D01*
X77410515Y-42013009D01*
X77513009Y-41910515D01*
X77585484Y-41784985D01*
X77623000Y-41644975D01*
X77623000Y-41500025D01*
X77585484Y-41360015D01*
X77585482Y-41360012D01*
X77585482Y-41360010D01*
X77513012Y-41234489D01*
X77513010Y-41234487D01*
X77513009Y-41234485D01*
X77410515Y-41131991D01*
X77410512Y-41131989D01*
X77410510Y-41131987D01*
X77284988Y-41059517D01*
X77284989Y-41059517D01*
X77255396Y-41051587D01*
X77144975Y-41022000D01*
X77000025Y-41022000D01*
X76938290Y-41038541D01*
X76860010Y-41059517D01*
X76734489Y-41131987D01*
X76631987Y-41234489D01*
X76559517Y-41360010D01*
X76522000Y-41500025D01*
X57415326Y-41500025D01*
X57440500Y-41373465D01*
X57440500Y-41166535D01*
X57400130Y-40963580D01*
X57320941Y-40772402D01*
X57205977Y-40600345D01*
X57059655Y-40454023D01*
X56887598Y-40339059D01*
X56887599Y-40339059D01*
X56887597Y-40339058D01*
X56696418Y-40259869D01*
X56493467Y-40219500D01*
X56493465Y-40219500D01*
X56286535Y-40219500D01*
X56286532Y-40219500D01*
X56083581Y-40259869D01*
X55892402Y-40339058D01*
X55720348Y-40454020D01*
X55574020Y-40600348D01*
X55459058Y-40772402D01*
X55379869Y-40963581D01*
X55339500Y-41166532D01*
X39660499Y-41166532D01*
X39620130Y-40963580D01*
X39540941Y-40772402D01*
X39425977Y-40600345D01*
X39279655Y-40454023D01*
X39107598Y-40339059D01*
X39107599Y-40339059D01*
X39107597Y-40339058D01*
X38916418Y-40259869D01*
X38713467Y-40219500D01*
X38713465Y-40219500D01*
X38506535Y-40219500D01*
X38506532Y-40219500D01*
X38303581Y-40259869D01*
X38112402Y-40339058D01*
X37940348Y-40454020D01*
X37794020Y-40600348D01*
X37679058Y-40772402D01*
X37599869Y-40963581D01*
X37559500Y-41166532D01*
X23535345Y-41166532D01*
X23550500Y-41109975D01*
X23550500Y-40965025D01*
X23512984Y-40825015D01*
X23512982Y-40825012D01*
X23512982Y-40825010D01*
X23440512Y-40699489D01*
X23440510Y-40699487D01*
X23440509Y-40699485D01*
X23338015Y-40596991D01*
X23338012Y-40596989D01*
X23338010Y-40596987D01*
X23212488Y-40524517D01*
X23212489Y-40524517D01*
X23182896Y-40516587D01*
X23072475Y-40487000D01*
X22927525Y-40487000D01*
X22865790Y-40503541D01*
X22787510Y-40524517D01*
X22661989Y-40596987D01*
X22559487Y-40699489D01*
X22487017Y-40825010D01*
X22487016Y-40825015D01*
X22449500Y-40965025D01*
X10500500Y-40965025D01*
X10500500Y-37906381D01*
X14049500Y-37906381D01*
X14049500Y-38093618D01*
X14086026Y-38277249D01*
X14157677Y-38450229D01*
X14157681Y-38450238D01*
X14232065Y-38561559D01*
X14261698Y-38605908D01*
X14394092Y-38738302D01*
X14460463Y-38782649D01*
X14549761Y-38842318D01*
X14549767Y-38842320D01*
X14549769Y-38842322D01*
X14722749Y-38913973D01*
X14906384Y-38950500D01*
X14906385Y-38950500D01*
X15093615Y-38950500D01*
X15093616Y-38950500D01*
X15277251Y-38913973D01*
X15450231Y-38842322D01*
X15450234Y-38842319D01*
X15450238Y-38842318D01*
X15495187Y-38812282D01*
X15605908Y-38738302D01*
X15717678Y-38626532D01*
X37559500Y-38626532D01*
X37559500Y-38833467D01*
X37599869Y-39036418D01*
X37679058Y-39227597D01*
X37769541Y-39363015D01*
X37794023Y-39399655D01*
X37940345Y-39545977D01*
X38112402Y-39660941D01*
X38303580Y-39740130D01*
X38506535Y-39780500D01*
X38506536Y-39780500D01*
X38713464Y-39780500D01*
X38713465Y-39780500D01*
X38916420Y-39740130D01*
X39107598Y-39660941D01*
X39279655Y-39545977D01*
X39425977Y-39399655D01*
X39540941Y-39227598D01*
X39620130Y-39036420D01*
X39660500Y-38833465D01*
X39660500Y-38626535D01*
X39660499Y-38626532D01*
X55339500Y-38626532D01*
X55339500Y-38833467D01*
X55379869Y-39036418D01*
X55459058Y-39227597D01*
X55549541Y-39363015D01*
X55574023Y-39399655D01*
X55720345Y-39545977D01*
X55892402Y-39660941D01*
X56083580Y-39740130D01*
X56286535Y-39780500D01*
X56286536Y-39780500D01*
X56493464Y-39780500D01*
X56493465Y-39780500D01*
X56696420Y-39740130D01*
X56887598Y-39660941D01*
X57059655Y-39545977D01*
X57205977Y-39399655D01*
X57320941Y-39227598D01*
X57400130Y-39036420D01*
X57416818Y-38952525D01*
X77087000Y-38952525D01*
X77087000Y-39097474D01*
X77124517Y-39237489D01*
X77196987Y-39363010D01*
X77196989Y-39363012D01*
X77196991Y-39363015D01*
X77299485Y-39465509D01*
X77299487Y-39465510D01*
X77299489Y-39465512D01*
X77425011Y-39537982D01*
X77425012Y-39537982D01*
X77425015Y-39537984D01*
X77565025Y-39575500D01*
X77565026Y-39575500D01*
X77709974Y-39575500D01*
X77709975Y-39575500D01*
X77849985Y-39537984D01*
X77849987Y-39537982D01*
X77849989Y-39537982D01*
X77975510Y-39465512D01*
X77975510Y-39465511D01*
X77975515Y-39465509D01*
X78078009Y-39363015D01*
X78150484Y-39237485D01*
X78188000Y-39097475D01*
X78188000Y-38952525D01*
X78150484Y-38812515D01*
X78150482Y-38812512D01*
X78150482Y-38812510D01*
X78078012Y-38686989D01*
X78078010Y-38686987D01*
X78078009Y-38686985D01*
X77975515Y-38584491D01*
X77975512Y-38584489D01*
X77975510Y-38584487D01*
X77849988Y-38512017D01*
X77849989Y-38512017D01*
X77820396Y-38504087D01*
X77709975Y-38474500D01*
X77565025Y-38474500D01*
X77503290Y-38491041D01*
X77425010Y-38512017D01*
X77299489Y-38584487D01*
X77196987Y-38686989D01*
X77124517Y-38812510D01*
X77087000Y-38952525D01*
X57416818Y-38952525D01*
X57440500Y-38833465D01*
X57440500Y-38626535D01*
X57400130Y-38423580D01*
X57320941Y-38232402D01*
X57205977Y-38060345D01*
X57059655Y-37914023D01*
X57048224Y-37906385D01*
X56887597Y-37799058D01*
X56696418Y-37719869D01*
X56493467Y-37679500D01*
X56493465Y-37679500D01*
X56286535Y-37679500D01*
X56286532Y-37679500D01*
X56083581Y-37719869D01*
X55892402Y-37799058D01*
X55720348Y-37914020D01*
X55574020Y-38060348D01*
X55459058Y-38232402D01*
X55379869Y-38423581D01*
X55339500Y-38626532D01*
X39660499Y-38626532D01*
X39620130Y-38423580D01*
X39540941Y-38232402D01*
X39425977Y-38060345D01*
X39279655Y-37914023D01*
X39268224Y-37906385D01*
X39107597Y-37799058D01*
X38916418Y-37719869D01*
X38713467Y-37679500D01*
X38713465Y-37679500D01*
X38506535Y-37679500D01*
X38506532Y-37679500D01*
X38303581Y-37719869D01*
X38112402Y-37799058D01*
X37940348Y-37914020D01*
X37794020Y-38060348D01*
X37679058Y-38232402D01*
X37599869Y-38423581D01*
X37559500Y-38626532D01*
X15717678Y-38626532D01*
X15738302Y-38605908D01*
X15842322Y-38450231D01*
X15913973Y-38277251D01*
X15950500Y-38093616D01*
X15950500Y-37906384D01*
X15913973Y-37722749D01*
X15842322Y-37549769D01*
X15842320Y-37549767D01*
X15842318Y-37549761D01*
X15782649Y-37460463D01*
X15738302Y-37394092D01*
X15605908Y-37261698D01*
X15561559Y-37232065D01*
X15450238Y-37157681D01*
X15450229Y-37157677D01*
X15277249Y-37086026D01*
X15093618Y-37049500D01*
X15093616Y-37049500D01*
X14906384Y-37049500D01*
X14906381Y-37049500D01*
X14722750Y-37086026D01*
X14549770Y-37157677D01*
X14549761Y-37157681D01*
X14394092Y-37261698D01*
X14394088Y-37261701D01*
X14261701Y-37394088D01*
X14261698Y-37394092D01*
X14157681Y-37549761D01*
X14157677Y-37549770D01*
X14086026Y-37722750D01*
X14049500Y-37906381D01*
X10500500Y-37906381D01*
X10500500Y-36086532D01*
X37559500Y-36086532D01*
X37559500Y-36293467D01*
X37599869Y-36496418D01*
X37679058Y-36687597D01*
X37794020Y-36859651D01*
X37794023Y-36859655D01*
X37940345Y-37005977D01*
X38112402Y-37120941D01*
X38303580Y-37200130D01*
X38506535Y-37240500D01*
X38506536Y-37240500D01*
X38713464Y-37240500D01*
X38713465Y-37240500D01*
X38916420Y-37200130D01*
X39107598Y-37120941D01*
X39279655Y-37005977D01*
X39425977Y-36859655D01*
X39540941Y-36687598D01*
X39620130Y-36496420D01*
X39660500Y-36293465D01*
X39660500Y-36086535D01*
X39660499Y-36086532D01*
X55339500Y-36086532D01*
X55339500Y-36293467D01*
X55379869Y-36496418D01*
X55459058Y-36687597D01*
X55574020Y-36859651D01*
X55574023Y-36859655D01*
X55720345Y-37005977D01*
X55892402Y-37120941D01*
X56083580Y-37200130D01*
X56286535Y-37240500D01*
X56286536Y-37240500D01*
X56493464Y-37240500D01*
X56493465Y-37240500D01*
X56696420Y-37200130D01*
X56887598Y-37120941D01*
X57059655Y-37005977D01*
X57100607Y-36965025D01*
X67449500Y-36965025D01*
X67449500Y-37109975D01*
X67462282Y-37157677D01*
X67487017Y-37249989D01*
X67559487Y-37375510D01*
X67559489Y-37375512D01*
X67559491Y-37375515D01*
X67661985Y-37478009D01*
X67661987Y-37478010D01*
X67661989Y-37478012D01*
X67787511Y-37550482D01*
X67787512Y-37550482D01*
X67787515Y-37550484D01*
X67927525Y-37588000D01*
X67927526Y-37588000D01*
X68072474Y-37588000D01*
X68072475Y-37588000D01*
X68212485Y-37550484D01*
X68212487Y-37550482D01*
X68212489Y-37550482D01*
X68338010Y-37478012D01*
X68338010Y-37478011D01*
X68338015Y-37478009D01*
X68440509Y-37375515D01*
X68506220Y-37261701D01*
X68512982Y-37249989D01*
X68512982Y-37249987D01*
X68512984Y-37249985D01*
X68550500Y-37109975D01*
X68550500Y-36965025D01*
X68512984Y-36825015D01*
X68512982Y-36825012D01*
X68512982Y-36825010D01*
X68440512Y-36699489D01*
X68440510Y-36699487D01*
X68440509Y-36699485D01*
X68338015Y-36596991D01*
X68338012Y-36596989D01*
X68338010Y-36596987D01*
X68212488Y-36524517D01*
X68212489Y-36524517D01*
X68182896Y-36516587D01*
X68072475Y-36487000D01*
X67927525Y-36487000D01*
X67865790Y-36503541D01*
X67787510Y-36524517D01*
X67661989Y-36596987D01*
X67559487Y-36699489D01*
X67487017Y-36825010D01*
X67453392Y-36950499D01*
X67449500Y-36965025D01*
X57100607Y-36965025D01*
X57205977Y-36859655D01*
X57320941Y-36687598D01*
X57400130Y-36496420D01*
X57440500Y-36293465D01*
X57440500Y-36086535D01*
X57404665Y-35906381D01*
X74049500Y-35906381D01*
X74049500Y-36093618D01*
X74086026Y-36277249D01*
X74157677Y-36450229D01*
X74157681Y-36450238D01*
X74207314Y-36524517D01*
X74261698Y-36605908D01*
X74394092Y-36738302D01*
X74460463Y-36782649D01*
X74549761Y-36842318D01*
X74549767Y-36842320D01*
X74549769Y-36842322D01*
X74722749Y-36913973D01*
X74906384Y-36950500D01*
X74906385Y-36950500D01*
X75093615Y-36950500D01*
X75093616Y-36950500D01*
X75277251Y-36913973D01*
X75450231Y-36842322D01*
X75450234Y-36842319D01*
X75450238Y-36842318D01*
X75495187Y-36812282D01*
X75605908Y-36738302D01*
X75738302Y-36605908D01*
X75817754Y-36487000D01*
X75842318Y-36450238D01*
X75842319Y-36450234D01*
X75842322Y-36450231D01*
X75913973Y-36277251D01*
X75950500Y-36093616D01*
X75950500Y-35906384D01*
X75950499Y-35906381D01*
X79049500Y-35906381D01*
X79049500Y-36093618D01*
X79086026Y-36277249D01*
X79157677Y-36450229D01*
X79157681Y-36450238D01*
X79207314Y-36524517D01*
X79261698Y-36605908D01*
X79394092Y-36738302D01*
X79460463Y-36782649D01*
X79549761Y-36842318D01*
X79549767Y-36842320D01*
X79549769Y-36842322D01*
X79722749Y-36913973D01*
X79906384Y-36950500D01*
X79906385Y-36950500D01*
X80093615Y-36950500D01*
X80093616Y-36950500D01*
X80277251Y-36913973D01*
X80450231Y-36842322D01*
X80450234Y-36842319D01*
X80450238Y-36842318D01*
X80495187Y-36812282D01*
X80605908Y-36738302D01*
X80738302Y-36605908D01*
X80817754Y-36487000D01*
X80842318Y-36450238D01*
X80842319Y-36450234D01*
X80842322Y-36450231D01*
X80913973Y-36277251D01*
X80950500Y-36093616D01*
X80950500Y-35906384D01*
X80913973Y-35722749D01*
X80842322Y-35549769D01*
X80842320Y-35549767D01*
X80842318Y-35549761D01*
X80782649Y-35460463D01*
X80738302Y-35394092D01*
X80605908Y-35261698D01*
X80561559Y-35232065D01*
X80450238Y-35157681D01*
X80450229Y-35157677D01*
X80277249Y-35086026D01*
X80093618Y-35049500D01*
X80093616Y-35049500D01*
X79906384Y-35049500D01*
X79906381Y-35049500D01*
X79722750Y-35086026D01*
X79549770Y-35157677D01*
X79549761Y-35157681D01*
X79394092Y-35261698D01*
X79394088Y-35261701D01*
X79261701Y-35394088D01*
X79261698Y-35394092D01*
X79157681Y-35549761D01*
X79157677Y-35549770D01*
X79086026Y-35722750D01*
X79049500Y-35906381D01*
X75950499Y-35906381D01*
X75913973Y-35722749D01*
X75842322Y-35549769D01*
X75842320Y-35549767D01*
X75842318Y-35549761D01*
X75782649Y-35460463D01*
X75738302Y-35394092D01*
X75605908Y-35261698D01*
X75561559Y-35232065D01*
X75450238Y-35157681D01*
X75450229Y-35157677D01*
X75277249Y-35086026D01*
X75093618Y-35049500D01*
X75093616Y-35049500D01*
X74906384Y-35049500D01*
X74906381Y-35049500D01*
X74722750Y-35086026D01*
X74549770Y-35157677D01*
X74549761Y-35157681D01*
X74394092Y-35261698D01*
X74394088Y-35261701D01*
X74261701Y-35394088D01*
X74261698Y-35394092D01*
X74157681Y-35549761D01*
X74157677Y-35549770D01*
X74086026Y-35722750D01*
X74049500Y-35906381D01*
X57404665Y-35906381D01*
X57400130Y-35883580D01*
X57320941Y-35692402D01*
X57205977Y-35520345D01*
X57059655Y-35374023D01*
X57059651Y-35374020D01*
X56887597Y-35259058D01*
X56696418Y-35179869D01*
X56493467Y-35139500D01*
X56493465Y-35139500D01*
X56286535Y-35139500D01*
X56286532Y-35139500D01*
X56083581Y-35179869D01*
X55892402Y-35259058D01*
X55720348Y-35374020D01*
X55574020Y-35520348D01*
X55459058Y-35692402D01*
X55379869Y-35883581D01*
X55339500Y-36086532D01*
X39660499Y-36086532D01*
X39620130Y-35883580D01*
X39540941Y-35692402D01*
X39425977Y-35520345D01*
X39279655Y-35374023D01*
X39279651Y-35374020D01*
X39107597Y-35259058D01*
X38916418Y-35179869D01*
X38713467Y-35139500D01*
X38713465Y-35139500D01*
X38506535Y-35139500D01*
X38506532Y-35139500D01*
X38303581Y-35179869D01*
X38112402Y-35259058D01*
X37940348Y-35374020D01*
X37794020Y-35520348D01*
X37679058Y-35692402D01*
X37599869Y-35883581D01*
X37559500Y-36086532D01*
X10500500Y-36086532D01*
X10500500Y-33571199D01*
X37554500Y-33571199D01*
X37554500Y-33728800D01*
X37559408Y-33778634D01*
X37559409Y-33778638D01*
X37590152Y-33933196D01*
X37602235Y-33973027D01*
X37604694Y-33981134D01*
X37664996Y-34126715D01*
X37688609Y-34170892D01*
X37688612Y-34170897D01*
X37747369Y-34258833D01*
X37776158Y-34301918D01*
X37807933Y-34340636D01*
X37919364Y-34452067D01*
X37958082Y-34483842D01*
X38044250Y-34541418D01*
X38089102Y-34571387D01*
X38089107Y-34571390D01*
X38089110Y-34571392D01*
X38133282Y-34595002D01*
X38133284Y-34595003D01*
X38278865Y-34655305D01*
X38278867Y-34655305D01*
X38278873Y-34655308D01*
X38326804Y-34669848D01*
X38481362Y-34700591D01*
X38487592Y-34701204D01*
X38531200Y-34705500D01*
X38531207Y-34705500D01*
X39249781Y-34705500D01*
X39249782Y-34705500D01*
X39347556Y-34686052D01*
X39421065Y-34655604D01*
X39421067Y-34655603D01*
X39503957Y-34600218D01*
X39560219Y-34543956D01*
X39615604Y-34461065D01*
X39646052Y-34387556D01*
X39665500Y-34289782D01*
X39665500Y-33010218D01*
X39665499Y-33010215D01*
X55334500Y-33010215D01*
X55334500Y-34289784D01*
X55353948Y-34387555D01*
X55353948Y-34387557D01*
X55384395Y-34461063D01*
X55384394Y-34461063D01*
X55439779Y-34543952D01*
X55439782Y-34543957D01*
X55496044Y-34600219D01*
X55496047Y-34600221D01*
X55578930Y-34655601D01*
X55578932Y-34655602D01*
X55578935Y-34655604D01*
X55652444Y-34686052D01*
X55750218Y-34705500D01*
X55750219Y-34705500D01*
X56468800Y-34705500D01*
X56500512Y-34702376D01*
X56518638Y-34700591D01*
X56673196Y-34669848D01*
X56721127Y-34655308D01*
X56866718Y-34595002D01*
X56910890Y-34571392D01*
X57041918Y-34483842D01*
X57080636Y-34452067D01*
X57192067Y-34340636D01*
X57223842Y-34301918D01*
X57311392Y-34170890D01*
X57335002Y-34126718D01*
X57395308Y-33981127D01*
X57409848Y-33933196D01*
X57440591Y-33778638D01*
X57442376Y-33760512D01*
X57445500Y-33728800D01*
X57445500Y-33571199D01*
X57440591Y-33521365D01*
X57440591Y-33521362D01*
X57409848Y-33366804D01*
X57395308Y-33318873D01*
X57335002Y-33173282D01*
X57311392Y-33129110D01*
X57223842Y-32998082D01*
X57192067Y-32959364D01*
X57101583Y-32868880D01*
X67999500Y-32868880D01*
X67999500Y-33131120D01*
X68033730Y-33391116D01*
X68068630Y-33521365D01*
X68101600Y-33644411D01*
X68101604Y-33644424D01*
X68201953Y-33886689D01*
X68201955Y-33886693D01*
X68201957Y-33886697D01*
X68333076Y-34113803D01*
X68492718Y-34321851D01*
X68678149Y-34507282D01*
X68886197Y-34666924D01*
X69113303Y-34798043D01*
X69355581Y-34898398D01*
X69608884Y-34966270D01*
X69868880Y-35000500D01*
X69868881Y-35000500D01*
X70131119Y-35000500D01*
X70131120Y-35000500D01*
X70391116Y-34966270D01*
X70644419Y-34898398D01*
X70886697Y-34798043D01*
X71113803Y-34666924D01*
X71321851Y-34507282D01*
X71507282Y-34321851D01*
X71666924Y-34113803D01*
X71798043Y-33886697D01*
X71898398Y-33644419D01*
X71966270Y-33391116D01*
X72000500Y-33131120D01*
X72000500Y-32868880D01*
X71966270Y-32608884D01*
X71898398Y-32355581D01*
X71798043Y-32113303D01*
X71666924Y-31886197D01*
X71507282Y-31678149D01*
X71321851Y-31492718D01*
X71113803Y-31333076D01*
X71113804Y-31333076D01*
X71113802Y-31333075D01*
X71021630Y-31279860D01*
X70886697Y-31201957D01*
X70886693Y-31201955D01*
X70886689Y-31201953D01*
X70644424Y-31101604D01*
X70644423Y-31101603D01*
X70644419Y-31101602D01*
X70391116Y-31033730D01*
X70391111Y-31033729D01*
X70391110Y-31033729D01*
X70131120Y-30999500D01*
X69868880Y-30999500D01*
X69868879Y-30999500D01*
X69608889Y-31033729D01*
X69608886Y-31033729D01*
X69608884Y-31033730D01*
X69423464Y-31083412D01*
X69355588Y-31101600D01*
X69355575Y-31101604D01*
X69113310Y-31201953D01*
X68886197Y-31333075D01*
X68678152Y-31492715D01*
X68492715Y-31678152D01*
X68333075Y-31886197D01*
X68201953Y-32113310D01*
X68101604Y-32355575D01*
X68101600Y-32355588D01*
X68033729Y-32608889D01*
X68014355Y-32756046D01*
X67999500Y-32868880D01*
X57101583Y-32868880D01*
X57080636Y-32847933D01*
X57041918Y-32816158D01*
X56998833Y-32787369D01*
X56910897Y-32728612D01*
X56910892Y-32728609D01*
X56866715Y-32704996D01*
X56721134Y-32644694D01*
X56713027Y-32642235D01*
X56673196Y-32630152D01*
X56518638Y-32599409D01*
X56518636Y-32599408D01*
X56468800Y-32594500D01*
X56468793Y-32594500D01*
X55750218Y-32594500D01*
X55750215Y-32594500D01*
X55652444Y-32613948D01*
X55652442Y-32613948D01*
X55578936Y-32644395D01*
X55496046Y-32699779D01*
X55439778Y-32756047D01*
X55384398Y-32838930D01*
X55384393Y-32838940D01*
X55353948Y-32912442D01*
X55353948Y-32912444D01*
X55334500Y-33010215D01*
X39665499Y-33010215D01*
X39646052Y-32912444D01*
X39615604Y-32838936D01*
X39615605Y-32838936D01*
X39560220Y-32756046D01*
X39560218Y-32756043D01*
X39503956Y-32699781D01*
X39503952Y-32699778D01*
X39421069Y-32644398D01*
X39421059Y-32644393D01*
X39347556Y-32613948D01*
X39249784Y-32594500D01*
X39249782Y-32594500D01*
X38531207Y-32594500D01*
X38531200Y-32594500D01*
X38481365Y-32599408D01*
X38326813Y-32630150D01*
X38326808Y-32630151D01*
X38326804Y-32630152D01*
X38306888Y-32636193D01*
X38278865Y-32644694D01*
X38133284Y-32704996D01*
X38089107Y-32728609D01*
X38089102Y-32728612D01*
X37958080Y-32816159D01*
X37919369Y-32847928D01*
X37807928Y-32959369D01*
X37776159Y-32998080D01*
X37688612Y-33129102D01*
X37688609Y-33129107D01*
X37664996Y-33173284D01*
X37604694Y-33318865D01*
X37590152Y-33366805D01*
X37590150Y-33366813D01*
X37559408Y-33521365D01*
X37554500Y-33571199D01*
X10500500Y-33571199D01*
X10500500Y-29868879D01*
X17999500Y-29868879D01*
X17999500Y-29868880D01*
X17999500Y-30131120D01*
X18033730Y-30391116D01*
X18046921Y-30440345D01*
X18101600Y-30644411D01*
X18101604Y-30644424D01*
X18201953Y-30886689D01*
X18201955Y-30886693D01*
X18201957Y-30886697D01*
X18271143Y-31006532D01*
X18326031Y-31101602D01*
X18333076Y-31113803D01*
X18492718Y-31321851D01*
X18678149Y-31507282D01*
X18886197Y-31666924D01*
X19113303Y-31798043D01*
X19355581Y-31898398D01*
X19608884Y-31966270D01*
X19868880Y-32000500D01*
X19868881Y-32000500D01*
X20131119Y-32000500D01*
X20131120Y-32000500D01*
X20391116Y-31966270D01*
X20644419Y-31898398D01*
X20886697Y-31798043D01*
X21113803Y-31666924D01*
X21321851Y-31507282D01*
X21507282Y-31321851D01*
X21666924Y-31113803D01*
X21728857Y-31006532D01*
X37559500Y-31006532D01*
X37559500Y-31213467D01*
X37599869Y-31416418D01*
X37679058Y-31607597D01*
X37679059Y-31607598D01*
X37794023Y-31779655D01*
X37940345Y-31925977D01*
X38112402Y-32040941D01*
X38303580Y-32120130D01*
X38506535Y-32160500D01*
X38506536Y-32160500D01*
X38713464Y-32160500D01*
X38713465Y-32160500D01*
X38916420Y-32120130D01*
X39107598Y-32040941D01*
X39279655Y-31925977D01*
X39425977Y-31779655D01*
X39540941Y-31607598D01*
X39620130Y-31416420D01*
X39660500Y-31213465D01*
X39660500Y-31006535D01*
X39660499Y-31006532D01*
X55339500Y-31006532D01*
X55339500Y-31213467D01*
X55379869Y-31416418D01*
X55459058Y-31607597D01*
X55459059Y-31607598D01*
X55574023Y-31779655D01*
X55720345Y-31925977D01*
X55892402Y-32040941D01*
X56083580Y-32120130D01*
X56286535Y-32160500D01*
X56286536Y-32160500D01*
X56493464Y-32160500D01*
X56493465Y-32160500D01*
X56696420Y-32120130D01*
X56887598Y-32040941D01*
X57059655Y-31925977D01*
X57205977Y-31779655D01*
X57320941Y-31607598D01*
X57400130Y-31416420D01*
X57440500Y-31213465D01*
X57440500Y-31006535D01*
X57400130Y-30803580D01*
X57320941Y-30612402D01*
X57205977Y-30440345D01*
X57059655Y-30294023D01*
X56887598Y-30179059D01*
X56887599Y-30179059D01*
X56887597Y-30179058D01*
X56696418Y-30099869D01*
X56493467Y-30059500D01*
X56493465Y-30059500D01*
X56286535Y-30059500D01*
X56286532Y-30059500D01*
X56083581Y-30099869D01*
X55892402Y-30179058D01*
X55720348Y-30294020D01*
X55574020Y-30440348D01*
X55459058Y-30612402D01*
X55379869Y-30803581D01*
X55339500Y-31006532D01*
X39660499Y-31006532D01*
X39620130Y-30803580D01*
X39540941Y-30612402D01*
X39425977Y-30440345D01*
X39279655Y-30294023D01*
X39107598Y-30179059D01*
X39107599Y-30179059D01*
X39107597Y-30179058D01*
X38916418Y-30099869D01*
X38713467Y-30059500D01*
X38713465Y-30059500D01*
X38506535Y-30059500D01*
X38506532Y-30059500D01*
X38303581Y-30099869D01*
X38112402Y-30179058D01*
X37940348Y-30294020D01*
X37794020Y-30440348D01*
X37679058Y-30612402D01*
X37599869Y-30803581D01*
X37559500Y-31006532D01*
X21728857Y-31006532D01*
X21798043Y-30886697D01*
X21898398Y-30644419D01*
X21966270Y-30391116D01*
X22000500Y-30131120D01*
X22000500Y-29868880D01*
X21966270Y-29608884D01*
X21898398Y-29355581D01*
X21798043Y-29113303D01*
X21666924Y-28886197D01*
X21507282Y-28678149D01*
X21321851Y-28492718D01*
X21287725Y-28466532D01*
X37559500Y-28466532D01*
X37559500Y-28673467D01*
X37599869Y-28876418D01*
X37679058Y-29067597D01*
X37794020Y-29239651D01*
X37794023Y-29239655D01*
X37940345Y-29385977D01*
X38112402Y-29500941D01*
X38303580Y-29580130D01*
X38506535Y-29620500D01*
X38506536Y-29620500D01*
X38713464Y-29620500D01*
X38713465Y-29620500D01*
X38916420Y-29580130D01*
X39107598Y-29500941D01*
X39279655Y-29385977D01*
X39425977Y-29239655D01*
X39540941Y-29067598D01*
X39620130Y-28876420D01*
X39660500Y-28673465D01*
X39660500Y-28466535D01*
X39660499Y-28466532D01*
X55339500Y-28466532D01*
X55339500Y-28673467D01*
X55379869Y-28876418D01*
X55459058Y-29067597D01*
X55574020Y-29239651D01*
X55574023Y-29239655D01*
X55720345Y-29385977D01*
X55892402Y-29500941D01*
X56083580Y-29580130D01*
X56286535Y-29620500D01*
X56286536Y-29620500D01*
X56493464Y-29620500D01*
X56493465Y-29620500D01*
X56696420Y-29580130D01*
X56887598Y-29500941D01*
X57059655Y-29385977D01*
X57205977Y-29239655D01*
X57320941Y-29067598D01*
X57400130Y-28876420D01*
X57440500Y-28673465D01*
X57440500Y-28466535D01*
X57400130Y-28263580D01*
X57320941Y-28072402D01*
X57205977Y-27900345D01*
X57059655Y-27754023D01*
X57036127Y-27738302D01*
X56887597Y-27639058D01*
X56696418Y-27559869D01*
X56493467Y-27519500D01*
X56493465Y-27519500D01*
X56286535Y-27519500D01*
X56286532Y-27519500D01*
X56083581Y-27559869D01*
X55892402Y-27639058D01*
X55720348Y-27754020D01*
X55574020Y-27900348D01*
X55459058Y-28072402D01*
X55379869Y-28263581D01*
X55339500Y-28466532D01*
X39660499Y-28466532D01*
X39620130Y-28263580D01*
X39540941Y-28072402D01*
X39425977Y-27900345D01*
X39279655Y-27754023D01*
X39256127Y-27738302D01*
X39107597Y-27639058D01*
X38916418Y-27559869D01*
X38713467Y-27519500D01*
X38713465Y-27519500D01*
X38506535Y-27519500D01*
X38506532Y-27519500D01*
X38303581Y-27559869D01*
X38112402Y-27639058D01*
X37940348Y-27754020D01*
X37794020Y-27900348D01*
X37679058Y-28072402D01*
X37599869Y-28263581D01*
X37559500Y-28466532D01*
X21287725Y-28466532D01*
X21113803Y-28333076D01*
X21113804Y-28333076D01*
X21113802Y-28333075D01*
X20993432Y-28263580D01*
X20886697Y-28201957D01*
X20886693Y-28201955D01*
X20886689Y-28201953D01*
X20644424Y-28101604D01*
X20644423Y-28101603D01*
X20644419Y-28101602D01*
X20391116Y-28033730D01*
X20391111Y-28033729D01*
X20391110Y-28033729D01*
X20131120Y-27999500D01*
X19868880Y-27999500D01*
X19868879Y-27999500D01*
X19608889Y-28033729D01*
X19608886Y-28033729D01*
X19608884Y-28033730D01*
X19423464Y-28083412D01*
X19355588Y-28101600D01*
X19355575Y-28101604D01*
X19113310Y-28201953D01*
X18886197Y-28333075D01*
X18678152Y-28492715D01*
X18492715Y-28678152D01*
X18333075Y-28886197D01*
X18201953Y-29113310D01*
X18101604Y-29355575D01*
X18101600Y-29355588D01*
X18033729Y-29608889D01*
X17999500Y-29868879D01*
X10500500Y-29868879D01*
X10500500Y-26906381D01*
X14049500Y-26906381D01*
X14049500Y-27093618D01*
X14086026Y-27277249D01*
X14157677Y-27450229D01*
X14157681Y-27450238D01*
X14230936Y-27559869D01*
X14261698Y-27605908D01*
X14394092Y-27738302D01*
X14460463Y-27782649D01*
X14549761Y-27842318D01*
X14549767Y-27842320D01*
X14549769Y-27842322D01*
X14722749Y-27913973D01*
X14906384Y-27950500D01*
X14906385Y-27950500D01*
X15093615Y-27950500D01*
X15093616Y-27950500D01*
X15277251Y-27913973D01*
X15450231Y-27842322D01*
X15450234Y-27842319D01*
X15450238Y-27842318D01*
X15495187Y-27812282D01*
X15605908Y-27738302D01*
X15738302Y-27605908D01*
X15812282Y-27495187D01*
X15842318Y-27450238D01*
X15842319Y-27450234D01*
X15842322Y-27450231D01*
X15913973Y-27277251D01*
X15950500Y-27093616D01*
X15950500Y-26906384D01*
X15913973Y-26722749D01*
X15842322Y-26549769D01*
X15842320Y-26549767D01*
X15842318Y-26549761D01*
X15782649Y-26460463D01*
X15738302Y-26394092D01*
X15605908Y-26261698D01*
X15561559Y-26232065D01*
X15450238Y-26157681D01*
X15450229Y-26157677D01*
X15277249Y-26086026D01*
X15093618Y-26049500D01*
X15093616Y-26049500D01*
X14906384Y-26049500D01*
X14906381Y-26049500D01*
X14722750Y-26086026D01*
X14549770Y-26157677D01*
X14549761Y-26157681D01*
X14394092Y-26261698D01*
X14394088Y-26261701D01*
X14261701Y-26394088D01*
X14261698Y-26394092D01*
X14157681Y-26549761D01*
X14157677Y-26549770D01*
X14086026Y-26722750D01*
X14049500Y-26906381D01*
X10500500Y-26906381D01*
X10500500Y-25926532D01*
X37559500Y-25926532D01*
X37559500Y-26133467D01*
X37599869Y-26336418D01*
X37679058Y-26527597D01*
X37794020Y-26699651D01*
X37794023Y-26699655D01*
X37940345Y-26845977D01*
X38112402Y-26960941D01*
X38303580Y-27040130D01*
X38506535Y-27080500D01*
X38506536Y-27080500D01*
X38713464Y-27080500D01*
X38713465Y-27080500D01*
X38916420Y-27040130D01*
X39107598Y-26960941D01*
X39279655Y-26845977D01*
X39425977Y-26699655D01*
X39540941Y-26527598D01*
X39620130Y-26336420D01*
X39660500Y-26133465D01*
X39660500Y-25926535D01*
X39660499Y-25926532D01*
X55339500Y-25926532D01*
X55339500Y-26133467D01*
X55379869Y-26336418D01*
X55459058Y-26527597D01*
X55574020Y-26699651D01*
X55574023Y-26699655D01*
X55720345Y-26845977D01*
X55892402Y-26960941D01*
X56083580Y-27040130D01*
X56286535Y-27080500D01*
X56286536Y-27080500D01*
X56493464Y-27080500D01*
X56493465Y-27080500D01*
X56696420Y-27040130D01*
X56887598Y-26960941D01*
X57059655Y-26845977D01*
X57205977Y-26699655D01*
X57320941Y-26527598D01*
X57400130Y-26336420D01*
X57440500Y-26133465D01*
X57440500Y-25926535D01*
X57400130Y-25723580D01*
X57320941Y-25532402D01*
X57205977Y-25360345D01*
X57059655Y-25214023D01*
X56887598Y-25099059D01*
X56887599Y-25099059D01*
X56887597Y-25099058D01*
X56696418Y-25019869D01*
X56589578Y-24998618D01*
X56493467Y-24979500D01*
X56493465Y-24979500D01*
X56286535Y-24979500D01*
X56286532Y-24979500D01*
X56083581Y-25019869D01*
X55892402Y-25099058D01*
X55720348Y-25214020D01*
X55574020Y-25360348D01*
X55459058Y-25532402D01*
X55379869Y-25723581D01*
X55339500Y-25926532D01*
X39660499Y-25926532D01*
X39620130Y-25723580D01*
X39540941Y-25532402D01*
X39425977Y-25360345D01*
X39279655Y-25214023D01*
X39107598Y-25099059D01*
X39107599Y-25099059D01*
X39107597Y-25099058D01*
X38916418Y-25019869D01*
X38713467Y-24979500D01*
X38713465Y-24979500D01*
X38506535Y-24979500D01*
X38506532Y-24979500D01*
X38303581Y-25019869D01*
X38112402Y-25099058D01*
X37940348Y-25214020D01*
X37794020Y-25360348D01*
X37679058Y-25532402D01*
X37599869Y-25723581D01*
X37559500Y-25926532D01*
X10500500Y-25926532D01*
X10500500Y-24906381D01*
X74049500Y-24906381D01*
X74049500Y-25093618D01*
X74086026Y-25277249D01*
X74157677Y-25450229D01*
X74157681Y-25450238D01*
X74232065Y-25561559D01*
X74261698Y-25605908D01*
X74394092Y-25738302D01*
X74460463Y-25782649D01*
X74549761Y-25842318D01*
X74549767Y-25842320D01*
X74549769Y-25842322D01*
X74722749Y-25913973D01*
X74906384Y-25950500D01*
X74906385Y-25950500D01*
X75093615Y-25950500D01*
X75093616Y-25950500D01*
X75277251Y-25913973D01*
X75450231Y-25842322D01*
X75450234Y-25842319D01*
X75450238Y-25842318D01*
X75495187Y-25812282D01*
X75605908Y-25738302D01*
X75738302Y-25605908D01*
X75812282Y-25495187D01*
X75842318Y-25450238D01*
X75842319Y-25450234D01*
X75842322Y-25450231D01*
X75913973Y-25277251D01*
X75950500Y-25093616D01*
X75950500Y-24906384D01*
X75950499Y-24906381D01*
X79049500Y-24906381D01*
X79049500Y-25093618D01*
X79086026Y-25277249D01*
X79157677Y-25450229D01*
X79157681Y-25450238D01*
X79232065Y-25561559D01*
X79261698Y-25605908D01*
X79394092Y-25738302D01*
X79460463Y-25782649D01*
X79549761Y-25842318D01*
X79549767Y-25842320D01*
X79549769Y-25842322D01*
X79722749Y-25913973D01*
X79906384Y-25950500D01*
X79906385Y-25950500D01*
X80093615Y-25950500D01*
X80093616Y-25950500D01*
X80277251Y-25913973D01*
X80450231Y-25842322D01*
X80450234Y-25842319D01*
X80450238Y-25842318D01*
X80495187Y-25812282D01*
X80605908Y-25738302D01*
X80738302Y-25605908D01*
X80812282Y-25495187D01*
X80842318Y-25450238D01*
X80842319Y-25450234D01*
X80842322Y-25450231D01*
X80913973Y-25277251D01*
X80950500Y-25093616D01*
X80950500Y-24906384D01*
X80913973Y-24722749D01*
X80842322Y-24549769D01*
X80842320Y-24549767D01*
X80842318Y-24549761D01*
X80782649Y-24460463D01*
X80738302Y-24394092D01*
X80605908Y-24261698D01*
X80561559Y-24232065D01*
X80450238Y-24157681D01*
X80450229Y-24157677D01*
X80277249Y-24086026D01*
X80093618Y-24049500D01*
X80093616Y-24049500D01*
X79906384Y-24049500D01*
X79906381Y-24049500D01*
X79722750Y-24086026D01*
X79549770Y-24157677D01*
X79549761Y-24157681D01*
X79394092Y-24261698D01*
X79394088Y-24261701D01*
X79261701Y-24394088D01*
X79261698Y-24394092D01*
X79157681Y-24549761D01*
X79157677Y-24549770D01*
X79086026Y-24722750D01*
X79049500Y-24906381D01*
X75950499Y-24906381D01*
X75913973Y-24722749D01*
X75842322Y-24549769D01*
X75842320Y-24549767D01*
X75842318Y-24549761D01*
X75782649Y-24460463D01*
X75738302Y-24394092D01*
X75605908Y-24261698D01*
X75561559Y-24232065D01*
X75450238Y-24157681D01*
X75450229Y-24157677D01*
X75277249Y-24086026D01*
X75093618Y-24049500D01*
X75093616Y-24049500D01*
X74906384Y-24049500D01*
X74906381Y-24049500D01*
X74722750Y-24086026D01*
X74549770Y-24157677D01*
X74549761Y-24157681D01*
X74394092Y-24261698D01*
X74394088Y-24261701D01*
X74261701Y-24394088D01*
X74261698Y-24394092D01*
X74157681Y-24549761D01*
X74157677Y-24549770D01*
X74086026Y-24722750D01*
X74049500Y-24906381D01*
X10500500Y-24906381D01*
X10500500Y-23386532D01*
X37559500Y-23386532D01*
X37559500Y-23593467D01*
X37599869Y-23796418D01*
X37679058Y-23987597D01*
X37792701Y-24157677D01*
X37794023Y-24159655D01*
X37940345Y-24305977D01*
X38112402Y-24420941D01*
X38303580Y-24500130D01*
X38506535Y-24540500D01*
X38506536Y-24540500D01*
X38713464Y-24540500D01*
X38713465Y-24540500D01*
X38916420Y-24500130D01*
X39107598Y-24420941D01*
X39279655Y-24305977D01*
X39425977Y-24159655D01*
X39540941Y-23987598D01*
X39620130Y-23796420D01*
X39660500Y-23593465D01*
X39660500Y-23386535D01*
X39660499Y-23386532D01*
X55339500Y-23386532D01*
X55339500Y-23593467D01*
X55379869Y-23796418D01*
X55459058Y-23987597D01*
X55572701Y-24157677D01*
X55574023Y-24159655D01*
X55720345Y-24305977D01*
X55892402Y-24420941D01*
X56083580Y-24500130D01*
X56286535Y-24540500D01*
X56286536Y-24540500D01*
X56493464Y-24540500D01*
X56493465Y-24540500D01*
X56696420Y-24500130D01*
X56887598Y-24420941D01*
X57059655Y-24305977D01*
X57205977Y-24159655D01*
X57320941Y-23987598D01*
X57400130Y-23796420D01*
X57440500Y-23593465D01*
X57440500Y-23386535D01*
X57400130Y-23183580D01*
X57320941Y-22992402D01*
X57205977Y-22820345D01*
X57059655Y-22674023D01*
X56887598Y-22559059D01*
X56887599Y-22559059D01*
X56887597Y-22559058D01*
X56696418Y-22479869D01*
X56493467Y-22439500D01*
X56493465Y-22439500D01*
X56286535Y-22439500D01*
X56286532Y-22439500D01*
X56083581Y-22479869D01*
X55892402Y-22559058D01*
X55720348Y-22674020D01*
X55574020Y-22820348D01*
X55459058Y-22992402D01*
X55379869Y-23183581D01*
X55339500Y-23386532D01*
X39660499Y-23386532D01*
X39620130Y-23183580D01*
X39540941Y-22992402D01*
X39425977Y-22820345D01*
X39279655Y-22674023D01*
X39107598Y-22559059D01*
X39107599Y-22559059D01*
X39107597Y-22559058D01*
X38916418Y-22479869D01*
X38713467Y-22439500D01*
X38713465Y-22439500D01*
X38506535Y-22439500D01*
X38506532Y-22439500D01*
X38303581Y-22479869D01*
X38112402Y-22559058D01*
X37940348Y-22674020D01*
X37794020Y-22820348D01*
X37679058Y-22992402D01*
X37599869Y-23183581D01*
X37559500Y-23386532D01*
X10500500Y-23386532D01*
X10500500Y-19878710D01*
X18149500Y-19878710D01*
X18149500Y-20121289D01*
X18181161Y-20361781D01*
X18181161Y-20361786D01*
X18243944Y-20596092D01*
X18243948Y-20596105D01*
X18336772Y-20820204D01*
X18336774Y-20820208D01*
X18336776Y-20820212D01*
X18458064Y-21030289D01*
X18458066Y-21030292D01*
X18605729Y-21222731D01*
X18605731Y-21222733D01*
X18605735Y-21222738D01*
X18777262Y-21394265D01*
X18777266Y-21394268D01*
X18777268Y-21394270D01*
X18877122Y-21470890D01*
X18969711Y-21541936D01*
X19179788Y-21663224D01*
X19403900Y-21756054D01*
X19638211Y-21818838D01*
X19878712Y-21850500D01*
X19878713Y-21850500D01*
X20121287Y-21850500D01*
X20121288Y-21850500D01*
X20361789Y-21818838D01*
X20596100Y-21756054D01*
X20820212Y-21663224D01*
X21030289Y-21541936D01*
X21222738Y-21394265D01*
X21394265Y-21222738D01*
X21541936Y-21030289D01*
X21633787Y-20871199D01*
X37554500Y-20871199D01*
X37554500Y-21028800D01*
X37559408Y-21078634D01*
X37559409Y-21078638D01*
X37590152Y-21233196D01*
X37602235Y-21273027D01*
X37604694Y-21281134D01*
X37664996Y-21426715D01*
X37688609Y-21470892D01*
X37688612Y-21470897D01*
X37736077Y-21541933D01*
X37776158Y-21601918D01*
X37807933Y-21640636D01*
X37919364Y-21752067D01*
X37958082Y-21783842D01*
X38044250Y-21841418D01*
X38089102Y-21871387D01*
X38089107Y-21871390D01*
X38089110Y-21871392D01*
X38133282Y-21895002D01*
X38133284Y-21895003D01*
X38278865Y-21955305D01*
X38278867Y-21955305D01*
X38278873Y-21955308D01*
X38326804Y-21969848D01*
X38481362Y-22000591D01*
X38487592Y-22001204D01*
X38531200Y-22005500D01*
X38531207Y-22005500D01*
X39249781Y-22005500D01*
X39249782Y-22005500D01*
X39347556Y-21986052D01*
X39421065Y-21955604D01*
X39421067Y-21955603D01*
X39503957Y-21900218D01*
X39560219Y-21843956D01*
X39615604Y-21761065D01*
X39646052Y-21687556D01*
X39665500Y-21589782D01*
X39665500Y-20310218D01*
X39665499Y-20310215D01*
X55334500Y-20310215D01*
X55334500Y-21589784D01*
X55353948Y-21687555D01*
X55353948Y-21687557D01*
X55384395Y-21761063D01*
X55384394Y-21761063D01*
X55439779Y-21843952D01*
X55439782Y-21843957D01*
X55496044Y-21900219D01*
X55496047Y-21900221D01*
X55578930Y-21955601D01*
X55578932Y-21955602D01*
X55578935Y-21955604D01*
X55652444Y-21986052D01*
X55750218Y-22005500D01*
X55750219Y-22005500D01*
X56468800Y-22005500D01*
X56500512Y-22002376D01*
X56518638Y-22000591D01*
X56673196Y-21969848D01*
X56721127Y-21955308D01*
X56866718Y-21895002D01*
X56910890Y-21871392D01*
X57041918Y-21783842D01*
X57080636Y-21752067D01*
X57192067Y-21640636D01*
X57223842Y-21601918D01*
X57311392Y-21470890D01*
X57335002Y-21426718D01*
X57395308Y-21281127D01*
X57409848Y-21233196D01*
X57440591Y-21078638D01*
X57442376Y-21060512D01*
X57445500Y-21028800D01*
X57445500Y-20871199D01*
X57440591Y-20821365D01*
X57440591Y-20821362D01*
X57409848Y-20666804D01*
X57395308Y-20618873D01*
X57335002Y-20473282D01*
X57311392Y-20429110D01*
X57223842Y-20298082D01*
X57192067Y-20259364D01*
X57080636Y-20147933D01*
X57041918Y-20116158D01*
X56998833Y-20087369D01*
X56910897Y-20028612D01*
X56910892Y-20028609D01*
X56866715Y-20004996D01*
X56774826Y-19966935D01*
X56721134Y-19944694D01*
X56713027Y-19942235D01*
X56673196Y-19930152D01*
X56518638Y-19899409D01*
X56518636Y-19899408D01*
X56468800Y-19894500D01*
X56468793Y-19894500D01*
X55750218Y-19894500D01*
X55750215Y-19894500D01*
X55652444Y-19913948D01*
X55652442Y-19913948D01*
X55578936Y-19944395D01*
X55496046Y-19999779D01*
X55439778Y-20056047D01*
X55384398Y-20138930D01*
X55384393Y-20138940D01*
X55353948Y-20212442D01*
X55353948Y-20212444D01*
X55334500Y-20310215D01*
X39665499Y-20310215D01*
X39646052Y-20212444D01*
X39615604Y-20138936D01*
X39615605Y-20138936D01*
X39560220Y-20056046D01*
X39560218Y-20056043D01*
X39503956Y-19999781D01*
X39454798Y-19966935D01*
X39421069Y-19944398D01*
X39421059Y-19944393D01*
X39347556Y-19913948D01*
X39249784Y-19894500D01*
X39249782Y-19894500D01*
X38531207Y-19894500D01*
X38531200Y-19894500D01*
X38481365Y-19899408D01*
X38326813Y-19930150D01*
X38326808Y-19930151D01*
X38326804Y-19930152D01*
X38306888Y-19936193D01*
X38278865Y-19944694D01*
X38133284Y-20004996D01*
X38089107Y-20028609D01*
X38089102Y-20028612D01*
X37958080Y-20116159D01*
X37919369Y-20147928D01*
X37807928Y-20259369D01*
X37776159Y-20298080D01*
X37688612Y-20429102D01*
X37688609Y-20429107D01*
X37664996Y-20473284D01*
X37604694Y-20618865D01*
X37590152Y-20666805D01*
X37590150Y-20666813D01*
X37559408Y-20821365D01*
X37554500Y-20871199D01*
X21633787Y-20871199D01*
X21663224Y-20820212D01*
X21756054Y-20596100D01*
X21818838Y-20361789D01*
X21850500Y-20121288D01*
X21850500Y-19878712D01*
X21818838Y-19638211D01*
X21756054Y-19403900D01*
X21663224Y-19179788D01*
X21541936Y-18969711D01*
X21494275Y-18907598D01*
X21394270Y-18777268D01*
X21394268Y-18777266D01*
X21394265Y-18777262D01*
X21222738Y-18605735D01*
X21222733Y-18605731D01*
X21222731Y-18605729D01*
X21030292Y-18458066D01*
X21030289Y-18458064D01*
X20907907Y-18387406D01*
X20907906Y-18387405D01*
X20820213Y-18336776D01*
X20820208Y-18336773D01*
X20747199Y-18306532D01*
X37559500Y-18306532D01*
X37559500Y-18513467D01*
X37599869Y-18716418D01*
X37679058Y-18907597D01*
X37720561Y-18969711D01*
X37794023Y-19079655D01*
X37940345Y-19225977D01*
X38112402Y-19340941D01*
X38303580Y-19420130D01*
X38506535Y-19460500D01*
X38506536Y-19460500D01*
X38713464Y-19460500D01*
X38713465Y-19460500D01*
X38916420Y-19420130D01*
X39107598Y-19340941D01*
X39279655Y-19225977D01*
X39425977Y-19079655D01*
X39520973Y-18937482D01*
X43899500Y-18937482D01*
X43899500Y-19122517D01*
X43928444Y-19305261D01*
X43978883Y-19460499D01*
X43985621Y-19481235D01*
X44069622Y-19646096D01*
X44178379Y-19795787D01*
X44309213Y-19926621D01*
X44458904Y-20035378D01*
X44623765Y-20119379D01*
X44799736Y-20176555D01*
X44872836Y-20188133D01*
X44982483Y-20205500D01*
X44982486Y-20205500D01*
X45167517Y-20205500D01*
X45258889Y-20191027D01*
X45350264Y-20176555D01*
X45526235Y-20119379D01*
X45691096Y-20035378D01*
X45840787Y-19926621D01*
X45971621Y-19795787D01*
X46080378Y-19646096D01*
X46164379Y-19481235D01*
X46221555Y-19305264D01*
X46246197Y-19149684D01*
X46250500Y-19122517D01*
X46250500Y-18937482D01*
X48749500Y-18937482D01*
X48749500Y-19122517D01*
X48778444Y-19305261D01*
X48828883Y-19460499D01*
X48835621Y-19481235D01*
X48919622Y-19646096D01*
X49028379Y-19795787D01*
X49159213Y-19926621D01*
X49308904Y-20035378D01*
X49473765Y-20119379D01*
X49649736Y-20176555D01*
X49722836Y-20188133D01*
X49832483Y-20205500D01*
X49832486Y-20205500D01*
X50017517Y-20205500D01*
X50108889Y-20191027D01*
X50200264Y-20176555D01*
X50376235Y-20119379D01*
X50541096Y-20035378D01*
X50690787Y-19926621D01*
X50738698Y-19878710D01*
X73149500Y-19878710D01*
X73149500Y-20121289D01*
X73181161Y-20361781D01*
X73181161Y-20361786D01*
X73243944Y-20596092D01*
X73243948Y-20596105D01*
X73336772Y-20820204D01*
X73336774Y-20820208D01*
X73336776Y-20820212D01*
X73458064Y-21030289D01*
X73458066Y-21030292D01*
X73605729Y-21222731D01*
X73605731Y-21222733D01*
X73605735Y-21222738D01*
X73777262Y-21394265D01*
X73777266Y-21394268D01*
X73777268Y-21394270D01*
X73877122Y-21470890D01*
X73969711Y-21541936D01*
X74179788Y-21663224D01*
X74403900Y-21756054D01*
X74638211Y-21818838D01*
X74878712Y-21850500D01*
X74878713Y-21850500D01*
X75121287Y-21850500D01*
X75121288Y-21850500D01*
X75361789Y-21818838D01*
X75596100Y-21756054D01*
X75820212Y-21663224D01*
X76030289Y-21541936D01*
X76222738Y-21394265D01*
X76394265Y-21222738D01*
X76541936Y-21030289D01*
X76663224Y-20820212D01*
X76756054Y-20596100D01*
X76818838Y-20361789D01*
X76850500Y-20121288D01*
X76850500Y-19878712D01*
X76818838Y-19638211D01*
X76756054Y-19403900D01*
X76663224Y-19179788D01*
X76541936Y-18969711D01*
X76494275Y-18907598D01*
X76394270Y-18777268D01*
X76394268Y-18777266D01*
X76394265Y-18777262D01*
X76222738Y-18605735D01*
X76222733Y-18605731D01*
X76222731Y-18605729D01*
X76030292Y-18458066D01*
X76030289Y-18458064D01*
X75820212Y-18336776D01*
X75820208Y-18336774D01*
X75820204Y-18336772D01*
X75596105Y-18243948D01*
X75596104Y-18243947D01*
X75596100Y-18243946D01*
X75361789Y-18181162D01*
X75361786Y-18181161D01*
X75361784Y-18181161D01*
X75121289Y-18149500D01*
X75121288Y-18149500D01*
X74878712Y-18149500D01*
X74878710Y-18149500D01*
X74638218Y-18181161D01*
X74638213Y-18181161D01*
X74403907Y-18243944D01*
X74403894Y-18243948D01*
X74179795Y-18336772D01*
X73969707Y-18458066D01*
X73777268Y-18605729D01*
X73605729Y-18777268D01*
X73458066Y-18969707D01*
X73336772Y-19179795D01*
X73243948Y-19403894D01*
X73243944Y-19403907D01*
X73181161Y-19638213D01*
X73181161Y-19638218D01*
X73149500Y-19878710D01*
X50738698Y-19878710D01*
X50821621Y-19795787D01*
X50930378Y-19646096D01*
X51014379Y-19481235D01*
X51071555Y-19305264D01*
X51096197Y-19149684D01*
X51100500Y-19122517D01*
X51100500Y-18937482D01*
X51071555Y-18754738D01*
X51071555Y-18754736D01*
X51014379Y-18578765D01*
X50952879Y-18458064D01*
X50930379Y-18413905D01*
X50891114Y-18359862D01*
X50891113Y-18359859D01*
X50852368Y-18306532D01*
X55339500Y-18306532D01*
X55339500Y-18513467D01*
X55379869Y-18716418D01*
X55459058Y-18907597D01*
X55500561Y-18969711D01*
X55574023Y-19079655D01*
X55720345Y-19225977D01*
X55892402Y-19340941D01*
X56083580Y-19420130D01*
X56286535Y-19460500D01*
X56286536Y-19460500D01*
X56493464Y-19460500D01*
X56493465Y-19460500D01*
X56696420Y-19420130D01*
X56887598Y-19340941D01*
X57059655Y-19225977D01*
X57205977Y-19079655D01*
X57320941Y-18907598D01*
X57400130Y-18716420D01*
X57440500Y-18513465D01*
X57440500Y-18306535D01*
X57400130Y-18103580D01*
X57320941Y-17912402D01*
X57205977Y-17740345D01*
X57059655Y-17594023D01*
X56887598Y-17479059D01*
X56887596Y-17479058D01*
X56697524Y-17400327D01*
X61899500Y-17400327D01*
X61899500Y-19149672D01*
X61899501Y-19149684D01*
X61914033Y-19222736D01*
X61914035Y-19222742D01*
X61969397Y-19305599D01*
X61969399Y-19305601D01*
X62052260Y-19360966D01*
X62107808Y-19372015D01*
X62125315Y-19375498D01*
X62125320Y-19375498D01*
X62125326Y-19375500D01*
X62125327Y-19375500D01*
X63874673Y-19375500D01*
X63874674Y-19375500D01*
X63947740Y-19360966D01*
X64030601Y-19305601D01*
X64085966Y-19222740D01*
X64100500Y-19149674D01*
X64100500Y-17400326D01*
X64085966Y-17327260D01*
X64030601Y-17244399D01*
X64030599Y-17244397D01*
X63947742Y-17189035D01*
X63947740Y-17189034D01*
X63947737Y-17189033D01*
X63947736Y-17189033D01*
X63874684Y-17174501D01*
X63874674Y-17174500D01*
X62125326Y-17174500D01*
X62125325Y-17174500D01*
X62125315Y-17174501D01*
X62052263Y-17189033D01*
X62052257Y-17189035D01*
X61969400Y-17244397D01*
X61969397Y-17244400D01*
X61914035Y-17327257D01*
X61914033Y-17327263D01*
X61899501Y-17400315D01*
X61899500Y-17400327D01*
X56697524Y-17400327D01*
X56696418Y-17399869D01*
X56493467Y-17359500D01*
X56493465Y-17359500D01*
X56286535Y-17359500D01*
X56286532Y-17359500D01*
X56083581Y-17399869D01*
X55892402Y-17479058D01*
X55720348Y-17594020D01*
X55574020Y-17740348D01*
X55459058Y-17912402D01*
X55379869Y-18103581D01*
X55339500Y-18306532D01*
X50852368Y-18306532D01*
X50821625Y-18264218D01*
X50821623Y-18264216D01*
X50821621Y-18264213D01*
X50690787Y-18133379D01*
X50541096Y-18024622D01*
X50541095Y-18024621D01*
X50541093Y-18024620D01*
X50376233Y-17940620D01*
X50200261Y-17883444D01*
X50017517Y-17854500D01*
X50017514Y-17854500D01*
X49832486Y-17854500D01*
X49832483Y-17854500D01*
X49649738Y-17883444D01*
X49473766Y-17940620D01*
X49308906Y-18024620D01*
X49159214Y-18133378D01*
X49028378Y-18264214D01*
X48919620Y-18413906D01*
X48835620Y-18578766D01*
X48778444Y-18754738D01*
X48749500Y-18937482D01*
X46250500Y-18937482D01*
X46221555Y-18754738D01*
X46221555Y-18754736D01*
X46164379Y-18578765D01*
X46080378Y-18413904D01*
X45971621Y-18264213D01*
X45840787Y-18133379D01*
X45691096Y-18024622D01*
X45691095Y-18024621D01*
X45691093Y-18024620D01*
X45526233Y-17940620D01*
X45350261Y-17883444D01*
X45167517Y-17854500D01*
X45167514Y-17854500D01*
X44982486Y-17854500D01*
X44982483Y-17854500D01*
X44799738Y-17883444D01*
X44623766Y-17940620D01*
X44458906Y-18024620D01*
X44309214Y-18133378D01*
X44178378Y-18264214D01*
X44069620Y-18413906D01*
X43985620Y-18578766D01*
X43928444Y-18754738D01*
X43899500Y-18937482D01*
X39520973Y-18937482D01*
X39540941Y-18907598D01*
X39620130Y-18716420D01*
X39660500Y-18513465D01*
X39660500Y-18306535D01*
X39620130Y-18103580D01*
X39540941Y-17912402D01*
X39425977Y-17740345D01*
X39279655Y-17594023D01*
X39107598Y-17479059D01*
X39107599Y-17479059D01*
X39107597Y-17479058D01*
X38916418Y-17399869D01*
X38713467Y-17359500D01*
X38713465Y-17359500D01*
X38506535Y-17359500D01*
X38506532Y-17359500D01*
X38303581Y-17399869D01*
X38112402Y-17479058D01*
X37940348Y-17594020D01*
X37794020Y-17740348D01*
X37679058Y-17912402D01*
X37599869Y-18103581D01*
X37559500Y-18306532D01*
X20747199Y-18306532D01*
X20596105Y-18243948D01*
X20596104Y-18243947D01*
X20596100Y-18243946D01*
X20361789Y-18181162D01*
X20361786Y-18181161D01*
X20361784Y-18181161D01*
X20121289Y-18149500D01*
X20121288Y-18149500D01*
X19878712Y-18149500D01*
X19878710Y-18149500D01*
X19638218Y-18181161D01*
X19638213Y-18181161D01*
X19403907Y-18243944D01*
X19403894Y-18243948D01*
X19179795Y-18336772D01*
X18969707Y-18458066D01*
X18777268Y-18605729D01*
X18605729Y-18777268D01*
X18458066Y-18969707D01*
X18336772Y-19179795D01*
X18243948Y-19403894D01*
X18243944Y-19403907D01*
X18181161Y-19638213D01*
X18181161Y-19638218D01*
X18149500Y-19878710D01*
X10500500Y-19878710D01*
X10500500Y-15766532D01*
X37559500Y-15766532D01*
X37559500Y-15973467D01*
X37599869Y-16176418D01*
X37679058Y-16367597D01*
X37794020Y-16539651D01*
X37794023Y-16539655D01*
X37940345Y-16685977D01*
X38112402Y-16800941D01*
X38303580Y-16880130D01*
X38506535Y-16920500D01*
X38506536Y-16920500D01*
X38713464Y-16920500D01*
X38713465Y-16920500D01*
X38916420Y-16880130D01*
X39107598Y-16800941D01*
X39279655Y-16685977D01*
X39425977Y-16539655D01*
X39540941Y-16367598D01*
X39620130Y-16176420D01*
X39660500Y-15973465D01*
X39660500Y-15893709D01*
X43424500Y-15893709D01*
X43424500Y-16106290D01*
X43457752Y-16316238D01*
X43523443Y-16518412D01*
X43619948Y-16707815D01*
X43619950Y-16707819D01*
X43744891Y-16879786D01*
X43744893Y-16879788D01*
X43744896Y-16879792D01*
X43895208Y-17030104D01*
X43895211Y-17030106D01*
X43895213Y-17030108D01*
X44067180Y-17155049D01*
X44067184Y-17155051D01*
X44256588Y-17251557D01*
X44458757Y-17317246D01*
X44458758Y-17317246D01*
X44458761Y-17317247D01*
X44668710Y-17350500D01*
X44668713Y-17350500D01*
X44881290Y-17350500D01*
X45091238Y-17317247D01*
X45091239Y-17317246D01*
X45091243Y-17317246D01*
X45293412Y-17251557D01*
X45482816Y-17155051D01*
X45654792Y-17030104D01*
X45805104Y-16879792D01*
X45930051Y-16707816D01*
X46026557Y-16518412D01*
X46092246Y-16316243D01*
X46114392Y-16176420D01*
X46125500Y-16106290D01*
X46125500Y-15893709D01*
X48874500Y-15893709D01*
X48874500Y-16106290D01*
X48907752Y-16316238D01*
X48973443Y-16518412D01*
X49069948Y-16707815D01*
X49069950Y-16707819D01*
X49194891Y-16879786D01*
X49194893Y-16879788D01*
X49194896Y-16879792D01*
X49345208Y-17030104D01*
X49345211Y-17030106D01*
X49345213Y-17030108D01*
X49517180Y-17155049D01*
X49517184Y-17155051D01*
X49706588Y-17251557D01*
X49908757Y-17317246D01*
X49908758Y-17317246D01*
X49908761Y-17317247D01*
X50118710Y-17350500D01*
X50118713Y-17350500D01*
X50331290Y-17350500D01*
X50541238Y-17317247D01*
X50541239Y-17317246D01*
X50541243Y-17317246D01*
X50743412Y-17251557D01*
X50932816Y-17155051D01*
X51104792Y-17030104D01*
X51255104Y-16879792D01*
X51380051Y-16707816D01*
X51476557Y-16518412D01*
X51542246Y-16316243D01*
X51564392Y-16176420D01*
X51575500Y-16106290D01*
X51575500Y-15893709D01*
X51542247Y-15683761D01*
X51503198Y-15563581D01*
X51476557Y-15481588D01*
X51380051Y-15292184D01*
X51324501Y-15215725D01*
X55339500Y-15215725D01*
X55339500Y-16524274D01*
X55342353Y-16554694D01*
X55342355Y-16554703D01*
X55387207Y-16682883D01*
X55467845Y-16792144D01*
X55467847Y-16792146D01*
X55467850Y-16792150D01*
X55467853Y-16792152D01*
X55467855Y-16792154D01*
X55577116Y-16872792D01*
X55577117Y-16872792D01*
X55577118Y-16872793D01*
X55705301Y-16917646D01*
X55735725Y-16920499D01*
X55735727Y-16920500D01*
X55735734Y-16920500D01*
X57044273Y-16920500D01*
X57044273Y-16920499D01*
X57074699Y-16917646D01*
X57202882Y-16872793D01*
X57312150Y-16792150D01*
X57392793Y-16682882D01*
X57437646Y-16554699D01*
X57440499Y-16524273D01*
X57440500Y-16524273D01*
X57440500Y-15648385D01*
X61899500Y-15648385D01*
X61899500Y-15821614D01*
X61926597Y-15992702D01*
X61926598Y-15992706D01*
X61980123Y-16157438D01*
X61980125Y-16157441D01*
X61980126Y-16157444D01*
X61980127Y-16157445D01*
X62058768Y-16311788D01*
X62160586Y-16451928D01*
X62283072Y-16574414D01*
X62423212Y-16676232D01*
X62577555Y-16754873D01*
X62577557Y-16754873D01*
X62577558Y-16754874D01*
X62577561Y-16754876D01*
X62742293Y-16808401D01*
X62742297Y-16808402D01*
X62913386Y-16835500D01*
X62913389Y-16835500D01*
X63086614Y-16835500D01*
X63257702Y-16808402D01*
X63257706Y-16808401D01*
X63422438Y-16754876D01*
X63422440Y-16754874D01*
X63422445Y-16754873D01*
X63576788Y-16676232D01*
X63716928Y-16574414D01*
X63839414Y-16451928D01*
X63941232Y-16311788D01*
X64019873Y-16157445D01*
X64019874Y-16157440D01*
X64019876Y-16157438D01*
X64073401Y-15992706D01*
X64073402Y-15992702D01*
X64100500Y-15821614D01*
X64100500Y-15648385D01*
X64073402Y-15477297D01*
X64073401Y-15477293D01*
X64019876Y-15312561D01*
X64019874Y-15312558D01*
X64019873Y-15312557D01*
X64019873Y-15312555D01*
X63941232Y-15158212D01*
X63839414Y-15018072D01*
X63716928Y-14895586D01*
X63576788Y-14793768D01*
X63576787Y-14793767D01*
X63576785Y-14793766D01*
X63422441Y-14715125D01*
X63422438Y-14715123D01*
X63257706Y-14661598D01*
X63257702Y-14661597D01*
X63086614Y-14634500D01*
X63086611Y-14634500D01*
X62913389Y-14634500D01*
X62913386Y-14634500D01*
X62742297Y-14661597D01*
X62742293Y-14661598D01*
X62577561Y-14715123D01*
X62577558Y-14715125D01*
X62423214Y-14793766D01*
X62283073Y-14895585D01*
X62160585Y-15018073D01*
X62058766Y-15158214D01*
X61980125Y-15312558D01*
X61980123Y-15312561D01*
X61926598Y-15477293D01*
X61926597Y-15477297D01*
X61899500Y-15648385D01*
X57440500Y-15648385D01*
X57440500Y-15215727D01*
X57440499Y-15215725D01*
X57437646Y-15185305D01*
X57437646Y-15185301D01*
X57392793Y-15057118D01*
X57312150Y-14947850D01*
X57312146Y-14947847D01*
X57312144Y-14947845D01*
X57202883Y-14867207D01*
X57074703Y-14822355D01*
X57074694Y-14822353D01*
X57044274Y-14819500D01*
X57044266Y-14819500D01*
X55735734Y-14819500D01*
X55735725Y-14819500D01*
X55705305Y-14822353D01*
X55705296Y-14822355D01*
X55577116Y-14867207D01*
X55467855Y-14947845D01*
X55467845Y-14947855D01*
X55387207Y-15057116D01*
X55342355Y-15185296D01*
X55342353Y-15185305D01*
X55339500Y-15215725D01*
X51324501Y-15215725D01*
X51255104Y-15120208D01*
X51104792Y-14969896D01*
X51104788Y-14969893D01*
X51104786Y-14969891D01*
X50932819Y-14844950D01*
X50932815Y-14844948D01*
X50743412Y-14748443D01*
X50541238Y-14682752D01*
X50331290Y-14649500D01*
X50331287Y-14649500D01*
X50118713Y-14649500D01*
X50118710Y-14649500D01*
X49908761Y-14682752D01*
X49706587Y-14748443D01*
X49517184Y-14844948D01*
X49517180Y-14844950D01*
X49345213Y-14969891D01*
X49194891Y-15120213D01*
X49069950Y-15292180D01*
X49069948Y-15292184D01*
X48973443Y-15481587D01*
X48907752Y-15683761D01*
X48874500Y-15893709D01*
X46125500Y-15893709D01*
X46092247Y-15683761D01*
X46053198Y-15563581D01*
X46026557Y-15481588D01*
X45930051Y-15292184D01*
X45930049Y-15292180D01*
X45805108Y-15120213D01*
X45805105Y-15120210D01*
X45805104Y-15120208D01*
X45654792Y-14969896D01*
X45654788Y-14969893D01*
X45654786Y-14969891D01*
X45482819Y-14844950D01*
X45482815Y-14844948D01*
X45293412Y-14748443D01*
X45091238Y-14682752D01*
X44881290Y-14649500D01*
X44881287Y-14649500D01*
X44668713Y-14649500D01*
X44668710Y-14649500D01*
X44458761Y-14682752D01*
X44256587Y-14748443D01*
X44067184Y-14844948D01*
X44067180Y-14844950D01*
X43895213Y-14969891D01*
X43744891Y-15120213D01*
X43619950Y-15292180D01*
X43619948Y-15292184D01*
X43523443Y-15481587D01*
X43457752Y-15683761D01*
X43424500Y-15893709D01*
X39660500Y-15893709D01*
X39660500Y-15766535D01*
X39620130Y-15563580D01*
X39540941Y-15372402D01*
X39425977Y-15200345D01*
X39279655Y-15054023D01*
X39225852Y-15018073D01*
X39107597Y-14939058D01*
X38916418Y-14859869D01*
X38713467Y-14819500D01*
X38713465Y-14819500D01*
X38506535Y-14819500D01*
X38506532Y-14819500D01*
X38303581Y-14859869D01*
X38112402Y-14939058D01*
X37940348Y-15054020D01*
X37794020Y-15200348D01*
X37679058Y-15372402D01*
X37599869Y-15563581D01*
X37559500Y-15766532D01*
X10500500Y-15766532D01*
X10500500Y-10599500D01*
X10519407Y-10541309D01*
X10568907Y-10505345D01*
X10599500Y-10500500D01*
X84400500Y-10500500D01*
X84458691Y-10519407D01*
G37*
%TD.AperFunction*%
%TD*%
M02*
