M48
; DRILL file {KiCad 9.0.4} date 2025-10-05T17:12:11-0400
; FORMAT={-:-/ absolute / inch / decimal}
; #@! TF.CreationDate,2025-10-05T17:12:11-04:00
; #@! TF.GenerationSoftware,Kicad,Pcbnew,9.0.4
; #@! TF.FileFunction,Plated,1,2,PTH
FMAT,2
INCH
; #@! TA.AperFunction,Plated,PTH,ComponentDrill
T1C0.0315
; #@! TA.AperFunction,Plated,PTH,ComponentDrill
T2C0.0354
; #@! TA.AperFunction,Plated,PTH,ComponentDrill
T3C0.0394
; #@! TA.AperFunction,Plated,PTH,ComponentDrill
T4C0.0600
; #@! TA.AperFunction,Plated,PTH,ComponentDrill
T5C0.0602
%
G90
G05
T1
X5.6949Y-3.0118
X6.1949Y-3.0118
T2
X5.4134Y-2.9118
X5.4134Y-3.0118
T3
X5.8816Y-3.5011
X5.9816Y-3.5011
X6.0816Y-3.5011
X6.1794Y-3.5011
X6.2816Y-3.5011
X6.3816Y-3.5011
X6.4816Y-3.5011
X6.5816Y-3.5011
T4
X4.1535Y-3.248
X4.2126Y-2.9331
X4.3307Y-2.7165
X5.0787Y-2.3622
X5.4134Y-2.5984
X6.4961Y-2.7165
X6.6142Y-2.9331
X6.6732Y-3.248
T5
X5.4134Y-2.3622
X5.748Y-2.3622
X5.748Y-2.5984
M30
