M48
; DRILL file {KiCad 7.0.7} date Thu Feb  1 11:26:26 2024
; FORMAT={-:-/ absolute / inch / decimal}
; #@! TF.CreationDate,2024-02-01T11:26:26-05:00
; #@! TF.GenerationSoftware,Kicad,Pcbnew,7.0.7
; #@! TF.FileFunction,Plated,1,4,PTH
FMAT,2
INCH
; #@! TA.AperFunction,Plated,PTH,ViaDrill
T1C0.0157
; #@! TA.AperFunction,Plated,PTH,ComponentDrill
T2C0.0295
; #@! TA.AperFunction,Plated,PTH,ComponentDrill
T3C0.0315
; #@! TA.AperFunction,Plated,PTH,ComponentDrill
T4C0.0354
; #@! TA.AperFunction,Plated,PTH,ComponentDrill
T5C0.0394
; #@! TA.AperFunction,Plated,PTH,ComponentDrill
T6C0.0402
; #@! TA.AperFunction,Plated,PTH,ComponentDrill
T7C0.0433
; #@! TA.AperFunction,Plated,PTH,ComponentDrill
T8C0.0488
; #@! TA.AperFunction,Plated,PTH,ComponentDrill
T9C0.0709
; #@! TA.AperFunction,Plated,PTH,ComponentDrill
T10C0.0870
; #@! TA.AperFunction,Plated,PTH,ComponentDrill
T11C0.0984
; #@! TA.AperFunction,Plated,PTH,ComponentDrill
T12C0.1260
%
G90
G05
T1
X6.2008Y-4.1535
X6.2992Y-3.9961
X6.5157Y-3.3071
X6.5551Y-4.5669
X6.5748Y-3.0709
X6.5748Y-4.4685
X6.5962Y-4.33
X6.6053Y-4.3807
X6.6732Y-5.0591
X6.7018Y-3.4951
X6.7038Y-4.4291
X6.7721Y-4.3853
X6.9685Y-3.4843
X6.9862Y-4.3815
X7.185Y-4.8228
X7.1939Y-4.1339
X7.1939Y-4.1929
X7.2047Y-3.4921
X7.4011Y-5.4326
X7.4409Y-3.622
X7.4803Y-3.6614
X7.6043Y-3.4007
X7.7638Y-3.3878
X7.815Y-4.7244
X8.6614Y-5.1772
T2
X6.1063Y-5.3622
X6.1063Y-5.4409
X6.1063Y-5.5197
X6.1063Y-5.5984
X6.1083Y-4.9252
X6.1083Y-5.0039
X6.1083Y-5.0827
X6.1083Y-5.1614
X7.9307Y-4.6193
X7.9307Y-4.6693
X7.9307Y-4.7193
T3
X6.0827Y-2.7756
X6.0827Y-2.9724
X6.1614Y-4.4291
X6.2008Y-3.415
X6.2008Y-3.815
X6.2008Y-3.926
X6.2008Y-4.326
X6.2323Y-2.7756
X6.2323Y-2.9724
X6.2402Y-4.8819
X6.2402Y-5.0787
X6.2402Y-5.4331
X6.2402Y-5.6299
X6.3189Y-3.7795
X6.3189Y-3.8976
X6.3583Y-4.4291
X6.4764Y-3.1496
X6.4764Y-3.2283
X6.4764Y-4.6457
X6.4764Y-4.7244
X6.5157Y-3.7795
X6.5157Y-3.8976
X6.5551Y-3.1496
X6.5551Y-3.2283
X6.5551Y-4.6457
X6.5551Y-4.7244
X6.7717Y-3.622
X6.7717Y-3.7008
X6.7717Y-3.7795
X6.7717Y-3.8583
X6.7717Y-3.937
X6.7717Y-4.0157
X6.7717Y-4.0945
X6.7717Y-4.1732
X6.7717Y-4.252
X6.7913Y-5.1378
X6.7913Y-5.3346
X6.8504Y-3.622
X6.8504Y-3.7008
X6.8504Y-3.7795
X6.8504Y-3.8583
X6.8504Y-3.937
X6.8504Y-4.0157
X6.8504Y-4.0945
X6.8504Y-4.1732
X6.8504Y-4.252
X6.9488Y-5.1378
X6.9488Y-5.3346
X7.0835Y-3.1693
X7.0835Y-3.3071
X7.0835Y-3.4449
X7.0835Y-3.5827
X7.0835Y-3.7205
X7.0835Y-4.3071
X7.0835Y-4.5669
X7.0835Y-4.7047
X7.0843Y-4.437
X7.1063Y-5.1378
X7.1063Y-5.3346
X7.126Y-3.9055
X7.126Y-3.9843
X7.126Y-4.063
X7.126Y-4.1417
X7.2835Y-3.9488
X7.2835Y-4.0276
X7.2835Y-4.1063
X7.4606Y-3.937
X7.4606Y-4.1339
X7.4835Y-3.1693
X7.4835Y-3.3071
X7.4835Y-3.4449
X7.4835Y-3.5827
X7.4835Y-3.7205
X7.4835Y-4.3071
X7.4835Y-4.5669
X7.4835Y-4.7047
X7.4843Y-4.437
X7.8543Y-4.4882
X7.9134Y-3.1496
X7.9134Y-3.3465
X7.9331Y-4.4882
X8.0118Y-4.4882
X8.0709Y-3.8189
X8.0709Y-4.0157
X8.1496Y-4.5669
X8.1496Y-4.7638
X8.2874Y-4.5669
X8.2874Y-4.7638
T4
X8.085Y-3.248
X8.135Y-3.248
X8.185Y-3.248
X8.235Y-3.248
T5
X7.6405Y-3.755
X7.6405Y-3.855
X7.6405Y-3.955
X7.6405Y-4.055
X8.2405Y-4.155
X8.2405Y-3.655
X8.2405Y-3.755
X8.2405Y-3.855
X8.2405Y-3.955
X8.2405Y-4.055
T6
X6.3874Y-2.2638
X6.3874Y-2.9638
X6.3874Y-4.9102
X6.3874Y-5.6102
X6.4874Y-2.2638
X6.4874Y-2.9638
X6.4874Y-4.9102
X6.4874Y-5.6102
X6.5874Y-2.2638
X6.5874Y-2.9638
X6.5874Y-4.9102
X6.5874Y-5.6102
X6.6874Y-2.2638
X6.6874Y-2.9638
X6.6874Y-4.9102
X6.6874Y-5.6102
X6.7874Y-2.2638
X6.7874Y-2.9638
X6.7874Y-4.9102
X6.7874Y-5.6102
X6.8874Y-2.2638
X6.8874Y-2.9638
X6.8874Y-4.9102
X6.8874Y-5.6102
X6.9874Y-2.2638
X6.9874Y-2.9638
X6.9874Y-4.9102
X6.9874Y-5.6102
X7.0874Y-2.2638
X7.0874Y-2.9638
X7.0874Y-4.9102
X7.0874Y-5.6102
X7.1874Y-2.2638
X7.1874Y-2.9638
X7.1874Y-4.9102
X7.1874Y-5.6102
X7.2874Y-2.2638
X7.2874Y-2.9638
X7.2874Y-4.9102
X7.2874Y-5.6102
X7.3874Y-2.2638
X7.3874Y-2.9638
X7.3874Y-4.9102
X7.3874Y-5.6102
X7.4874Y-2.2638
X7.4874Y-2.9638
X7.4874Y-4.9102
X7.4874Y-5.6102
X7.5874Y-2.2638
X7.5874Y-2.9638
X7.5874Y-4.9102
X7.5874Y-5.6102
X7.6874Y-2.2638
X7.6874Y-2.9638
X7.6874Y-4.9102
X7.6874Y-5.6102
X7.7874Y-2.2638
X7.7874Y-2.9638
X7.7874Y-4.9102
X7.7874Y-5.6102
X7.8874Y-2.2638
X7.8874Y-2.9638
X7.8874Y-4.9102
X7.8874Y-5.6102
X7.9874Y-2.2638
X7.9874Y-2.9638
X7.9874Y-4.9102
X7.9874Y-5.6102
X8.0874Y-2.2638
X8.0874Y-2.9638
X8.0874Y-4.9102
X8.0874Y-5.6102
X8.1874Y-2.2638
X8.1874Y-2.9638
X8.1874Y-4.9102
X8.1874Y-5.6102
X8.2874Y-2.2638
X8.2874Y-2.9638
X8.2874Y-4.9102
X8.2874Y-5.6102
T7
X5.9252Y-2.7331
X5.9252Y-3.1331
T8
X5.9614Y-2.315
X6.0614Y-2.315
X6.1614Y-2.315
T9
X5.9528Y-2.5236
X6.1496Y-2.5236
T10
X6.752Y-3.3189
X6.752Y-4.5669
X6.9094Y-3.3189
X6.9094Y-4.5669
T11
X7.6405Y-3.505
X7.6405Y-4.305
X8.2405Y-3.505
X8.2405Y-4.305
T12
X6.2598Y-3.2283
X6.2598Y-4.6457
X7.6772Y-3.2283
X7.6772Y-4.6457
T0
M30
