M48
; DRILL file {KiCad 8.0.3} date 2024-10-18T10:21:03-0400
; FORMAT={-:-/ absolute / metric / decimal}
; #@! TF.CreationDate,2024-10-18T10:21:03-04:00
; #@! TF.GenerationSoftware,Kicad,Pcbnew,8.0.3
; #@! TF.FileFunction,MixedPlating,1,2
FMAT,2
METRIC
; #@! TA.AperFunction,Plated,PTH,ComponentDrill
T1C0.800
; #@! TA.AperFunction,Plated,PTH,ComponentDrill
T2C0.900
; #@! TA.AperFunction,Plated,PTH,ComponentDrill
T3C1.000
; #@! TA.AperFunction,Plated,PTH,ComponentDrill
T4C1.016
; #@! TA.AperFunction,Plated,PTH,ComponentDrill
T5C1.200
; #@! TA.AperFunction,Plated,PTH,ComponentDrill
T6C2.500
; #@! TA.AperFunction,NonPlated,NPTH,ComponentDrill
T7C3.200
%
G90
G05
T1
X145.075Y-82.95
X145.075Y-95.65
T2
X150.25Y-83.175
X152.79Y-83.175
T3
X113.8Y-76.695
X113.8Y-79.235
X113.8Y-81.775
X113.8Y-84.315
X122.725Y-76.595
X122.725Y-79.135
X122.725Y-81.675
X122.725Y-84.215
X173.365Y-83.78
X175.905Y-83.78
T4
X178.445Y-83.78
X180.985Y-83.78
X183.525Y-83.78
X186.065Y-83.78
X188.605Y-83.78
X191.145Y-83.78
T6
X165.745Y-85.05
X165.745Y-101.56
T7
X106.27Y-46.38
X106.27Y-109.88
X195.17Y-46.38
X195.17Y-109.88
T5
X111.675Y-62.375G85X111.675Y-56.775
G05
X122.175Y-62.375G85X122.175Y-56.775
G05
X154.175Y-59.225G85X148.575Y-59.225
G05
X154.175Y-69.725G85X148.575Y-69.725
G05
X168.7Y-62.5G85X168.7Y-56.9
G05
X179.2Y-62.5G85X179.2Y-56.9
G05
M30
