%TF.GenerationSoftware,KiCad,Pcbnew,8.0.3*%
%TF.CreationDate,2024-10-14T14:02:15-04:00*%
%TF.ProjectId,ArmorPanel,41726d6f-7250-4616-9e65-6c2e6b696361,rev?*%
%TF.SameCoordinates,Original*%
%TF.FileFunction,Copper,L2,Bot*%
%TF.FilePolarity,Positive*%
%FSLAX46Y46*%
G04 Gerber Fmt 4.6, Leading zero omitted, Abs format (unit mm)*
G04 Created by KiCad (PCBNEW 8.0.3) date 2024-10-14 14:02:15*
%MOMM*%
%LPD*%
G01*
G04 APERTURE LIST*
G04 Aperture macros list*
%AMOutline5P*
0 Free polygon, 5 corners , with rotation*
0 The origin of the aperture is its center*
0 number of corners: always 5*
0 $1 to $10 corner X, Y*
0 $11 Rotation angle, in degrees counterclockwise*
0 create outline with 5 corners*
4,1,5,$1,$2,$3,$4,$5,$6,$7,$8,$9,$10,$1,$2,$11*%
%AMOutline6P*
0 Free polygon, 6 corners , with rotation*
0 The origin of the aperture is its center*
0 number of corners: always 6*
0 $1 to $12 corner X, Y*
0 $13 Rotation angle, in degrees counterclockwise*
0 create outline with 6 corners*
4,1,6,$1,$2,$3,$4,$5,$6,$7,$8,$9,$10,$11,$12,$1,$2,$13*%
%AMOutline7P*
0 Free polygon, 7 corners , with rotation*
0 The origin of the aperture is its center*
0 number of corners: always 7*
0 $1 to $14 corner X, Y*
0 $15 Rotation angle, in degrees counterclockwise*
0 create outline with 7 corners*
4,1,7,$1,$2,$3,$4,$5,$6,$7,$8,$9,$10,$11,$12,$13,$14,$1,$2,$15*%
%AMOutline8P*
0 Free polygon, 8 corners , with rotation*
0 The origin of the aperture is its center*
0 number of corners: always 8*
0 $1 to $16 corner X, Y*
0 $17 Rotation angle, in degrees counterclockwise*
0 create outline with 8 corners*
4,1,8,$1,$2,$3,$4,$5,$6,$7,$8,$9,$10,$11,$12,$13,$14,$15,$16,$1,$2,$17*%
G04 Aperture macros list end*
%TA.AperFunction,ComponentPad*%
%ADD10R,1.800000X1.800000*%
%TD*%
%TA.AperFunction,ComponentPad*%
%ADD11C,1.800000*%
%TD*%
%TA.AperFunction,ComponentPad*%
%ADD12O,4.200000X8.400000*%
%TD*%
%TA.AperFunction,ComponentPad*%
%ADD13C,1.600000*%
%TD*%
%TA.AperFunction,ComponentPad*%
%ADD14O,1.600000X1.600000*%
%TD*%
%TA.AperFunction,ComponentPad*%
%ADD15Outline8P,-0.889000X0.368236X-0.368236X0.889000X0.368236X0.889000X0.889000X0.368236X0.889000X-0.368236X0.368236X-0.889000X-0.368236X-0.889000X-0.889000X-0.368236X90.000000*%
%TD*%
%TA.AperFunction,ComponentPad*%
%ADD16C,3.200000*%
%TD*%
%TA.AperFunction,ComponentPad*%
%ADD17R,1.700000X1.700000*%
%TD*%
%TA.AperFunction,ComponentPad*%
%ADD18O,1.700000X1.700000*%
%TD*%
%TA.AperFunction,ComponentPad*%
%ADD19C,1.778000*%
%TD*%
%TA.AperFunction,ComponentPad*%
%ADD20O,8.400000X4.200000*%
%TD*%
%TA.AperFunction,Conductor*%
%ADD21C,0.600000*%
%TD*%
G04 APERTURE END LIST*
D10*
%TO.P,D1,1,K*%
%TO.N,/GND*%
X152790000Y-83175000D03*
D11*
%TO.P,D1,2,A*%
%TO.N,Net-(D1-A)*%
X150250000Y-83175000D03*
%TD*%
D12*
%TO.P,SW_RED1,1,A*%
%TO.N,/GND*%
X111675000Y-59575000D03*
%TO.P,SW_RED1,2,B*%
%TO.N,/LEDR*%
X122175000Y-59575000D03*
%TD*%
D13*
%TO.P,R1,1*%
%TO.N,Net-(D1-A)*%
X145075000Y-82950000D03*
D14*
%TO.P,R1,2*%
%TO.N,/LB*%
X145075000Y-95650000D03*
%TD*%
D15*
%TO.P,JP1,1*%
%TO.N,N/C*%
X178445000Y-83780000D03*
%TO.P,JP1,2*%
%TO.N,/EN*%
X180985000Y-83780000D03*
%TO.P,JP1,3*%
%TO.N,/GND*%
X183525000Y-83780000D03*
%TO.P,JP1,4*%
%TO.N,/LB*%
X186065000Y-83780000D03*
%TO.P,JP1,5*%
%TO.N,/GND*%
X188605000Y-83780000D03*
%TO.P,JP1,6*%
%TO.N,/5V*%
X191145000Y-83780000D03*
%TD*%
D16*
%TO.P,U$12,P$1*%
%TO.N,N/C*%
X165745000Y-101560000D03*
%TD*%
D17*
%TO.P,LEDR1,1,Pin_1*%
%TO.N,/5V*%
X113800000Y-84315000D03*
D18*
%TO.P,LEDR1,2,Pin_2*%
%TO.N,N/C*%
X113800000Y-81775000D03*
%TO.P,LEDR1,3,Pin_3*%
%TO.N,/LEDR*%
X113800000Y-79235000D03*
%TO.P,LEDR1,4,Pin_4*%
%TO.N,/LEDB*%
X113800000Y-76695000D03*
%TD*%
D19*
%TO.P,JP2,1*%
%TO.N,N/C*%
X173365000Y-83780000D03*
%TO.P,JP2,2*%
%TO.N,/GND*%
X175905000Y-83780000D03*
%TD*%
D17*
%TO.P,LEDL1,1,Pin_1*%
%TO.N,/5V*%
X122725000Y-84215000D03*
D18*
%TO.P,LEDL1,2,Pin_2*%
%TO.N,N/C*%
X122725000Y-81675000D03*
%TO.P,LEDL1,3,Pin_3*%
%TO.N,/LEDR*%
X122725000Y-79135000D03*
%TO.P,LEDL1,4,Pin_4*%
%TO.N,/LEDB*%
X122725000Y-76595000D03*
%TD*%
D20*
%TO.P,SW_EN1,1,A*%
%TO.N,/GND*%
X151375000Y-69725000D03*
%TO.P,SW_EN1,2,B*%
%TO.N,/EN*%
X151375000Y-59225000D03*
%TD*%
D16*
%TO.P,U$10,P$1*%
%TO.N,N/C*%
X165745000Y-85050000D03*
%TD*%
D12*
%TO.P,SW_BLUE1,1,A*%
%TO.N,/GND*%
X168700000Y-59700000D03*
%TO.P,SW_BLUE1,2,B*%
%TO.N,/LEDB*%
X179200000Y-59700000D03*
%TD*%
D21*
%TO.N,/LB*%
X179400000Y-95650000D02*
X186065000Y-88985000D01*
X186065000Y-88985000D02*
X186065000Y-83780000D01*
X145075000Y-95650000D02*
X179400000Y-95650000D01*
%TO.N,/5V*%
X123603299Y-84215000D02*
X122725000Y-84215000D01*
X145013299Y-105625000D02*
X123603299Y-84215000D01*
X191145000Y-90080000D02*
X175600000Y-105625000D01*
X191145000Y-83780000D02*
X191145000Y-90080000D01*
X175600000Y-105625000D02*
X145013299Y-105625000D01*
%TO.N,/EN*%
X180985000Y-79335000D02*
X180985000Y-83780000D01*
X151375000Y-59225000D02*
X160875000Y-59225000D01*
X160875000Y-59225000D02*
X180985000Y-79335000D01*
%TO.N,/GND*%
X152875000Y-71225000D02*
X152875000Y-83090000D01*
X151375000Y-69725000D02*
X152875000Y-71225000D01*
X152875000Y-83090000D02*
X152790000Y-83175000D01*
%TO.N,/LEDR*%
X106275000Y-74500000D02*
X121200000Y-59575000D01*
X106275000Y-77075000D02*
X106275000Y-74500000D01*
X108435000Y-79235000D02*
X106275000Y-77075000D01*
X121200000Y-59575000D02*
X122175000Y-59575000D01*
X113800000Y-79235000D02*
X108435000Y-79235000D01*
%TO.N,/GND*%
X157675000Y-83175000D02*
X161000000Y-79850000D01*
X183525000Y-75525000D02*
X183525000Y-83780000D01*
X129350000Y-41900000D02*
X172950000Y-41900000D01*
X168700000Y-59700000D02*
X168700000Y-60700000D01*
X111675000Y-59575000D02*
X129350000Y-41900000D01*
X168700000Y-60700000D02*
X183525000Y-75525000D01*
X161000000Y-79850000D02*
X173800000Y-79850000D01*
X172950000Y-41900000D02*
X188605000Y-57555000D01*
X175905000Y-81955000D02*
X175905000Y-83780000D01*
X188605000Y-57555000D02*
X188605000Y-83780000D01*
X173800000Y-79850000D02*
X175905000Y-81955000D01*
X152790000Y-83175000D02*
X157675000Y-83175000D01*
%TO.N,Net-(D1-A)*%
X145300000Y-83175000D02*
X145075000Y-82950000D01*
X150250000Y-83175000D02*
X145300000Y-83175000D01*
%TO.N,/LEDB*%
X113800000Y-76695000D02*
X122625000Y-76695000D01*
X141550000Y-63600000D02*
X141550000Y-51725000D01*
X122725000Y-76595000D02*
X128555000Y-76595000D01*
X146425000Y-46850000D02*
X166350000Y-46850000D01*
X122625000Y-76695000D02*
X122725000Y-76595000D01*
X128555000Y-76595000D02*
X141550000Y-63600000D01*
X141550000Y-51725000D02*
X146425000Y-46850000D01*
X166350000Y-46850000D02*
X179200000Y-59700000D01*
%TO.N,/5V*%
X113800000Y-84315000D02*
X122625000Y-84315000D01*
X122625000Y-84315000D02*
X122725000Y-84215000D01*
%TO.N,/LEDR*%
X122175000Y-59575000D02*
X122175000Y-61875000D01*
X113800000Y-79235000D02*
X122625000Y-79235000D01*
X122625000Y-79235000D02*
X122725000Y-79135000D01*
%TD*%
M02*
