%TF.GenerationSoftware,KiCad,Pcbnew,9.0.4*%
%TF.CreationDate,2025-10-05T17:07:57-04:00*%
%TF.ProjectId,Armor Panel,41726d6f-7220-4506-916e-656c2e6b6963,rev?*%
%TF.SameCoordinates,Original*%
%TF.FileFunction,Copper,L2,Bot*%
%TF.FilePolarity,Positive*%
%FSLAX46Y46*%
G04 Gerber Fmt 4.6, Leading zero omitted, Abs format (unit mm)*
G04 Created by KiCad (PCBNEW 9.0.4) date 2025-10-05 17:07:57*
%MOMM*%
%LPD*%
G01*
G04 APERTURE LIST*
%ADD10C,0.300000*%
%TA.AperFunction,NonConductor*%
%ADD11C,0.300000*%
%TD*%
%TA.AperFunction,ComponentPad*%
%ADD12C,5.000000*%
%TD*%
%TA.AperFunction,ComponentPad*%
%ADD13R,1.700000X1.700000*%
%TD*%
%TA.AperFunction,ComponentPad*%
%ADD14C,1.700000*%
%TD*%
%TA.AperFunction,WasherPad*%
%ADD15C,4.700000*%
%TD*%
%TA.AperFunction,ComponentPad*%
%ADD16R,1.800000X1.800000*%
%TD*%
%TA.AperFunction,ComponentPad*%
%ADD17C,1.800000*%
%TD*%
%TA.AperFunction,ComponentPad*%
%ADD18C,1.600000*%
%TD*%
%TA.AperFunction,Conductor*%
%ADD19C,1.500000*%
%TD*%
%TA.AperFunction,Conductor*%
%ADD20C,0.200000*%
%TD*%
G04 APERTURE END LIST*
D10*
D11*
X126374060Y-95239638D02*
X127326441Y-95239638D01*
X127326441Y-95239638D02*
X127326441Y-93239638D01*
X125707393Y-94192019D02*
X125040726Y-94192019D01*
X124755012Y-95239638D02*
X125707393Y-95239638D01*
X125707393Y-95239638D02*
X125707393Y-93239638D01*
X125707393Y-93239638D02*
X124755012Y-93239638D01*
X123897869Y-95239638D02*
X123897869Y-93239638D01*
X123897869Y-93239638D02*
X123421679Y-93239638D01*
X123421679Y-93239638D02*
X123135964Y-93334876D01*
X123135964Y-93334876D02*
X122945488Y-93525352D01*
X122945488Y-93525352D02*
X122850250Y-93715828D01*
X122850250Y-93715828D02*
X122755012Y-94096780D01*
X122755012Y-94096780D02*
X122755012Y-94382495D01*
X122755012Y-94382495D02*
X122850250Y-94763447D01*
X122850250Y-94763447D02*
X122945488Y-94953923D01*
X122945488Y-94953923D02*
X123135964Y-95144400D01*
X123135964Y-95144400D02*
X123421679Y-95239638D01*
X123421679Y-95239638D02*
X123897869Y-95239638D01*
X121231202Y-94192019D02*
X120945488Y-94287257D01*
X120945488Y-94287257D02*
X120850250Y-94382495D01*
X120850250Y-94382495D02*
X120755012Y-94572971D01*
X120755012Y-94572971D02*
X120755012Y-94858685D01*
X120755012Y-94858685D02*
X120850250Y-95049161D01*
X120850250Y-95049161D02*
X120945488Y-95144400D01*
X120945488Y-95144400D02*
X121135964Y-95239638D01*
X121135964Y-95239638D02*
X121897869Y-95239638D01*
X121897869Y-95239638D02*
X121897869Y-93239638D01*
X121897869Y-93239638D02*
X121231202Y-93239638D01*
X121231202Y-93239638D02*
X121040726Y-93334876D01*
X121040726Y-93334876D02*
X120945488Y-93430114D01*
X120945488Y-93430114D02*
X120850250Y-93620590D01*
X120850250Y-93620590D02*
X120850250Y-93811066D01*
X120850250Y-93811066D02*
X120945488Y-94001542D01*
X120945488Y-94001542D02*
X121040726Y-94096780D01*
X121040726Y-94096780D02*
X121231202Y-94192019D01*
X121231202Y-94192019D02*
X121897869Y-94192019D01*
D10*
D11*
X133231203Y-54970996D02*
X133945489Y-54970996D01*
X133945489Y-54970996D02*
X133945489Y-53470996D01*
X132731203Y-54185282D02*
X132231203Y-54185282D01*
X132016917Y-54970996D02*
X132731203Y-54970996D01*
X132731203Y-54970996D02*
X132731203Y-53470996D01*
X132731203Y-53470996D02*
X132016917Y-53470996D01*
X131374060Y-54970996D02*
X131374060Y-53470996D01*
X131374060Y-53470996D02*
X131016917Y-53470996D01*
X131016917Y-53470996D02*
X130802631Y-53542425D01*
X130802631Y-53542425D02*
X130659774Y-53685282D01*
X130659774Y-53685282D02*
X130588345Y-53828139D01*
X130588345Y-53828139D02*
X130516917Y-54113853D01*
X130516917Y-54113853D02*
X130516917Y-54328139D01*
X130516917Y-54328139D02*
X130588345Y-54613853D01*
X130588345Y-54613853D02*
X130659774Y-54756710D01*
X130659774Y-54756710D02*
X130802631Y-54899568D01*
X130802631Y-54899568D02*
X131016917Y-54970996D01*
X131016917Y-54970996D02*
X131374060Y-54970996D01*
X129016917Y-54970996D02*
X129516917Y-54256710D01*
X129874060Y-54970996D02*
X129874060Y-53470996D01*
X129874060Y-53470996D02*
X129302631Y-53470996D01*
X129302631Y-53470996D02*
X129159774Y-53542425D01*
X129159774Y-53542425D02*
X129088345Y-53613853D01*
X129088345Y-53613853D02*
X129016917Y-53756710D01*
X129016917Y-53756710D02*
X129016917Y-53970996D01*
X129016917Y-53970996D02*
X129088345Y-54113853D01*
X129088345Y-54113853D02*
X129159774Y-54185282D01*
X129159774Y-54185282D02*
X129302631Y-54256710D01*
X129302631Y-54256710D02*
X129874060Y-54256710D01*
X133231203Y-57385912D02*
X133945489Y-57385912D01*
X133945489Y-57385912D02*
X133945489Y-55885912D01*
X132731203Y-56600198D02*
X132231203Y-56600198D01*
X132016917Y-57385912D02*
X132731203Y-57385912D01*
X132731203Y-57385912D02*
X132731203Y-55885912D01*
X132731203Y-55885912D02*
X132016917Y-55885912D01*
X131374060Y-57385912D02*
X131374060Y-55885912D01*
X131374060Y-55885912D02*
X131016917Y-55885912D01*
X131016917Y-55885912D02*
X130802631Y-55957341D01*
X130802631Y-55957341D02*
X130659774Y-56100198D01*
X130659774Y-56100198D02*
X130588345Y-56243055D01*
X130588345Y-56243055D02*
X130516917Y-56528769D01*
X130516917Y-56528769D02*
X130516917Y-56743055D01*
X130516917Y-56743055D02*
X130588345Y-57028769D01*
X130588345Y-57028769D02*
X130659774Y-57171626D01*
X130659774Y-57171626D02*
X130802631Y-57314484D01*
X130802631Y-57314484D02*
X131016917Y-57385912D01*
X131016917Y-57385912D02*
X131374060Y-57385912D01*
X129374060Y-56600198D02*
X129159774Y-56671626D01*
X129159774Y-56671626D02*
X129088345Y-56743055D01*
X129088345Y-56743055D02*
X129016917Y-56885912D01*
X129016917Y-56885912D02*
X129016917Y-57100198D01*
X129016917Y-57100198D02*
X129088345Y-57243055D01*
X129088345Y-57243055D02*
X129159774Y-57314484D01*
X129159774Y-57314484D02*
X129302631Y-57385912D01*
X129302631Y-57385912D02*
X129874060Y-57385912D01*
X129874060Y-57385912D02*
X129874060Y-55885912D01*
X129874060Y-55885912D02*
X129374060Y-55885912D01*
X129374060Y-55885912D02*
X129231203Y-55957341D01*
X129231203Y-55957341D02*
X129159774Y-56028769D01*
X129159774Y-56028769D02*
X129088345Y-56171626D01*
X129088345Y-56171626D02*
X129088345Y-56314484D01*
X129088345Y-56314484D02*
X129159774Y-56457341D01*
X129159774Y-56457341D02*
X129231203Y-56528769D01*
X129231203Y-56528769D02*
X129374060Y-56600198D01*
X129374060Y-56600198D02*
X129874060Y-56600198D01*
X133231203Y-58300828D02*
X133945489Y-58300828D01*
X133945489Y-58300828D02*
X134016917Y-59015114D01*
X134016917Y-59015114D02*
X133945489Y-58943685D01*
X133945489Y-58943685D02*
X133802632Y-58872257D01*
X133802632Y-58872257D02*
X133445489Y-58872257D01*
X133445489Y-58872257D02*
X133302632Y-58943685D01*
X133302632Y-58943685D02*
X133231203Y-59015114D01*
X133231203Y-59015114D02*
X133159774Y-59157971D01*
X133159774Y-59157971D02*
X133159774Y-59515114D01*
X133159774Y-59515114D02*
X133231203Y-59657971D01*
X133231203Y-59657971D02*
X133302632Y-59729400D01*
X133302632Y-59729400D02*
X133445489Y-59800828D01*
X133445489Y-59800828D02*
X133802632Y-59800828D01*
X133802632Y-59800828D02*
X133945489Y-59729400D01*
X133945489Y-59729400D02*
X134016917Y-59657971D01*
X132731203Y-58300828D02*
X132231203Y-59800828D01*
X132231203Y-59800828D02*
X131731203Y-58300828D01*
D10*
D11*
X112374060Y-76739638D02*
X113326441Y-76739638D01*
X113326441Y-76739638D02*
X113326441Y-74739638D01*
X111707393Y-75692019D02*
X111040726Y-75692019D01*
X110755012Y-76739638D02*
X111707393Y-76739638D01*
X111707393Y-76739638D02*
X111707393Y-74739638D01*
X111707393Y-74739638D02*
X110755012Y-74739638D01*
X109897869Y-76739638D02*
X109897869Y-74739638D01*
X109897869Y-74739638D02*
X109421679Y-74739638D01*
X109421679Y-74739638D02*
X109135964Y-74834876D01*
X109135964Y-74834876D02*
X108945488Y-75025352D01*
X108945488Y-75025352D02*
X108850250Y-75215828D01*
X108850250Y-75215828D02*
X108755012Y-75596780D01*
X108755012Y-75596780D02*
X108755012Y-75882495D01*
X108755012Y-75882495D02*
X108850250Y-76263447D01*
X108850250Y-76263447D02*
X108945488Y-76453923D01*
X108945488Y-76453923D02*
X109135964Y-76644400D01*
X109135964Y-76644400D02*
X109421679Y-76739638D01*
X109421679Y-76739638D02*
X109897869Y-76739638D01*
X106755012Y-76739638D02*
X107421679Y-75787257D01*
X107897869Y-76739638D02*
X107897869Y-74739638D01*
X107897869Y-74739638D02*
X107135964Y-74739638D01*
X107135964Y-74739638D02*
X106945488Y-74834876D01*
X106945488Y-74834876D02*
X106850250Y-74930114D01*
X106850250Y-74930114D02*
X106755012Y-75120590D01*
X106755012Y-75120590D02*
X106755012Y-75406304D01*
X106755012Y-75406304D02*
X106850250Y-75596780D01*
X106850250Y-75596780D02*
X106945488Y-75692019D01*
X106945488Y-75692019D02*
X107135964Y-75787257D01*
X107135964Y-75787257D02*
X107897869Y-75787257D01*
D10*
D11*
X122826441Y-120692019D02*
X122159774Y-120692019D01*
X121874060Y-121739638D02*
X122826441Y-121739638D01*
X122826441Y-121739638D02*
X122826441Y-119739638D01*
X122826441Y-119739638D02*
X121874060Y-119739638D01*
X121016917Y-121739638D02*
X121016917Y-119739638D01*
X121016917Y-119739638D02*
X119874060Y-121739638D01*
X119874060Y-121739638D02*
X119874060Y-119739638D01*
D10*
D11*
X109778822Y-85334876D02*
X109969298Y-85239638D01*
X109969298Y-85239638D02*
X110255012Y-85239638D01*
X110255012Y-85239638D02*
X110540727Y-85334876D01*
X110540727Y-85334876D02*
X110731203Y-85525352D01*
X110731203Y-85525352D02*
X110826441Y-85715828D01*
X110826441Y-85715828D02*
X110921679Y-86096780D01*
X110921679Y-86096780D02*
X110921679Y-86382495D01*
X110921679Y-86382495D02*
X110826441Y-86763447D01*
X110826441Y-86763447D02*
X110731203Y-86953923D01*
X110731203Y-86953923D02*
X110540727Y-87144400D01*
X110540727Y-87144400D02*
X110255012Y-87239638D01*
X110255012Y-87239638D02*
X110064536Y-87239638D01*
X110064536Y-87239638D02*
X109778822Y-87144400D01*
X109778822Y-87144400D02*
X109683584Y-87049161D01*
X109683584Y-87049161D02*
X109683584Y-86382495D01*
X109683584Y-86382495D02*
X110064536Y-86382495D01*
X108826441Y-87239638D02*
X108826441Y-85239638D01*
X108826441Y-85239638D02*
X107683584Y-87239638D01*
X107683584Y-87239638D02*
X107683584Y-85239638D01*
X106731203Y-87239638D02*
X106731203Y-85239638D01*
X106731203Y-85239638D02*
X106255013Y-85239638D01*
X106255013Y-85239638D02*
X105969298Y-85334876D01*
X105969298Y-85334876D02*
X105778822Y-85525352D01*
X105778822Y-85525352D02*
X105683584Y-85715828D01*
X105683584Y-85715828D02*
X105588346Y-86096780D01*
X105588346Y-86096780D02*
X105588346Y-86382495D01*
X105588346Y-86382495D02*
X105683584Y-86763447D01*
X105683584Y-86763447D02*
X105778822Y-86953923D01*
X105778822Y-86953923D02*
X105969298Y-87144400D01*
X105969298Y-87144400D02*
X106255013Y-87239638D01*
X106255013Y-87239638D02*
X106731203Y-87239638D01*
D10*
D11*
X116778822Y-105834876D02*
X116969298Y-105739638D01*
X116969298Y-105739638D02*
X117255012Y-105739638D01*
X117255012Y-105739638D02*
X117540727Y-105834876D01*
X117540727Y-105834876D02*
X117731203Y-106025352D01*
X117731203Y-106025352D02*
X117826441Y-106215828D01*
X117826441Y-106215828D02*
X117921679Y-106596780D01*
X117921679Y-106596780D02*
X117921679Y-106882495D01*
X117921679Y-106882495D02*
X117826441Y-107263447D01*
X117826441Y-107263447D02*
X117731203Y-107453923D01*
X117731203Y-107453923D02*
X117540727Y-107644400D01*
X117540727Y-107644400D02*
X117255012Y-107739638D01*
X117255012Y-107739638D02*
X117064536Y-107739638D01*
X117064536Y-107739638D02*
X116778822Y-107644400D01*
X116778822Y-107644400D02*
X116683584Y-107549161D01*
X116683584Y-107549161D02*
X116683584Y-106882495D01*
X116683584Y-106882495D02*
X117064536Y-106882495D01*
X115826441Y-107739638D02*
X115826441Y-105739638D01*
X115826441Y-105739638D02*
X114683584Y-107739638D01*
X114683584Y-107739638D02*
X114683584Y-105739638D01*
X113731203Y-107739638D02*
X113731203Y-105739638D01*
X113731203Y-105739638D02*
X113255013Y-105739638D01*
X113255013Y-105739638D02*
X112969298Y-105834876D01*
X112969298Y-105834876D02*
X112778822Y-106025352D01*
X112778822Y-106025352D02*
X112683584Y-106215828D01*
X112683584Y-106215828D02*
X112588346Y-106596780D01*
X112588346Y-106596780D02*
X112588346Y-106882495D01*
X112588346Y-106882495D02*
X112683584Y-107263447D01*
X112683584Y-107263447D02*
X112778822Y-107453923D01*
X112778822Y-107453923D02*
X112969298Y-107644400D01*
X112969298Y-107644400D02*
X113255013Y-107739638D01*
X113255013Y-107739638D02*
X113731203Y-107739638D01*
D12*
%TO.P,SW1,1,1*%
%TO.N,/LEDB*%
X118390000Y-90150000D03*
%TO.P,SW1,2,3*%
%TO.N,/GND*%
X114390000Y-85650000D03*
%TO.P,SW1,3,4*%
%TO.N,/LEDR*%
X111890000Y-80650000D03*
%TD*%
D13*
%TO.P,CHARGER1,1,Pin_1*%
%TO.N,/USB*%
X164160000Y-90000000D03*
D14*
%TO.P,CHARGER1,2,Pin_2*%
%TO.N,/GND*%
X161620000Y-90000000D03*
%TO.P,CHARGER1,3,Pin_3*%
%TO.N,/Bat*%
X159080000Y-90000000D03*
%TO.P,CHARGER1,4,Pin_4*%
%TO.N,/EN*%
X156595000Y-90000000D03*
%TO.P,CHARGER1,5,Pin_5*%
%TO.N,/GND*%
X154000000Y-90000000D03*
%TO.P,CHARGER1,6,Pin_6*%
%TO.N,/LB*%
X151460000Y-90000000D03*
%TO.P,CHARGER1,7,Pin_7*%
%TO.N,/GND*%
X148920000Y-90000000D03*
%TO.P,CHARGER1,8,Pin_8*%
%TO.N,/5V*%
X146380000Y-90000000D03*
%TD*%
D15*
%TO.P,REF\u002A\u002A,*%
%TO.N,*%
X165040000Y-115000000D03*
%TD*%
D12*
%TO.P,H2,1*%
%TO.N,/5V*%
X134905000Y-80155000D03*
%TD*%
D16*
%TO.P,D2,1,K*%
%TO.N,/GND*%
X155000000Y-56540000D03*
D17*
%TO.P,D2,2,A*%
%TO.N,Net-(D2-A)*%
X155000000Y-54000000D03*
%TD*%
D15*
%TO.P,REF\u002A\u002A,*%
%TO.N,*%
X110040000Y-115000000D03*
%TD*%
D12*
%TO.P,H6,1*%
%TO.N,/LEDR*%
X134905000Y-68155000D03*
%TD*%
D15*
%TO.P,REF\u002A\u002A,*%
%TO.N,*%
X165040000Y-60000000D03*
%TD*%
D12*
%TO.P,H5,1*%
%TO.N,/LEDR*%
X128905000Y-68155000D03*
%TD*%
%TO.P,H4,1*%
%TO.N,/LEDB*%
X134905000Y-74155000D03*
%TD*%
%TO.P,H1,1*%
%TO.N,/5V*%
X128905000Y-80155000D03*
%TD*%
D15*
%TO.P,REF\u002A\u002A,*%
%TO.N,*%
X110020000Y-60000000D03*
%TD*%
D12*
%TO.P,H3,1*%
%TO.N,/LEDB*%
X128905000Y-74155000D03*
%TD*%
D18*
%TO.P,R2,1*%
%TO.N,Net-(D2-A)*%
X141500000Y-53500000D03*
%TO.P,R2,2*%
%TO.N,/LB*%
X141500000Y-66200000D03*
%TD*%
D12*
%TO.P,SW_EN1,1,A*%
%TO.N,/GND*%
X122500000Y-107000000D03*
%TO.P,SW_EN1,2,B*%
%TO.N,/EN*%
X121500000Y-116000000D03*
%TD*%
D19*
%TO.N,/GND*%
X162000000Y-89960000D02*
X161960000Y-90000000D01*
X162000000Y-85000000D02*
X162000000Y-89960000D01*
X155000000Y-78000000D02*
X162000000Y-85000000D01*
X154340000Y-78660000D02*
X155000000Y-78000000D01*
X154340000Y-94660000D02*
X154340000Y-78660000D01*
X149000000Y-100000000D02*
X154340000Y-94660000D01*
X155000000Y-56540000D02*
X155000000Y-78000000D01*
%TO.N,/LB*%
X151800000Y-88300000D02*
X151800000Y-90000000D01*
X141500000Y-78000000D02*
X151800000Y-88300000D01*
X141500000Y-66200000D02*
X141500000Y-78000000D01*
%TO.N,Net-(D2-A)*%
X142000000Y-54000000D02*
X155000000Y-54000000D01*
X141500000Y-53500000D02*
X142000000Y-54000000D01*
D20*
X154500000Y-53500000D02*
X155000000Y-54000000D01*
D19*
%TO.N,/GND*%
X114500000Y-99000000D02*
X114500000Y-85760000D01*
X114500000Y-85760000D02*
X114390000Y-85650000D01*
X122500000Y-107000000D02*
X114500000Y-99000000D01*
%TO.N,/EN*%
X140500000Y-116000000D02*
X121500000Y-116000000D01*
X157000000Y-99500000D02*
X140500000Y-116000000D01*
X157000000Y-90065000D02*
X157000000Y-99500000D01*
X156935000Y-90000000D02*
X157000000Y-90065000D01*
%TO.N,/GND*%
X149000000Y-95000000D02*
X149000000Y-100000000D01*
X142000000Y-107000000D02*
X122500000Y-107000000D01*
X149260000Y-90000000D02*
X149000000Y-90260000D01*
X149000000Y-90260000D02*
X149000000Y-95000000D01*
X149000000Y-100000000D02*
X142000000Y-107000000D01*
%TO.N,/5V*%
X136905000Y-80155000D02*
X146720000Y-89970000D01*
X134905000Y-80155000D02*
X136905000Y-80155000D01*
X134905000Y-80155000D02*
X128905000Y-80155000D01*
%TO.N,/LEDR*%
X128905000Y-68155000D02*
X116410000Y-80650000D01*
X116410000Y-80650000D02*
X111890000Y-80650000D01*
X134905000Y-68155000D02*
X128905000Y-68155000D01*
%TO.N,/LEDB*%
X118390000Y-84670000D02*
X118390000Y-90150000D01*
X134905000Y-74155000D02*
X128905000Y-74155000D01*
X128905000Y-74155000D02*
X118390000Y-84670000D01*
%TD*%
M02*
