%TF.GenerationSoftware,KiCad,Pcbnew,9.0.7*%
%TF.CreationDate,2026-03-15T14:46:28-04:00*%
%TF.ProjectId,Measurement Testing,4d656173-7572-4656-9d65-6e7420546573,rev?*%
%TF.SameCoordinates,Original*%
%TF.FileFunction,Soldermask,Top*%
%TF.FilePolarity,Negative*%
%FSLAX46Y46*%
G04 Gerber Fmt 4.6, Leading zero omitted, Abs format (unit mm)*
G04 Created by KiCad (PCBNEW 9.0.7) date 2026-03-15 14:46:28*
%MOMM*%
%LPD*%
G01*
G04 APERTURE LIST*
G04 Aperture macros list*
%AMRoundRect*
0 Rectangle with rounded corners*
0 $1 Rounding radius*
0 $2 $3 $4 $5 $6 $7 $8 $9 X,Y pos of 4 corners*
0 Add a 4 corners polygon primitive as box body*
4,1,4,$2,$3,$4,$5,$6,$7,$8,$9,$2,$3,0*
0 Add four circle primitives for the rounded corners*
1,1,$1+$1,$2,$3*
1,1,$1+$1,$4,$5*
1,1,$1+$1,$6,$7*
1,1,$1+$1,$8,$9*
0 Add four rect primitives between the rounded corners*
20,1,$1+$1,$2,$3,$4,$5,0*
20,1,$1+$1,$4,$5,$6,$7,0*
20,1,$1+$1,$6,$7,$8,$9,0*
20,1,$1+$1,$8,$9,$2,$3,0*%
%AMFreePoly0*
4,1,37,0.603843,0.796157,0.639018,0.796157,0.711114,0.766294,0.766294,0.711114,0.796157,0.639018,0.796157,0.603843,0.800000,0.600000,0.800000,-0.600000,0.796157,-0.603843,0.796157,-0.639018,0.766294,-0.711114,0.711114,-0.766294,0.639018,-0.796157,0.603843,-0.796157,0.600000,-0.800000,0.000000,-0.800000,0.000000,-0.796148,-0.078414,-0.796148,-0.232228,-0.765552,-0.377117,-0.705537,
-0.507515,-0.618408,-0.618408,-0.507515,-0.705537,-0.377117,-0.765552,-0.232228,-0.796148,-0.078414,-0.796148,0.078414,-0.765552,0.232228,-0.705537,0.377117,-0.618408,0.507515,-0.507515,0.618408,-0.377117,0.705537,-0.232228,0.765552,-0.078414,0.796148,0.000000,0.796148,0.000000,0.800000,0.600000,0.800000,0.603843,0.796157,0.603843,0.796157,$1*%
%AMFreePoly1*
4,1,37,0.000000,0.796148,0.078414,0.796148,0.232228,0.765552,0.377117,0.705537,0.507515,0.618408,0.618408,0.507515,0.705537,0.377117,0.765552,0.232228,0.796148,0.078414,0.796148,-0.078414,0.765552,-0.232228,0.705537,-0.377117,0.618408,-0.507515,0.507515,-0.618408,0.377117,-0.705537,0.232228,-0.765552,0.078414,-0.796148,0.000000,-0.796148,0.000000,-0.800000,-0.600000,-0.800000,
-0.603843,-0.796157,-0.639018,-0.796157,-0.711114,-0.766294,-0.766294,-0.711114,-0.796157,-0.639018,-0.796157,-0.603843,-0.800000,-0.600000,-0.800000,0.600000,-0.796157,0.603843,-0.796157,0.639018,-0.766294,0.711114,-0.711114,0.766294,-0.639018,0.796157,-0.603843,0.796157,-0.600000,0.800000,0.000000,0.800000,0.000000,0.796148,0.000000,0.796148,$1*%
G04 Aperture macros list end*
%ADD10C,0.100000*%
%ADD11C,2.340000*%
%ADD12RoundRect,0.075000X0.662500X0.075000X-0.662500X0.075000X-0.662500X-0.075000X0.662500X-0.075000X0*%
%ADD13RoundRect,0.100000X-0.100000X0.637500X-0.100000X-0.637500X0.100000X-0.637500X0.100000X0.637500X0*%
%ADD14RoundRect,0.250000X-0.250000X-0.475000X0.250000X-0.475000X0.250000X0.475000X-0.250000X0.475000X0*%
%ADD15RoundRect,0.225000X0.250000X-0.225000X0.250000X0.225000X-0.250000X0.225000X-0.250000X-0.225000X0*%
%ADD16RoundRect,0.250000X0.475000X-0.250000X0.475000X0.250000X-0.475000X0.250000X-0.475000X-0.250000X0*%
%ADD17RoundRect,0.225000X-0.250000X0.225000X-0.250000X-0.225000X0.250000X-0.225000X0.250000X0.225000X0*%
%ADD18RoundRect,0.140000X-0.140000X-0.170000X0.140000X-0.170000X0.140000X0.170000X-0.140000X0.170000X0*%
%ADD19RoundRect,0.160000X0.160000X-0.197500X0.160000X0.197500X-0.160000X0.197500X-0.160000X-0.197500X0*%
%ADD20RoundRect,0.250000X-1.100000X0.325000X-1.100000X-0.325000X1.100000X-0.325000X1.100000X0.325000X0*%
%ADD21RoundRect,0.200000X-0.275000X0.200000X-0.275000X-0.200000X0.275000X-0.200000X0.275000X0.200000X0*%
%ADD22RoundRect,0.250000X-0.650000X0.325000X-0.650000X-0.325000X0.650000X-0.325000X0.650000X0.325000X0*%
%ADD23RoundRect,0.250000X0.362500X1.425000X-0.362500X1.425000X-0.362500X-1.425000X0.362500X-1.425000X0*%
%ADD24RoundRect,0.760000X-1.140000X-1.140000X1.140000X-1.140000X1.140000X1.140000X-1.140000X1.140000X0*%
%ADD25C,4.000000*%
%ADD26RoundRect,0.150000X0.512500X0.150000X-0.512500X0.150000X-0.512500X-0.150000X0.512500X-0.150000X0*%
%ADD27R,1.700000X1.700000*%
%ADD28C,1.700000*%
%ADD29C,2.200000*%
%ADD30C,1.850000*%
%ADD31RoundRect,0.200000X-0.600000X0.600000X-0.600000X-0.600000X0.600000X-0.600000X0.600000X0.600000X0*%
%ADD32C,1.600000*%
%ADD33FreePoly0,270.000000*%
%ADD34FreePoly1,270.000000*%
G04 APERTURE END LIST*
D10*
X109300000Y-31000000D02*
X124200000Y-31000000D01*
X124200000Y-36500000D01*
X109300000Y-36500000D01*
X109300000Y-31000000D01*
G36*
X109300000Y-31000000D02*
G01*
X124200000Y-31000000D01*
X124200000Y-36500000D01*
X109300000Y-36500000D01*
X109300000Y-31000000D01*
G37*
X108000000Y-36000000D02*
X105500000Y-38500000D01*
X101500000Y-38500000D01*
X99000000Y-36000000D01*
X99000000Y-31500000D01*
X108000000Y-31500000D01*
X108000000Y-36000000D01*
G36*
X108000000Y-36000000D02*
G01*
X105500000Y-38500000D01*
X101500000Y-38500000D01*
X99000000Y-36000000D01*
X99000000Y-31500000D01*
X108000000Y-31500000D01*
X108000000Y-36000000D01*
G37*
D11*
%TO.C,RV1*%
X118000000Y-49200000D03*
X120500000Y-39200000D03*
X123000000Y-49200000D03*
%TD*%
D12*
%TO.C,U3*%
X77137500Y-48000000D03*
X77137500Y-47500000D03*
X77137500Y-47000000D03*
X77137500Y-46500000D03*
X77137500Y-46000000D03*
X77137500Y-45500000D03*
X77137500Y-45000000D03*
X77137500Y-44500000D03*
X77137500Y-44000000D03*
X77137500Y-43500000D03*
X77137500Y-43000000D03*
X77137500Y-42500000D03*
X77137500Y-42000000D03*
X77137500Y-41500000D03*
X77137500Y-41000000D03*
X77137500Y-40500000D03*
X77137500Y-40000000D03*
X77137500Y-39500000D03*
X77137500Y-39000000D03*
X82862500Y-39000000D03*
X82862500Y-39500000D03*
X82862500Y-40000000D03*
X82862500Y-40500000D03*
X82862500Y-41000000D03*
X82862500Y-41500000D03*
X82862500Y-42000000D03*
X82862500Y-42500000D03*
X82862500Y-43000000D03*
X82862500Y-43500000D03*
X82862500Y-44000000D03*
X82862500Y-44500000D03*
X82862500Y-45000000D03*
X82862500Y-45500000D03*
X82862500Y-46000000D03*
X82862500Y-46500000D03*
X82862500Y-47000000D03*
X82862500Y-47500000D03*
X82862500Y-48000000D03*
%TD*%
D13*
%TO.C,U4*%
X89475000Y-42362500D03*
X88825000Y-42362500D03*
X88175000Y-42362500D03*
X87525000Y-42362500D03*
X87525000Y-36637500D03*
X88175000Y-36637500D03*
X88825000Y-36637500D03*
X89475000Y-36637500D03*
%TD*%
D14*
%TO.C,C12*%
X87662500Y-48250000D03*
X85762500Y-48250000D03*
%TD*%
D15*
%TO.C,C10*%
X74212500Y-44025000D03*
X74212500Y-42475000D03*
%TD*%
D16*
%TO.C,C8*%
X74212500Y-45500000D03*
X74212500Y-47400000D03*
%TD*%
D17*
%TO.C,C11*%
X87212500Y-44975000D03*
X87212500Y-46525000D03*
%TD*%
D18*
%TO.C,Cbst1*%
X94837500Y-41902500D03*
X95797500Y-41902500D03*
%TD*%
D19*
%TO.C,Rfbt1*%
X92950000Y-41347500D03*
X92950000Y-40152500D03*
%TD*%
%TO.C,Rfbb1*%
X92950000Y-39097500D03*
X92950000Y-37902500D03*
%TD*%
D20*
%TO.C,C9*%
X90212500Y-45125000D03*
X90212500Y-48075000D03*
%TD*%
D21*
%TO.C,R2*%
X85500000Y-39675000D03*
X85500000Y-41325000D03*
%TD*%
D17*
%TO.C,C7*%
X85712500Y-42975000D03*
X85712500Y-44525000D03*
%TD*%
D22*
%TO.C,Cin1*%
X99112500Y-38277500D03*
X99112500Y-41227500D03*
%TD*%
D16*
%TO.C,Cout1*%
X91450000Y-40602500D03*
X91450000Y-38702500D03*
%TD*%
D21*
%TO.C,R1*%
X85500000Y-36175000D03*
X85500000Y-37825000D03*
%TD*%
D23*
%TO.C,Rshunt1*%
X91462500Y-33500000D03*
X85537500Y-33500000D03*
%TD*%
D24*
%TO.C,J2*%
X76500000Y-33500000D03*
D25*
X81500000Y-33500000D03*
%TD*%
D26*
%TO.C,U5*%
X96837500Y-40602500D03*
X96837500Y-39652500D03*
X96837500Y-38702500D03*
X94562500Y-38702500D03*
X94562500Y-39652500D03*
X94562500Y-40602500D03*
%TD*%
D27*
%TO.C,J1*%
X110250000Y-33525000D03*
D28*
X107710000Y-33525000D03*
%TD*%
D29*
%TO.C,U1*%
X74500000Y-60275000D03*
D30*
X77530000Y-60575000D03*
X77530000Y-65425000D03*
D29*
X74500000Y-65725000D03*
D31*
X74370000Y-54110000D03*
D32*
X76910000Y-54110000D03*
D33*
X79450000Y-54110000D03*
D32*
X81990000Y-54110000D03*
X84530000Y-54110000D03*
X87070000Y-54110000D03*
X89610000Y-54110000D03*
D33*
X92150000Y-54110000D03*
D32*
X94690000Y-54110000D03*
X97230000Y-54110000D03*
X99770000Y-54110000D03*
X102310000Y-54110000D03*
D33*
X104850000Y-54110000D03*
D32*
X107390000Y-54110000D03*
X109930000Y-54110000D03*
X112470000Y-54110000D03*
X115010000Y-54110000D03*
D33*
X117550000Y-54110000D03*
D32*
X120090000Y-54110000D03*
X122630000Y-54110000D03*
X122630000Y-71890000D03*
X120090000Y-71890000D03*
D34*
X117550000Y-71890000D03*
D32*
X115010000Y-71890000D03*
X112470000Y-71890000D03*
X109930000Y-71890000D03*
X107390000Y-71890000D03*
D34*
X104850000Y-71890000D03*
D32*
X102310000Y-71890000D03*
X99770000Y-71890000D03*
X97230000Y-71890000D03*
X94690000Y-71890000D03*
D34*
X92150000Y-71890000D03*
D32*
X89610000Y-71890000D03*
X87070000Y-71890000D03*
X84530000Y-71890000D03*
X81990000Y-71890000D03*
D34*
X79450000Y-71890000D03*
D32*
X76910000Y-71890000D03*
X74370000Y-71890000D03*
%TD*%
M02*
