M48
; DRILL file {KiCad 9.0.7} date 2026-03-15T14:46:32-0400
; FORMAT={-:-/ absolute / metric / decimal}
; #@! TF.CreationDate,2026-03-15T14:46:32-04:00
; #@! TF.GenerationSoftware,Kicad,Pcbnew,9.0.7
; #@! TF.FileFunction,Plated,1,2,PTH
FMAT,2
METRIC
; #@! TA.AperFunction,Plated,PTH,ViaDrill
T1C0.300
; #@! TA.AperFunction,Plated,PTH,ComponentDrill
T2C1.000
; #@! TA.AperFunction,Plated,PTH,ComponentDrill
T3C1.300
; #@! TA.AperFunction,Plated,PTH,ComponentDrill
T4C2.700
%
G90
G05
T1
X75.2Y-45.0
X76.0Y-39.0
X76.0Y-40.0
X76.0Y-41.0
X76.0Y-42.0
X76.0Y-43.0
X76.0Y-45.0
X78.2Y-39.0
X78.2Y-40.0
X78.2Y-41.0
X78.2Y-42.0
X78.2Y-43.0
X81.7Y-39.0
X81.7Y-40.0
X81.7Y-40.9
X81.7Y-41.8
X81.7Y-42.7
X81.7Y-43.6
X81.7Y-44.5
X81.7Y-45.5
X81.7Y-46.75
X84.0Y-41.3
X84.0Y-42.2
X84.0Y-43.0
X84.0Y-46.75
X84.1Y-38.8
X84.8Y-44.3
X85.5Y-46.1
X86.106Y-46.694
X86.806Y-47.394
X87.5Y-38.1
X87.525Y-41.2
X88.0Y-46.4
X88.4Y-41.3
X88.4Y-47.0
X88.5Y-38.1
X88.5Y-39.0
X88.8Y-46.4
X89.2Y-47.0
X89.6Y-46.4
X90.0Y-47.0
X90.5Y-42.0
X90.5Y-43.0
X90.9Y-50.5
X90.9Y-51.5
X90.9Y-55.4
X90.9Y-56.5
X91.0Y-42.5
X91.0Y-43.5
X91.5Y-42.0
X91.5Y-43.0
X92.0Y-42.5
X92.0Y-43.5
X92.5Y-42.0
X92.5Y-43.0
X93.0Y-42.5
X93.0Y-43.5
X97.8Y-41.227
X97.9Y-39.3
X97.9Y-40.0
X109.6Y-49.681
X110.4Y-49.681
X111.2Y-49.681
X111.5Y-32.8
X111.5Y-33.8
X111.5Y-34.8
X112.5Y-31.8
X112.5Y-35.8
X113.5Y-31.8
X113.5Y-33.8
X113.5Y-35.8
X114.5Y-31.8
X114.5Y-33.8
X114.5Y-34.8
X114.5Y-35.8
X115.0Y-48.0
X115.8Y-48.8
X116.05Y-31.8
X116.05Y-32.8
X116.05Y-33.8
X116.05Y-34.8
X116.05Y-35.8
X116.6Y-49.681
X117.05Y-32.8
X118.05Y-33.8
X119.05Y-31.8
X119.05Y-32.8
X119.05Y-33.8
X119.05Y-34.8
X119.05Y-35.8
X120.65Y-31.8
X120.65Y-32.8
X120.65Y-33.8
X120.65Y-34.8
X120.65Y-35.8
X121.65Y-31.8
X121.65Y-35.8
X122.65Y-31.8
X122.65Y-35.8
X123.65Y-32.8
X123.65Y-33.8
X123.65Y-34.8
T2
X74.37Y-54.11
X74.37Y-71.89
X76.91Y-54.11
X76.91Y-71.89
X79.45Y-54.11
X79.45Y-71.89
X81.99Y-54.11
X81.99Y-71.89
X84.53Y-54.11
X84.53Y-71.89
X87.07Y-54.11
X87.07Y-71.89
X89.61Y-54.11
X89.61Y-71.89
X92.15Y-54.11
X92.15Y-71.89
X94.69Y-54.11
X94.69Y-71.89
X97.23Y-54.11
X97.23Y-71.89
X99.77Y-54.11
X99.77Y-71.89
X102.31Y-54.11
X102.31Y-71.89
X104.85Y-54.11
X104.85Y-71.89
X107.39Y-54.11
X107.39Y-71.89
X107.71Y-33.525
X109.93Y-54.11
X109.93Y-71.89
X110.25Y-33.525
X112.47Y-54.11
X112.47Y-71.89
X115.01Y-54.11
X115.01Y-71.89
X117.55Y-54.11
X117.55Y-71.89
X120.09Y-54.11
X120.09Y-71.89
X122.63Y-54.11
X122.63Y-71.89
T3
X118.0Y-49.2
X120.5Y-39.2
X123.0Y-49.2
T4
X76.5Y-33.5
X81.5Y-33.5
M30
