%TF.GenerationSoftware,KiCad,Pcbnew,9.0.7*%
%TF.CreationDate,2026-03-15T14:46:28-04:00*%
%TF.ProjectId,Measurement Testing,4d656173-7572-4656-9d65-6e7420546573,rev?*%
%TF.SameCoordinates,Original*%
%TF.FileFunction,Copper,L1,Top*%
%TF.FilePolarity,Positive*%
%FSLAX46Y46*%
G04 Gerber Fmt 4.6, Leading zero omitted, Abs format (unit mm)*
G04 Created by KiCad (PCBNEW 9.0.7) date 2026-03-15 14:46:28*
%MOMM*%
%LPD*%
G01*
G04 APERTURE LIST*
G04 Aperture macros list*
%AMRoundRect*
0 Rectangle with rounded corners*
0 $1 Rounding radius*
0 $2 $3 $4 $5 $6 $7 $8 $9 X,Y pos of 4 corners*
0 Add a 4 corners polygon primitive as box body*
4,1,4,$2,$3,$4,$5,$6,$7,$8,$9,$2,$3,0*
0 Add four circle primitives for the rounded corners*
1,1,$1+$1,$2,$3*
1,1,$1+$1,$4,$5*
1,1,$1+$1,$6,$7*
1,1,$1+$1,$8,$9*
0 Add four rect primitives between the rounded corners*
20,1,$1+$1,$2,$3,$4,$5,0*
20,1,$1+$1,$4,$5,$6,$7,0*
20,1,$1+$1,$6,$7,$8,$9,0*
20,1,$1+$1,$8,$9,$2,$3,0*%
%AMFreePoly0*
4,1,37,0.603843,0.796157,0.639018,0.796157,0.711114,0.766294,0.766294,0.711114,0.796157,0.639018,0.796157,0.603843,0.800000,0.600000,0.800000,-0.600000,0.796157,-0.603843,0.796157,-0.639018,0.766294,-0.711114,0.711114,-0.766294,0.639018,-0.796157,0.603843,-0.796157,0.600000,-0.800000,0.000000,-0.800000,0.000000,-0.796148,-0.078414,-0.796148,-0.232228,-0.765552,-0.377117,-0.705537,
-0.507515,-0.618408,-0.618408,-0.507515,-0.705537,-0.377117,-0.765552,-0.232228,-0.796148,-0.078414,-0.796148,0.078414,-0.765552,0.232228,-0.705537,0.377117,-0.618408,0.507515,-0.507515,0.618408,-0.377117,0.705537,-0.232228,0.765552,-0.078414,0.796148,0.000000,0.796148,0.000000,0.800000,0.600000,0.800000,0.603843,0.796157,0.603843,0.796157,$1*%
%AMFreePoly1*
4,1,37,0.000000,0.796148,0.078414,0.796148,0.232228,0.765552,0.377117,0.705537,0.507515,0.618408,0.618408,0.507515,0.705537,0.377117,0.765552,0.232228,0.796148,0.078414,0.796148,-0.078414,0.765552,-0.232228,0.705537,-0.377117,0.618408,-0.507515,0.507515,-0.618408,0.377117,-0.705537,0.232228,-0.765552,0.078414,-0.796148,0.000000,-0.796148,0.000000,-0.800000,-0.600000,-0.800000,
-0.603843,-0.796157,-0.639018,-0.796157,-0.711114,-0.766294,-0.766294,-0.711114,-0.796157,-0.639018,-0.796157,-0.603843,-0.800000,-0.600000,-0.800000,0.600000,-0.796157,0.603843,-0.796157,0.639018,-0.766294,0.711114,-0.711114,0.766294,-0.639018,0.796157,-0.603843,0.796157,-0.600000,0.800000,0.000000,0.800000,0.000000,0.796148,0.000000,0.796148,$1*%
G04 Aperture macros list end*
%TA.AperFunction,Conductor*%
%ADD10C,0.100000*%
%TD*%
%TA.AperFunction,Conductor*%
%ADD11C,0.200000*%
%TD*%
%TA.AperFunction,ComponentPad*%
%ADD12C,2.340000*%
%TD*%
%TA.AperFunction,SMDPad,CuDef*%
%ADD13RoundRect,0.075000X0.662500X0.075000X-0.662500X0.075000X-0.662500X-0.075000X0.662500X-0.075000X0*%
%TD*%
%TA.AperFunction,SMDPad,CuDef*%
%ADD14RoundRect,0.100000X-0.100000X0.637500X-0.100000X-0.637500X0.100000X-0.637500X0.100000X0.637500X0*%
%TD*%
%TA.AperFunction,SMDPad,CuDef*%
%ADD15RoundRect,0.250000X-0.250000X-0.475000X0.250000X-0.475000X0.250000X0.475000X-0.250000X0.475000X0*%
%TD*%
%TA.AperFunction,SMDPad,CuDef*%
%ADD16RoundRect,0.225000X0.250000X-0.225000X0.250000X0.225000X-0.250000X0.225000X-0.250000X-0.225000X0*%
%TD*%
%TA.AperFunction,SMDPad,CuDef*%
%ADD17RoundRect,0.250000X0.475000X-0.250000X0.475000X0.250000X-0.475000X0.250000X-0.475000X-0.250000X0*%
%TD*%
%TA.AperFunction,SMDPad,CuDef*%
%ADD18RoundRect,0.225000X-0.250000X0.225000X-0.250000X-0.225000X0.250000X-0.225000X0.250000X0.225000X0*%
%TD*%
%TA.AperFunction,SMDPad,CuDef*%
%ADD19RoundRect,0.140000X-0.140000X-0.170000X0.140000X-0.170000X0.140000X0.170000X-0.140000X0.170000X0*%
%TD*%
%TA.AperFunction,SMDPad,CuDef*%
%ADD20RoundRect,0.160000X0.160000X-0.197500X0.160000X0.197500X-0.160000X0.197500X-0.160000X-0.197500X0*%
%TD*%
%TA.AperFunction,SMDPad,CuDef*%
%ADD21RoundRect,0.250000X-1.100000X0.325000X-1.100000X-0.325000X1.100000X-0.325000X1.100000X0.325000X0*%
%TD*%
%TA.AperFunction,SMDPad,CuDef*%
%ADD22RoundRect,0.200000X-0.275000X0.200000X-0.275000X-0.200000X0.275000X-0.200000X0.275000X0.200000X0*%
%TD*%
%TA.AperFunction,SMDPad,CuDef*%
%ADD23RoundRect,0.250000X-0.650000X0.325000X-0.650000X-0.325000X0.650000X-0.325000X0.650000X0.325000X0*%
%TD*%
%TA.AperFunction,SMDPad,CuDef*%
%ADD24RoundRect,0.250000X0.362500X1.425000X-0.362500X1.425000X-0.362500X-1.425000X0.362500X-1.425000X0*%
%TD*%
%TA.AperFunction,ComponentPad*%
%ADD25RoundRect,0.760000X-1.140000X-1.140000X1.140000X-1.140000X1.140000X1.140000X-1.140000X1.140000X0*%
%TD*%
%TA.AperFunction,ComponentPad*%
%ADD26C,4.000000*%
%TD*%
%TA.AperFunction,SMDPad,CuDef*%
%ADD27RoundRect,0.150000X0.512500X0.150000X-0.512500X0.150000X-0.512500X-0.150000X0.512500X-0.150000X0*%
%TD*%
%TA.AperFunction,ComponentPad*%
%ADD28R,1.700000X1.700000*%
%TD*%
%TA.AperFunction,ComponentPad*%
%ADD29C,1.700000*%
%TD*%
%TA.AperFunction,ComponentPad*%
%ADD30RoundRect,0.200000X-0.600000X0.600000X-0.600000X-0.600000X0.600000X-0.600000X0.600000X0.600000X0*%
%TD*%
%TA.AperFunction,ComponentPad*%
%ADD31C,1.600000*%
%TD*%
%TA.AperFunction,ComponentPad*%
%ADD32FreePoly0,270.000000*%
%TD*%
%TA.AperFunction,ComponentPad*%
%ADD33FreePoly1,270.000000*%
%TD*%
%TA.AperFunction,ViaPad*%
%ADD34C,0.600000*%
%TD*%
%TA.AperFunction,Conductor*%
%ADD35C,0.300000*%
%TD*%
%TA.AperFunction,Conductor*%
%ADD36C,0.400000*%
%TD*%
G04 APERTURE END LIST*
D10*
%TO.N,3V3*%
X93473612Y-50773612D02*
X92373612Y-49673612D01*
X94573612Y-49673612D01*
X93473612Y-50773612D01*
%TA.AperFunction,Conductor*%
G36*
X93473612Y-50773612D02*
G01*
X92373612Y-49673612D01*
X94573612Y-49673612D01*
X93473612Y-50773612D01*
G37*
%TD.AperFunction*%
D11*
%TO.N,GND*%
X76000000Y-42700000D02*
X76000000Y-43500000D01*
X75200000Y-43500000D01*
X74200000Y-42500000D01*
X75800000Y-42500000D01*
X76000000Y-42700000D01*
%TA.AperFunction,Conductor*%
G36*
X76000000Y-42700000D02*
G01*
X76000000Y-43500000D01*
X75200000Y-43500000D01*
X74200000Y-42500000D01*
X75800000Y-42500000D01*
X76000000Y-42700000D01*
G37*
%TD.AperFunction*%
X76000000Y-45400000D02*
X75400000Y-45400000D01*
X74900000Y-45900000D01*
X74400000Y-45400000D01*
X74400000Y-45200000D01*
X75000000Y-44600000D01*
X76000000Y-44600000D01*
X76000000Y-45400000D01*
%TA.AperFunction,Conductor*%
G36*
X76000000Y-45400000D02*
G01*
X75400000Y-45400000D01*
X74900000Y-45900000D01*
X74400000Y-45400000D01*
X74400000Y-45200000D01*
X75000000Y-44600000D01*
X76000000Y-44600000D01*
X76000000Y-45400000D01*
G37*
%TD.AperFunction*%
%TO.N,3V3*%
X118800000Y-48600000D02*
X118800000Y-49200000D01*
X118400000Y-49600000D01*
X113600000Y-49600000D01*
X115200000Y-48000000D01*
X118200000Y-48000000D01*
X118800000Y-48600000D01*
%TA.AperFunction,Conductor*%
G36*
X118800000Y-48600000D02*
G01*
X118800000Y-49200000D01*
X118400000Y-49600000D01*
X113600000Y-49600000D01*
X115200000Y-48000000D01*
X118200000Y-48000000D01*
X118800000Y-48600000D01*
G37*
%TD.AperFunction*%
%TO.N,GND*%
X91500000Y-48100000D02*
X91500000Y-48400000D01*
X91300000Y-48600000D01*
X88000000Y-48600000D01*
X85500000Y-46100000D01*
X89500000Y-46100000D01*
X91500000Y-48100000D01*
%TA.AperFunction,Conductor*%
G36*
X91500000Y-48100000D02*
G01*
X91500000Y-48400000D01*
X91300000Y-48600000D01*
X88000000Y-48600000D01*
X85500000Y-46100000D01*
X89500000Y-46100000D01*
X91500000Y-48100000D01*
G37*
%TD.AperFunction*%
%TO.N,Net-(U5-SW)*%
X98100000Y-39200000D02*
X98100000Y-40100000D01*
X98000000Y-40200000D01*
X97800000Y-40200000D01*
X97300000Y-39700000D01*
X97300000Y-39600000D01*
X97800000Y-39100000D01*
X98000000Y-39100000D01*
X98100000Y-39200000D01*
%TA.AperFunction,Conductor*%
G36*
X98100000Y-39200000D02*
G01*
X98100000Y-40100000D01*
X98000000Y-40200000D01*
X97800000Y-40200000D01*
X97300000Y-39700000D01*
X97300000Y-39600000D01*
X97800000Y-39100000D01*
X98000000Y-39100000D01*
X98100000Y-39200000D01*
G37*
%TD.AperFunction*%
%TO.N,Net-(U5-FB)*%
X93100000Y-39600000D02*
X93100000Y-39000000D01*
X93300000Y-38800000D01*
X93900000Y-38800000D01*
X93100000Y-39600000D01*
%TA.AperFunction,Conductor*%
G36*
X93100000Y-39600000D02*
G01*
X93100000Y-39000000D01*
X93300000Y-38800000D01*
X93900000Y-38800000D01*
X93100000Y-39600000D01*
G37*
%TD.AperFunction*%
%TO.N,5V*%
X93150000Y-41450000D02*
X93150000Y-43650000D01*
X92700000Y-44100000D01*
X86500000Y-44100000D01*
X86050000Y-43650000D01*
X86050000Y-43600000D01*
X84750000Y-43600000D01*
X84750000Y-43500000D01*
X87000000Y-41250000D01*
X87500000Y-41250000D01*
X87650000Y-41400000D01*
X87650000Y-43250000D01*
X87900000Y-43500000D01*
X89750000Y-43500000D01*
X90300000Y-42950000D01*
X90300000Y-40850000D01*
X90900000Y-40250000D01*
X91950000Y-40250000D01*
X93150000Y-41450000D01*
%TA.AperFunction,Conductor*%
G36*
X93150000Y-41450000D02*
G01*
X93150000Y-43650000D01*
X92700000Y-44100000D01*
X86500000Y-44100000D01*
X86050000Y-43650000D01*
X86050000Y-43600000D01*
X84750000Y-43600000D01*
X84750000Y-43500000D01*
X87000000Y-41250000D01*
X87500000Y-41250000D01*
X87650000Y-41400000D01*
X87650000Y-43250000D01*
X87900000Y-43500000D01*
X89750000Y-43500000D01*
X90300000Y-42950000D01*
X90300000Y-40850000D01*
X90900000Y-40250000D01*
X91950000Y-40250000D01*
X93150000Y-41450000D01*
G37*
%TD.AperFunction*%
%TO.N,Net-(U3-REFCAP)*%
X91450000Y-44700000D02*
X91450000Y-45650000D01*
X86600000Y-45650000D01*
X86250000Y-45300000D01*
X86950000Y-44600000D01*
X91350000Y-44600000D01*
X91450000Y-44700000D01*
%TA.AperFunction,Conductor*%
G36*
X91450000Y-44700000D02*
G01*
X91450000Y-45650000D01*
X86600000Y-45650000D01*
X86250000Y-45300000D01*
X86950000Y-44600000D01*
X91350000Y-44600000D01*
X91450000Y-44700000D01*
G37*
%TD.AperFunction*%
%TO.N,GND*%
X85600000Y-41400000D02*
X84200000Y-42800000D01*
X84100000Y-42800000D01*
X84000000Y-42700000D01*
X84000000Y-41000000D01*
X85200000Y-41000000D01*
X85600000Y-41400000D01*
%TA.AperFunction,Conductor*%
G36*
X85600000Y-41400000D02*
G01*
X84200000Y-42800000D01*
X84100000Y-42800000D01*
X84000000Y-42700000D01*
X84000000Y-41000000D01*
X85200000Y-41000000D01*
X85600000Y-41400000D01*
G37*
%TD.AperFunction*%
%TO.N,Net-(J2-Pin_2)*%
X86100000Y-32000000D02*
X86100000Y-36300000D01*
X85900000Y-36500000D01*
X85100000Y-36500000D01*
X84100000Y-35500000D01*
X80700000Y-35500000D01*
X79500000Y-34300000D01*
X79500000Y-32700000D01*
X80700000Y-31500000D01*
X85600000Y-31500000D01*
X86100000Y-32000000D01*
%TA.AperFunction,Conductor*%
G36*
X86100000Y-32000000D02*
G01*
X86100000Y-36300000D01*
X85900000Y-36500000D01*
X85100000Y-36500000D01*
X84100000Y-35500000D01*
X80700000Y-35500000D01*
X79500000Y-34300000D01*
X79500000Y-32700000D01*
X80700000Y-31500000D01*
X85600000Y-31500000D01*
X86100000Y-32000000D01*
G37*
%TD.AperFunction*%
%TO.N,Net-(U3-AIN_1P)*%
X85900000Y-40000000D02*
X85100000Y-40000000D01*
X85100000Y-37500000D01*
X85900000Y-37500000D01*
X85900000Y-40000000D01*
%TA.AperFunction,Conductor*%
G36*
X85900000Y-40000000D02*
G01*
X85100000Y-40000000D01*
X85100000Y-37500000D01*
X85900000Y-37500000D01*
X85900000Y-40000000D01*
G37*
%TD.AperFunction*%
%TO.N,GND*%
X109300000Y-31000000D02*
X124200000Y-31000000D01*
X124200000Y-36500000D01*
X109300000Y-36500000D01*
X109300000Y-31000000D01*
%TA.AperFunction,Conductor*%
G36*
X109300000Y-31000000D02*
G01*
X124200000Y-31000000D01*
X124200000Y-36500000D01*
X109300000Y-36500000D01*
X109300000Y-31000000D01*
G37*
%TD.AperFunction*%
%TO.N,VIN*%
X108400000Y-36000000D02*
X105750000Y-38650000D01*
X96350000Y-38650000D01*
X92800000Y-35100000D01*
X91700000Y-35100000D01*
X91000000Y-34400000D01*
X91000000Y-32000000D01*
X92000000Y-31000000D01*
X108400000Y-31000000D01*
X108400000Y-36000000D01*
%TA.AperFunction,Conductor*%
G36*
X108400000Y-36000000D02*
G01*
X105750000Y-38650000D01*
X96350000Y-38650000D01*
X92800000Y-35100000D01*
X91700000Y-35100000D01*
X91000000Y-34400000D01*
X91000000Y-32000000D01*
X92000000Y-31000000D01*
X108400000Y-31000000D01*
X108400000Y-36000000D01*
G37*
%TD.AperFunction*%
%TO.N,GND*%
X93100000Y-37500000D02*
X93100000Y-37900000D01*
X91800000Y-39200000D01*
X87500000Y-39200000D01*
X87300000Y-39000000D01*
X87300000Y-37800000D01*
X87400000Y-37700000D01*
X89070000Y-37700000D01*
X89500000Y-37309090D01*
X89500000Y-36000000D01*
X91600000Y-36000000D01*
X93100000Y-37500000D01*
%TA.AperFunction,Conductor*%
G36*
X93100000Y-37500000D02*
G01*
X93100000Y-37900000D01*
X91800000Y-39200000D01*
X87500000Y-39200000D01*
X87300000Y-39000000D01*
X87300000Y-37800000D01*
X87400000Y-37700000D01*
X89070000Y-37700000D01*
X89500000Y-37309090D01*
X89500000Y-36000000D01*
X91600000Y-36000000D01*
X93100000Y-37500000D01*
G37*
%TD.AperFunction*%
%TD*%
D12*
%TO.P,RV1,3,3*%
%TO.N,3V3*%
X118000000Y-49200000D03*
%TO.P,RV1,2,2*%
%TO.N,Net-(U2-AIN_2P)*%
X120500000Y-39200000D03*
%TO.P,RV1,1,1*%
%TO.N,GND*%
X123000000Y-49200000D03*
%TD*%
D13*
%TO.P,U3,38,~{CS}*%
%TO.N,Net-(U1-GPIO1)*%
X77137500Y-48000000D03*
%TO.P,U3,37,SCLK*%
%TO.N,Net-(U1-GPIO2)*%
X77137500Y-47500000D03*
%TO.P,U3,36,SDO*%
%TO.N,Net-(U1-GPIO0)*%
X77137500Y-47000000D03*
%TO.P,U3,35,DNC*%
%TO.N,unconnected-(U3-DNC-Pad35)*%
X77137500Y-46500000D03*
%TO.P,U3,34,DVDD*%
%TO.N,3V3*%
X77137500Y-46000000D03*
%TO.P,U3,33,DGND*%
%TO.N,GND*%
X77137500Y-45500000D03*
%TO.P,U3,32,AGND__4*%
X77137500Y-45000000D03*
%TO.P,U3,31,AGND__3*%
X77137500Y-44500000D03*
%TO.P,U3,30,AVDD__1*%
%TO.N,Net-(U3-AVDD__1)*%
X77137500Y-44000000D03*
%TO.P,U3,29,AGND__2*%
%TO.N,GND*%
X77137500Y-43500000D03*
%TO.P,U3,28,AGND__1*%
X77137500Y-43000000D03*
%TO.P,U3,27,NC__7*%
X77137500Y-42500000D03*
%TO.P,U3,26,NC__6*%
X77137500Y-42000000D03*
%TO.P,U3,25,NC__5*%
X77137500Y-41500000D03*
%TO.P,U3,24,NC__4*%
X77137500Y-41000000D03*
%TO.P,U3,23,AIN_3P*%
X77137500Y-40500000D03*
%TO.P,U3,22,AIN_3GND*%
X77137500Y-40000000D03*
%TO.P,U3,21,AIN_2P*%
X77137500Y-39500000D03*
%TO.P,U3,20,AIN_2GND*%
X77137500Y-39000000D03*
%TO.P,U3,19,AIN_1GND*%
X82862500Y-39000000D03*
%TO.P,U3,18,AIN_1P*%
%TO.N,Net-(U3-AIN_1P)*%
X82862500Y-39500000D03*
%TO.P,U3,17,AIN_0GND*%
%TO.N,GND*%
X82862500Y-40000000D03*
%TO.P,U3,16,AIN_0P*%
%TO.N,Net-(U3-AIN_0P)*%
X82862500Y-40500000D03*
%TO.P,U3,15,NC__3*%
%TO.N,GND*%
X82862500Y-41000000D03*
%TO.P,U3,14,NC__2*%
X82862500Y-41500000D03*
%TO.P,U3,13,NC__1*%
X82862500Y-42000000D03*
%TO.P,U3,12,NC*%
X82862500Y-42500000D03*
%TO.P,U3,11,AUX_GND*%
X82862500Y-43000000D03*
%TO.P,U3,10,AUX_IN*%
X82862500Y-43500000D03*
%TO.P,U3,9,AVDD*%
%TO.N,5V*%
X82862500Y-44000000D03*
%TO.P,U3,8,AGND*%
%TO.N,GND*%
X82862500Y-44500000D03*
%TO.P,U3,7,REFCAP*%
%TO.N,Net-(U3-REFCAP)*%
X82862500Y-45000000D03*
%TO.P,U3,6,REFGND*%
%TO.N,GND*%
X82862500Y-45500000D03*
%TO.P,U3,5,REFIO*%
%TO.N,Net-(U3-REFIO)*%
X82862500Y-46000000D03*
%TO.P,U3,4,~{REFSEL}*%
%TO.N,GND*%
X82862500Y-46500000D03*
%TO.P,U3,3,DAISY*%
X82862500Y-47000000D03*
%TO.P,U3,2,~{RST}/~{PD}*%
%TO.N,3V3*%
X82862500Y-47500000D03*
%TO.P,U3,1,SDI*%
%TO.N,Net-(U1-GPIO3)*%
X82862500Y-48000000D03*
%TD*%
D14*
%TO.P,U4,8*%
%TO.N,Net-(U3-AIN_0P)*%
X89475000Y-42362500D03*
%TO.P,U4,7*%
%TO.N,GND*%
X88825000Y-42362500D03*
%TO.P,U4,6*%
X88175000Y-42362500D03*
%TO.P,U4,5*%
%TO.N,5V*%
X87525000Y-42362500D03*
%TO.P,U4,4*%
%TO.N,GND*%
X87525000Y-36637500D03*
%TO.P,U4,3*%
%TO.N,Net-(J2-Pin_2)*%
X88175000Y-36637500D03*
%TO.P,U4,2*%
%TO.N,VIN*%
X88825000Y-36637500D03*
%TO.P,U4,1*%
%TO.N,GND*%
X89475000Y-36637500D03*
%TD*%
D15*
%TO.P,C12,2*%
%TO.N,GND*%
X87662500Y-48250000D03*
%TO.P,C12,1*%
%TO.N,Net-(U3-REFIO)*%
X85762500Y-48250000D03*
%TD*%
D16*
%TO.P,C10,1*%
%TO.N,Net-(U3-AVDD__1)*%
X74212500Y-44025000D03*
%TO.P,C10,2*%
%TO.N,GND*%
X74212500Y-42475000D03*
%TD*%
D17*
%TO.P,C8,2*%
%TO.N,GND*%
X74212500Y-45500000D03*
%TO.P,C8,1*%
%TO.N,3V3*%
X74212500Y-47400000D03*
%TD*%
D18*
%TO.P,C11,1*%
%TO.N,Net-(U3-REFCAP)*%
X87212500Y-44975000D03*
%TO.P,C11,2*%
%TO.N,GND*%
X87212500Y-46525000D03*
%TD*%
D19*
%TO.P,Cbst1,1*%
%TO.N,Net-(U5-BOOT)*%
X94837500Y-41902500D03*
%TO.P,Cbst1,2*%
%TO.N,Net-(U5-SW)*%
X95797500Y-41902500D03*
%TD*%
D20*
%TO.P,Rfbt1,1*%
%TO.N,5V*%
X92950000Y-41347500D03*
%TO.P,Rfbt1,2*%
%TO.N,Net-(U5-FB)*%
X92950000Y-40152500D03*
%TD*%
%TO.P,Rfbb1,1*%
%TO.N,Net-(U5-FB)*%
X92950000Y-39097500D03*
%TO.P,Rfbb1,2*%
%TO.N,GND*%
X92950000Y-37902500D03*
%TD*%
D21*
%TO.P,C9,1*%
%TO.N,Net-(U3-REFCAP)*%
X90212500Y-45125000D03*
%TO.P,C9,2*%
%TO.N,GND*%
X90212500Y-48075000D03*
%TD*%
D22*
%TO.P,R2,1*%
%TO.N,Net-(U3-AIN_1P)*%
X85500000Y-39675000D03*
%TO.P,R2,2*%
%TO.N,GND*%
X85500000Y-41325000D03*
%TD*%
D18*
%TO.P,C7,1*%
%TO.N,5V*%
X85712500Y-42975000D03*
%TO.P,C7,2*%
%TO.N,GND*%
X85712500Y-44525000D03*
%TD*%
D23*
%TO.P,Cin1,1*%
%TO.N,VIN*%
X99112500Y-38277500D03*
%TO.P,Cin1,2*%
%TO.N,GND*%
X99112500Y-41227500D03*
%TD*%
D17*
%TO.P,Cout1,1*%
%TO.N,5V*%
X91450000Y-40602500D03*
%TO.P,Cout1,2*%
%TO.N,GND*%
X91450000Y-38702500D03*
%TD*%
D22*
%TO.P,R1,1*%
%TO.N,Net-(J2-Pin_2)*%
X85500000Y-36175000D03*
%TO.P,R1,2*%
%TO.N,Net-(U3-AIN_1P)*%
X85500000Y-37825000D03*
%TD*%
D24*
%TO.P,Rshunt1,1*%
%TO.N,VIN*%
X91462500Y-33500000D03*
%TO.P,Rshunt1,2*%
%TO.N,Net-(J2-Pin_2)*%
X85537500Y-33500000D03*
%TD*%
D25*
%TO.P,J2,1,Pin_1*%
%TO.N,GND*%
X76500000Y-33500000D03*
D26*
%TO.P,J2,2,Pin_2*%
%TO.N,Net-(J2-Pin_2)*%
X81500000Y-33500000D03*
%TD*%
D27*
%TO.P,U5,1,GND*%
%TO.N,GND*%
X96837500Y-40602500D03*
%TO.P,U5,2,SW*%
%TO.N,Net-(U5-SW)*%
X96837500Y-39652500D03*
%TO.P,U5,3,VIN*%
%TO.N,VIN*%
X96837500Y-38702500D03*
%TO.P,U5,4,FB*%
%TO.N,Net-(U5-FB)*%
X94562500Y-38702500D03*
%TO.P,U5,5,EN*%
%TO.N,unconnected-(U5-EN-Pad5)*%
X94562500Y-39652500D03*
%TO.P,U5,6,BOOT*%
%TO.N,Net-(U5-BOOT)*%
X94562500Y-40602500D03*
%TD*%
D28*
%TO.P,J1,1,Pin_1*%
%TO.N,GND*%
X110250000Y-33525000D03*
D29*
%TO.P,J1,2,Pin_2*%
%TO.N,VIN*%
X107710000Y-33525000D03*
%TD*%
D30*
%TO.P,U1,1,GPIO0*%
%TO.N,Net-(U1-GPIO0)*%
X74370000Y-54110000D03*
D31*
%TO.P,U1,2,GPIO1*%
%TO.N,Net-(U1-GPIO1)*%
X76910000Y-54110000D03*
D32*
%TO.P,U1,3,GND*%
%TO.N,GND*%
X79450000Y-54110000D03*
D31*
%TO.P,U1,4,GPIO2*%
%TO.N,Net-(U1-GPIO2)*%
X81990000Y-54110000D03*
%TO.P,U1,5,GPIO3*%
%TO.N,Net-(U1-GPIO3)*%
X84530000Y-54110000D03*
%TO.P,U1,6,GPIO4*%
%TO.N,unconnected-(U1-GPIO4-Pad6)*%
X87070000Y-54110000D03*
%TO.P,U1,7,GPIO5*%
%TO.N,unconnected-(U1-GPIO5-Pad7)*%
X89610000Y-54110000D03*
D32*
%TO.P,U1,8,GND*%
%TO.N,GND*%
X92150000Y-54110000D03*
D31*
%TO.P,U1,9,GPIO6*%
%TO.N,unconnected-(U1-GPIO6-Pad9)*%
X94690000Y-54110000D03*
%TO.P,U1,10,GPIO7*%
%TO.N,unconnected-(U1-GPIO7-Pad10)*%
X97230000Y-54110000D03*
%TO.P,U1,11,GPIO8*%
%TO.N,unconnected-(U1-GPIO8-Pad11)*%
X99770000Y-54110000D03*
%TO.P,U1,12,GPIO9*%
%TO.N,unconnected-(U1-GPIO9-Pad12)*%
X102310000Y-54110000D03*
D32*
%TO.P,U1,13,GND*%
%TO.N,GND*%
X104850000Y-54110000D03*
D31*
%TO.P,U1,14,GPIO10*%
%TO.N,unconnected-(U1-GPIO10-Pad14)*%
X107390000Y-54110000D03*
%TO.P,U1,15,GPIO11*%
%TO.N,Net-(U1-GPIO11)*%
X109930000Y-54110000D03*
%TO.P,U1,16,GPIO12*%
%TO.N,Net-(U1-GPIO12)*%
X112470000Y-54110000D03*
%TO.P,U1,17,GPIO13*%
%TO.N,Net-(U1-GPIO13)*%
X115010000Y-54110000D03*
D32*
%TO.P,U1,18,GND*%
%TO.N,GND*%
X117550000Y-54110000D03*
D31*
%TO.P,U1,19,GPIO14*%
%TO.N,Net-(U1-GPIO14)*%
X120090000Y-54110000D03*
%TO.P,U1,20,GPIO15*%
%TO.N,unconnected-(U1-GPIO15-Pad20)*%
X122630000Y-54110000D03*
%TO.P,U1,21,GPIO16*%
%TO.N,unconnected-(U1-GPIO16-Pad21)*%
X122630000Y-71890000D03*
%TO.P,U1,22,GPIO17*%
%TO.N,unconnected-(U1-GPIO17-Pad22)*%
X120090000Y-71890000D03*
D33*
%TO.P,U1,23,GND*%
%TO.N,GND*%
X117550000Y-71890000D03*
D31*
%TO.P,U1,24,GPIO18*%
%TO.N,unconnected-(U1-GPIO18-Pad24)*%
X115010000Y-71890000D03*
%TO.P,U1,25,GPIO19*%
%TO.N,unconnected-(U1-GPIO19-Pad25)*%
X112470000Y-71890000D03*
%TO.P,U1,26,GPIO20*%
%TO.N,unconnected-(U1-GPIO20-Pad26)*%
X109930000Y-71890000D03*
%TO.P,U1,27,GPIO21*%
%TO.N,unconnected-(U1-GPIO21-Pad27)*%
X107390000Y-71890000D03*
D33*
%TO.P,U1,28,GND*%
%TO.N,GND*%
X104850000Y-71890000D03*
D31*
%TO.P,U1,29,GPIO22*%
%TO.N,unconnected-(U1-GPIO22-Pad29)*%
X102310000Y-71890000D03*
%TO.P,U1,30,RUN*%
%TO.N,unconnected-(U1-RUN-Pad30)*%
X99770000Y-71890000D03*
%TO.P,U1,31,GPIO26_ADC0*%
%TO.N,unconnected-(U1-GPIO26_ADC0-Pad31)*%
X97230000Y-71890000D03*
%TO.P,U1,32,GPIO27_ADC1*%
%TO.N,unconnected-(U1-GPIO27_ADC1-Pad32)*%
X94690000Y-71890000D03*
D33*
%TO.P,U1,33,AGND*%
%TO.N,GND*%
X92150000Y-71890000D03*
D31*
%TO.P,U1,34,GPIO28_ADC2*%
%TO.N,unconnected-(U1-GPIO28_ADC2-Pad34)*%
X89610000Y-71890000D03*
%TO.P,U1,35,ADC_VREF*%
%TO.N,unconnected-(U1-ADC_VREF-Pad35)*%
X87070000Y-71890000D03*
%TO.P,U1,36,3V3*%
%TO.N,3V3*%
X84530000Y-71890000D03*
%TO.P,U1,37,3V3_EN*%
%TO.N,unconnected-(U1-3V3_EN-Pad37)*%
X81990000Y-71890000D03*
D33*
%TO.P,U1,38,GND*%
%TO.N,GND*%
X79450000Y-71890000D03*
D31*
%TO.P,U1,39,VSYS*%
%TO.N,5V*%
X76910000Y-71890000D03*
%TO.P,U1,40,VBUS*%
X74370000Y-71890000D03*
%TD*%
D34*
%TO.N,GND*%
X84100000Y-38800000D03*
X78200000Y-39000000D03*
X78200000Y-40000000D03*
X78200000Y-41000000D03*
X78200000Y-42000000D03*
X78200000Y-43000000D03*
X76000000Y-43000000D03*
X76000000Y-42000000D03*
X76000000Y-41000000D03*
X76000000Y-40000000D03*
X76000000Y-39000000D03*
X75200000Y-45000000D03*
X76000000Y-45000000D03*
%TO.N,3V3*%
X115000000Y-48000000D03*
X115800000Y-48800000D03*
X116600000Y-49680999D03*
X111200000Y-49680999D03*
X110400000Y-49680999D03*
X109600000Y-49680999D03*
%TO.N,GND*%
X86806250Y-47393750D03*
X86106250Y-46693750D03*
X90000000Y-47000000D03*
X89200000Y-47000000D03*
X88400000Y-47000000D03*
X89600000Y-46400000D03*
X88800000Y-46400000D03*
X88000000Y-46400000D03*
X97800000Y-41227500D03*
%TO.N,5V*%
X93000000Y-42500000D03*
X93000000Y-43500000D03*
X91000000Y-43500000D03*
X92000000Y-43500000D03*
X92500000Y-43000000D03*
X90500000Y-43000000D03*
X91500000Y-43000000D03*
X92000000Y-42500000D03*
X91000000Y-42500000D03*
X92500000Y-42000000D03*
X91500000Y-42000000D03*
X90500000Y-42000000D03*
X90900000Y-56500000D03*
X90900000Y-55400000D03*
X90900000Y-51500000D03*
X90900000Y-50500000D03*
%TO.N,GND*%
X88400000Y-41300000D03*
X84000000Y-46750000D03*
X81700000Y-46750000D03*
X85500000Y-46100000D03*
X81700000Y-45500000D03*
X81700000Y-44500000D03*
X84800000Y-44300000D03*
X84000000Y-43000000D03*
X84000000Y-41300000D03*
X84000000Y-42200000D03*
X81700000Y-43600000D03*
X81700000Y-42700000D03*
X81700000Y-41800000D03*
X81700000Y-40900000D03*
X81700000Y-39000000D03*
X81700000Y-40000000D03*
X88500000Y-38100000D03*
X88500000Y-39000000D03*
X87500000Y-38100000D03*
%TO.N,Net-(U5-SW)*%
X97900000Y-40000000D03*
X97900000Y-39300000D03*
%TO.N,5V*%
X87525000Y-41200000D03*
%TO.N,GND*%
X119050000Y-34800000D03*
X116050000Y-31800000D03*
X111500000Y-34800000D03*
X121650000Y-31800000D03*
X120650000Y-32800000D03*
X123650000Y-32800000D03*
X116050000Y-35800000D03*
X116050000Y-34800000D03*
X119050000Y-35800000D03*
X120650000Y-34800000D03*
X119050000Y-31800000D03*
X112500000Y-31800000D03*
X113500000Y-33800000D03*
X117050000Y-32800000D03*
X120650000Y-31800000D03*
X114500000Y-35800000D03*
X122650000Y-31800000D03*
X111500000Y-33800000D03*
X120650000Y-35800000D03*
X114500000Y-34800000D03*
X120650000Y-33800000D03*
X119050000Y-33800000D03*
X114500000Y-33800000D03*
X112500000Y-35800000D03*
X111500000Y-32800000D03*
X122650000Y-35800000D03*
X123650000Y-34800000D03*
X113500000Y-35800000D03*
X114500000Y-31800000D03*
X118050000Y-33800000D03*
X113500000Y-31800000D03*
X119050000Y-32800000D03*
X121650000Y-35800000D03*
X116050000Y-33800000D03*
X123650000Y-33800000D03*
X116050000Y-32800000D03*
%TD*%
D35*
%TO.N,GND*%
X82862500Y-39000000D02*
X83900000Y-39000000D01*
X83900000Y-39000000D02*
X84100000Y-38800000D01*
X74737500Y-43000000D02*
X74212500Y-42475000D01*
X77137500Y-43000000D02*
X74737500Y-43000000D01*
X77137500Y-42500000D02*
X78200000Y-42500000D01*
X78200000Y-42500000D02*
X78200000Y-41500000D01*
X76000000Y-42000000D02*
X78200000Y-42000000D01*
X76000000Y-41500000D02*
X76000000Y-43500000D01*
X77137500Y-41500000D02*
X76000000Y-41500000D01*
X77137500Y-41500000D02*
X78200000Y-41500000D01*
X78200000Y-43000000D02*
X78200000Y-42500000D01*
X77137500Y-40500000D02*
X78200000Y-40500000D01*
X78200000Y-40500000D02*
X78200000Y-39500000D01*
X77137500Y-39500000D02*
X78200000Y-39500000D01*
X78200000Y-39500000D02*
X78200000Y-39000000D01*
X77137500Y-39500000D02*
X76000000Y-39500000D01*
X76000000Y-39000000D02*
X76000000Y-39500000D01*
X76100000Y-40500000D02*
X76000000Y-40600000D01*
X77137500Y-40500000D02*
X76100000Y-40500000D01*
X76000000Y-40600000D02*
X76000000Y-41500000D01*
X78200000Y-41000000D02*
X76000000Y-41000000D01*
X76000000Y-40000000D02*
X78200000Y-40000000D01*
X78200000Y-39000000D02*
X76000000Y-39000000D01*
X78200000Y-41500000D02*
X78200000Y-40500000D01*
X77137500Y-43000000D02*
X78200000Y-43000000D01*
X77700000Y-43500000D02*
X78200000Y-43000000D01*
X77137500Y-43500000D02*
X77700000Y-43500000D01*
X76000000Y-39500000D02*
X76000000Y-40600000D01*
X76000000Y-43500000D02*
X77137500Y-43500000D01*
X74237500Y-42500000D02*
X74212500Y-42475000D01*
X77137500Y-42500000D02*
X74237500Y-42500000D01*
X74712500Y-45000000D02*
X74212500Y-45500000D01*
X77137500Y-45000000D02*
X74712500Y-45000000D01*
X77137500Y-39000000D02*
X77137500Y-43500000D01*
D36*
%TO.N,3V3*%
X113319001Y-49680999D02*
X115000000Y-48000000D01*
X111200000Y-49680999D02*
X113319001Y-49680999D01*
X116600000Y-49680999D02*
X117519001Y-49680999D01*
X111200000Y-49680999D02*
X116600000Y-49680999D01*
X117519001Y-49680999D02*
X118000000Y-49200000D01*
X110400000Y-49680999D02*
X111200000Y-49680999D01*
X109600000Y-49680999D02*
X110400000Y-49680999D01*
X93489000Y-49680999D02*
X109600000Y-49680999D01*
X85649631Y-49680999D02*
X85630630Y-49700000D01*
X93489000Y-49680999D02*
X85649631Y-49680999D01*
D35*
%TO.N,Net-(U1-GPIO0)*%
X74370000Y-48830000D02*
X74370000Y-54110000D01*
X76200000Y-47000000D02*
X74370000Y-48830000D01*
X77137500Y-47000000D02*
X76200000Y-47000000D01*
%TO.N,Net-(U1-GPIO3)*%
X84530000Y-49667500D02*
X84530000Y-54110000D01*
X82862500Y-48000000D02*
X84530000Y-49667500D01*
%TO.N,Net-(U1-GPIO2)*%
X81990000Y-50590000D02*
X81990000Y-54110000D01*
X78900000Y-47500000D02*
X81990000Y-50590000D01*
X77137500Y-47500000D02*
X78900000Y-47500000D01*
%TO.N,Net-(U1-GPIO1)*%
X76910000Y-48227500D02*
X76910000Y-54110000D01*
X77137500Y-48000000D02*
X76910000Y-48227500D01*
%TO.N,GND*%
X86806250Y-47393750D02*
X87662500Y-48250000D01*
X86106250Y-46693750D02*
X86806250Y-47393750D01*
X85512500Y-46100000D02*
X86106250Y-46693750D01*
X97800000Y-41227500D02*
X99112500Y-41227500D01*
D36*
%TO.N,5V*%
X90900000Y-56500000D02*
X90900000Y-57900000D01*
%TO.N,GND*%
X88825000Y-42362500D02*
X88175000Y-42362500D01*
X88825000Y-41725000D02*
X88400000Y-41300000D01*
X88825000Y-42362500D02*
X88825000Y-41725000D01*
X88175000Y-41525000D02*
X88400000Y-41300000D01*
X88175000Y-42362500D02*
X88175000Y-41525000D01*
D35*
%TO.N,Net-(U3-AIN_0P)*%
X89475000Y-41225000D02*
X88750000Y-40500000D01*
X88750000Y-40500000D02*
X82862500Y-40500000D01*
X89475000Y-42362500D02*
X89475000Y-41225000D01*
%TO.N,5V*%
X90648500Y-43649000D02*
X92950000Y-41347500D01*
X87525000Y-43090582D02*
X87525000Y-42362500D01*
X89764582Y-43451000D02*
X87885418Y-43451000D01*
X87885418Y-43451000D02*
X87525000Y-43090582D01*
X91450000Y-41765582D02*
X89764582Y-43451000D01*
X91450000Y-40602500D02*
X91450000Y-41765582D01*
X90648500Y-43649000D02*
X84501000Y-43649000D01*
X91450000Y-40602500D02*
X91450000Y-42847500D01*
X84501000Y-43649000D02*
X84699000Y-43451000D01*
X84150000Y-44000000D02*
X84501000Y-43649000D01*
X82862500Y-44000000D02*
X84150000Y-44000000D01*
%TO.N,GND*%
X97462500Y-41227500D02*
X97800000Y-41227500D01*
X96837500Y-40602500D02*
X97462500Y-41227500D01*
%TO.N,Net-(U5-FB)*%
X92950000Y-39889822D02*
X92950000Y-40152500D01*
X94137322Y-38702500D02*
X92950000Y-39889822D01*
X94562500Y-38702500D02*
X94137322Y-38702500D01*
X92950000Y-39097500D02*
X92950000Y-40152500D01*
X93345000Y-38702500D02*
X94562500Y-38702500D01*
X92950000Y-39097500D02*
X93345000Y-38702500D01*
%TO.N,Net-(U5-BOOT)*%
X94837500Y-40877500D02*
X94562500Y-40602500D01*
X94837500Y-41902500D02*
X94837500Y-40877500D01*
%TO.N,Net-(U5-SW)*%
X95797500Y-40019322D02*
X95797500Y-41902500D01*
X96164322Y-39652500D02*
X95797500Y-40019322D01*
X96837500Y-39652500D02*
X96164322Y-39652500D01*
%TO.N,3V3*%
X84911500Y-48611500D02*
X84911500Y-48980870D01*
X84911500Y-48980870D02*
X85630630Y-49700000D01*
X83800000Y-47500000D02*
X84911500Y-48611500D01*
X82862500Y-47500000D02*
X83800000Y-47500000D01*
X81020466Y-47500000D02*
X82862500Y-47500000D01*
X79520466Y-46000000D02*
X81020466Y-47500000D01*
X77137500Y-46000000D02*
X79520466Y-46000000D01*
%TO.N,GND*%
X82862500Y-44500000D02*
X81700000Y-44500000D01*
X82862500Y-45500000D02*
X81700000Y-45500000D01*
X81950000Y-46500000D02*
X81700000Y-46750000D01*
X82862500Y-46500000D02*
X81950000Y-46500000D01*
X81950000Y-47000000D02*
X81700000Y-46750000D01*
X82862500Y-47000000D02*
X81950000Y-47000000D01*
X83750000Y-47000000D02*
X84000000Y-46750000D01*
X82862500Y-47000000D02*
X83750000Y-47000000D01*
X83750000Y-46500000D02*
X84000000Y-46750000D01*
X82862500Y-46500000D02*
X83750000Y-46500000D01*
X85500000Y-46100000D02*
X85512500Y-46100000D01*
%TO.N,5V*%
X85737500Y-42362500D02*
X87525000Y-42362500D01*
X84100000Y-44000000D02*
X85737500Y-42362500D01*
X82862500Y-44000000D02*
X84100000Y-44000000D01*
%TO.N,GND*%
X83700000Y-42500000D02*
X84000000Y-42200000D01*
X82862500Y-42500000D02*
X83700000Y-42500000D01*
X82862500Y-43000000D02*
X81700000Y-43000000D01*
X81700000Y-41500000D02*
X81700000Y-43000000D01*
X82862500Y-41500000D02*
X81700000Y-41500000D01*
X81700000Y-43000000D02*
X81700000Y-43600000D01*
X83800000Y-41500000D02*
X84000000Y-41300000D01*
X82862500Y-41500000D02*
X83800000Y-41500000D01*
X82862500Y-43000000D02*
X84000000Y-43000000D01*
X83800000Y-42000000D02*
X84000000Y-42200000D01*
X82862500Y-42000000D02*
X83800000Y-42000000D01*
X84000000Y-41300000D02*
X84000000Y-42200000D01*
X84000000Y-42200000D02*
X84000000Y-43000000D01*
X84000000Y-43000000D02*
X84000000Y-43200000D01*
X84000000Y-41000000D02*
X84000000Y-41300000D01*
X83700000Y-43500000D02*
X84000000Y-43200000D01*
X84000000Y-41000000D02*
X85175000Y-41000000D01*
X84000000Y-43200000D02*
X85500000Y-41700000D01*
X85500000Y-41700000D02*
X85500000Y-41325000D01*
X82862500Y-43500000D02*
X83700000Y-43500000D01*
X81800000Y-43500000D02*
X81700000Y-43600000D01*
X82862500Y-43500000D02*
X81800000Y-43500000D01*
X81900000Y-42500000D02*
X81700000Y-42700000D01*
X82862500Y-42500000D02*
X81900000Y-42500000D01*
X81900000Y-42000000D02*
X81700000Y-41800000D01*
X82862500Y-42000000D02*
X81900000Y-42000000D01*
X81800000Y-41000000D02*
X81700000Y-40900000D01*
X82862500Y-41000000D02*
X81800000Y-41000000D01*
X82862500Y-40000000D02*
X81700000Y-40000000D01*
X82862500Y-39000000D02*
X81700000Y-39000000D01*
X81700000Y-39000000D02*
X81700000Y-41500000D01*
X74212500Y-35787500D02*
X76500000Y-33500000D01*
X74212500Y-42475000D02*
X74212500Y-35787500D01*
X75237500Y-43500000D02*
X76000000Y-43500000D01*
X74212500Y-42475000D02*
X75237500Y-43500000D01*
X75212500Y-44500000D02*
X74212500Y-45500000D01*
X77137500Y-44500000D02*
X75212500Y-44500000D01*
X77137500Y-45500000D02*
X77137500Y-44500000D01*
X74212500Y-45500000D02*
X77137500Y-45500000D01*
%TO.N,3V3*%
X75612500Y-46000000D02*
X74212500Y-47400000D01*
X77137500Y-46000000D02*
X75612500Y-46000000D01*
%TO.N,Net-(U3-AVDD__1)*%
X74237500Y-44000000D02*
X74212500Y-44025000D01*
X77137500Y-44000000D02*
X74237500Y-44000000D01*
%TO.N,GND*%
X88887500Y-48200000D02*
X90212500Y-48200000D01*
X85512500Y-46100000D02*
X86787500Y-46100000D01*
X84500000Y-45500000D02*
X85100000Y-46100000D01*
X82862500Y-45500000D02*
X84500000Y-45500000D01*
X85100000Y-46100000D02*
X85500000Y-46100000D01*
X82862500Y-46500000D02*
X82862500Y-47000000D01*
X82862500Y-43500000D02*
X82862500Y-41000000D01*
X82862500Y-41000000D02*
X84000000Y-41000000D01*
X85175000Y-41000000D02*
X85500000Y-41325000D01*
X85687500Y-44500000D02*
X85712500Y-44525000D01*
X82862500Y-44500000D02*
X85687500Y-44500000D01*
%TO.N,Net-(U3-REFIO)*%
X85762500Y-47562500D02*
X84200000Y-46000000D01*
X85762500Y-48250000D02*
X85762500Y-47562500D01*
X84200000Y-46000000D02*
X82862500Y-46000000D01*
D36*
%TO.N,GND*%
X90024000Y-37776000D02*
X90200000Y-37600000D01*
X87864708Y-37776000D02*
X90024000Y-37776000D01*
X87525000Y-37436292D02*
X87864708Y-37776000D01*
X87525000Y-36637500D02*
X87525000Y-37436292D01*
%TO.N,Net-(J2-Pin_2)*%
X86150000Y-33500000D02*
X88175000Y-35525000D01*
X88175000Y-35525000D02*
X88175000Y-36637500D01*
X85537500Y-33500000D02*
X86150000Y-33500000D01*
%TO.N,VIN*%
X88825000Y-35525000D02*
X88825000Y-36637500D01*
X90850000Y-33500000D02*
X88825000Y-35525000D01*
X91462500Y-33500000D02*
X90850000Y-33500000D01*
D35*
%TO.N,Net-(U5-SW)*%
X97547500Y-39652500D02*
X97900000Y-39300000D01*
X96837500Y-39652500D02*
X97547500Y-39652500D01*
X97900000Y-39300000D02*
X97900000Y-40000000D01*
%TO.N,5V*%
X87525000Y-42362500D02*
X87525000Y-41200000D01*
%TO.N,Net-(U3-AIN_1P)*%
X85175000Y-39500000D02*
X85500000Y-39175000D01*
X82862500Y-39500000D02*
X85175000Y-39500000D01*
D36*
%TO.N,VIN*%
X107685000Y-33500000D02*
X107710000Y-33525000D01*
X93000000Y-35000000D02*
X96702500Y-38702500D01*
X91462500Y-33500000D02*
X107685000Y-33500000D01*
X93000000Y-35000000D02*
X91500000Y-35000000D01*
%TO.N,3V3*%
X93489000Y-62931000D02*
X84530000Y-71890000D01*
%TO.N,5V*%
X90900000Y-50400000D02*
X90900000Y-56500000D01*
X74370000Y-71890000D02*
X76910000Y-71890000D01*
X90900000Y-57900000D02*
X76910000Y-71890000D01*
%TO.N,3V3*%
X93489000Y-49680999D02*
X93489000Y-62931000D01*
%TO.N,GND*%
X93112500Y-37902500D02*
X93097500Y-37902500D01*
D35*
%TO.N,Net-(U5-SW)*%
X96837500Y-39652500D02*
X97552500Y-39652500D01*
X97552500Y-39652500D02*
X97900000Y-40000000D01*
%TO.N,Net-(U3-REFCAP)*%
X90136500Y-45326000D02*
X90212500Y-45250000D01*
X84800000Y-45000000D02*
X85126000Y-45326000D01*
X85126000Y-45326000D02*
X90136500Y-45326000D01*
X82862500Y-45000000D02*
X84800000Y-45000000D01*
%TD*%
M02*
