%TF.GenerationSoftware,KiCad,Pcbnew,9.0.7*%
%TF.CreationDate,2026-03-15T14:46:28-04:00*%
%TF.ProjectId,Measurement Testing,4d656173-7572-4656-9d65-6e7420546573,rev?*%
%TF.SameCoordinates,Original*%
%TF.FileFunction,Legend,Bot*%
%TF.FilePolarity,Positive*%
%FSLAX46Y46*%
G04 Gerber Fmt 4.6, Leading zero omitted, Abs format (unit mm)*
G04 Created by KiCad (PCBNEW 9.0.7) date 2026-03-15 14:46:28*
%MOMM*%
%LPD*%
G01*
G04 APERTURE LIST*
%ADD10C,0.250000*%
%ADD11C,0.150000*%
%ADD12C,0.100000*%
%ADD13C,0.120000*%
G04 APERTURE END LIST*
D10*
X107497431Y-60164619D02*
X107497431Y-59164619D01*
X107497431Y-59164619D02*
X107116479Y-59164619D01*
X107116479Y-59164619D02*
X107021241Y-59212238D01*
X107021241Y-59212238D02*
X106973622Y-59259857D01*
X106973622Y-59259857D02*
X106926003Y-59355095D01*
X106926003Y-59355095D02*
X106926003Y-59497952D01*
X106926003Y-59497952D02*
X106973622Y-59593190D01*
X106973622Y-59593190D02*
X107021241Y-59640809D01*
X107021241Y-59640809D02*
X107116479Y-59688428D01*
X107116479Y-59688428D02*
X107497431Y-59688428D01*
X106497431Y-60164619D02*
X106497431Y-59164619D01*
X105449813Y-60069380D02*
X105497432Y-60117000D01*
X105497432Y-60117000D02*
X105640289Y-60164619D01*
X105640289Y-60164619D02*
X105735527Y-60164619D01*
X105735527Y-60164619D02*
X105878384Y-60117000D01*
X105878384Y-60117000D02*
X105973622Y-60021761D01*
X105973622Y-60021761D02*
X106021241Y-59926523D01*
X106021241Y-59926523D02*
X106068860Y-59736047D01*
X106068860Y-59736047D02*
X106068860Y-59593190D01*
X106068860Y-59593190D02*
X106021241Y-59402714D01*
X106021241Y-59402714D02*
X105973622Y-59307476D01*
X105973622Y-59307476D02*
X105878384Y-59212238D01*
X105878384Y-59212238D02*
X105735527Y-59164619D01*
X105735527Y-59164619D02*
X105640289Y-59164619D01*
X105640289Y-59164619D02*
X105497432Y-59212238D01*
X105497432Y-59212238D02*
X105449813Y-59259857D01*
X104830765Y-59164619D02*
X104640289Y-59164619D01*
X104640289Y-59164619D02*
X104545051Y-59212238D01*
X104545051Y-59212238D02*
X104449813Y-59307476D01*
X104449813Y-59307476D02*
X104402194Y-59497952D01*
X104402194Y-59497952D02*
X104402194Y-59831285D01*
X104402194Y-59831285D02*
X104449813Y-60021761D01*
X104449813Y-60021761D02*
X104545051Y-60117000D01*
X104545051Y-60117000D02*
X104640289Y-60164619D01*
X104640289Y-60164619D02*
X104830765Y-60164619D01*
X104830765Y-60164619D02*
X104926003Y-60117000D01*
X104926003Y-60117000D02*
X105021241Y-60021761D01*
X105021241Y-60021761D02*
X105068860Y-59831285D01*
X105068860Y-59831285D02*
X105068860Y-59497952D01*
X105068860Y-59497952D02*
X105021241Y-59307476D01*
X105021241Y-59307476D02*
X104926003Y-59212238D01*
X104926003Y-59212238D02*
X104830765Y-59164619D01*
X103021241Y-59164619D02*
X102830765Y-59164619D01*
X102830765Y-59164619D02*
X102735527Y-59212238D01*
X102735527Y-59212238D02*
X102640289Y-59307476D01*
X102640289Y-59307476D02*
X102592670Y-59497952D01*
X102592670Y-59497952D02*
X102592670Y-59831285D01*
X102592670Y-59831285D02*
X102640289Y-60021761D01*
X102640289Y-60021761D02*
X102735527Y-60117000D01*
X102735527Y-60117000D02*
X102830765Y-60164619D01*
X102830765Y-60164619D02*
X103021241Y-60164619D01*
X103021241Y-60164619D02*
X103116479Y-60117000D01*
X103116479Y-60117000D02*
X103211717Y-60021761D01*
X103211717Y-60021761D02*
X103259336Y-59831285D01*
X103259336Y-59831285D02*
X103259336Y-59497952D01*
X103259336Y-59497952D02*
X103211717Y-59307476D01*
X103211717Y-59307476D02*
X103116479Y-59212238D01*
X103116479Y-59212238D02*
X103021241Y-59164619D01*
X102164098Y-60164619D02*
X102164098Y-59164619D01*
X102164098Y-59164619D02*
X101592670Y-60164619D01*
X101592670Y-60164619D02*
X101592670Y-59164619D01*
X100497431Y-59164619D02*
X99926003Y-59164619D01*
X100211717Y-60164619D02*
X100211717Y-59164619D01*
X99592669Y-60164619D02*
X99592669Y-59164619D01*
X99592669Y-59640809D02*
X99021241Y-59640809D01*
X99021241Y-60164619D02*
X99021241Y-59164619D01*
X98545050Y-60164619D02*
X98545050Y-59164619D01*
X98116479Y-60117000D02*
X97973622Y-60164619D01*
X97973622Y-60164619D02*
X97735527Y-60164619D01*
X97735527Y-60164619D02*
X97640289Y-60117000D01*
X97640289Y-60117000D02*
X97592670Y-60069380D01*
X97592670Y-60069380D02*
X97545051Y-59974142D01*
X97545051Y-59974142D02*
X97545051Y-59878904D01*
X97545051Y-59878904D02*
X97592670Y-59783666D01*
X97592670Y-59783666D02*
X97640289Y-59736047D01*
X97640289Y-59736047D02*
X97735527Y-59688428D01*
X97735527Y-59688428D02*
X97926003Y-59640809D01*
X97926003Y-59640809D02*
X98021241Y-59593190D01*
X98021241Y-59593190D02*
X98068860Y-59545571D01*
X98068860Y-59545571D02*
X98116479Y-59450333D01*
X98116479Y-59450333D02*
X98116479Y-59355095D01*
X98116479Y-59355095D02*
X98068860Y-59259857D01*
X98068860Y-59259857D02*
X98021241Y-59212238D01*
X98021241Y-59212238D02*
X97926003Y-59164619D01*
X97926003Y-59164619D02*
X97687908Y-59164619D01*
X97687908Y-59164619D02*
X97545051Y-59212238D01*
X96402193Y-60117000D02*
X96259336Y-60164619D01*
X96259336Y-60164619D02*
X96021241Y-60164619D01*
X96021241Y-60164619D02*
X95926003Y-60117000D01*
X95926003Y-60117000D02*
X95878384Y-60069380D01*
X95878384Y-60069380D02*
X95830765Y-59974142D01*
X95830765Y-59974142D02*
X95830765Y-59878904D01*
X95830765Y-59878904D02*
X95878384Y-59783666D01*
X95878384Y-59783666D02*
X95926003Y-59736047D01*
X95926003Y-59736047D02*
X96021241Y-59688428D01*
X96021241Y-59688428D02*
X96211717Y-59640809D01*
X96211717Y-59640809D02*
X96306955Y-59593190D01*
X96306955Y-59593190D02*
X96354574Y-59545571D01*
X96354574Y-59545571D02*
X96402193Y-59450333D01*
X96402193Y-59450333D02*
X96402193Y-59355095D01*
X96402193Y-59355095D02*
X96354574Y-59259857D01*
X96354574Y-59259857D02*
X96306955Y-59212238D01*
X96306955Y-59212238D02*
X96211717Y-59164619D01*
X96211717Y-59164619D02*
X95973622Y-59164619D01*
X95973622Y-59164619D02*
X95830765Y-59212238D01*
X95402193Y-60164619D02*
X95402193Y-59164619D01*
X94926003Y-60164619D02*
X94926003Y-59164619D01*
X94926003Y-59164619D02*
X94687908Y-59164619D01*
X94687908Y-59164619D02*
X94545051Y-59212238D01*
X94545051Y-59212238D02*
X94449813Y-59307476D01*
X94449813Y-59307476D02*
X94402194Y-59402714D01*
X94402194Y-59402714D02*
X94354575Y-59593190D01*
X94354575Y-59593190D02*
X94354575Y-59736047D01*
X94354575Y-59736047D02*
X94402194Y-59926523D01*
X94402194Y-59926523D02*
X94449813Y-60021761D01*
X94449813Y-60021761D02*
X94545051Y-60117000D01*
X94545051Y-60117000D02*
X94687908Y-60164619D01*
X94687908Y-60164619D02*
X94926003Y-60164619D01*
X93926003Y-59640809D02*
X93592670Y-59640809D01*
X93449813Y-60164619D02*
X93926003Y-60164619D01*
X93926003Y-60164619D02*
X93926003Y-59164619D01*
X93926003Y-59164619D02*
X93449813Y-59164619D01*
X93021241Y-60069380D02*
X92973622Y-60117000D01*
X92973622Y-60117000D02*
X93021241Y-60164619D01*
X93021241Y-60164619D02*
X93068860Y-60117000D01*
X93068860Y-60117000D02*
X93021241Y-60069380D01*
X93021241Y-60069380D02*
X93021241Y-60164619D01*
X93021241Y-59783666D02*
X93068860Y-59212238D01*
X93068860Y-59212238D02*
X93021241Y-59164619D01*
X93021241Y-59164619D02*
X92973622Y-59212238D01*
X92973622Y-59212238D02*
X93021241Y-59783666D01*
X93021241Y-59783666D02*
X93021241Y-59164619D01*
D11*
X92663220Y-62203152D02*
X92663220Y-63203152D01*
X92663220Y-62250771D02*
X92567982Y-62203152D01*
X92567982Y-62203152D02*
X92377506Y-62203152D01*
X92377506Y-62203152D02*
X92282268Y-62250771D01*
X92282268Y-62250771D02*
X92234649Y-62298390D01*
X92234649Y-62298390D02*
X92187030Y-62393628D01*
X92187030Y-62393628D02*
X92187030Y-62679342D01*
X92187030Y-62679342D02*
X92234649Y-62774580D01*
X92234649Y-62774580D02*
X92282268Y-62822200D01*
X92282268Y-62822200D02*
X92377506Y-62869819D01*
X92377506Y-62869819D02*
X92567982Y-62869819D01*
X92567982Y-62869819D02*
X92663220Y-62822200D01*
X91615601Y-62869819D02*
X91710839Y-62822200D01*
X91710839Y-62822200D02*
X91758458Y-62774580D01*
X91758458Y-62774580D02*
X91806077Y-62679342D01*
X91806077Y-62679342D02*
X91806077Y-62393628D01*
X91806077Y-62393628D02*
X91758458Y-62298390D01*
X91758458Y-62298390D02*
X91710839Y-62250771D01*
X91710839Y-62250771D02*
X91615601Y-62203152D01*
X91615601Y-62203152D02*
X91472744Y-62203152D01*
X91472744Y-62203152D02*
X91377506Y-62250771D01*
X91377506Y-62250771D02*
X91329887Y-62298390D01*
X91329887Y-62298390D02*
X91282268Y-62393628D01*
X91282268Y-62393628D02*
X91282268Y-62679342D01*
X91282268Y-62679342D02*
X91329887Y-62774580D01*
X91329887Y-62774580D02*
X91377506Y-62822200D01*
X91377506Y-62822200D02*
X91472744Y-62869819D01*
X91472744Y-62869819D02*
X91615601Y-62869819D01*
X90853696Y-62869819D02*
X90853696Y-62203152D01*
X90853696Y-62393628D02*
X90806077Y-62298390D01*
X90806077Y-62298390D02*
X90758458Y-62250771D01*
X90758458Y-62250771D02*
X90663220Y-62203152D01*
X90663220Y-62203152D02*
X90567982Y-62203152D01*
X90377505Y-62203152D02*
X89996553Y-62203152D01*
X90234648Y-61869819D02*
X90234648Y-62726961D01*
X90234648Y-62726961D02*
X90187029Y-62822200D01*
X90187029Y-62822200D02*
X90091791Y-62869819D01*
X90091791Y-62869819D02*
X89996553Y-62869819D01*
X89044171Y-62203152D02*
X88663219Y-62203152D01*
X88901314Y-61869819D02*
X88901314Y-62726961D01*
X88901314Y-62726961D02*
X88853695Y-62822200D01*
X88853695Y-62822200D02*
X88758457Y-62869819D01*
X88758457Y-62869819D02*
X88663219Y-62869819D01*
X88329885Y-62869819D02*
X88329885Y-61869819D01*
X87901314Y-62869819D02*
X87901314Y-62346009D01*
X87901314Y-62346009D02*
X87948933Y-62250771D01*
X87948933Y-62250771D02*
X88044171Y-62203152D01*
X88044171Y-62203152D02*
X88187028Y-62203152D01*
X88187028Y-62203152D02*
X88282266Y-62250771D01*
X88282266Y-62250771D02*
X88329885Y-62298390D01*
X86996552Y-62869819D02*
X86996552Y-62346009D01*
X86996552Y-62346009D02*
X87044171Y-62250771D01*
X87044171Y-62250771D02*
X87139409Y-62203152D01*
X87139409Y-62203152D02*
X87329885Y-62203152D01*
X87329885Y-62203152D02*
X87425123Y-62250771D01*
X86996552Y-62822200D02*
X87091790Y-62869819D01*
X87091790Y-62869819D02*
X87329885Y-62869819D01*
X87329885Y-62869819D02*
X87425123Y-62822200D01*
X87425123Y-62822200D02*
X87472742Y-62726961D01*
X87472742Y-62726961D02*
X87472742Y-62631723D01*
X87472742Y-62631723D02*
X87425123Y-62536485D01*
X87425123Y-62536485D02*
X87329885Y-62488866D01*
X87329885Y-62488866D02*
X87091790Y-62488866D01*
X87091790Y-62488866D02*
X86996552Y-62441247D01*
X86663218Y-62203152D02*
X86282266Y-62203152D01*
X86520361Y-61869819D02*
X86520361Y-62726961D01*
X86520361Y-62726961D02*
X86472742Y-62822200D01*
X86472742Y-62822200D02*
X86377504Y-62869819D01*
X86377504Y-62869819D02*
X86282266Y-62869819D01*
X85282265Y-62203152D02*
X85091789Y-62869819D01*
X85091789Y-62869819D02*
X84901313Y-62393628D01*
X84901313Y-62393628D02*
X84710837Y-62869819D01*
X84710837Y-62869819D02*
X84520361Y-62203152D01*
X83710837Y-62869819D02*
X83710837Y-62346009D01*
X83710837Y-62346009D02*
X83758456Y-62250771D01*
X83758456Y-62250771D02*
X83853694Y-62203152D01*
X83853694Y-62203152D02*
X84044170Y-62203152D01*
X84044170Y-62203152D02*
X84139408Y-62250771D01*
X83710837Y-62822200D02*
X83806075Y-62869819D01*
X83806075Y-62869819D02*
X84044170Y-62869819D01*
X84044170Y-62869819D02*
X84139408Y-62822200D01*
X84139408Y-62822200D02*
X84187027Y-62726961D01*
X84187027Y-62726961D02*
X84187027Y-62631723D01*
X84187027Y-62631723D02*
X84139408Y-62536485D01*
X84139408Y-62536485D02*
X84044170Y-62488866D01*
X84044170Y-62488866D02*
X83806075Y-62488866D01*
X83806075Y-62488866D02*
X83710837Y-62441247D01*
X83329884Y-62203152D02*
X83091789Y-62869819D01*
X82853694Y-62203152D02*
X83091789Y-62869819D01*
X83091789Y-62869819D02*
X83187027Y-63107914D01*
X83187027Y-63107914D02*
X83234646Y-63155533D01*
X83234646Y-63155533D02*
X83329884Y-63203152D01*
X81710836Y-62488866D02*
X80948932Y-62488866D01*
X80472741Y-62203152D02*
X79710837Y-62488866D01*
X79710837Y-62488866D02*
X80472741Y-62774580D01*
X111261904Y-50054819D02*
X111261904Y-50864342D01*
X111261904Y-50864342D02*
X111214285Y-50959580D01*
X111214285Y-50959580D02*
X111166666Y-51007200D01*
X111166666Y-51007200D02*
X111071428Y-51054819D01*
X111071428Y-51054819D02*
X110880952Y-51054819D01*
X110880952Y-51054819D02*
X110785714Y-51007200D01*
X110785714Y-51007200D02*
X110738095Y-50959580D01*
X110738095Y-50959580D02*
X110690476Y-50864342D01*
X110690476Y-50864342D02*
X110690476Y-50054819D01*
X110261904Y-50150057D02*
X110214285Y-50102438D01*
X110214285Y-50102438D02*
X110119047Y-50054819D01*
X110119047Y-50054819D02*
X109880952Y-50054819D01*
X109880952Y-50054819D02*
X109785714Y-50102438D01*
X109785714Y-50102438D02*
X109738095Y-50150057D01*
X109738095Y-50150057D02*
X109690476Y-50245295D01*
X109690476Y-50245295D02*
X109690476Y-50340533D01*
X109690476Y-50340533D02*
X109738095Y-50483390D01*
X109738095Y-50483390D02*
X110309523Y-51054819D01*
X110309523Y-51054819D02*
X109690476Y-51054819D01*
X116454166Y-48989580D02*
X116501785Y-49037200D01*
X116501785Y-49037200D02*
X116644642Y-49084819D01*
X116644642Y-49084819D02*
X116739880Y-49084819D01*
X116739880Y-49084819D02*
X116882737Y-49037200D01*
X116882737Y-49037200D02*
X116977975Y-48941961D01*
X116977975Y-48941961D02*
X117025594Y-48846723D01*
X117025594Y-48846723D02*
X117073213Y-48656247D01*
X117073213Y-48656247D02*
X117073213Y-48513390D01*
X117073213Y-48513390D02*
X117025594Y-48322914D01*
X117025594Y-48322914D02*
X116977975Y-48227676D01*
X116977975Y-48227676D02*
X116882737Y-48132438D01*
X116882737Y-48132438D02*
X116739880Y-48084819D01*
X116739880Y-48084819D02*
X116644642Y-48084819D01*
X116644642Y-48084819D02*
X116501785Y-48132438D01*
X116501785Y-48132438D02*
X116454166Y-48180057D01*
X115597023Y-48418152D02*
X115597023Y-49084819D01*
X115835118Y-48037200D02*
X116073213Y-48751485D01*
X116073213Y-48751485D02*
X115454166Y-48751485D01*
X95654166Y-33902319D02*
X96130356Y-33902319D01*
X96130356Y-33902319D02*
X96130356Y-32902319D01*
X94797023Y-33902319D02*
X95368451Y-33902319D01*
X95082737Y-33902319D02*
X95082737Y-32902319D01*
X95082737Y-32902319D02*
X95177975Y-33045176D01*
X95177975Y-33045176D02*
X95273213Y-33140414D01*
X95273213Y-33140414D02*
X95368451Y-33188033D01*
X102866666Y-45259580D02*
X102914285Y-45307200D01*
X102914285Y-45307200D02*
X103057142Y-45354819D01*
X103057142Y-45354819D02*
X103152380Y-45354819D01*
X103152380Y-45354819D02*
X103295237Y-45307200D01*
X103295237Y-45307200D02*
X103390475Y-45211961D01*
X103390475Y-45211961D02*
X103438094Y-45116723D01*
X103438094Y-45116723D02*
X103485713Y-44926247D01*
X103485713Y-44926247D02*
X103485713Y-44783390D01*
X103485713Y-44783390D02*
X103438094Y-44592914D01*
X103438094Y-44592914D02*
X103390475Y-44497676D01*
X103390475Y-44497676D02*
X103295237Y-44402438D01*
X103295237Y-44402438D02*
X103152380Y-44354819D01*
X103152380Y-44354819D02*
X103057142Y-44354819D01*
X103057142Y-44354819D02*
X102914285Y-44402438D01*
X102914285Y-44402438D02*
X102866666Y-44450057D01*
X102533332Y-44354819D02*
X101914285Y-44354819D01*
X101914285Y-44354819D02*
X102247618Y-44735771D01*
X102247618Y-44735771D02*
X102104761Y-44735771D01*
X102104761Y-44735771D02*
X102009523Y-44783390D01*
X102009523Y-44783390D02*
X101961904Y-44831009D01*
X101961904Y-44831009D02*
X101914285Y-44926247D01*
X101914285Y-44926247D02*
X101914285Y-45164342D01*
X101914285Y-45164342D02*
X101961904Y-45259580D01*
X101961904Y-45259580D02*
X102009523Y-45307200D01*
X102009523Y-45307200D02*
X102104761Y-45354819D01*
X102104761Y-45354819D02*
X102390475Y-45354819D01*
X102390475Y-45354819D02*
X102485713Y-45307200D01*
X102485713Y-45307200D02*
X102533332Y-45259580D01*
X118077080Y-44083333D02*
X118124700Y-44035714D01*
X118124700Y-44035714D02*
X118172319Y-43892857D01*
X118172319Y-43892857D02*
X118172319Y-43797619D01*
X118172319Y-43797619D02*
X118124700Y-43654762D01*
X118124700Y-43654762D02*
X118029461Y-43559524D01*
X118029461Y-43559524D02*
X117934223Y-43511905D01*
X117934223Y-43511905D02*
X117743747Y-43464286D01*
X117743747Y-43464286D02*
X117600890Y-43464286D01*
X117600890Y-43464286D02*
X117410414Y-43511905D01*
X117410414Y-43511905D02*
X117315176Y-43559524D01*
X117315176Y-43559524D02*
X117219938Y-43654762D01*
X117219938Y-43654762D02*
X117172319Y-43797619D01*
X117172319Y-43797619D02*
X117172319Y-43892857D01*
X117172319Y-43892857D02*
X117219938Y-44035714D01*
X117219938Y-44035714D02*
X117267557Y-44083333D01*
X117172319Y-44988095D02*
X117172319Y-44511905D01*
X117172319Y-44511905D02*
X117648509Y-44464286D01*
X117648509Y-44464286D02*
X117600890Y-44511905D01*
X117600890Y-44511905D02*
X117553271Y-44607143D01*
X117553271Y-44607143D02*
X117553271Y-44845238D01*
X117553271Y-44845238D02*
X117600890Y-44940476D01*
X117600890Y-44940476D02*
X117648509Y-44988095D01*
X117648509Y-44988095D02*
X117743747Y-45035714D01*
X117743747Y-45035714D02*
X117981842Y-45035714D01*
X117981842Y-45035714D02*
X118077080Y-44988095D01*
X118077080Y-44988095D02*
X118124700Y-44940476D01*
X118124700Y-44940476D02*
X118172319Y-44845238D01*
X118172319Y-44845238D02*
X118172319Y-44607143D01*
X118172319Y-44607143D02*
X118124700Y-44511905D01*
X118124700Y-44511905D02*
X118077080Y-44464286D01*
D12*
X88315228Y-37971429D02*
X88343800Y-37942857D01*
X88343800Y-37942857D02*
X88372371Y-37857143D01*
X88372371Y-37857143D02*
X88372371Y-37800000D01*
X88372371Y-37800000D02*
X88343800Y-37714286D01*
X88343800Y-37714286D02*
X88286657Y-37657143D01*
X88286657Y-37657143D02*
X88229514Y-37628572D01*
X88229514Y-37628572D02*
X88115228Y-37600000D01*
X88115228Y-37600000D02*
X88029514Y-37600000D01*
X88029514Y-37600000D02*
X87915228Y-37628572D01*
X87915228Y-37628572D02*
X87858085Y-37657143D01*
X87858085Y-37657143D02*
X87800942Y-37714286D01*
X87800942Y-37714286D02*
X87772371Y-37800000D01*
X87772371Y-37800000D02*
X87772371Y-37857143D01*
X87772371Y-37857143D02*
X87800942Y-37942857D01*
X87800942Y-37942857D02*
X87829514Y-37971429D01*
X88372371Y-38228572D02*
X87772371Y-38228572D01*
X88000942Y-38228572D02*
X87972371Y-38285715D01*
X87972371Y-38285715D02*
X87972371Y-38400000D01*
X87972371Y-38400000D02*
X88000942Y-38457143D01*
X88000942Y-38457143D02*
X88029514Y-38485715D01*
X88029514Y-38485715D02*
X88086657Y-38514286D01*
X88086657Y-38514286D02*
X88258085Y-38514286D01*
X88258085Y-38514286D02*
X88315228Y-38485715D01*
X88315228Y-38485715D02*
X88343800Y-38457143D01*
X88343800Y-38457143D02*
X88372371Y-38400000D01*
X88372371Y-38400000D02*
X88372371Y-38285715D01*
X88372371Y-38285715D02*
X88343800Y-38228572D01*
X87972371Y-38714286D02*
X88372371Y-38857143D01*
X87972371Y-39000000D02*
X88372371Y-38857143D01*
X88372371Y-38857143D02*
X88515228Y-38800000D01*
X88515228Y-38800000D02*
X88543800Y-38771429D01*
X88543800Y-38771429D02*
X88572371Y-38714286D01*
X87972371Y-39228572D02*
X88572371Y-39228572D01*
X88000942Y-39228572D02*
X87972371Y-39285715D01*
X87972371Y-39285715D02*
X87972371Y-39400000D01*
X87972371Y-39400000D02*
X88000942Y-39457143D01*
X88000942Y-39457143D02*
X88029514Y-39485715D01*
X88029514Y-39485715D02*
X88086657Y-39514286D01*
X88086657Y-39514286D02*
X88258085Y-39514286D01*
X88258085Y-39514286D02*
X88315228Y-39485715D01*
X88315228Y-39485715D02*
X88343800Y-39457143D01*
X88343800Y-39457143D02*
X88372371Y-39400000D01*
X88372371Y-39400000D02*
X88372371Y-39285715D01*
X88372371Y-39285715D02*
X88343800Y-39228572D01*
X88372371Y-40028572D02*
X88058085Y-40028572D01*
X88058085Y-40028572D02*
X88000942Y-40000000D01*
X88000942Y-40000000D02*
X87972371Y-39942857D01*
X87972371Y-39942857D02*
X87972371Y-39828572D01*
X87972371Y-39828572D02*
X88000942Y-39771429D01*
X88343800Y-40028572D02*
X88372371Y-39971429D01*
X88372371Y-39971429D02*
X88372371Y-39828572D01*
X88372371Y-39828572D02*
X88343800Y-39771429D01*
X88343800Y-39771429D02*
X88286657Y-39742857D01*
X88286657Y-39742857D02*
X88229514Y-39742857D01*
X88229514Y-39742857D02*
X88172371Y-39771429D01*
X88172371Y-39771429D02*
X88143800Y-39828572D01*
X88143800Y-39828572D02*
X88143800Y-39971429D01*
X88143800Y-39971429D02*
X88115228Y-40028572D01*
X88343800Y-40285714D02*
X88372371Y-40342857D01*
X88372371Y-40342857D02*
X88372371Y-40457143D01*
X88372371Y-40457143D02*
X88343800Y-40514286D01*
X88343800Y-40514286D02*
X88286657Y-40542857D01*
X88286657Y-40542857D02*
X88258085Y-40542857D01*
X88258085Y-40542857D02*
X88200942Y-40514286D01*
X88200942Y-40514286D02*
X88172371Y-40457143D01*
X88172371Y-40457143D02*
X88172371Y-40371429D01*
X88172371Y-40371429D02*
X88143800Y-40314286D01*
X88143800Y-40314286D02*
X88086657Y-40285714D01*
X88086657Y-40285714D02*
X88058085Y-40285714D01*
X88058085Y-40285714D02*
X88000942Y-40314286D01*
X88000942Y-40314286D02*
X87972371Y-40371429D01*
X87972371Y-40371429D02*
X87972371Y-40457143D01*
X87972371Y-40457143D02*
X88000942Y-40514286D01*
X88343800Y-40771428D02*
X88372371Y-40828571D01*
X88372371Y-40828571D02*
X88372371Y-40942857D01*
X88372371Y-40942857D02*
X88343800Y-41000000D01*
X88343800Y-41000000D02*
X88286657Y-41028571D01*
X88286657Y-41028571D02*
X88258085Y-41028571D01*
X88258085Y-41028571D02*
X88200942Y-41000000D01*
X88200942Y-41000000D02*
X88172371Y-40942857D01*
X88172371Y-40942857D02*
X88172371Y-40857143D01*
X88172371Y-40857143D02*
X88143800Y-40800000D01*
X88143800Y-40800000D02*
X88086657Y-40771428D01*
X88086657Y-40771428D02*
X88058085Y-40771428D01*
X88058085Y-40771428D02*
X88000942Y-40800000D01*
X88000942Y-40800000D02*
X87972371Y-40857143D01*
X87972371Y-40857143D02*
X87972371Y-40942857D01*
X87972371Y-40942857D02*
X88000942Y-41000000D01*
X88372371Y-41599999D02*
X88372371Y-41257142D01*
X88372371Y-41428571D02*
X87772371Y-41428571D01*
X87772371Y-41428571D02*
X87858085Y-41371428D01*
X87858085Y-41371428D02*
X87915228Y-41314285D01*
X87915228Y-41314285D02*
X87943800Y-41257142D01*
D11*
X104666666Y-42859580D02*
X104714285Y-42907200D01*
X104714285Y-42907200D02*
X104857142Y-42954819D01*
X104857142Y-42954819D02*
X104952380Y-42954819D01*
X104952380Y-42954819D02*
X105095237Y-42907200D01*
X105095237Y-42907200D02*
X105190475Y-42811961D01*
X105190475Y-42811961D02*
X105238094Y-42716723D01*
X105238094Y-42716723D02*
X105285713Y-42526247D01*
X105285713Y-42526247D02*
X105285713Y-42383390D01*
X105285713Y-42383390D02*
X105238094Y-42192914D01*
X105238094Y-42192914D02*
X105190475Y-42097676D01*
X105190475Y-42097676D02*
X105095237Y-42002438D01*
X105095237Y-42002438D02*
X104952380Y-41954819D01*
X104952380Y-41954819D02*
X104857142Y-41954819D01*
X104857142Y-41954819D02*
X104714285Y-42002438D01*
X104714285Y-42002438D02*
X104666666Y-42050057D01*
X103809523Y-41954819D02*
X103999999Y-41954819D01*
X103999999Y-41954819D02*
X104095237Y-42002438D01*
X104095237Y-42002438D02*
X104142856Y-42050057D01*
X104142856Y-42050057D02*
X104238094Y-42192914D01*
X104238094Y-42192914D02*
X104285713Y-42383390D01*
X104285713Y-42383390D02*
X104285713Y-42764342D01*
X104285713Y-42764342D02*
X104238094Y-42859580D01*
X104238094Y-42859580D02*
X104190475Y-42907200D01*
X104190475Y-42907200D02*
X104095237Y-42954819D01*
X104095237Y-42954819D02*
X103904761Y-42954819D01*
X103904761Y-42954819D02*
X103809523Y-42907200D01*
X103809523Y-42907200D02*
X103761904Y-42859580D01*
X103761904Y-42859580D02*
X103714285Y-42764342D01*
X103714285Y-42764342D02*
X103714285Y-42526247D01*
X103714285Y-42526247D02*
X103761904Y-42431009D01*
X103761904Y-42431009D02*
X103809523Y-42383390D01*
X103809523Y-42383390D02*
X103904761Y-42335771D01*
X103904761Y-42335771D02*
X104095237Y-42335771D01*
X104095237Y-42335771D02*
X104190475Y-42383390D01*
X104190475Y-42383390D02*
X104238094Y-42431009D01*
X104238094Y-42431009D02*
X104285713Y-42526247D01*
X103954166Y-51059580D02*
X104001785Y-51107200D01*
X104001785Y-51107200D02*
X104144642Y-51154819D01*
X104144642Y-51154819D02*
X104239880Y-51154819D01*
X104239880Y-51154819D02*
X104382737Y-51107200D01*
X104382737Y-51107200D02*
X104477975Y-51011961D01*
X104477975Y-51011961D02*
X104525594Y-50916723D01*
X104525594Y-50916723D02*
X104573213Y-50726247D01*
X104573213Y-50726247D02*
X104573213Y-50583390D01*
X104573213Y-50583390D02*
X104525594Y-50392914D01*
X104525594Y-50392914D02*
X104477975Y-50297676D01*
X104477975Y-50297676D02*
X104382737Y-50202438D01*
X104382737Y-50202438D02*
X104239880Y-50154819D01*
X104239880Y-50154819D02*
X104144642Y-50154819D01*
X104144642Y-50154819D02*
X104001785Y-50202438D01*
X104001785Y-50202438D02*
X103954166Y-50250057D01*
X103001785Y-51154819D02*
X103573213Y-51154819D01*
X103287499Y-51154819D02*
X103287499Y-50154819D01*
X103287499Y-50154819D02*
X103382737Y-50297676D01*
X103382737Y-50297676D02*
X103477975Y-50392914D01*
X103477975Y-50392914D02*
X103573213Y-50440533D01*
X100466666Y-51059580D02*
X100514285Y-51107200D01*
X100514285Y-51107200D02*
X100657142Y-51154819D01*
X100657142Y-51154819D02*
X100752380Y-51154819D01*
X100752380Y-51154819D02*
X100895237Y-51107200D01*
X100895237Y-51107200D02*
X100990475Y-51011961D01*
X100990475Y-51011961D02*
X101038094Y-50916723D01*
X101038094Y-50916723D02*
X101085713Y-50726247D01*
X101085713Y-50726247D02*
X101085713Y-50583390D01*
X101085713Y-50583390D02*
X101038094Y-50392914D01*
X101038094Y-50392914D02*
X100990475Y-50297676D01*
X100990475Y-50297676D02*
X100895237Y-50202438D01*
X100895237Y-50202438D02*
X100752380Y-50154819D01*
X100752380Y-50154819D02*
X100657142Y-50154819D01*
X100657142Y-50154819D02*
X100514285Y-50202438D01*
X100514285Y-50202438D02*
X100466666Y-50250057D01*
X100085713Y-50250057D02*
X100038094Y-50202438D01*
X100038094Y-50202438D02*
X99942856Y-50154819D01*
X99942856Y-50154819D02*
X99704761Y-50154819D01*
X99704761Y-50154819D02*
X99609523Y-50202438D01*
X99609523Y-50202438D02*
X99561904Y-50250057D01*
X99561904Y-50250057D02*
X99514285Y-50345295D01*
X99514285Y-50345295D02*
X99514285Y-50440533D01*
X99514285Y-50440533D02*
X99561904Y-50583390D01*
X99561904Y-50583390D02*
X100133332Y-51154819D01*
X100133332Y-51154819D02*
X99514285Y-51154819D01*
X99263220Y-62454819D02*
X99263220Y-63264342D01*
X99263220Y-63264342D02*
X99215601Y-63359580D01*
X99215601Y-63359580D02*
X99167982Y-63407200D01*
X99167982Y-63407200D02*
X99072744Y-63454819D01*
X99072744Y-63454819D02*
X98882268Y-63454819D01*
X98882268Y-63454819D02*
X98787030Y-63407200D01*
X98787030Y-63407200D02*
X98739411Y-63359580D01*
X98739411Y-63359580D02*
X98691792Y-63264342D01*
X98691792Y-63264342D02*
X98691792Y-62454819D01*
X97691792Y-63454819D02*
X98263220Y-63454819D01*
X97977506Y-63454819D02*
X97977506Y-62454819D01*
X97977506Y-62454819D02*
X98072744Y-62597676D01*
X98072744Y-62597676D02*
X98167982Y-62692914D01*
X98167982Y-62692914D02*
X98263220Y-62740533D01*
D13*
%TO.C,U2*%
X107870000Y-49740000D02*
X107390000Y-49740000D01*
X107630000Y-49410000D01*
X107870000Y-49740000D01*
G36*
X107870000Y-49740000D02*
G01*
X107390000Y-49740000D01*
X107630000Y-49410000D01*
X107870000Y-49740000D01*
G37*
X112810000Y-39540000D02*
X108190000Y-39540000D01*
X112810000Y-39590000D02*
X112810000Y-39540000D01*
X112810000Y-49460000D02*
X112810000Y-49410000D01*
X108190000Y-39540000D02*
X108190000Y-39590000D01*
X108190000Y-49410000D02*
X108190000Y-49460000D01*
X108190000Y-49460000D02*
X112810000Y-49460000D01*
%TO.C,C4*%
X116026248Y-47685000D02*
X116548752Y-47685000D01*
X116026248Y-46215000D02*
X116548752Y-46215000D01*
%TO.C,L1*%
X90287500Y-34447500D02*
X90287500Y-37247500D01*
X90287500Y-42047500D02*
X90287500Y-44847500D01*
X90287500Y-44847500D02*
X99287500Y-44847500D01*
X99287500Y-44847500D02*
X100687500Y-43447500D01*
X100687500Y-34447500D02*
X90287500Y-34447500D01*
X100687500Y-37247500D02*
X100687500Y-34447500D01*
X100687500Y-43447500D02*
X100687500Y-42047500D01*
%TO.C,C3*%
X102777500Y-46609420D02*
X102777500Y-46890580D01*
X103797500Y-46609420D02*
X103797500Y-46890580D01*
%TO.C,C5*%
X115777500Y-44390580D02*
X115777500Y-44109420D01*
X116797500Y-44390580D02*
X116797500Y-44109420D01*
%TO.C,Cbypass1*%
X87140000Y-39392164D02*
X87140000Y-39607836D01*
X87860000Y-39392164D02*
X87860000Y-39607836D01*
%TO.C,C6*%
X104277500Y-44609420D02*
X104277500Y-44890580D01*
X105297500Y-44609420D02*
X105297500Y-44890580D01*
%TO.C,C1*%
X104048752Y-48515000D02*
X103526248Y-48515000D01*
X104048752Y-49985000D02*
X103526248Y-49985000D01*
%TO.C,C2*%
X98927500Y-47038748D02*
X98927500Y-48461252D01*
X101647500Y-47038748D02*
X101647500Y-48461252D01*
%TO.C,U1*%
X72890000Y-53000000D02*
X72890000Y-55490000D01*
X72890000Y-55490000D02*
X72890000Y-56837940D01*
X72890000Y-55490000D02*
X73803520Y-55490000D01*
X72890000Y-57762061D02*
X72890000Y-58765000D01*
X72890000Y-58765000D02*
X72890000Y-67235000D01*
X72890000Y-59100000D02*
X73806000Y-59100000D01*
X72890000Y-66900000D02*
X73806000Y-66900000D01*
X72890000Y-67235000D02*
X72890000Y-68237939D01*
X72890000Y-69162061D02*
X72890000Y-70510000D01*
X72890000Y-70510000D02*
X73803520Y-70510000D01*
X72890000Y-73000000D02*
X72890000Y-70510000D01*
X73310000Y-52420324D02*
X73310000Y-51910000D01*
X73310063Y-52730000D02*
X72953000Y-52730000D01*
X73310063Y-73270000D02*
X72953000Y-73270000D01*
X75430000Y-52390000D02*
X75430000Y-51910000D01*
X75430000Y-52390000D02*
X75850000Y-52390000D01*
X75430000Y-52730000D02*
X75850000Y-52730000D01*
X75430000Y-73270000D02*
X75850000Y-73270000D01*
X75430000Y-73610000D02*
X75850000Y-73610000D01*
X76194000Y-59100000D02*
X77410000Y-59100000D01*
X76194000Y-66900000D02*
X77410000Y-66900000D01*
X76196480Y-55490000D02*
X120803520Y-55490000D01*
X76196480Y-70510000D02*
X120803520Y-70510000D01*
X77410000Y-59100000D02*
X77410000Y-59396090D01*
X77410000Y-61753910D02*
X77410000Y-64246090D01*
X77410000Y-66603910D02*
X77410000Y-66900000D01*
X77970000Y-52390000D02*
X78390000Y-52390000D01*
X77970000Y-52730000D02*
X78390000Y-52730000D01*
X77970000Y-73270000D02*
X78390000Y-73270000D01*
X77970000Y-73610000D02*
X78390000Y-73610000D01*
X80510000Y-52390000D02*
X80930000Y-52390000D01*
X80510000Y-52730000D02*
X80930000Y-52730000D01*
X80510000Y-73270000D02*
X80930000Y-73270000D01*
X80510000Y-73610000D02*
X80930000Y-73610000D01*
X83050000Y-52390000D02*
X83470000Y-52390000D01*
X83050000Y-52730000D02*
X83470000Y-52730000D01*
X83050000Y-73270000D02*
X83470000Y-73270000D01*
X83050000Y-73610000D02*
X83470000Y-73610000D01*
X85590000Y-52390000D02*
X86010000Y-52390000D01*
X85590000Y-52730000D02*
X86010000Y-52730000D01*
X85590000Y-73270000D02*
X86010000Y-73270000D01*
X85590000Y-73610000D02*
X86010000Y-73610000D01*
X88130000Y-52390000D02*
X88550000Y-52390000D01*
X88130000Y-52730000D02*
X88550000Y-52730000D01*
X88130000Y-73270000D02*
X88550000Y-73270000D01*
X88130000Y-73610000D02*
X88550000Y-73610000D01*
X90670000Y-52390000D02*
X91090000Y-52390000D01*
X90670000Y-52730000D02*
X91090000Y-52730000D01*
X90670000Y-73270000D02*
X91090000Y-73270000D01*
X90670000Y-73610000D02*
X91090000Y-73610000D01*
X93210000Y-52390000D02*
X93630000Y-52390000D01*
X93210000Y-52730000D02*
X93630000Y-52730000D01*
X93210000Y-73270000D02*
X93630000Y-73270000D01*
X93210000Y-73610000D02*
X93630000Y-73610000D01*
X95750000Y-52390000D02*
X96170000Y-52390000D01*
X95750000Y-52730000D02*
X96170000Y-52730000D01*
X95750000Y-73270000D02*
X96170000Y-73270000D01*
X95750000Y-73610000D02*
X96170000Y-73610000D01*
X98290000Y-52390000D02*
X98710000Y-52390000D01*
X98290000Y-52730000D02*
X98710000Y-52730000D01*
X98290000Y-73270000D02*
X98710000Y-73270000D01*
X98290000Y-73610000D02*
X98710000Y-73610000D01*
X100830000Y-52390000D02*
X101250000Y-52390000D01*
X100830000Y-52730000D02*
X101250000Y-52730000D01*
X100830000Y-73270000D02*
X101250000Y-73270000D01*
X100830000Y-73610000D02*
X101250000Y-73610000D01*
X103370000Y-52390000D02*
X103790000Y-52390000D01*
X103370000Y-52730000D02*
X103790000Y-52730000D01*
X103370000Y-73270000D02*
X103790000Y-73270000D01*
X103370000Y-73610000D02*
X103790000Y-73610000D01*
X105910000Y-52390000D02*
X106330000Y-52390000D01*
X105910000Y-52730000D02*
X106330000Y-52730000D01*
X105910000Y-73270000D02*
X106330000Y-73270000D01*
X105910000Y-73610000D02*
X106330000Y-73610000D01*
X108450000Y-52390000D02*
X108870000Y-52390000D01*
X108450000Y-52730000D02*
X108870000Y-52730000D01*
X108450000Y-73270000D02*
X108870000Y-73270000D01*
X108450000Y-73610000D02*
X108870000Y-73610000D01*
X110990000Y-52390000D02*
X111410000Y-52390000D01*
X110990000Y-52730000D02*
X111410000Y-52730000D01*
X110990000Y-73270000D02*
X111410000Y-73270000D01*
X110990000Y-73610000D02*
X111410000Y-73610000D01*
X113530000Y-52390000D02*
X113950000Y-52390000D01*
X113530000Y-52730000D02*
X113950000Y-52730000D01*
X113530000Y-73270000D02*
X113950000Y-73270000D01*
X113530000Y-73610000D02*
X113950000Y-73610000D01*
X116070000Y-52390000D02*
X116490000Y-52390000D01*
X116070000Y-52730000D02*
X116490000Y-52730000D01*
X116070000Y-73270000D02*
X116490000Y-73270000D01*
X116070000Y-73610000D02*
X116490000Y-73610000D01*
X118610000Y-52390000D02*
X119030000Y-52390000D01*
X118610000Y-52730000D02*
X119030000Y-52730000D01*
X118610000Y-73270000D02*
X119030000Y-73270000D01*
X118610000Y-73610000D02*
X119030000Y-73610000D01*
X121150000Y-52390000D02*
X121570000Y-52390000D01*
X121150000Y-52730000D02*
X121570000Y-52730000D01*
X121150000Y-73270000D02*
X121570000Y-73270000D01*
X121150000Y-73610000D02*
X121570000Y-73610000D01*
X123196480Y-55490000D02*
X124110000Y-55490000D01*
X123196480Y-70510000D02*
X124110000Y-70510000D01*
X123689937Y-52730000D02*
X124047000Y-52730000D01*
X123689937Y-73270000D02*
X124047000Y-73270000D01*
X124110000Y-53000000D02*
X124110000Y-56837939D01*
X124110000Y-59400000D02*
X124110000Y-57762061D01*
X124110000Y-66600000D02*
X124110000Y-59400000D01*
X124110000Y-68237939D02*
X124110000Y-66600000D01*
X124110000Y-69162061D02*
X124110000Y-73000000D01*
X72890000Y-53000000D02*
G75*
G02*
X73310000Y-52420324I610051J-16D01*
G01*
X73310063Y-73579676D02*
G75*
G02*
X72890000Y-73000000I189937J579676D01*
G01*
X123689937Y-52420324D02*
G75*
G02*
X124110000Y-53000000I-189939J-579677D01*
G01*
X124110000Y-73000000D02*
G75*
G02*
X123689929Y-73579651I-610100J100D01*
G01*
%TD*%
M02*
