%TF.GenerationSoftware,KiCad,Pcbnew,7.0.7*%
%TF.CreationDate,2024-02-01T11:26:11-05:00*%
%TF.ProjectId,ROSE-PILK_v1,524f5345-2d50-4494-9c4b-5f76312e6b69,rev?*%
%TF.SameCoordinates,Original*%
%TF.FileFunction,Copper,L4,Bot*%
%TF.FilePolarity,Positive*%
%FSLAX46Y46*%
G04 Gerber Fmt 4.6, Leading zero omitted, Abs format (unit mm)*
G04 Created by KiCad (PCBNEW 7.0.7) date 2024-02-01 11:26:11*
%MOMM*%
%LPD*%
G01*
G04 APERTURE LIST*
G04 Aperture macros list*
%AMRoundRect*
0 Rectangle with rounded corners*
0 $1 Rounding radius*
0 $2 $3 $4 $5 $6 $7 $8 $9 X,Y pos of 4 corners*
0 Add a 4 corners polygon primitive as box body*
4,1,4,$2,$3,$4,$5,$6,$7,$8,$9,$2,$3,0*
0 Add four circle primitives for the rounded corners*
1,1,$1+$1,$2,$3*
1,1,$1+$1,$4,$5*
1,1,$1+$1,$6,$7*
1,1,$1+$1,$8,$9*
0 Add four rect primitives between the rounded corners*
20,1,$1+$1,$2,$3,$4,$5,0*
20,1,$1+$1,$4,$5,$6,$7,0*
20,1,$1+$1,$6,$7,$8,$9,0*
20,1,$1+$1,$8,$9,$2,$3,0*%
G04 Aperture macros list end*
%ADD10C,0.300000*%
%TA.AperFunction,NonConductor*%
%ADD11C,0.300000*%
%TD*%
%TA.AperFunction,NonConductor*%
%ADD12C,0.200000*%
%TD*%
%TA.AperFunction,ComponentPad*%
%ADD13RoundRect,0.250000X-0.625000X0.350000X-0.625000X-0.350000X0.625000X-0.350000X0.625000X0.350000X0*%
%TD*%
%TA.AperFunction,ComponentPad*%
%ADD14O,1.750000X1.200000*%
%TD*%
%TA.AperFunction,ComponentPad*%
%ADD15R,1.350000X1.350000*%
%TD*%
%TA.AperFunction,ComponentPad*%
%ADD16O,1.350000X1.350000*%
%TD*%
%TA.AperFunction,ComponentPad*%
%ADD17C,1.600000*%
%TD*%
%TA.AperFunction,ComponentPad*%
%ADD18C,1.778000*%
%TD*%
%TA.AperFunction,ComponentPad*%
%ADD19C,1.930400*%
%TD*%
%TA.AperFunction,ComponentPad*%
%ADD20C,3.200000*%
%TD*%
%TA.AperFunction,ComponentPad*%
%ADD21R,1.860000X1.860000*%
%TD*%
%TA.AperFunction,ComponentPad*%
%ADD22C,1.860000*%
%TD*%
%TA.AperFunction,ComponentPad*%
%ADD23R,2.200000X2.200000*%
%TD*%
%TA.AperFunction,ComponentPad*%
%ADD24O,2.200000X2.200000*%
%TD*%
%TA.AperFunction,ComponentPad*%
%ADD25C,2.700000*%
%TD*%
%TA.AperFunction,ComponentPad*%
%ADD26C,3.320000*%
%TD*%
%TA.AperFunction,ComponentPad*%
%ADD27C,5.700000*%
%TD*%
%TA.AperFunction,ComponentPad*%
%ADD28O,1.600000X1.600000*%
%TD*%
%TA.AperFunction,ComponentPad*%
%ADD29O,1.700000X1.700000*%
%TD*%
%TA.AperFunction,ComponentPad*%
%ADD30R,1.700000X1.700000*%
%TD*%
%TA.AperFunction,ComponentPad*%
%ADD31R,1.100000X1.100000*%
%TD*%
%TA.AperFunction,ComponentPad*%
%ADD32C,1.100000*%
%TD*%
%TA.AperFunction,ComponentPad*%
%ADD33R,1.500000X1.050000*%
%TD*%
%TA.AperFunction,ComponentPad*%
%ADD34O,1.500000X1.050000*%
%TD*%
%TA.AperFunction,ViaPad*%
%ADD35C,0.800000*%
%TD*%
%TA.AperFunction,Conductor*%
%ADD36C,0.250000*%
%TD*%
%TA.AperFunction,Conductor*%
%ADD37C,1.250000*%
%TD*%
G04 APERTURE END LIST*
D10*
D11*
X136378328Y-106785712D02*
X136378328Y-106499998D01*
X136378328Y-106499998D02*
X136306900Y-106357141D01*
X136306900Y-106357141D02*
X136235471Y-106285712D01*
X136235471Y-106285712D02*
X136021185Y-106142855D01*
X136021185Y-106142855D02*
X135735471Y-106071426D01*
X135735471Y-106071426D02*
X135164042Y-106071426D01*
X135164042Y-106071426D02*
X135021185Y-106142855D01*
X135021185Y-106142855D02*
X134949757Y-106214284D01*
X134949757Y-106214284D02*
X134878328Y-106357141D01*
X134878328Y-106357141D02*
X134878328Y-106642855D01*
X134878328Y-106642855D02*
X134949757Y-106785712D01*
X134949757Y-106785712D02*
X135021185Y-106857141D01*
X135021185Y-106857141D02*
X135164042Y-106928569D01*
X135164042Y-106928569D02*
X135521185Y-106928569D01*
X135521185Y-106928569D02*
X135664042Y-106857141D01*
X135664042Y-106857141D02*
X135735471Y-106785712D01*
X135735471Y-106785712D02*
X135806900Y-106642855D01*
X135806900Y-106642855D02*
X135806900Y-106357141D01*
X135806900Y-106357141D02*
X135735471Y-106214284D01*
X135735471Y-106214284D02*
X135664042Y-106142855D01*
X135664042Y-106142855D02*
X135521185Y-106071426D01*
X134878328Y-105142855D02*
X134878328Y-104999998D01*
X134878328Y-104999998D02*
X134949757Y-104857141D01*
X134949757Y-104857141D02*
X135021185Y-104785713D01*
X135021185Y-104785713D02*
X135164042Y-104714284D01*
X135164042Y-104714284D02*
X135449757Y-104642855D01*
X135449757Y-104642855D02*
X135806900Y-104642855D01*
X135806900Y-104642855D02*
X136092614Y-104714284D01*
X136092614Y-104714284D02*
X136235471Y-104785713D01*
X136235471Y-104785713D02*
X136306900Y-104857141D01*
X136306900Y-104857141D02*
X136378328Y-104999998D01*
X136378328Y-104999998D02*
X136378328Y-105142855D01*
X136378328Y-105142855D02*
X136306900Y-105285713D01*
X136306900Y-105285713D02*
X136235471Y-105357141D01*
X136235471Y-105357141D02*
X136092614Y-105428570D01*
X136092614Y-105428570D02*
X135806900Y-105499998D01*
X135806900Y-105499998D02*
X135449757Y-105499998D01*
X135449757Y-105499998D02*
X135164042Y-105428570D01*
X135164042Y-105428570D02*
X135021185Y-105357141D01*
X135021185Y-105357141D02*
X134949757Y-105285713D01*
X134949757Y-105285713D02*
X134878328Y-105142855D01*
X136235471Y-103999999D02*
X136306900Y-103928570D01*
X136306900Y-103928570D02*
X136378328Y-103999999D01*
X136378328Y-103999999D02*
X136306900Y-104071427D01*
X136306900Y-104071427D02*
X136235471Y-103999999D01*
X136235471Y-103999999D02*
X136378328Y-103999999D01*
X134878328Y-102999998D02*
X134878328Y-102857141D01*
X134878328Y-102857141D02*
X134949757Y-102714284D01*
X134949757Y-102714284D02*
X135021185Y-102642856D01*
X135021185Y-102642856D02*
X135164042Y-102571427D01*
X135164042Y-102571427D02*
X135449757Y-102499998D01*
X135449757Y-102499998D02*
X135806900Y-102499998D01*
X135806900Y-102499998D02*
X136092614Y-102571427D01*
X136092614Y-102571427D02*
X136235471Y-102642856D01*
X136235471Y-102642856D02*
X136306900Y-102714284D01*
X136306900Y-102714284D02*
X136378328Y-102857141D01*
X136378328Y-102857141D02*
X136378328Y-102999998D01*
X136378328Y-102999998D02*
X136306900Y-103142856D01*
X136306900Y-103142856D02*
X136235471Y-103214284D01*
X136235471Y-103214284D02*
X136092614Y-103285713D01*
X136092614Y-103285713D02*
X135806900Y-103357141D01*
X135806900Y-103357141D02*
X135449757Y-103357141D01*
X135449757Y-103357141D02*
X135164042Y-103285713D01*
X135164042Y-103285713D02*
X135021185Y-103214284D01*
X135021185Y-103214284D02*
X134949757Y-103142856D01*
X134949757Y-103142856D02*
X134878328Y-102999998D01*
X134878328Y-101571427D02*
X134878328Y-101428570D01*
X134878328Y-101428570D02*
X134949757Y-101285713D01*
X134949757Y-101285713D02*
X135021185Y-101214285D01*
X135021185Y-101214285D02*
X135164042Y-101142856D01*
X135164042Y-101142856D02*
X135449757Y-101071427D01*
X135449757Y-101071427D02*
X135806900Y-101071427D01*
X135806900Y-101071427D02*
X136092614Y-101142856D01*
X136092614Y-101142856D02*
X136235471Y-101214285D01*
X136235471Y-101214285D02*
X136306900Y-101285713D01*
X136306900Y-101285713D02*
X136378328Y-101428570D01*
X136378328Y-101428570D02*
X136378328Y-101571427D01*
X136378328Y-101571427D02*
X136306900Y-101714285D01*
X136306900Y-101714285D02*
X136235471Y-101785713D01*
X136235471Y-101785713D02*
X136092614Y-101857142D01*
X136092614Y-101857142D02*
X135806900Y-101928570D01*
X135806900Y-101928570D02*
X135449757Y-101928570D01*
X135449757Y-101928570D02*
X135164042Y-101857142D01*
X135164042Y-101857142D02*
X135021185Y-101785713D01*
X135021185Y-101785713D02*
X134949757Y-101714285D01*
X134949757Y-101714285D02*
X134878328Y-101571427D01*
X134878328Y-100142856D02*
X134878328Y-99999999D01*
X134878328Y-99999999D02*
X134949757Y-99857142D01*
X134949757Y-99857142D02*
X135021185Y-99785714D01*
X135021185Y-99785714D02*
X135164042Y-99714285D01*
X135164042Y-99714285D02*
X135449757Y-99642856D01*
X135449757Y-99642856D02*
X135806900Y-99642856D01*
X135806900Y-99642856D02*
X136092614Y-99714285D01*
X136092614Y-99714285D02*
X136235471Y-99785714D01*
X136235471Y-99785714D02*
X136306900Y-99857142D01*
X136306900Y-99857142D02*
X136378328Y-99999999D01*
X136378328Y-99999999D02*
X136378328Y-100142856D01*
X136378328Y-100142856D02*
X136306900Y-100285714D01*
X136306900Y-100285714D02*
X136235471Y-100357142D01*
X136235471Y-100357142D02*
X136092614Y-100428571D01*
X136092614Y-100428571D02*
X135806900Y-100499999D01*
X135806900Y-100499999D02*
X135449757Y-100499999D01*
X135449757Y-100499999D02*
X135164042Y-100428571D01*
X135164042Y-100428571D02*
X135021185Y-100357142D01*
X135021185Y-100357142D02*
X134949757Y-100285714D01*
X134949757Y-100285714D02*
X134878328Y-100142856D01*
X134878328Y-98714285D02*
X134878328Y-98571428D01*
X134878328Y-98571428D02*
X134949757Y-98428571D01*
X134949757Y-98428571D02*
X135021185Y-98357143D01*
X135021185Y-98357143D02*
X135164042Y-98285714D01*
X135164042Y-98285714D02*
X135449757Y-98214285D01*
X135449757Y-98214285D02*
X135806900Y-98214285D01*
X135806900Y-98214285D02*
X136092614Y-98285714D01*
X136092614Y-98285714D02*
X136235471Y-98357143D01*
X136235471Y-98357143D02*
X136306900Y-98428571D01*
X136306900Y-98428571D02*
X136378328Y-98571428D01*
X136378328Y-98571428D02*
X136378328Y-98714285D01*
X136378328Y-98714285D02*
X136306900Y-98857143D01*
X136306900Y-98857143D02*
X136235471Y-98928571D01*
X136235471Y-98928571D02*
X136092614Y-99000000D01*
X136092614Y-99000000D02*
X135806900Y-99071428D01*
X135806900Y-99071428D02*
X135449757Y-99071428D01*
X135449757Y-99071428D02*
X135164042Y-99000000D01*
X135164042Y-99000000D02*
X135021185Y-98928571D01*
X135021185Y-98928571D02*
X134949757Y-98857143D01*
X134949757Y-98857143D02*
X134878328Y-98714285D01*
X136378328Y-96428572D02*
X135378328Y-96428572D01*
X135521185Y-96428572D02*
X135449757Y-96357143D01*
X135449757Y-96357143D02*
X135378328Y-96214286D01*
X135378328Y-96214286D02*
X135378328Y-96000000D01*
X135378328Y-96000000D02*
X135449757Y-95857143D01*
X135449757Y-95857143D02*
X135592614Y-95785715D01*
X135592614Y-95785715D02*
X136378328Y-95785715D01*
X135592614Y-95785715D02*
X135449757Y-95714286D01*
X135449757Y-95714286D02*
X135378328Y-95571429D01*
X135378328Y-95571429D02*
X135378328Y-95357143D01*
X135378328Y-95357143D02*
X135449757Y-95214286D01*
X135449757Y-95214286D02*
X135592614Y-95142857D01*
X135592614Y-95142857D02*
X136378328Y-95142857D01*
X136378328Y-94428572D02*
X135378328Y-94428572D01*
X135521185Y-94428572D02*
X135449757Y-94357143D01*
X135449757Y-94357143D02*
X135378328Y-94214286D01*
X135378328Y-94214286D02*
X135378328Y-94000000D01*
X135378328Y-94000000D02*
X135449757Y-93857143D01*
X135449757Y-93857143D02*
X135592614Y-93785715D01*
X135592614Y-93785715D02*
X136378328Y-93785715D01*
X135592614Y-93785715D02*
X135449757Y-93714286D01*
X135449757Y-93714286D02*
X135378328Y-93571429D01*
X135378328Y-93571429D02*
X135378328Y-93357143D01*
X135378328Y-93357143D02*
X135449757Y-93214286D01*
X135449757Y-93214286D02*
X135592614Y-93142857D01*
X135592614Y-93142857D02*
X136378328Y-93142857D01*
D12*
X147500000Y-55000000D02*
X136913580Y-55000000D01*
X147500000Y-145000000D02*
X136913580Y-145000000D01*
X137500000Y-55000000D02*
X137500000Y-145000000D01*
X137500000Y-55000000D02*
X137500000Y-145000000D01*
X137500000Y-55000000D02*
X138086421Y-56126504D01*
X137500000Y-55000000D02*
X136913579Y-56126504D01*
X137500000Y-145000000D02*
X136913579Y-143873496D01*
X137500000Y-145000000D02*
X138086421Y-143873496D01*
D10*
D11*
X174285716Y-44178328D02*
X174000001Y-44178328D01*
X174000001Y-44178328D02*
X173857144Y-44249757D01*
X173857144Y-44249757D02*
X173785716Y-44321185D01*
X173785716Y-44321185D02*
X173642858Y-44535471D01*
X173642858Y-44535471D02*
X173571430Y-44821185D01*
X173571430Y-44821185D02*
X173571430Y-45392614D01*
X173571430Y-45392614D02*
X173642858Y-45535471D01*
X173642858Y-45535471D02*
X173714287Y-45606900D01*
X173714287Y-45606900D02*
X173857144Y-45678328D01*
X173857144Y-45678328D02*
X174142858Y-45678328D01*
X174142858Y-45678328D02*
X174285716Y-45606900D01*
X174285716Y-45606900D02*
X174357144Y-45535471D01*
X174357144Y-45535471D02*
X174428573Y-45392614D01*
X174428573Y-45392614D02*
X174428573Y-45035471D01*
X174428573Y-45035471D02*
X174357144Y-44892614D01*
X174357144Y-44892614D02*
X174285716Y-44821185D01*
X174285716Y-44821185D02*
X174142858Y-44749757D01*
X174142858Y-44749757D02*
X173857144Y-44749757D01*
X173857144Y-44749757D02*
X173714287Y-44821185D01*
X173714287Y-44821185D02*
X173642858Y-44892614D01*
X173642858Y-44892614D02*
X173571430Y-45035471D01*
X175785715Y-44178328D02*
X175071429Y-44178328D01*
X175071429Y-44178328D02*
X175000001Y-44892614D01*
X175000001Y-44892614D02*
X175071429Y-44821185D01*
X175071429Y-44821185D02*
X175214287Y-44749757D01*
X175214287Y-44749757D02*
X175571429Y-44749757D01*
X175571429Y-44749757D02*
X175714287Y-44821185D01*
X175714287Y-44821185D02*
X175785715Y-44892614D01*
X175785715Y-44892614D02*
X175857144Y-45035471D01*
X175857144Y-45035471D02*
X175857144Y-45392614D01*
X175857144Y-45392614D02*
X175785715Y-45535471D01*
X175785715Y-45535471D02*
X175714287Y-45606900D01*
X175714287Y-45606900D02*
X175571429Y-45678328D01*
X175571429Y-45678328D02*
X175214287Y-45678328D01*
X175214287Y-45678328D02*
X175071429Y-45606900D01*
X175071429Y-45606900D02*
X175000001Y-45535471D01*
X176500000Y-45535471D02*
X176571429Y-45606900D01*
X176571429Y-45606900D02*
X176500000Y-45678328D01*
X176500000Y-45678328D02*
X176428572Y-45606900D01*
X176428572Y-45606900D02*
X176500000Y-45535471D01*
X176500000Y-45535471D02*
X176500000Y-45678328D01*
X177500001Y-44178328D02*
X177642858Y-44178328D01*
X177642858Y-44178328D02*
X177785715Y-44249757D01*
X177785715Y-44249757D02*
X177857144Y-44321185D01*
X177857144Y-44321185D02*
X177928572Y-44464042D01*
X177928572Y-44464042D02*
X178000001Y-44749757D01*
X178000001Y-44749757D02*
X178000001Y-45106900D01*
X178000001Y-45106900D02*
X177928572Y-45392614D01*
X177928572Y-45392614D02*
X177857144Y-45535471D01*
X177857144Y-45535471D02*
X177785715Y-45606900D01*
X177785715Y-45606900D02*
X177642858Y-45678328D01*
X177642858Y-45678328D02*
X177500001Y-45678328D01*
X177500001Y-45678328D02*
X177357144Y-45606900D01*
X177357144Y-45606900D02*
X177285715Y-45535471D01*
X177285715Y-45535471D02*
X177214286Y-45392614D01*
X177214286Y-45392614D02*
X177142858Y-45106900D01*
X177142858Y-45106900D02*
X177142858Y-44749757D01*
X177142858Y-44749757D02*
X177214286Y-44464042D01*
X177214286Y-44464042D02*
X177285715Y-44321185D01*
X177285715Y-44321185D02*
X177357144Y-44249757D01*
X177357144Y-44249757D02*
X177500001Y-44178328D01*
X178928572Y-44178328D02*
X179071429Y-44178328D01*
X179071429Y-44178328D02*
X179214286Y-44249757D01*
X179214286Y-44249757D02*
X179285715Y-44321185D01*
X179285715Y-44321185D02*
X179357143Y-44464042D01*
X179357143Y-44464042D02*
X179428572Y-44749757D01*
X179428572Y-44749757D02*
X179428572Y-45106900D01*
X179428572Y-45106900D02*
X179357143Y-45392614D01*
X179357143Y-45392614D02*
X179285715Y-45535471D01*
X179285715Y-45535471D02*
X179214286Y-45606900D01*
X179214286Y-45606900D02*
X179071429Y-45678328D01*
X179071429Y-45678328D02*
X178928572Y-45678328D01*
X178928572Y-45678328D02*
X178785715Y-45606900D01*
X178785715Y-45606900D02*
X178714286Y-45535471D01*
X178714286Y-45535471D02*
X178642857Y-45392614D01*
X178642857Y-45392614D02*
X178571429Y-45106900D01*
X178571429Y-45106900D02*
X178571429Y-44749757D01*
X178571429Y-44749757D02*
X178642857Y-44464042D01*
X178642857Y-44464042D02*
X178714286Y-44321185D01*
X178714286Y-44321185D02*
X178785715Y-44249757D01*
X178785715Y-44249757D02*
X178928572Y-44178328D01*
X180357143Y-44178328D02*
X180500000Y-44178328D01*
X180500000Y-44178328D02*
X180642857Y-44249757D01*
X180642857Y-44249757D02*
X180714286Y-44321185D01*
X180714286Y-44321185D02*
X180785714Y-44464042D01*
X180785714Y-44464042D02*
X180857143Y-44749757D01*
X180857143Y-44749757D02*
X180857143Y-45106900D01*
X180857143Y-45106900D02*
X180785714Y-45392614D01*
X180785714Y-45392614D02*
X180714286Y-45535471D01*
X180714286Y-45535471D02*
X180642857Y-45606900D01*
X180642857Y-45606900D02*
X180500000Y-45678328D01*
X180500000Y-45678328D02*
X180357143Y-45678328D01*
X180357143Y-45678328D02*
X180214286Y-45606900D01*
X180214286Y-45606900D02*
X180142857Y-45535471D01*
X180142857Y-45535471D02*
X180071428Y-45392614D01*
X180071428Y-45392614D02*
X180000000Y-45106900D01*
X180000000Y-45106900D02*
X180000000Y-44749757D01*
X180000000Y-44749757D02*
X180071428Y-44464042D01*
X180071428Y-44464042D02*
X180142857Y-44321185D01*
X180142857Y-44321185D02*
X180214286Y-44249757D01*
X180214286Y-44249757D02*
X180357143Y-44178328D01*
X181785714Y-44178328D02*
X181928571Y-44178328D01*
X181928571Y-44178328D02*
X182071428Y-44249757D01*
X182071428Y-44249757D02*
X182142857Y-44321185D01*
X182142857Y-44321185D02*
X182214285Y-44464042D01*
X182214285Y-44464042D02*
X182285714Y-44749757D01*
X182285714Y-44749757D02*
X182285714Y-45106900D01*
X182285714Y-45106900D02*
X182214285Y-45392614D01*
X182214285Y-45392614D02*
X182142857Y-45535471D01*
X182142857Y-45535471D02*
X182071428Y-45606900D01*
X182071428Y-45606900D02*
X181928571Y-45678328D01*
X181928571Y-45678328D02*
X181785714Y-45678328D01*
X181785714Y-45678328D02*
X181642857Y-45606900D01*
X181642857Y-45606900D02*
X181571428Y-45535471D01*
X181571428Y-45535471D02*
X181499999Y-45392614D01*
X181499999Y-45392614D02*
X181428571Y-45106900D01*
X181428571Y-45106900D02*
X181428571Y-44749757D01*
X181428571Y-44749757D02*
X181499999Y-44464042D01*
X181499999Y-44464042D02*
X181571428Y-44321185D01*
X181571428Y-44321185D02*
X181642857Y-44249757D01*
X181642857Y-44249757D02*
X181785714Y-44178328D01*
X184071427Y-45678328D02*
X184071427Y-44678328D01*
X184071427Y-44821185D02*
X184142856Y-44749757D01*
X184142856Y-44749757D02*
X184285713Y-44678328D01*
X184285713Y-44678328D02*
X184499999Y-44678328D01*
X184499999Y-44678328D02*
X184642856Y-44749757D01*
X184642856Y-44749757D02*
X184714285Y-44892614D01*
X184714285Y-44892614D02*
X184714285Y-45678328D01*
X184714285Y-44892614D02*
X184785713Y-44749757D01*
X184785713Y-44749757D02*
X184928570Y-44678328D01*
X184928570Y-44678328D02*
X185142856Y-44678328D01*
X185142856Y-44678328D02*
X185285713Y-44749757D01*
X185285713Y-44749757D02*
X185357142Y-44892614D01*
X185357142Y-44892614D02*
X185357142Y-45678328D01*
X186071427Y-45678328D02*
X186071427Y-44678328D01*
X186071427Y-44821185D02*
X186142856Y-44749757D01*
X186142856Y-44749757D02*
X186285713Y-44678328D01*
X186285713Y-44678328D02*
X186499999Y-44678328D01*
X186499999Y-44678328D02*
X186642856Y-44749757D01*
X186642856Y-44749757D02*
X186714285Y-44892614D01*
X186714285Y-44892614D02*
X186714285Y-45678328D01*
X186714285Y-44892614D02*
X186785713Y-44749757D01*
X186785713Y-44749757D02*
X186928570Y-44678328D01*
X186928570Y-44678328D02*
X187142856Y-44678328D01*
X187142856Y-44678328D02*
X187285713Y-44749757D01*
X187285713Y-44749757D02*
X187357142Y-44892614D01*
X187357142Y-44892614D02*
X187357142Y-45678328D01*
D12*
X148000000Y-54500000D02*
X148000000Y-46213580D01*
X213000000Y-54500000D02*
X213000000Y-46213580D01*
X148000000Y-46800000D02*
X213000000Y-46800000D01*
X148000000Y-46800000D02*
X213000000Y-46800000D01*
X148000000Y-46800000D02*
X149126504Y-46213579D01*
X148000000Y-46800000D02*
X149126504Y-47386421D01*
X213000000Y-46800000D02*
X211873496Y-47386421D01*
X213000000Y-46800000D02*
X211873496Y-46213579D01*
D13*
%TO.P,J7,1,Pin_1*%
%TO.N,/QUADB1*%
X155100000Y-136200000D03*
D14*
%TO.P,J7,2,Pin_2*%
%TO.N,/QUADA1*%
X155100000Y-138200000D03*
%TO.P,J7,3,Pin_3*%
%TO.N,/3V3*%
X155100000Y-140200000D03*
%TO.P,J7,4,Pin_4*%
%TO.N,/GND*%
X155100000Y-142200000D03*
%TD*%
D15*
%TO.P,J13,1,Pin_1*%
%TO.N,/5V*%
X166500000Y-118000000D03*
D16*
%TO.P,J13,2,Pin_2*%
X164500000Y-118000000D03*
%TO.P,J13,3,Pin_3*%
X166500000Y-120000000D03*
%TO.P,J13,4,Pin_4*%
X164500000Y-120000000D03*
%TD*%
D17*
%TO.P,CAN2,1*%
%TO.N,/3V3*%
X160500000Y-99000000D03*
%TO.P,CAN2,2*%
%TO.N,/GND*%
X165500000Y-99000000D03*
%TD*%
%TO.P,JETSON1V8,1*%
%TO.N,/GND*%
X176500000Y-135500000D03*
%TO.P,JETSON1V8,2*%
%TO.N,Net-(J1-Pin_4)*%
X176500000Y-130500000D03*
%TD*%
D18*
%TO.P,IMU,1*%
%TO.N,/3V3*%
X209307500Y-105537500D03*
D19*
%TO.N,/INT*%
X194067501Y-102997500D03*
D18*
%TO.P,IMU,2*%
%TO.N,N/C*%
X209307501Y-102997500D03*
D19*
%TO.N,/ADR*%
X194067501Y-100457500D03*
D18*
%TO.P,IMU,3*%
%TO.N,/GND*%
X209307501Y-100457500D03*
D19*
%TO.N,/PS0*%
X194067501Y-97917500D03*
D18*
%TO.P,IMU,4*%
%TO.N,/IMU_SCL*%
X209307501Y-97917500D03*
D19*
%TO.N,/PS1*%
X194067501Y-95377500D03*
D18*
%TO.P,IMU,5*%
%TO.N,/IMU_SDA*%
X209307501Y-95377500D03*
%TO.P,IMU,6*%
%TO.N,/IMU_RST*%
X209307501Y-92837500D03*
D20*
%TO.P,IMU,P$1*%
%TO.N,N/C*%
X194067501Y-109347500D03*
X209307501Y-109347500D03*
X194067501Y-89027500D03*
X209307501Y-89027500D03*
%TD*%
D21*
%TO.P,Q1,1,IN*%
%TO.N,Net-(Q1-IN)*%
X151420000Y-58800000D03*
D22*
%TO.P,Q1,2,GND*%
%TO.N,/GND*%
X153960000Y-58800000D03*
%TO.P,Q1,3,OUT*%
%TO.N,Net-(D17-A)*%
X156500000Y-58800000D03*
%TD*%
D23*
%TO.P,D17,1,K*%
%TO.N,/5V*%
X150500000Y-79580000D03*
D24*
%TO.P,D17,2,A*%
%TO.N,Net-(D17-A)*%
X150500000Y-69420000D03*
%TD*%
D25*
%TO.P,U4,P$2,-*%
%TO.N,/GND*%
X156200000Y-64100000D03*
%TO.P,U4,P$1,+*%
%TO.N,Net-(Q1-IN)*%
X151200000Y-64100000D03*
%TD*%
D26*
%TO.P,SW2,1,1*%
%TO.N,Net-(U6-RUN)*%
X171500000Y-116000000D03*
%TO.P,SW2,2,2*%
%TO.N,/GND*%
X175500000Y-116000000D03*
%TD*%
D17*
%TO.P,CAN1,1*%
%TO.N,/3V3*%
X160500000Y-96000000D03*
%TO.P,CAN1,2*%
%TO.N,/GND*%
X165500000Y-96000000D03*
%TD*%
D27*
%TO.P,REF\u002A\u002A,1*%
%TO.N,N/C*%
X159000000Y-118000000D03*
%TD*%
D17*
%TO.P,R33,1*%
%TO.N,Net-(J4-Pin_2)*%
X157500000Y-109880000D03*
D28*
%TO.P,R33,2*%
%TO.N,Net-(J4-Pin_1)*%
X157500000Y-99720000D03*
%TD*%
D15*
%TO.P,J1,1,Pin_1*%
%TO.N,/GND*%
X181000000Y-105200000D03*
D16*
%TO.P,J1,2,Pin_2*%
%TO.N,Net-(J1-Pin_2)*%
X181000000Y-103200000D03*
%TO.P,J1,3,Pin_3*%
%TO.N,Net-(J1-Pin_3)*%
X181000000Y-101200000D03*
%TO.P,J1,4,Pin_4*%
%TO.N,Net-(J1-Pin_4)*%
X181000000Y-99200000D03*
%TD*%
D17*
%TO.P,IMUC13,1*%
%TO.N,/3V3*%
X205000000Y-102000000D03*
%TO.P,IMUC13,2*%
%TO.N,/GND*%
X205000000Y-97000000D03*
%TD*%
D29*
%TO.P,U6,1,GPIO0*%
%TO.N,/B0*%
X210500000Y-124720000D03*
%TO.P,U6,2,GPIO1*%
%TO.N,/DR16_TX*%
X207960000Y-124720000D03*
D30*
%TO.P,U6,3,GND*%
%TO.N,/GND*%
X205420000Y-124720000D03*
D29*
%TO.P,U6,4,GPIO2*%
%TO.N,/B2*%
X202880000Y-124720000D03*
%TO.P,U6,5,GPIO3*%
%TO.N,/B3*%
X200340000Y-124720000D03*
%TO.P,U6,6,GPIO4*%
%TO.N,/B4*%
X197800000Y-124720000D03*
%TO.P,U6,7,GPIO5*%
%TO.N,/B5*%
X195260000Y-124720000D03*
D30*
%TO.P,U6,8,GND*%
%TO.N,/GND*%
X192720000Y-124720000D03*
D29*
%TO.P,U6,9,GPIO6*%
%TO.N,/CAN1_RX*%
X190180000Y-124720000D03*
%TO.P,U6,10,GPIO7*%
%TO.N,/CAN1_TX*%
X187640000Y-124720000D03*
%TO.P,U6,11,GPIO8*%
%TO.N,/CAN2_RX*%
X185100000Y-124720000D03*
%TO.P,U6,12,GPIO9*%
%TO.N,/CAN2_TX*%
X182560000Y-124720000D03*
D30*
%TO.P,U6,13,GND*%
%TO.N,/GND*%
X180020000Y-124720000D03*
D29*
%TO.P,U6,14,GPIO10*%
%TO.N,/B10*%
X177480000Y-124720000D03*
%TO.P,U6,15,GPIO11*%
%TO.N,/B11*%
X174940000Y-124720000D03*
%TO.P,U6,16,GPIO12*%
%TO.N,/P2P_2*%
X172400000Y-124720000D03*
%TO.P,U6,17,GPIO13*%
%TO.N,/P2P_1*%
X169860000Y-124720000D03*
D30*
%TO.P,U6,18,GND*%
%TO.N,/GND*%
X167320000Y-124720000D03*
D29*
%TO.P,U6,19,GPIO14*%
%TO.N,/B14*%
X164780000Y-124720000D03*
%TO.P,U6,20,GPIO15*%
%TO.N,unconnected-(U6-GPIO15-Pad20)*%
X162240000Y-124720000D03*
%TO.P,U6,21,GPIO16*%
%TO.N,unconnected-(U6-GPIO16-Pad21)*%
X162240000Y-142500000D03*
%TO.P,U6,22,GPIO17*%
%TO.N,unconnected-(U6-GPIO17-Pad22)*%
X164780000Y-142500000D03*
D30*
%TO.P,U6,23,GND*%
%TO.N,/GND*%
X167320000Y-142500000D03*
D29*
%TO.P,U6,24,GPIO18*%
%TO.N,unconnected-(U6-GPIO18-Pad24)*%
X169860000Y-142500000D03*
%TO.P,U6,25,GPIO19*%
%TO.N,unconnected-(U6-GPIO19-Pad25)*%
X172400000Y-142500000D03*
%TO.P,U6,26,GPIO20*%
%TO.N,/B20*%
X174940000Y-142500000D03*
%TO.P,U6,27,GPIO21*%
%TO.N,/B21*%
X177480000Y-142500000D03*
D30*
%TO.P,U6,28,GND*%
%TO.N,/GND*%
X180020000Y-142500000D03*
D29*
%TO.P,U6,29,GPIO22*%
%TO.N,/B22*%
X182560000Y-142500000D03*
%TO.P,U6,30,RUN*%
%TO.N,Net-(U6-RUN)*%
X185100000Y-142500000D03*
%TO.P,U6,31,GPIO26_ADC0*%
%TO.N,/B26*%
X187640000Y-142500000D03*
%TO.P,U6,32,GPIO27_ADC1*%
%TO.N,/B27*%
X190180000Y-142500000D03*
D30*
%TO.P,U6,33,AGND*%
%TO.N,/GND*%
X192720000Y-142500000D03*
D29*
%TO.P,U6,34,GPIO28_ADC2*%
%TO.N,/B28*%
X195260000Y-142500000D03*
%TO.P,U6,35,ADC_VREF*%
%TO.N,unconnected-(U6-ADC_VREF-Pad35)*%
X197800000Y-142500000D03*
%TO.P,U6,36,3V3*%
%TO.N,/3V3*%
X200340000Y-142500000D03*
%TO.P,U6,37,3V3_EN*%
%TO.N,unconnected-(U6-3V3_EN-Pad37)*%
X202880000Y-142500000D03*
D30*
%TO.P,U6,38,GND*%
%TO.N,/GND*%
X205420000Y-142500000D03*
D29*
%TO.P,U6,39,VSYS*%
%TO.N,/5V*%
X207960000Y-142500000D03*
%TO.P,U6,40,VBUS*%
%TO.N,unconnected-(U6-VBUS-Pad40)*%
X210500000Y-142500000D03*
%TD*%
D17*
%TO.P,C3,1*%
%TO.N,Net-(D17-A)*%
X158300000Y-75500000D03*
%TO.P,C3,2*%
%TO.N,/GND*%
X158300000Y-70500000D03*
%TD*%
D29*
%TO.P,U1,1,GPIO0*%
%TO.N,/A0*%
X210500000Y-57500000D03*
%TO.P,U1,2,GPIO1*%
%TO.N,/A1*%
X207960000Y-57500000D03*
D30*
%TO.P,U1,3,GND*%
%TO.N,/GND*%
X205420000Y-57500000D03*
D29*
%TO.P,U1,4,GPIO2*%
%TO.N,/IMU_SDA*%
X202880000Y-57500000D03*
%TO.P,U1,5,GPIO3*%
%TO.N,/IMU_SCL*%
X200340000Y-57500000D03*
%TO.P,U1,6,GPIO4*%
%TO.N,/JETSON_rx*%
X197800000Y-57500000D03*
%TO.P,U1,7,GPIO5*%
%TO.N,/JETSON_tx*%
X195260000Y-57500000D03*
D30*
%TO.P,U1,8,GND*%
%TO.N,/GND*%
X192720000Y-57500000D03*
D29*
%TO.P,U1,9,GPIO6*%
%TO.N,/CAN1_RX*%
X190180000Y-57500000D03*
%TO.P,U1,10,GPIO7*%
%TO.N,/CAN1_TX*%
X187640000Y-57500000D03*
%TO.P,U1,11,GPIO8*%
%TO.N,/QUADA1*%
X185100000Y-57500000D03*
%TO.P,U1,12,GPIO9*%
%TO.N,/QUADB1*%
X182560000Y-57500000D03*
D30*
%TO.P,U1,13,GND*%
%TO.N,/GND*%
X180020000Y-57500000D03*
D29*
%TO.P,U1,14,GPIO10*%
%TO.N,/QUADA2*%
X177480000Y-57500000D03*
%TO.P,U1,15,GPIO11*%
%TO.N,/QUADB2*%
X174940000Y-57500000D03*
%TO.P,U1,16,GPIO12*%
%TO.N,/P2P_1*%
X172400000Y-57500000D03*
%TO.P,U1,17,GPIO13*%
%TO.N,/P2P_2*%
X169860000Y-57500000D03*
D30*
%TO.P,U1,18,GND*%
%TO.N,/GND*%
X167320000Y-57500000D03*
D29*
%TO.P,U1,19,GPIO14*%
%TO.N,/SERVO*%
X164780000Y-57500000D03*
%TO.P,U1,20,GPIO15*%
%TO.N,unconnected-(U1-GPIO15-Pad20)*%
X162240000Y-57500000D03*
%TO.P,U1,21,GPIO16*%
%TO.N,unconnected-(U1-GPIO16-Pad21)*%
X162240000Y-75280000D03*
%TO.P,U1,22,GPIO17*%
%TO.N,unconnected-(U1-GPIO17-Pad22)*%
X164780000Y-75280000D03*
D30*
%TO.P,U1,23,GND*%
%TO.N,/GND*%
X167320000Y-75280000D03*
D29*
%TO.P,U1,24,GPIO18*%
%TO.N,unconnected-(U1-GPIO18-Pad24)*%
X169860000Y-75280000D03*
%TO.P,U1,25,GPIO19*%
%TO.N,unconnected-(U1-GPIO19-Pad25)*%
X172400000Y-75280000D03*
%TO.P,U1,26,GPIO20*%
%TO.N,/LEDR*%
X174940000Y-75280000D03*
%TO.P,U1,27,GPIO21*%
%TO.N,/LEDG*%
X177480000Y-75280000D03*
D30*
%TO.P,U1,28,GND*%
%TO.N,/GND*%
X180020000Y-75280000D03*
D29*
%TO.P,U1,29,GPIO22*%
%TO.N,/LEDB*%
X182560000Y-75280000D03*
%TO.P,U1,30,RUN*%
%TO.N,Net-(U1-RUN)*%
X185100000Y-75280000D03*
%TO.P,U1,31,GPIO26_ADC0*%
%TO.N,/A26*%
X187640000Y-75280000D03*
%TO.P,U1,32,GPIO27_ADC1*%
%TO.N,/A27*%
X190180000Y-75280000D03*
D30*
%TO.P,U1,33,AGND*%
%TO.N,/GND*%
X192720000Y-75280000D03*
D29*
%TO.P,U1,34,GPIO28_ADC2*%
%TO.N,/IMU_RST*%
X195260000Y-75280000D03*
%TO.P,U1,35,ADC_VREF*%
%TO.N,unconnected-(U1-ADC_VREF-Pad35)*%
X197800000Y-75280000D03*
%TO.P,U1,36,3V3*%
%TO.N,/3V3*%
X200340000Y-75280000D03*
%TO.P,U1,37,3V3_EN*%
%TO.N,unconnected-(U1-3V3_EN-Pad37)*%
X202880000Y-75280000D03*
D30*
%TO.P,U1,38,GND*%
%TO.N,/GND*%
X205420000Y-75280000D03*
D29*
%TO.P,U1,39,VSYS*%
%TO.N,/5V*%
X207960000Y-75280000D03*
%TO.P,U1,40,VBUS*%
%TO.N,unconnected-(U1-VBUS-Pad40)*%
X210500000Y-75280000D03*
%TD*%
D17*
%TO.P,PICOU1,1*%
%TO.N,/5V*%
X201000000Y-85000000D03*
%TO.P,PICOU1,2*%
%TO.N,/GND*%
X201000000Y-80000000D03*
%TD*%
D31*
%TO.P,D16,1*%
%TO.N,Net-(D16-Pad1)*%
X209170000Y-82500000D03*
D32*
%TO.P,D16,2*%
%TO.N,/GND*%
X207900000Y-82500000D03*
%TO.P,D16,3*%
%TO.N,Net-(D16-Pad3)*%
X206630000Y-82500000D03*
%TO.P,D16,4*%
%TO.N,Net-(D16-Pad4)*%
X205360000Y-82500000D03*
%TD*%
D17*
%TO.P,C2,1*%
%TO.N,Net-(Q1-IN)*%
X154500000Y-75500000D03*
%TO.P,C2,2*%
%TO.N,/GND*%
X154500000Y-70500000D03*
%TD*%
%TO.P,R5,1*%
%TO.N,/GPIO1-A*%
X179920000Y-80500000D03*
D28*
%TO.P,R5,2*%
%TO.N,/GPIO0-B*%
X190080000Y-80500000D03*
%TD*%
D17*
%TO.P,QUAD2,1*%
%TO.N,/3V3*%
X158500000Y-138000000D03*
%TO.P,QUAD2,2*%
%TO.N,/GND*%
X158500000Y-143000000D03*
%TD*%
%TO.P,R30,1*%
%TO.N,Net-(J2-Pin_3)*%
X179920000Y-94500000D03*
D28*
%TO.P,R30,2*%
%TO.N,Net-(Q3-B)*%
X190080000Y-94500000D03*
%TD*%
D17*
%TO.P,R1,1*%
%TO.N,/LEDG*%
X179920000Y-109400000D03*
D28*
%TO.P,R1,2*%
%TO.N,Net-(D16-Pad4)*%
X190080000Y-109400000D03*
%TD*%
D15*
%TO.P,J10,1,Pin_1*%
%TO.N,/A0*%
X174000000Y-92000000D03*
D16*
%TO.P,J10,2,Pin_2*%
%TO.N,/A1*%
X172000000Y-92000000D03*
%TO.P,J10,3,Pin_3*%
%TO.N,/A26*%
X174000000Y-94000000D03*
%TO.P,J10,4,Pin_4*%
%TO.N,/A27*%
X172000000Y-94000000D03*
%TO.P,J10,5,Pin_5*%
%TO.N,/B0*%
X174000000Y-96000000D03*
%TO.P,J10,6,Pin_6*%
%TO.N,/B2*%
X172000000Y-96000000D03*
%TO.P,J10,7,Pin_7*%
%TO.N,/B3*%
X174000000Y-98000000D03*
%TO.P,J10,8,Pin_8*%
%TO.N,/B4*%
X172000000Y-98000000D03*
%TO.P,J10,9,Pin_9*%
%TO.N,/B5*%
X174000000Y-100000000D03*
%TO.P,J10,10,Pin_10*%
%TO.N,/B28*%
X172000000Y-100000000D03*
%TO.P,J10,11,Pin_11*%
%TO.N,/B27*%
X174000000Y-102000000D03*
%TO.P,J10,12,Pin_12*%
%TO.N,/B26*%
X172000000Y-102000000D03*
%TO.P,J10,13,Pin_13*%
%TO.N,/B22*%
X174000000Y-104000000D03*
%TO.P,J10,14,Pin_14*%
%TO.N,/B21*%
X172000000Y-104000000D03*
%TO.P,J10,15,Pin_15*%
%TO.N,/B20*%
X174000000Y-106000000D03*
%TO.P,J10,16,Pin_16*%
%TO.N,/B14*%
X172000000Y-106000000D03*
%TO.P,J10,17,Pin_17*%
%TO.N,/B11*%
X174000000Y-108000000D03*
%TO.P,J10,18,Pin_18*%
%TO.N,/B10*%
X172000000Y-108000000D03*
%TD*%
D17*
%TO.P,JETSON3V3,1*%
%TO.N,/3V3*%
X172500000Y-135500000D03*
%TO.P,JETSON3V3,2*%
%TO.N,/GND*%
X172500000Y-130500000D03*
%TD*%
%TO.P,JETSONGND1,1*%
%TO.N,/GND*%
X180500000Y-135500000D03*
%TO.P,JETSONGND1,2*%
X180500000Y-130500000D03*
%TD*%
%TO.P,R10,1*%
%TO.N,/RP2040-Connect/GPIO0-A*%
X179920000Y-91000000D03*
D28*
%TO.P,R10,2*%
%TO.N,/RP2040-Connect/GPIO1-B*%
X190080000Y-91000000D03*
%TD*%
D15*
%TO.P,J2,1,Pin_1*%
%TO.N,/GND*%
X203500000Y-114000000D03*
D16*
%TO.P,J2,2,Pin_2*%
%TO.N,/5V*%
X201500000Y-114000000D03*
%TO.P,J2,3,Pin_3*%
%TO.N,Net-(J2-Pin_3)*%
X199500000Y-114000000D03*
%TD*%
D13*
%TO.P,J11,1,Pin_1*%
%TO.N,/QUADB2*%
X155150000Y-125100000D03*
D14*
%TO.P,J11,2,Pin_2*%
%TO.N,/QUADA2*%
X155150000Y-127100000D03*
%TO.P,J11,3,Pin_3*%
%TO.N,/3V3*%
X155150000Y-129100000D03*
%TO.P,J11,4,Pin_4*%
%TO.N,/GND*%
X155150000Y-131100000D03*
%TD*%
D17*
%TO.P,R31,1*%
%TO.N,/3V3*%
X179920000Y-119500000D03*
D28*
%TO.P,R31,2*%
%TO.N,/DR16_TX*%
X190080000Y-119500000D03*
%TD*%
D17*
%TO.P,R2,1*%
%TO.N,/LEDB*%
X179940000Y-112700000D03*
D28*
%TO.P,R2,2*%
%TO.N,Net-(D16-Pad3)*%
X190100000Y-112700000D03*
%TD*%
D17*
%TO.P,SERVO1,1*%
%TO.N,/GND*%
X189500000Y-105000000D03*
%TO.P,SERVO1,2*%
%TO.N,/5V*%
X189500000Y-100000000D03*
%TD*%
D15*
%TO.P,J9,1,Pin_1*%
%TO.N,/SERVO*%
X185000000Y-100300000D03*
D16*
%TO.P,J9,2,Pin_2*%
%TO.N,/5V*%
X185000000Y-102300000D03*
%TO.P,J9,3,Pin_3*%
%TO.N,/GND*%
X185000000Y-104300000D03*
%TD*%
D27*
%TO.P,MountingHole3,1*%
%TO.N,N/C*%
X195000000Y-82000000D03*
%TD*%
%TO.P,MountingHole2,1*%
%TO.N,N/C*%
X195000000Y-118000000D03*
%TD*%
D33*
%TO.P,Q3,1,E*%
%TO.N,/GND*%
X201440000Y-117330000D03*
D34*
%TO.P,Q3,2,B*%
%TO.N,Net-(Q3-B)*%
X201440000Y-118600000D03*
%TO.P,Q3,3,C*%
%TO.N,/DR16_TX*%
X201440000Y-119870000D03*
%TD*%
D17*
%TO.P,PICOU6,1*%
%TO.N,/5V*%
X207000000Y-116000000D03*
%TO.P,PICOU6,2*%
%TO.N,/GND*%
X207000000Y-121000000D03*
%TD*%
D27*
%TO.P,MountingHole1,1*%
%TO.N,N/C*%
X159000000Y-82000000D03*
%TD*%
D17*
%TO.P,R20,1*%
%TO.N,/RP2040-Connect/GPIO1-A*%
X179920000Y-87500000D03*
D28*
%TO.P,R20,2*%
%TO.N,/RP2040-Connect/GPIO0-B*%
X190080000Y-87500000D03*
%TD*%
D17*
%TO.P,R32,1*%
%TO.N,Net-(J3-Pin_1)*%
X157500000Y-86740000D03*
D28*
%TO.P,R32,2*%
%TO.N,Net-(J3-Pin_2)*%
X157500000Y-96900000D03*
%TD*%
D26*
%TO.P,SW1,1,1*%
%TO.N,Net-(U1-RUN)*%
X171500000Y-84300000D03*
%TO.P,SW1,2,2*%
%TO.N,/GND*%
X175500000Y-84300000D03*
%TD*%
D17*
%TO.P,R3,1*%
%TO.N,/LEDR*%
X179920000Y-116000000D03*
D28*
%TO.P,R3,2*%
%TO.N,Net-(D16-Pad1)*%
X190080000Y-116000000D03*
%TD*%
D15*
%TO.P,J12,1,Pin_1*%
%TO.N,/GND*%
X166500000Y-80000000D03*
D16*
%TO.P,J12,2,Pin_2*%
X164500000Y-80000000D03*
%TO.P,J12,3,Pin_3*%
X166500000Y-82000000D03*
%TO.P,J12,4,Pin_4*%
X164500000Y-82000000D03*
%TD*%
D17*
%TO.P,R4,1*%
%TO.N,/GPIO0-A*%
X179920000Y-84000000D03*
D28*
%TO.P,R4,2*%
%TO.N,/GPIO1-B*%
X190080000Y-84000000D03*
%TD*%
D17*
%TO.P,DR16,1*%
%TO.N,/GND*%
X210500000Y-121000000D03*
%TO.P,DR16,2*%
%TO.N,/5V*%
X210500000Y-116000000D03*
%TD*%
%TO.P,5VCAP1,1*%
%TO.N,/5V*%
X156500000Y-112500000D03*
%TO.P,5VCAP1,2*%
X161500000Y-112500000D03*
%TD*%
%TO.P,QUAD1,1*%
%TO.N,/3V3*%
X158500000Y-124000000D03*
%TO.P,QUAD1,2*%
%TO.N,/GND*%
X158500000Y-129000000D03*
%TD*%
D35*
%TO.N,*%
X220000000Y-131500000D03*
%TO.N,/GND*%
X157500000Y-105500000D03*
X160000000Y-101500000D03*
%TO.N,Net-(J2-Pin_3)*%
X190000000Y-93000000D03*
%TO.N,/CAN1_RX*%
X165500000Y-84000000D03*
%TO.N,/CAN1_TX*%
X167000000Y-78000000D03*
%TO.N,/CAN2_RX*%
X167543449Y-109981150D03*
X182724500Y-106500000D03*
%TO.N,/CAN2_TX*%
X166500000Y-116000000D03*
%TO.N,/A26*%
X177000000Y-88500000D03*
%TO.N,/B27*%
X182724500Y-105000000D03*
X187987701Y-137987701D03*
%TO.N,Net-(D16-Pad4)*%
X193150000Y-86378000D03*
%TO.N,Net-(D16-Pad3)*%
X197200000Y-86050000D03*
%TO.N,Net-(D16-Pad1)*%
X188999500Y-92000000D03*
%TO.N,Net-(J1-Pin_3)*%
X167775500Y-111270000D03*
%TO.N,Net-(J1-Pin_4)*%
X169500000Y-128500000D03*
%TO.N,Net-(J1-Pin_2)*%
X167000000Y-113500000D03*
%TO.N,/SERVO*%
X183000000Y-88700500D03*
%TO.N,Net-(U6-RUN)*%
X182500000Y-122500000D03*
%TO.N,/B2*%
X177450500Y-111290078D03*
%TO.N,/B4*%
X170275500Y-112500000D03*
%TO.N,/B5*%
X198500000Y-120000000D03*
%TO.N,/B10*%
X172012299Y-111387701D03*
%TO.N,/P2P_2*%
X170224500Y-88775500D03*
%TD*%
D36*
%TO.N,/GND*%
X207900000Y-82500000D02*
X205400000Y-80000000D01*
X205400000Y-80000000D02*
X201000000Y-80000000D01*
%TO.N,/3V3*%
X172500000Y-135500000D02*
X174250000Y-137250000D01*
X196775000Y-136775000D02*
X200000000Y-140000000D01*
X155150000Y-128825000D02*
X158500000Y-125475000D01*
X158500000Y-125475000D02*
X158500000Y-124000000D01*
X155150000Y-129100000D02*
X155150000Y-128825000D01*
X196300000Y-137250000D02*
X196775000Y-136775000D01*
X187581701Y-123000000D02*
X198000000Y-123000000D01*
X199050000Y-134500000D02*
X196775000Y-136775000D01*
X199050000Y-124050000D02*
X199050000Y-134500000D01*
X158500000Y-138000000D02*
X170000000Y-138000000D01*
X200000000Y-142160000D02*
X200340000Y-142500000D01*
X198000000Y-123000000D02*
X199050000Y-124050000D01*
X170000000Y-138000000D02*
X172500000Y-135500000D01*
X155375000Y-104125000D02*
X160500000Y-99000000D01*
X174250000Y-137250000D02*
X196300000Y-137250000D01*
X179920000Y-119500000D02*
X184081701Y-119500000D01*
X200000000Y-140000000D02*
X200000000Y-142160000D01*
X184081701Y-119500000D02*
X187581701Y-123000000D01*
X158500000Y-124000000D02*
X155375000Y-120875000D01*
X155375000Y-120875000D02*
X155375000Y-104125000D01*
D37*
%TO.N,Net-(Q1-IN)*%
X152550000Y-73550000D02*
X154500000Y-75500000D01*
X152550000Y-65450000D02*
X152550000Y-73550000D01*
X151200000Y-64100000D02*
X152550000Y-65450000D01*
D36*
%TO.N,Net-(J2-Pin_3)*%
X179920000Y-94500000D02*
X181420000Y-93000000D01*
X181420000Y-93000000D02*
X190000000Y-93000000D01*
%TO.N,/CAN1_RX*%
X168600000Y-74410000D02*
X181510000Y-61500000D01*
X165914214Y-84000000D02*
X168600000Y-81314214D01*
X186180000Y-61500000D02*
X190180000Y-57500000D01*
X168600000Y-81314214D02*
X168600000Y-74410000D01*
X165500000Y-84000000D02*
X165914214Y-84000000D01*
X181510000Y-61500000D02*
X186180000Y-61500000D01*
%TO.N,/CAN1_TX*%
X187640000Y-57500000D02*
X184090000Y-61050000D01*
X166040000Y-74210000D02*
X166040000Y-77040000D01*
X179200000Y-61050000D02*
X166040000Y-74210000D01*
X184090000Y-61050000D02*
X179200000Y-61050000D01*
X166040000Y-77040000D02*
X167000000Y-78000000D01*
%TO.N,/CAN2_RX*%
X167543449Y-109706551D02*
X168250000Y-109000000D01*
X177000000Y-107500000D02*
X181724500Y-107500000D01*
X168250000Y-109000000D02*
X175500000Y-109000000D01*
X175500000Y-109000000D02*
X177000000Y-107500000D01*
X181724500Y-107500000D02*
X182724500Y-106500000D01*
X167543449Y-109981150D02*
X167543449Y-109706551D01*
%TO.N,/CAN2_TX*%
X167500000Y-117000000D02*
X167500000Y-118000000D01*
X173670000Y-125270000D02*
X174390000Y-125990000D01*
X174390000Y-125990000D02*
X181290000Y-125990000D01*
X181290000Y-125990000D02*
X182560000Y-124720000D01*
X166500000Y-116000000D02*
X167500000Y-117000000D01*
X173670000Y-124170000D02*
X173670000Y-125270000D01*
X167500000Y-118000000D02*
X173670000Y-124170000D01*
%TO.N,/A26*%
X177000000Y-88500000D02*
X177010991Y-88500000D01*
X187640000Y-77860000D02*
X187640000Y-75280000D01*
X181045000Y-84465991D02*
X181045000Y-84455000D01*
X181045000Y-84455000D02*
X187640000Y-77860000D01*
X177010991Y-88500000D02*
X181045000Y-84465991D01*
%TO.N,/A27*%
X172000000Y-94000000D02*
X171000000Y-93000000D01*
X171000000Y-91500000D02*
X172550000Y-89950000D01*
X178211396Y-89425000D02*
X184275000Y-89425000D01*
X185450000Y-88250000D02*
X185450000Y-81050000D01*
X172550000Y-89950000D02*
X177686396Y-89950000D01*
X185450000Y-81050000D02*
X190180000Y-76320000D01*
X171000000Y-93000000D02*
X171000000Y-91500000D01*
X190180000Y-76320000D02*
X190180000Y-75280000D01*
X184275000Y-89425000D02*
X185450000Y-88250000D01*
X177686396Y-89950000D02*
X178211396Y-89425000D01*
%TO.N,/B14*%
X163500000Y-123440000D02*
X164780000Y-124720000D01*
X169590991Y-106000000D02*
X164000000Y-111590991D01*
X164000000Y-111590991D02*
X164000000Y-117085786D01*
X163500000Y-117585786D02*
X163500000Y-123440000D01*
X172000000Y-106000000D02*
X169590991Y-106000000D01*
X164000000Y-117085786D02*
X163500000Y-117585786D01*
%TO.N,/B26*%
X157375000Y-127923299D02*
X157375000Y-138465991D01*
X160280952Y-124619048D02*
X160280952Y-125017347D01*
X184640000Y-139500000D02*
X187640000Y-142500000D01*
X172000000Y-102000000D02*
X162625000Y-111375000D01*
X162625000Y-122275000D02*
X160280952Y-124619048D01*
X157375000Y-138465991D02*
X158409009Y-139500000D01*
X162625000Y-111375000D02*
X162625000Y-122275000D01*
X158409009Y-139500000D02*
X184640000Y-139500000D01*
X160280952Y-125017347D02*
X157375000Y-127923299D01*
%TO.N,/B27*%
X182724500Y-105000000D02*
X181924500Y-104200000D01*
X190180000Y-140180000D02*
X190180000Y-142500000D01*
X176200000Y-104200000D02*
X174000000Y-102000000D01*
X187987701Y-137987701D02*
X190180000Y-140180000D01*
X181924500Y-104200000D02*
X176200000Y-104200000D01*
%TO.N,/B28*%
X184500000Y-144000000D02*
X183820000Y-143320000D01*
X159830952Y-123739961D02*
X155825000Y-119734009D01*
X155825000Y-116175000D02*
X172000000Y-100000000D01*
X156925000Y-138652387D02*
X156925000Y-127736903D01*
X195260000Y-142500000D02*
X193760000Y-144000000D01*
X182950000Y-139950000D02*
X158222613Y-139950000D01*
X158222613Y-139950000D02*
X156925000Y-138652387D01*
X155825000Y-119734009D02*
X155825000Y-116175000D01*
X193760000Y-144000000D02*
X184500000Y-144000000D01*
X183820000Y-140820000D02*
X182950000Y-139950000D01*
X156925000Y-127736903D02*
X159830952Y-124830951D01*
X159830952Y-124830951D02*
X159830952Y-123739961D01*
X183820000Y-143320000D02*
X183820000Y-140820000D01*
%TO.N,Net-(D16-Pad4)*%
X198990129Y-82500000D02*
X205360000Y-82500000D01*
X193150000Y-86378000D02*
X195112129Y-86378000D01*
X195112129Y-86378000D02*
X198990129Y-82500000D01*
%TO.N,Net-(D16-Pad3)*%
X197200000Y-86050000D02*
X197750000Y-86600000D01*
X197750000Y-86600000D02*
X202530000Y-86600000D01*
X202530000Y-86600000D02*
X206630000Y-82500000D01*
%TO.N,Net-(D16-Pad1)*%
X192386509Y-87102500D02*
X204567500Y-87102500D01*
X188955000Y-91955500D02*
X188955000Y-90534009D01*
X188955000Y-90534009D02*
X192386509Y-87102500D01*
X204567500Y-87102500D02*
X209170000Y-82500000D01*
X188999500Y-92000000D02*
X188955000Y-91955500D01*
%TO.N,Net-(J1-Pin_3)*%
X183500000Y-103700000D02*
X181000000Y-101200000D01*
X177136396Y-108000000D02*
X182500000Y-108000000D01*
X168230000Y-111270000D02*
X170000000Y-109500000D01*
X167775500Y-111270000D02*
X168230000Y-111270000D01*
X182500000Y-108000000D02*
X183500000Y-107000000D01*
X170000000Y-109500000D02*
X175636396Y-109500000D01*
X175636396Y-109500000D02*
X177136396Y-108000000D01*
X183500000Y-107000000D02*
X183500000Y-103700000D01*
%TO.N,Net-(J1-Pin_4)*%
X166020000Y-121020000D02*
X165500000Y-120500000D01*
X166020000Y-125770000D02*
X166020000Y-121020000D01*
X165500000Y-111000000D02*
X169500000Y-107000000D01*
X172414214Y-107000000D02*
X173000000Y-106414214D01*
X174500000Y-128500000D02*
X169500000Y-128500000D01*
X176500000Y-130500000D02*
X174500000Y-128500000D01*
X169500000Y-107000000D02*
X172414214Y-107000000D01*
X168750000Y-128500000D02*
X166020000Y-125770000D01*
X173585786Y-101000000D02*
X177000000Y-101000000D01*
X178800000Y-99200000D02*
X181000000Y-99200000D01*
X173000000Y-101585786D02*
X173585786Y-101000000D01*
X165500000Y-120500000D02*
X165500000Y-111000000D01*
X173000000Y-106414214D02*
X173000000Y-101585786D01*
X169500000Y-128500000D02*
X168750000Y-128500000D01*
X177000000Y-101000000D02*
X178800000Y-99200000D01*
%TO.N,Net-(J1-Pin_2)*%
X180300000Y-100200000D02*
X179850000Y-100650000D01*
X179850000Y-100650000D02*
X179850000Y-102050000D01*
X167000000Y-113136396D02*
X169611396Y-110525000D01*
X167000000Y-113500000D02*
X167000000Y-113136396D01*
X179850000Y-102050000D02*
X181000000Y-103200000D01*
X169611396Y-110525000D02*
X180611396Y-110525000D01*
X184000000Y-102500000D02*
X181700000Y-100200000D01*
X181700000Y-100200000D02*
X180300000Y-100200000D01*
X184000000Y-107136396D02*
X184000000Y-102500000D01*
X180611396Y-110525000D02*
X184000000Y-107136396D01*
%TO.N,/A0*%
X174125000Y-92125000D02*
X183375000Y-92125000D01*
X174000000Y-92000000D02*
X174125000Y-92125000D01*
X188500000Y-83701701D02*
X194010000Y-78191701D01*
X194010000Y-78191701D02*
X194010000Y-73990000D01*
X183375000Y-92125000D02*
X188500000Y-87000000D01*
X188500000Y-87000000D02*
X188500000Y-83701701D01*
X194010000Y-73990000D02*
X210500000Y-57500000D01*
%TO.N,/SERVO*%
X162500000Y-86500000D02*
X162500000Y-77500000D01*
X162500000Y-77500000D02*
X161000000Y-76000000D01*
X161000000Y-76000000D02*
X161000000Y-72000000D01*
X182999500Y-88700000D02*
X178300000Y-88700000D01*
X178300000Y-88700000D02*
X177500000Y-89500000D01*
X161000000Y-72000000D02*
X164780000Y-68220000D01*
X164780000Y-68220000D02*
X164780000Y-57500000D01*
X177500000Y-89500000D02*
X165500000Y-89500000D01*
X165500000Y-89500000D02*
X162500000Y-86500000D01*
X183000000Y-88700500D02*
X182999500Y-88700000D01*
%TO.N,/IMU_RST*%
X211232501Y-82732501D02*
X211232501Y-90912500D01*
X207375000Y-78875000D02*
X211232501Y-82732501D01*
X198855000Y-78875000D02*
X207375000Y-78875000D01*
X211232501Y-90912500D02*
X209307501Y-92837500D01*
X195260000Y-75280000D02*
X198855000Y-78875000D01*
%TO.N,Net-(U1-RUN)*%
X171500000Y-84300000D02*
X176425000Y-79375000D01*
X181005000Y-79375000D02*
X185100000Y-75280000D01*
X176425000Y-79375000D02*
X181005000Y-79375000D01*
%TO.N,Net-(U6-RUN)*%
X171500000Y-116000000D02*
X178000000Y-122500000D01*
X178000000Y-122500000D02*
X182500000Y-122500000D01*
%TO.N,/QUADA1*%
X160615000Y-66385000D02*
X155625000Y-71375000D01*
X155625000Y-71375000D02*
X155625000Y-79875000D01*
X153500000Y-82000000D02*
X153500000Y-136600000D01*
X153500000Y-136600000D02*
X155100000Y-138200000D01*
X160615000Y-57463299D02*
X160615000Y-66385000D01*
X155625000Y-79875000D02*
X153500000Y-82000000D01*
X183150000Y-55550000D02*
X162528299Y-55550000D01*
X162528299Y-55550000D02*
X160615000Y-57463299D01*
X185100000Y-57500000D02*
X183150000Y-55550000D01*
%TO.N,/QUADB1*%
X181060000Y-56000000D02*
X182560000Y-57500000D01*
X154000000Y-135100000D02*
X154000000Y-131533148D01*
X154000000Y-82509871D02*
X156075000Y-80434871D01*
X156075000Y-75225000D02*
X163415000Y-67885000D01*
X153950000Y-131483148D02*
X153950000Y-124511827D01*
X154000000Y-131533148D02*
X153950000Y-131483148D01*
X164618299Y-56000000D02*
X181060000Y-56000000D01*
X163415000Y-57203299D02*
X164618299Y-56000000D01*
X154000000Y-124461827D02*
X154000000Y-82509871D01*
X163415000Y-67885000D02*
X163415000Y-57203299D01*
X153950000Y-124511827D02*
X154000000Y-124461827D01*
X156075000Y-80434871D02*
X156075000Y-75225000D01*
X155100000Y-136200000D02*
X154000000Y-135100000D01*
%TO.N,/A1*%
X185900000Y-88700000D02*
X185900000Y-81600000D01*
X178929009Y-90400000D02*
X179454009Y-89875000D01*
X191440000Y-74020000D02*
X207960000Y-57500000D01*
X184725000Y-89875000D02*
X185900000Y-88700000D01*
X172000000Y-92000000D02*
X173600000Y-90400000D01*
X185900000Y-81600000D02*
X191440000Y-76060000D01*
X173600000Y-90400000D02*
X178929009Y-90400000D01*
X191440000Y-76060000D02*
X191440000Y-74020000D01*
X179454009Y-89875000D02*
X184725000Y-89875000D01*
%TO.N,/B0*%
X210500000Y-122909009D02*
X210500000Y-124720000D01*
X188375000Y-100465991D02*
X189034009Y-101125000D01*
X185000000Y-96000000D02*
X188375000Y-99375000D01*
X189034009Y-101125000D02*
X190125000Y-101125000D01*
X190125000Y-101125000D02*
X202500000Y-113500000D01*
X174000000Y-96000000D02*
X185000000Y-96000000D01*
X188375000Y-99375000D02*
X188375000Y-100465991D01*
X202500000Y-114909009D02*
X210500000Y-122909009D01*
X202500000Y-113500000D02*
X202500000Y-114909009D01*
%TO.N,/B2*%
X177450500Y-111801491D02*
X188199009Y-122550000D01*
X188199009Y-122550000D02*
X200710000Y-122550000D01*
X177450500Y-111290078D02*
X177450500Y-111801491D01*
X200710000Y-122550000D02*
X202880000Y-124720000D01*
%TO.N,/B3*%
X198000000Y-110557637D02*
X198000000Y-114500000D01*
X205875000Y-119875000D02*
X205875000Y-121920000D01*
X209210000Y-123910000D02*
X209210000Y-125320000D01*
X187925000Y-100652387D02*
X188847613Y-101575000D01*
X207500000Y-123545000D02*
X208845000Y-123545000D01*
X201620000Y-126000000D02*
X200340000Y-124720000D01*
X188847613Y-101575000D02*
X189017363Y-101575000D01*
X189017363Y-101575000D02*
X198000000Y-110557637D01*
X185013604Y-96650000D02*
X187925000Y-99561396D01*
X208845000Y-123545000D02*
X209210000Y-123910000D01*
X174000000Y-98000000D02*
X175350000Y-96650000D01*
X199700000Y-116200000D02*
X202200000Y-116200000D01*
X208530000Y-126000000D02*
X201620000Y-126000000D01*
X209210000Y-125320000D02*
X208530000Y-126000000D01*
X202200000Y-116200000D02*
X205875000Y-119875000D01*
X175350000Y-96650000D02*
X185013604Y-96650000D01*
X187925000Y-99561396D02*
X187925000Y-100652387D01*
X198000000Y-114500000D02*
X199700000Y-116200000D01*
X205875000Y-121920000D02*
X207500000Y-123545000D01*
%TO.N,/B4*%
X169500000Y-113275500D02*
X169500000Y-117000000D01*
X196530000Y-123450000D02*
X197800000Y-124720000D01*
X175725000Y-123225000D02*
X187170305Y-123225000D01*
X170275500Y-112500000D02*
X169500000Y-113275500D01*
X187395305Y-123450000D02*
X196530000Y-123450000D01*
X169500000Y-117000000D02*
X175725000Y-123225000D01*
X187170305Y-123225000D02*
X187395305Y-123450000D01*
%TO.N,/B5*%
X192142501Y-105506284D02*
X192142501Y-110342501D01*
X184136217Y-97500000D02*
X192142501Y-105506284D01*
X192142501Y-110342501D02*
X198500000Y-116700000D01*
X176500000Y-97500000D02*
X184136217Y-97500000D01*
X174000000Y-100000000D02*
X176500000Y-97500000D01*
X198500000Y-116700000D02*
X198500000Y-120000000D01*
%TO.N,/B10*%
X171625000Y-111775000D02*
X169975195Y-111775000D01*
X172012299Y-111387701D02*
X171625000Y-111775000D01*
X169975195Y-111775000D02*
X169050000Y-112700195D01*
X169050000Y-112700195D02*
X169050000Y-117186396D01*
X176435000Y-123675000D02*
X177480000Y-124720000D01*
X169050000Y-117186396D02*
X175538604Y-123675000D01*
X175538604Y-123675000D02*
X176435000Y-123675000D01*
%TO.N,/DR16_TX*%
X207960000Y-124720000D02*
X204415000Y-121175000D01*
X190080000Y-119500000D02*
X191755000Y-121175000D01*
X200135000Y-121175000D02*
X201440000Y-119870000D01*
X191755000Y-121175000D02*
X200135000Y-121175000D01*
X204415000Y-121175000D02*
X200135000Y-121175000D01*
%TO.N,/P2P_2*%
X169449000Y-88000000D02*
X166000000Y-88000000D01*
X163520000Y-74688299D02*
X169860000Y-68348299D01*
X170224500Y-88775500D02*
X169449000Y-88000000D01*
X166000000Y-88000000D02*
X163000000Y-85000000D01*
X169860000Y-68348299D02*
X169860000Y-57500000D01*
X163520000Y-75990000D02*
X163520000Y-74688299D01*
X163000000Y-85000000D02*
X163000000Y-76510000D01*
X163000000Y-76510000D02*
X163520000Y-75990000D01*
%TD*%
M02*
