%TF.GenerationSoftware,KiCad,Pcbnew,7.0.7*%
%TF.CreationDate,2024-02-01T11:26:11-05:00*%
%TF.ProjectId,ROSE-PILK_v1,524f5345-2d50-4494-9c4b-5f76312e6b69,rev?*%
%TF.SameCoordinates,Original*%
%TF.FileFunction,Legend,Bot*%
%TF.FilePolarity,Positive*%
%FSLAX46Y46*%
G04 Gerber Fmt 4.6, Leading zero omitted, Abs format (unit mm)*
G04 Created by KiCad (PCBNEW 7.0.7) date 2024-02-01 11:26:11*
%MOMM*%
%LPD*%
G01*
G04 APERTURE LIST*
%ADD10C,0.015000*%
G04 APERTURE END LIST*
D10*
X149236981Y-127281296D02*
X149236981Y-127233677D01*
X149236981Y-127233677D02*
X149136981Y-127233677D01*
X149170315Y-127357486D02*
X149236981Y-127357486D01*
X149170315Y-127314629D02*
X149222696Y-127314629D01*
X149222696Y-127314629D02*
X149232220Y-127319391D01*
X149232220Y-127319391D02*
X149236981Y-127328915D01*
X149236981Y-127328915D02*
X149236981Y-127343200D01*
X149236981Y-127343200D02*
X149232220Y-127352724D01*
X149232220Y-127352724D02*
X149227458Y-127357486D01*
X149232220Y-127447962D02*
X149236981Y-127438438D01*
X149236981Y-127438438D02*
X149236981Y-127419391D01*
X149236981Y-127419391D02*
X149232220Y-127409867D01*
X149232220Y-127409867D02*
X149227458Y-127405105D01*
X149227458Y-127405105D02*
X149217934Y-127400343D01*
X149217934Y-127400343D02*
X149189362Y-127400343D01*
X149189362Y-127400343D02*
X149179839Y-127405105D01*
X149179839Y-127405105D02*
X149175077Y-127409867D01*
X149175077Y-127409867D02*
X149170315Y-127419391D01*
X149170315Y-127419391D02*
X149170315Y-127438438D01*
X149170315Y-127438438D02*
X149175077Y-127447962D01*
X149236981Y-127490819D02*
X149170315Y-127490819D01*
X149136981Y-127490819D02*
X149141743Y-127486057D01*
X149141743Y-127486057D02*
X149146505Y-127490819D01*
X149146505Y-127490819D02*
X149141743Y-127495581D01*
X149141743Y-127495581D02*
X149136981Y-127490819D01*
X149136981Y-127490819D02*
X149146505Y-127490819D01*
X149236981Y-127614628D02*
X149170315Y-127614628D01*
X149136981Y-127614628D02*
X149141743Y-127609866D01*
X149141743Y-127609866D02*
X149146505Y-127614628D01*
X149146505Y-127614628D02*
X149141743Y-127619390D01*
X149141743Y-127619390D02*
X149136981Y-127614628D01*
X149136981Y-127614628D02*
X149146505Y-127614628D01*
X149232220Y-127657485D02*
X149236981Y-127667009D01*
X149236981Y-127667009D02*
X149236981Y-127686057D01*
X149236981Y-127686057D02*
X149232220Y-127695580D01*
X149232220Y-127695580D02*
X149222696Y-127700342D01*
X149222696Y-127700342D02*
X149217934Y-127700342D01*
X149217934Y-127700342D02*
X149208410Y-127695580D01*
X149208410Y-127695580D02*
X149203648Y-127686057D01*
X149203648Y-127686057D02*
X149203648Y-127671771D01*
X149203648Y-127671771D02*
X149198886Y-127662247D01*
X149198886Y-127662247D02*
X149189362Y-127657485D01*
X149189362Y-127657485D02*
X149184600Y-127657485D01*
X149184600Y-127657485D02*
X149175077Y-127662247D01*
X149175077Y-127662247D02*
X149170315Y-127671771D01*
X149170315Y-127671771D02*
X149170315Y-127686057D01*
X149170315Y-127686057D02*
X149175077Y-127695580D01*
X149236981Y-127862246D02*
X149184600Y-127862246D01*
X149184600Y-127862246D02*
X149175077Y-127857484D01*
X149175077Y-127857484D02*
X149170315Y-127847960D01*
X149170315Y-127847960D02*
X149170315Y-127828913D01*
X149170315Y-127828913D02*
X149175077Y-127819389D01*
X149232220Y-127862246D02*
X149236981Y-127852722D01*
X149236981Y-127852722D02*
X149236981Y-127828913D01*
X149236981Y-127828913D02*
X149232220Y-127819389D01*
X149232220Y-127819389D02*
X149222696Y-127814627D01*
X149222696Y-127814627D02*
X149213172Y-127814627D01*
X149213172Y-127814627D02*
X149203648Y-127819389D01*
X149203648Y-127819389D02*
X149198886Y-127828913D01*
X149198886Y-127828913D02*
X149198886Y-127852722D01*
X149198886Y-127852722D02*
X149194124Y-127862246D01*
X149170315Y-127986055D02*
X149270315Y-127986055D01*
X149175077Y-127986055D02*
X149170315Y-127995579D01*
X149170315Y-127995579D02*
X149170315Y-128014626D01*
X149170315Y-128014626D02*
X149175077Y-128024150D01*
X149175077Y-128024150D02*
X149179839Y-128028912D01*
X149179839Y-128028912D02*
X149189362Y-128033674D01*
X149189362Y-128033674D02*
X149217934Y-128033674D01*
X149217934Y-128033674D02*
X149227458Y-128028912D01*
X149227458Y-128028912D02*
X149232220Y-128024150D01*
X149232220Y-128024150D02*
X149236981Y-128014626D01*
X149236981Y-128014626D02*
X149236981Y-127995579D01*
X149236981Y-127995579D02*
X149232220Y-127986055D01*
X149236981Y-128090817D02*
X149232220Y-128081293D01*
X149232220Y-128081293D02*
X149227458Y-128076531D01*
X149227458Y-128076531D02*
X149217934Y-128071769D01*
X149217934Y-128071769D02*
X149189362Y-128071769D01*
X149189362Y-128071769D02*
X149179839Y-128076531D01*
X149179839Y-128076531D02*
X149175077Y-128081293D01*
X149175077Y-128081293D02*
X149170315Y-128090817D01*
X149170315Y-128090817D02*
X149170315Y-128105102D01*
X149170315Y-128105102D02*
X149175077Y-128114626D01*
X149175077Y-128114626D02*
X149179839Y-128119388D01*
X149179839Y-128119388D02*
X149189362Y-128124150D01*
X149189362Y-128124150D02*
X149217934Y-128124150D01*
X149217934Y-128124150D02*
X149227458Y-128119388D01*
X149227458Y-128119388D02*
X149232220Y-128114626D01*
X149232220Y-128114626D02*
X149236981Y-128105102D01*
X149236981Y-128105102D02*
X149236981Y-128090817D01*
X149236981Y-128181293D02*
X149232220Y-128171769D01*
X149232220Y-128171769D02*
X149227458Y-128167007D01*
X149227458Y-128167007D02*
X149217934Y-128162245D01*
X149217934Y-128162245D02*
X149189362Y-128162245D01*
X149189362Y-128162245D02*
X149179839Y-128167007D01*
X149179839Y-128167007D02*
X149175077Y-128171769D01*
X149175077Y-128171769D02*
X149170315Y-128181293D01*
X149170315Y-128181293D02*
X149170315Y-128195578D01*
X149170315Y-128195578D02*
X149175077Y-128205102D01*
X149175077Y-128205102D02*
X149179839Y-128209864D01*
X149179839Y-128209864D02*
X149189362Y-128214626D01*
X149189362Y-128214626D02*
X149217934Y-128214626D01*
X149217934Y-128214626D02*
X149227458Y-128209864D01*
X149227458Y-128209864D02*
X149232220Y-128205102D01*
X149232220Y-128205102D02*
X149236981Y-128195578D01*
X149236981Y-128195578D02*
X149236981Y-128181293D01*
X149170315Y-128257483D02*
X149270315Y-128257483D01*
X149175077Y-128257483D02*
X149170315Y-128267007D01*
X149170315Y-128267007D02*
X149170315Y-128286054D01*
X149170315Y-128286054D02*
X149175077Y-128295578D01*
X149175077Y-128295578D02*
X149179839Y-128300340D01*
X149179839Y-128300340D02*
X149189362Y-128305102D01*
X149189362Y-128305102D02*
X149217934Y-128305102D01*
X149217934Y-128305102D02*
X149227458Y-128300340D01*
X149227458Y-128300340D02*
X149232220Y-128295578D01*
X149232220Y-128295578D02*
X149236981Y-128286054D01*
X149236981Y-128286054D02*
X149236981Y-128267007D01*
X149236981Y-128267007D02*
X149232220Y-128257483D01*
X149170315Y-128338435D02*
X149236981Y-128362245D01*
X149170315Y-128386054D02*
X149236981Y-128362245D01*
X149236981Y-128362245D02*
X149260791Y-128352721D01*
X149260791Y-128352721D02*
X149265553Y-128347959D01*
X149265553Y-128347959D02*
X149270315Y-128338435D01*
X149236981Y-128500339D02*
X149136981Y-128500339D01*
X149236981Y-128543196D02*
X149184600Y-128543196D01*
X149184600Y-128543196D02*
X149175077Y-128538434D01*
X149175077Y-128538434D02*
X149170315Y-128528910D01*
X149170315Y-128528910D02*
X149170315Y-128514625D01*
X149170315Y-128514625D02*
X149175077Y-128505101D01*
X149175077Y-128505101D02*
X149179839Y-128500339D01*
X149232220Y-128628910D02*
X149236981Y-128619386D01*
X149236981Y-128619386D02*
X149236981Y-128600339D01*
X149236981Y-128600339D02*
X149232220Y-128590815D01*
X149232220Y-128590815D02*
X149222696Y-128586053D01*
X149222696Y-128586053D02*
X149184600Y-128586053D01*
X149184600Y-128586053D02*
X149175077Y-128590815D01*
X149175077Y-128590815D02*
X149170315Y-128600339D01*
X149170315Y-128600339D02*
X149170315Y-128619386D01*
X149170315Y-128619386D02*
X149175077Y-128628910D01*
X149175077Y-128628910D02*
X149184600Y-128633672D01*
X149184600Y-128633672D02*
X149194124Y-128633672D01*
X149194124Y-128633672D02*
X149203648Y-128586053D01*
X149236981Y-128719386D02*
X149184600Y-128719386D01*
X149184600Y-128719386D02*
X149175077Y-128714624D01*
X149175077Y-128714624D02*
X149170315Y-128705100D01*
X149170315Y-128705100D02*
X149170315Y-128686053D01*
X149170315Y-128686053D02*
X149175077Y-128676529D01*
X149232220Y-128719386D02*
X149236981Y-128709862D01*
X149236981Y-128709862D02*
X149236981Y-128686053D01*
X149236981Y-128686053D02*
X149232220Y-128676529D01*
X149232220Y-128676529D02*
X149222696Y-128671767D01*
X149222696Y-128671767D02*
X149213172Y-128671767D01*
X149213172Y-128671767D02*
X149203648Y-128676529D01*
X149203648Y-128676529D02*
X149198886Y-128686053D01*
X149198886Y-128686053D02*
X149198886Y-128709862D01*
X149198886Y-128709862D02*
X149194124Y-128719386D01*
X149236981Y-128809862D02*
X149136981Y-128809862D01*
X149232220Y-128809862D02*
X149236981Y-128800338D01*
X149236981Y-128800338D02*
X149236981Y-128781291D01*
X149236981Y-128781291D02*
X149232220Y-128771767D01*
X149232220Y-128771767D02*
X149227458Y-128767005D01*
X149227458Y-128767005D02*
X149217934Y-128762243D01*
X149217934Y-128762243D02*
X149189362Y-128762243D01*
X149189362Y-128762243D02*
X149179839Y-128767005D01*
X149179839Y-128767005D02*
X149175077Y-128771767D01*
X149175077Y-128771767D02*
X149170315Y-128781291D01*
X149170315Y-128781291D02*
X149170315Y-128800338D01*
X149170315Y-128800338D02*
X149175077Y-128809862D01*
M02*
