M48
; DRILL file {KiCad 9.0.4} date 2025-12-04T18:40:01-0500
; FORMAT={-:-/ absolute / metric / decimal}
; #@! TF.CreationDate,2025-12-04T18:40:01-05:00
; #@! TF.GenerationSoftware,Kicad,Pcbnew,9.0.4
; #@! TF.FileFunction,Plated,1,2,PTH
FMAT,2
METRIC
; #@! TA.AperFunction,Plated,PTH,ComponentDrill
T1C0.800
; #@! TA.AperFunction,Plated,PTH,ComponentDrill
T2C1.000
; #@! TA.AperFunction,Plated,PTH,ComponentDrill
T3C1.300
; #@! TA.AperFunction,Plated,PTH,ComponentDrill
T4C1.700
; #@! TA.AperFunction,Plated,PTH,ComponentDrill
T5C3.000
; #@! TA.AperFunction,Plated,PTH,ComponentDrill
T6C3.900
%
G90
G05
T1
X72.0Y-18.55
X74.0Y-18.55
X76.0Y-18.55
X78.0Y-18.55
T2
X17.9Y-52.0
X17.9Y-63.0
X18.0Y-17.5
X18.0Y-28.5
X18.0Y-34.5
X18.0Y-45.5
X63.725Y-17.0
X63.725Y-19.54
X63.725Y-22.08
X63.725Y-24.62
X63.725Y-27.16
X63.725Y-29.7
X63.725Y-32.24
X63.725Y-34.78
X63.725Y-37.32
X63.725Y-39.86
X63.725Y-42.4
X63.725Y-44.94
X63.725Y-47.48
X63.725Y-50.02
X63.725Y-52.56
X63.725Y-55.1
X63.725Y-57.64
X63.725Y-60.18
X66.265Y-17.0
X66.265Y-19.54
X66.265Y-22.08
X66.265Y-24.62
X66.265Y-27.16
X66.265Y-29.7
X66.265Y-32.24
X66.265Y-34.78
X66.265Y-37.32
X66.265Y-39.86
X66.265Y-42.4
X66.265Y-44.94
X66.265Y-47.48
X66.265Y-50.02
X66.265Y-52.56
X66.265Y-55.1
X66.265Y-57.64
X66.265Y-60.18
X70.52Y-60.2
X73.06Y-60.2
X75.6Y-60.2
X78.14Y-60.2
X80.68Y-60.2
T3
X80.412Y-37.525
X80.412Y-39.675
X82.362Y-36.9
X82.362Y-40.3
T4
X22.9Y-55.0
X22.9Y-60.0
X23.0Y-20.5
X23.0Y-25.5
X23.0Y-37.5
X23.0Y-42.5
T5
X81.862Y-32.35
X81.862Y-44.85
T6
X28.317Y-19.0
X28.717Y-38.4
X28.717Y-51.1
X36.718Y-19.0
X37.117Y-38.4
X37.117Y-51.1
X49.417Y-19.0
X49.817Y-38.4
X49.817Y-51.1
X57.817Y-19.0
X58.217Y-38.4
X58.217Y-51.1
M30
