%TF.GenerationSoftware,KiCad,Pcbnew,9.0.4*%
%TF.CreationDate,2025-12-04T18:39:57-05:00*%
%TF.ProjectId,Slipring Board,536c6970-7269-46e6-9720-426f6172642e,rev?*%
%TF.SameCoordinates,Original*%
%TF.FileFunction,Legend,Bot*%
%TF.FilePolarity,Positive*%
%FSLAX46Y46*%
G04 Gerber Fmt 4.6, Leading zero omitted, Abs format (unit mm)*
G04 Created by KiCad (PCBNEW 9.0.4) date 2025-12-04 18:39:57*
%MOMM*%
%LPD*%
G01*
G04 APERTURE LIST*
%ADD10C,0.100000*%
%ADD11C,0.508000*%
%ADD12C,0.120000*%
G04 APERTURE END LIST*
D10*
X40903884Y-55327580D02*
X40903884Y-56327580D01*
X40903884Y-56327580D02*
X41237217Y-55613295D01*
X41237217Y-55613295D02*
X41570550Y-56327580D01*
X41570550Y-56327580D02*
X41570550Y-55327580D01*
X42046741Y-55327580D02*
X42046741Y-56327580D01*
X42522931Y-55327580D02*
X42522931Y-56327580D01*
X42522931Y-56327580D02*
X43094359Y-55327580D01*
X43094359Y-55327580D02*
X43094359Y-56327580D01*
X43570550Y-55327580D02*
X43570550Y-56327580D01*
X44808645Y-55327580D02*
X44808645Y-56327580D01*
X44808645Y-56327580D02*
X45189597Y-56327580D01*
X45189597Y-56327580D02*
X45284835Y-56279961D01*
X45284835Y-56279961D02*
X45332454Y-56232342D01*
X45332454Y-56232342D02*
X45380073Y-56137104D01*
X45380073Y-56137104D02*
X45380073Y-55994247D01*
X45380073Y-55994247D02*
X45332454Y-55899009D01*
X45332454Y-55899009D02*
X45284835Y-55851390D01*
X45284835Y-55851390D02*
X45189597Y-55803771D01*
X45189597Y-55803771D02*
X44808645Y-55803771D01*
X46380073Y-55422819D02*
X46332454Y-55375200D01*
X46332454Y-55375200D02*
X46189597Y-55327580D01*
X46189597Y-55327580D02*
X46094359Y-55327580D01*
X46094359Y-55327580D02*
X45951502Y-55375200D01*
X45951502Y-55375200D02*
X45856264Y-55470438D01*
X45856264Y-55470438D02*
X45808645Y-55565676D01*
X45808645Y-55565676D02*
X45761026Y-55756152D01*
X45761026Y-55756152D02*
X45761026Y-55899009D01*
X45761026Y-55899009D02*
X45808645Y-56089485D01*
X45808645Y-56089485D02*
X45856264Y-56184723D01*
X45856264Y-56184723D02*
X45951502Y-56279961D01*
X45951502Y-56279961D02*
X46094359Y-56327580D01*
X46094359Y-56327580D02*
X46189597Y-56327580D01*
X46189597Y-56327580D02*
X46332454Y-56279961D01*
X46332454Y-56279961D02*
X46380073Y-56232342D01*
X41403884Y-33327580D02*
X41403884Y-34327580D01*
X41403884Y-34327580D02*
X41784836Y-34327580D01*
X41784836Y-34327580D02*
X41880074Y-34279961D01*
X41880074Y-34279961D02*
X41927693Y-34232342D01*
X41927693Y-34232342D02*
X41975312Y-34137104D01*
X41975312Y-34137104D02*
X41975312Y-33994247D01*
X41975312Y-33994247D02*
X41927693Y-33899009D01*
X41927693Y-33899009D02*
X41880074Y-33851390D01*
X41880074Y-33851390D02*
X41784836Y-33803771D01*
X41784836Y-33803771D02*
X41403884Y-33803771D01*
X42403884Y-33327580D02*
X42403884Y-34327580D01*
X42737217Y-34327580D02*
X43308645Y-34327580D01*
X43022931Y-33327580D02*
X43022931Y-34327580D01*
X44213407Y-33422819D02*
X44165788Y-33375200D01*
X44165788Y-33375200D02*
X44022931Y-33327580D01*
X44022931Y-33327580D02*
X43927693Y-33327580D01*
X43927693Y-33327580D02*
X43784836Y-33375200D01*
X43784836Y-33375200D02*
X43689598Y-33470438D01*
X43689598Y-33470438D02*
X43641979Y-33565676D01*
X43641979Y-33565676D02*
X43594360Y-33756152D01*
X43594360Y-33756152D02*
X43594360Y-33899009D01*
X43594360Y-33899009D02*
X43641979Y-34089485D01*
X43641979Y-34089485D02*
X43689598Y-34184723D01*
X43689598Y-34184723D02*
X43784836Y-34279961D01*
X43784836Y-34279961D02*
X43927693Y-34327580D01*
X43927693Y-34327580D02*
X44022931Y-34327580D01*
X44022931Y-34327580D02*
X44165788Y-34279961D01*
X44165788Y-34279961D02*
X44213407Y-34232342D01*
X44641979Y-33327580D02*
X44641979Y-34327580D01*
X44641979Y-33851390D02*
X45213407Y-33851390D01*
X45213407Y-33327580D02*
X45213407Y-34327580D01*
X39356265Y-23175200D02*
X39499122Y-23127580D01*
X39499122Y-23127580D02*
X39737217Y-23127580D01*
X39737217Y-23127580D02*
X39832455Y-23175200D01*
X39832455Y-23175200D02*
X39880074Y-23222819D01*
X39880074Y-23222819D02*
X39927693Y-23318057D01*
X39927693Y-23318057D02*
X39927693Y-23413295D01*
X39927693Y-23413295D02*
X39880074Y-23508533D01*
X39880074Y-23508533D02*
X39832455Y-23556152D01*
X39832455Y-23556152D02*
X39737217Y-23603771D01*
X39737217Y-23603771D02*
X39546741Y-23651390D01*
X39546741Y-23651390D02*
X39451503Y-23699009D01*
X39451503Y-23699009D02*
X39403884Y-23746628D01*
X39403884Y-23746628D02*
X39356265Y-23841866D01*
X39356265Y-23841866D02*
X39356265Y-23937104D01*
X39356265Y-23937104D02*
X39403884Y-24032342D01*
X39403884Y-24032342D02*
X39451503Y-24079961D01*
X39451503Y-24079961D02*
X39546741Y-24127580D01*
X39546741Y-24127580D02*
X39784836Y-24127580D01*
X39784836Y-24127580D02*
X39927693Y-24079961D01*
X40356265Y-23127580D02*
X40356265Y-24127580D01*
X40356265Y-23651390D02*
X40927693Y-23651390D01*
X40927693Y-23127580D02*
X40927693Y-24127580D01*
X41594360Y-24127580D02*
X41784836Y-24127580D01*
X41784836Y-24127580D02*
X41880074Y-24079961D01*
X41880074Y-24079961D02*
X41975312Y-23984723D01*
X41975312Y-23984723D02*
X42022931Y-23794247D01*
X42022931Y-23794247D02*
X42022931Y-23460914D01*
X42022931Y-23460914D02*
X41975312Y-23270438D01*
X41975312Y-23270438D02*
X41880074Y-23175200D01*
X41880074Y-23175200D02*
X41784836Y-23127580D01*
X41784836Y-23127580D02*
X41594360Y-23127580D01*
X41594360Y-23127580D02*
X41499122Y-23175200D01*
X41499122Y-23175200D02*
X41403884Y-23270438D01*
X41403884Y-23270438D02*
X41356265Y-23460914D01*
X41356265Y-23460914D02*
X41356265Y-23794247D01*
X41356265Y-23794247D02*
X41403884Y-23984723D01*
X41403884Y-23984723D02*
X41499122Y-24079961D01*
X41499122Y-24079961D02*
X41594360Y-24127580D01*
X42641979Y-24127580D02*
X42832455Y-24127580D01*
X42832455Y-24127580D02*
X42927693Y-24079961D01*
X42927693Y-24079961D02*
X43022931Y-23984723D01*
X43022931Y-23984723D02*
X43070550Y-23794247D01*
X43070550Y-23794247D02*
X43070550Y-23460914D01*
X43070550Y-23460914D02*
X43022931Y-23270438D01*
X43022931Y-23270438D02*
X42927693Y-23175200D01*
X42927693Y-23175200D02*
X42832455Y-23127580D01*
X42832455Y-23127580D02*
X42641979Y-23127580D01*
X42641979Y-23127580D02*
X42546741Y-23175200D01*
X42546741Y-23175200D02*
X42451503Y-23270438D01*
X42451503Y-23270438D02*
X42403884Y-23460914D01*
X42403884Y-23460914D02*
X42403884Y-23794247D01*
X42403884Y-23794247D02*
X42451503Y-23984723D01*
X42451503Y-23984723D02*
X42546741Y-24079961D01*
X42546741Y-24079961D02*
X42641979Y-24127580D01*
X43356265Y-24127580D02*
X43927693Y-24127580D01*
X43641979Y-23127580D02*
X43641979Y-24127580D01*
X44261027Y-23651390D02*
X44594360Y-23651390D01*
X44737217Y-23127580D02*
X44261027Y-23127580D01*
X44261027Y-23127580D02*
X44261027Y-24127580D01*
X44261027Y-24127580D02*
X44737217Y-24127580D01*
X45737217Y-23127580D02*
X45403884Y-23603771D01*
X45165789Y-23127580D02*
X45165789Y-24127580D01*
X45165789Y-24127580D02*
X45546741Y-24127580D01*
X45546741Y-24127580D02*
X45641979Y-24079961D01*
X45641979Y-24079961D02*
X45689598Y-24032342D01*
X45689598Y-24032342D02*
X45737217Y-23937104D01*
X45737217Y-23937104D02*
X45737217Y-23794247D01*
X45737217Y-23794247D02*
X45689598Y-23699009D01*
X45689598Y-23699009D02*
X45641979Y-23651390D01*
X45641979Y-23651390D02*
X45546741Y-23603771D01*
X45546741Y-23603771D02*
X45165789Y-23603771D01*
D11*
%TO.C,J6*%
X82504500Y-29310200D02*
G75*
G02*
X81742500Y-29310200I-381000J0D01*
G01*
X81742500Y-29310200D02*
G75*
G02*
X82504500Y-29310200I381000J0D01*
G01*
%TO.C,J4*%
X84774700Y-50242400D02*
G75*
G02*
X84012700Y-50242400I-381000J0D01*
G01*
X84012700Y-50242400D02*
G75*
G02*
X84774700Y-50242400I381000J0D01*
G01*
D12*
%TO.C,F1*%
X24817500Y-22100000D02*
X24817500Y-15900000D01*
X25017500Y-15900000D02*
X25017500Y-22100000D01*
X25017500Y-15900000D02*
X26817500Y-15900000D01*
X25017500Y-22100000D02*
X26817500Y-22100000D01*
X29817500Y-15900000D02*
X35217500Y-15900000D01*
X29817500Y-22100000D02*
X35217500Y-22100000D01*
X38217500Y-15900000D02*
X48417500Y-15900000D01*
X38217500Y-22100000D02*
X48417500Y-22100000D01*
X50417500Y-15900000D02*
X56817500Y-15900000D01*
X50417500Y-22100000D02*
X56817500Y-22100000D01*
X58817500Y-15900000D02*
X61117500Y-15900000D01*
X58817500Y-22100000D02*
X61117500Y-22100000D01*
X61117500Y-22100000D02*
X61117500Y-15900000D01*
%TO.C,F3*%
X25217500Y-54200000D02*
X25217500Y-48000000D01*
X25417500Y-48000000D02*
X25417500Y-54200000D01*
X25417500Y-48000000D02*
X27217500Y-48000000D01*
X25417500Y-54200000D02*
X27217500Y-54200000D01*
X30217500Y-48000000D02*
X35617500Y-48000000D01*
X30217500Y-54200000D02*
X35617500Y-54200000D01*
X38617500Y-48000000D02*
X48817500Y-48000000D01*
X38617500Y-54200000D02*
X48817500Y-54200000D01*
X50817500Y-48000000D02*
X57217500Y-48000000D01*
X50817500Y-54200000D02*
X57217500Y-54200000D01*
X59217500Y-48000000D02*
X61517500Y-48000000D01*
X59217500Y-54200000D02*
X61517500Y-54200000D01*
X61517500Y-54200000D02*
X61517500Y-48000000D01*
%TO.C,F2*%
X25217500Y-41500000D02*
X25217500Y-35300000D01*
X25417500Y-35300000D02*
X25417500Y-41500000D01*
X25417500Y-35300000D02*
X27217500Y-35300000D01*
X25417500Y-41500000D02*
X27217500Y-41500000D01*
X30217500Y-35300000D02*
X35617500Y-35300000D01*
X30217500Y-41500000D02*
X35617500Y-41500000D01*
X38617500Y-35300000D02*
X48817500Y-35300000D01*
X38617500Y-41500000D02*
X48817500Y-41500000D01*
X50817500Y-35300000D02*
X57217500Y-35300000D01*
X50817500Y-41500000D02*
X57217500Y-41500000D01*
X59217500Y-35300000D02*
X61517500Y-35300000D01*
X59217500Y-41500000D02*
X61517500Y-41500000D01*
X61517500Y-41500000D02*
X61517500Y-35300000D01*
%TD*%
M02*
