%TF.GenerationSoftware,KiCad,Pcbnew,9.0.4*%
%TF.CreationDate,2025-12-04T18:39:57-05:00*%
%TF.ProjectId,Slipring Board,536c6970-7269-46e6-9720-426f6172642e,rev?*%
%TF.SameCoordinates,Original*%
%TF.FileFunction,Soldermask,Bot*%
%TF.FilePolarity,Negative*%
%FSLAX46Y46*%
G04 Gerber Fmt 4.6, Leading zero omitted, Abs format (unit mm)*
G04 Created by KiCad (PCBNEW 9.0.4) date 2025-12-04 18:39:57*
%MOMM*%
%LPD*%
G01*
G04 APERTURE LIST*
G04 Aperture macros list*
%AMRoundRect*
0 Rectangle with rounded corners*
0 $1 Rounding radius*
0 $2 $3 $4 $5 $6 $7 $8 $9 X,Y pos of 4 corners*
0 Add a 4 corners polygon primitive as box body*
4,1,4,$2,$3,$4,$5,$6,$7,$8,$9,$2,$3,0*
0 Add four circle primitives for the rounded corners*
1,1,$1+$1,$2,$3*
1,1,$1+$1,$4,$5*
1,1,$1+$1,$6,$7*
1,1,$1+$1,$8,$9*
0 Add four rect primitives between the rounded corners*
20,1,$1+$1,$2,$3,$4,$5,0*
20,1,$1+$1,$4,$5,$6,$7,0*
20,1,$1+$1,$6,$7,$8,$9,0*
20,1,$1+$1,$8,$9,$2,$3,0*%
G04 Aperture macros list end*
%ADD10R,1.700000X1.700000*%
%ADD11C,1.700000*%
%ADD12RoundRect,0.102000X1.275000X-1.275000X1.275000X1.275000X-1.275000X1.275000X-1.275000X-1.275000X0*%
%ADD13C,2.754000*%
%ADD14C,1.712000*%
%ADD15RoundRect,0.102000X-0.654000X-0.654000X0.654000X-0.654000X0.654000X0.654000X-0.654000X0.654000X0*%
%ADD16C,1.512000*%
%ADD17RoundRect,0.102000X-0.825000X0.825000X-0.825000X-0.825000X0.825000X-0.825000X0.825000X0.825000X0*%
%ADD18C,1.854000*%
%ADD19C,4.220000*%
%ADD20RoundRect,2.400000X-0.600000X0.600000X-0.600000X-0.600000X0.600000X-0.600000X0.600000X0.600000X0*%
%ADD21RoundRect,2.400000X-0.600000X-0.600000X0.600000X-0.600000X0.600000X0.600000X-0.600000X0.600000X0*%
%ADD22C,6.000000*%
G04 APERTURE END LIST*
D10*
%TO.C,J8*%
X63725000Y-17000000D03*
D11*
X66265000Y-17000000D03*
X63725000Y-19540000D03*
X66265000Y-19540000D03*
X63725000Y-22080000D03*
X66265000Y-22080000D03*
X63725000Y-24620000D03*
X66265000Y-24620000D03*
X63725000Y-27160000D03*
X66265000Y-27160000D03*
X63725000Y-29700000D03*
X66265000Y-29700000D03*
X63725000Y-32240000D03*
X66265000Y-32240000D03*
X63725000Y-34780000D03*
X66265000Y-34780000D03*
X63725000Y-37320000D03*
X66265000Y-37320000D03*
X63725000Y-39860000D03*
X66265000Y-39860000D03*
X63725000Y-42400000D03*
X66265000Y-42400000D03*
X63725000Y-44940000D03*
X66265000Y-44940000D03*
X63725000Y-47480000D03*
X66265000Y-47480000D03*
X63725000Y-50020000D03*
X66265000Y-50020000D03*
X63725000Y-52560000D03*
X66265000Y-52560000D03*
X63725000Y-55100000D03*
X66265000Y-55100000D03*
X63725000Y-57640000D03*
X66265000Y-57640000D03*
X63725000Y-60180000D03*
X66265000Y-60180000D03*
%TD*%
D12*
%TO.C,J2*%
X23000000Y-37500000D03*
D13*
X23000000Y-42500000D03*
D14*
X18000000Y-34500000D03*
X18000000Y-45500000D03*
%TD*%
D15*
%TO.C,J7*%
X78000000Y-18550000D03*
D16*
X76000000Y-18550000D03*
X74000000Y-18550000D03*
X72000000Y-18550000D03*
%TD*%
D12*
%TO.C,J3*%
X22900000Y-55000000D03*
D13*
X22900000Y-60000000D03*
D14*
X17900000Y-52000000D03*
X17900000Y-63000000D03*
%TD*%
D10*
%TO.C,J9*%
X70520000Y-60200000D03*
D11*
X73060000Y-60200000D03*
X75600000Y-60200000D03*
X78140000Y-60200000D03*
X80680000Y-60200000D03*
%TD*%
D12*
%TO.C,J1*%
X23000000Y-20500000D03*
D13*
X23000000Y-25500000D03*
D14*
X18000000Y-17500000D03*
X18000000Y-28500000D03*
%TD*%
D17*
%TO.C,J5*%
X82362500Y-36900000D03*
D18*
X80412500Y-37525000D03*
X82362500Y-40300000D03*
X80412500Y-39675000D03*
D19*
X81862500Y-32350000D03*
X81862500Y-44850000D03*
%TD*%
D20*
%TO.C,F1*%
X28317500Y-19000000D03*
D21*
X36717500Y-19000000D03*
D22*
X49417500Y-19000000D03*
X57817500Y-19000000D03*
%TD*%
D20*
%TO.C,F3*%
X28717500Y-51100000D03*
D21*
X37117500Y-51100000D03*
D22*
X49817500Y-51100000D03*
X58217500Y-51100000D03*
%TD*%
D20*
%TO.C,F2*%
X28717500Y-38400000D03*
D21*
X37117500Y-38400000D03*
D22*
X49817500Y-38400000D03*
X58217500Y-38400000D03*
%TD*%
M02*
